ISO-10303-21;
HEADER;

/* File generated by HOOPS Exchange Version 24.2.0 */

FILE_DESCRIPTION(('HOOPS Exchange Step'),'2;1');

FILE_NAME('D:\\downloads\\captioncast\\captioncast\\enclosure\\exports\\v1\\BK_PNL.stp',
'2026-06-22T22:50:05+05:30',
('sushi'),
('Unknown organisation'),
'HOOPS Exchange 2024.2',
'HOOPS Exchange',
'Unknown authorisation');

FILE_SCHEMA( ('AP203_CONFIGURATION_CONTROLLED_3D_DESIGN_OF_MECHANICAL_PARTS_AND_ASSEMBLIES_MIM_LF') );

ENDSEC;

DATA;
#3=(NAMED_UNIT(*)PLANE_ANGLE_UNIT()SI_UNIT($,.RADIAN.));
#4=PLANE_ANGLE_MEASURE_WITH_UNIT(PLANE_ANGLE_MEASURE(0.0174532925),#3);
#5=(CONVERSION_BASED_UNIT('DEGREE',#4)NAMED_UNIT(#6)PLANE_ANGLE_UNIT());
#6=DIMENSIONAL_EXPONENTS(0.,0.,0.,0.,0.,0.,0.);
#7=(NAMED_UNIT(*)SI_UNIT($,.STERADIAN.)SOLID_ANGLE_UNIT());
#8=(LENGTH_UNIT()NAMED_UNIT(*)SI_UNIT(.MILLI.,.METRE.));
#9=UNCERTAINTY_MEASURE_WITH_UNIT(LENGTH_MEASURE(1.000000E-05),#8,'DISTANCE_ACCURACY_VALUE','Maximum Tolerance applied to model');
#10=(GEOMETRIC_REPRESENTATION_CONTEXT(3)GLOBAL_UNCERTAINTY_ASSIGNED_CONTEXT((#9))GLOBAL_UNIT_ASSIGNED_CONTEXT((#8,#5,#7))REPRESENTATION_CONTEXT('','root'));
#12=CARTESIAN_POINT('',(0.,0.,0.));
#13=DIRECTION('',(0.,0.,1.));
#14=DIRECTION('',(1.,0.,0.));
#15=AXIS2_PLACEMENT_3D('',#12,#13,#14);
#27=CARTESIAN_POINT('',(-14.411014298,185.453731571,10.008221135));
#28=DIRECTION('',(0.,-1.,0.));
#29=DIRECTION('',(1.,0.,0.));
#30=AXIS2_PLACEMENT_3D('',#27,#28,#29);
#31=CYLINDRICAL_SURFACE('',#30,3.78);
#32=CARTESIAN_POINT('',(-14.411014298,43.443183237,13.788221135));
#33=VERTEX_POINT('',#32);
#34=CARTESIAN_POINT('',(-14.411014298,43.443183237,6.228221135));
#35=VERTEX_POINT('',#34);
#36=CARTESIAN_POINT('',(-14.411014298,43.443183237,10.008221135));
#37=DIRECTION('',(-0.,-1.,0.));
#38=DIRECTION('',(0.,-0.,-1.));
#39=AXIS2_PLACEMENT_3D('',#36,#37,#38);
#40=CIRCLE('',#39,3.78);
#41=EDGE_CURVE('',#33,#35,#40,.T.);
#42=ORIENTED_EDGE('',*,*,#41,.F.);
#43=CARTESIAN_POINT('',(-14.411014298,42.191610158,13.788221135));
#44=VERTEX_POINT('',#43);
#45=CARTESIAN_POINT('',(-14.411014298,43.443183237,13.788221135));
#46=DIRECTION('',(0.,-1.,0.));
#47=VECTOR('',#46,1.251573079);
#48=LINE('',#45,#47);
#49=EDGE_CURVE('',#33,#44,#48,.T.);
#50=ORIENTED_EDGE('',*,*,#49,.T.);
#51=CARTESIAN_POINT('',(-14.411014298,42.191610158,6.228221135));
#52=VERTEX_POINT('',#51);
#53=CARTESIAN_POINT('',(-14.411014298,42.191610158,10.008221135));
#54=DIRECTION('',(-0.,-1.,0.));
#55=DIRECTION('',(1.,-0.,0.));
#56=AXIS2_PLACEMENT_3D('',#53,#54,#55);
#57=CIRCLE('',#56,3.78);
#58=EDGE_CURVE('',#44,#52,#57,.T.);
#59=ORIENTED_EDGE('',*,*,#58,.T.);
#60=CARTESIAN_POINT('',(-14.411014298,43.443183237,6.228221135));
#61=DIRECTION('',(-0.,-1.,-0.));
#62=VECTOR('',#61,1.251573079);
#63=LINE('',#60,#62);
#64=EDGE_CURVE('',#35,#52,#63,.T.);
#65=ORIENTED_EDGE('',*,*,#64,.F.);
#66=EDGE_LOOP('',(#42,#50,#59,#65));
#67=FACE_BOUND('',#66,.T.);
#68=ADVANCED_FACE('',(#67),#31,.F.);
#69=CARTESIAN_POINT('',(14.573736489,185.453731571,13.788221135));
#70=DIRECTION('',(-0.,0.,1.));
#71=DIRECTION('',(1.,0.,0.));
#72=AXIS2_PLACEMENT_3D('',#69,#70,#71);
#73=PLANE('',#72);
#74=CARTESIAN_POINT('',(14.573736489,43.443183237,13.788221135));
#75=VERTEX_POINT('',#74);
#76=CARTESIAN_POINT('',(14.573736489,43.443183237,13.788221135));
#77=DIRECTION('',(-1.,0.,-0.));
#78=VECTOR('',#77,28.984750787);
#79=LINE('',#76,#78);
#80=EDGE_CURVE('',#75,#33,#79,.T.);
#81=ORIENTED_EDGE('',*,*,#80,.F.);
#82=CARTESIAN_POINT('',(14.573736489,42.191610158,13.788221135));
#83=VERTEX_POINT('',#82);
#84=CARTESIAN_POINT('',(14.573736489,43.443183237,13.788221135));
#85=DIRECTION('',(-0.,-1.,0.));
#86=VECTOR('',#85,1.251573079);
#87=LINE('',#84,#86);
#88=EDGE_CURVE('',#75,#83,#87,.T.);
#89=ORIENTED_EDGE('',*,*,#88,.T.);
#90=CARTESIAN_POINT('',(14.573736489,42.191610158,13.788221135));
#91=DIRECTION('',(-1.,0.,-0.));
#92=VECTOR('',#91,28.984750787);
#93=LINE('',#90,#92);
#94=EDGE_CURVE('',#83,#44,#93,.T.);
#95=ORIENTED_EDGE('',*,*,#94,.T.);
#96=ORIENTED_EDGE('',*,*,#49,.F.);
#97=EDGE_LOOP('',(#81,#89,#95,#96));
#98=FACE_BOUND('',#97,.T.);
#99=ADVANCED_FACE('',(#98),#73,.F.);
#100=CARTESIAN_POINT('',(14.573736489,185.453731571,10.008221135));
#101=DIRECTION('',(0.,-1.,0.));
#102=DIRECTION('',(1.,0.,0.));
#103=AXIS2_PLACEMENT_3D('',#100,#101,#102);
#104=CYLINDRICAL_SURFACE('',#103,3.78);
#105=CARTESIAN_POINT('',(18.353736489,42.191610158,10.008221135));
#106=VERTEX_POINT('',#105);
#107=CARTESIAN_POINT('',(18.353736489,43.443183237,10.008221135));
#108=VERTEX_POINT('',#107);
#109=CARTESIAN_POINT('',(18.353736489,42.191610158,10.008221135));
#110=DIRECTION('',(-0.,1.,-0.));
#111=VECTOR('',#110,1.251573079);
#112=LINE('',#109,#111);
#113=EDGE_CURVE('',#106,#108,#112,.T.);
#114=ORIENTED_EDGE('',*,*,#113,.F.);
#115=CARTESIAN_POINT('',(14.573736489,42.191610158,10.008221135));
#116=DIRECTION('',(-0.,-1.,0.));
#117=DIRECTION('',(1.,-0.,0.));
#118=AXIS2_PLACEMENT_3D('',#115,#116,#117);
#119=CIRCLE('',#118,3.78);
#120=EDGE_CURVE('',#106,#83,#119,.T.);
#121=ORIENTED_EDGE('',*,*,#120,.T.);
#122=ORIENTED_EDGE('',*,*,#88,.F.);
#123=CARTESIAN_POINT('',(14.573736489,43.443183237,10.008221135));
#124=DIRECTION('',(0.,1.,-0.));
#125=DIRECTION('',(0.,-0.,-1.));
#126=AXIS2_PLACEMENT_3D('',#123,#124,#125);
#127=CIRCLE('',#126,3.78);
#128=EDGE_CURVE('',#75,#108,#127,.T.);
#129=ORIENTED_EDGE('',*,*,#128,.T.);
#130=EDGE_LOOP('',(#114,#121,#122,#129));
#131=FACE_BOUND('',#130,.T.);
#132=ADVANCED_FACE('',(#131),#104,.F.);
#133=CARTESIAN_POINT('',(-44.111178492,46.445871089,23.275080711));
#134=DIRECTION('',(1.,-0.,-0.));
#135=DIRECTION('',(0.,-0.,1.));
#136=AXIS2_PLACEMENT_3D('',#133,#134,#135);
#137=PLANE('',#136);
#138=CARTESIAN_POINT('',(-44.111178492,44.445871089,40.210015182));
#139=VERTEX_POINT('',#138);
#140=CARTESIAN_POINT('',(-44.111178492,42.191610158,40.210015182));
#141=VERTEX_POINT('',#140);
#142=CARTESIAN_POINT('',(-44.111178492,44.445871089,40.210015182));
#143=DIRECTION('',(-0.,-1.,0.));
#144=VECTOR('',#143,2.254260931);
#145=LINE('',#142,#144);
#146=EDGE_CURVE('',#139,#141,#145,.T.);
#147=ORIENTED_EDGE('',*,*,#146,.F.);
#148=CARTESIAN_POINT('',(-44.111178492,44.445871089,6.340146241));
#149=VERTEX_POINT('',#148);
#150=CARTESIAN_POINT('',(-44.111178492,44.445871089,40.210015182));
#151=DIRECTION('',(-0.,0.,-1.));
#152=VECTOR('',#151,33.869868941);
#153=LINE('',#150,#152);
#154=EDGE_CURVE('',#139,#149,#153,.T.);
#155=ORIENTED_EDGE('',*,*,#154,.T.);
#156=CARTESIAN_POINT('',(-44.111178492,42.191610158,6.340146241));
#157=VERTEX_POINT('',#156);
#158=CARTESIAN_POINT('',(-44.111178492,44.445871089,6.340146241));
#159=DIRECTION('',(-0.,-1.,0.));
#160=VECTOR('',#159,2.254260931);
#161=LINE('',#158,#160);
#162=EDGE_CURVE('',#149,#157,#161,.T.);
#163=ORIENTED_EDGE('',*,*,#162,.T.);
#164=CARTESIAN_POINT('',(-44.111178492,42.191610158,6.340146241));
#165=DIRECTION('',(0.,0.,1.));
#166=VECTOR('',#165,33.869868941);
#167=LINE('',#164,#166);
#168=EDGE_CURVE('',#157,#141,#167,.T.);
#169=ORIENTED_EDGE('',*,*,#168,.T.);
#170=EDGE_LOOP('',(#147,#155,#163,#169));
#171=FACE_BOUND('',#170,.T.);
#172=ADVANCED_FACE('',(#171),#137,.F.);
#173=CARTESIAN_POINT('',(-37.931178492,46.445871089,40.210015182));
#174=DIRECTION('',(-0.,-1.,0.));
#175=DIRECTION('',(0.,0.,1.));
#176=AXIS2_PLACEMENT_3D('',#173,#174,#175);
#177=CYLINDRICAL_SURFACE('',#176,6.18);
#178=CARTESIAN_POINT('',(-37.931178492,44.445871089,46.390015182));
#179=VERTEX_POINT('',#178);
#180=CARTESIAN_POINT('',(-37.931178492,42.191610158,46.390015182));
#181=VERTEX_POINT('',#180);
#182=CARTESIAN_POINT('',(-37.931178492,44.445871089,46.390015182));
#183=DIRECTION('',(-0.,-1.,0.));
#184=VECTOR('',#183,2.254260931);
#185=LINE('',#182,#184);
#186=EDGE_CURVE('',#179,#181,#185,.T.);
#187=ORIENTED_EDGE('',*,*,#186,.F.);
#188=CARTESIAN_POINT('',(-37.931178492,44.445871089,40.210015182));
#189=DIRECTION('',(0.,-1.,0.));
#190=DIRECTION('',(0.,0.,-1.));
#191=AXIS2_PLACEMENT_3D('',#188,#189,#190);
#192=CIRCLE('',#191,6.18);
#193=EDGE_CURVE('',#179,#139,#192,.T.);
#194=ORIENTED_EDGE('',*,*,#193,.T.);
#195=ORIENTED_EDGE('',*,*,#146,.T.);
#196=CARTESIAN_POINT('',(-37.931178492,42.191610158,40.210015182));
#197=DIRECTION('',(0.,1.,-0.));
#198=DIRECTION('',(1.,-0.,0.));
#199=AXIS2_PLACEMENT_3D('',#196,#197,#198);
#200=CIRCLE('',#199,6.18);
#201=EDGE_CURVE('',#141,#181,#200,.T.);
#202=ORIENTED_EDGE('',*,*,#201,.T.);
#203=EDGE_LOOP('',(#187,#194,#195,#202));
#204=FACE_BOUND('',#203,.T.);
#205=ADVANCED_FACE('',(#204),#177,.T.);
#206=CARTESIAN_POINT('',(-0.,46.445871089,46.390015182));
#207=DIRECTION('',(0.,0.,-1.));
#208=DIRECTION('',(1.,-0.,0.));
#209=AXIS2_PLACEMENT_3D('',#206,#207,#208);
#210=PLANE('',#209);
#211=CARTESIAN_POINT('',(37.931178492,44.445871089,46.390015182));
#212=VERTEX_POINT('',#211);
#213=CARTESIAN_POINT('',(37.931178492,42.191610158,46.390015182));
#214=VERTEX_POINT('',#213);
#215=CARTESIAN_POINT('',(37.931178492,44.445871089,46.390015182));
#216=DIRECTION('',(-0.,-1.,0.));
#217=VECTOR('',#216,2.254260931);
#218=LINE('',#215,#217);
#219=EDGE_CURVE('',#212,#214,#218,.T.);
#220=ORIENTED_EDGE('',*,*,#219,.F.);
#221=CARTESIAN_POINT('',(37.931178492,44.445871089,46.390015182));
#222=DIRECTION('',(-1.,0.,0.));
#223=VECTOR('',#222,75.862356984);
#224=LINE('',#221,#223);
#225=EDGE_CURVE('',#212,#179,#224,.T.);
#226=ORIENTED_EDGE('',*,*,#225,.T.);
#227=ORIENTED_EDGE('',*,*,#186,.T.);
#228=CARTESIAN_POINT('',(-37.931178492,42.191610158,46.390015182));
#229=DIRECTION('',(1.,-0.,0.));
#230=VECTOR('',#229,75.862356984);
#231=LINE('',#228,#230);
#232=EDGE_CURVE('',#181,#214,#231,.T.);
#233=ORIENTED_EDGE('',*,*,#232,.T.);
#234=EDGE_LOOP('',(#220,#226,#227,#233));
#235=FACE_BOUND('',#234,.T.);
#236=ADVANCED_FACE('',(#235),#210,.F.);
#237=CARTESIAN_POINT('',(37.931178492,46.445871089,40.210015182));
#238=DIRECTION('',(-0.,-1.,0.));
#239=DIRECTION('',(0.,0.,1.));
#240=AXIS2_PLACEMENT_3D('',#237,#238,#239);
#241=CYLINDRICAL_SURFACE('',#240,6.18);
#242=CARTESIAN_POINT('',(44.111178492,44.445871089,40.210015182));
#243=VERTEX_POINT('',#242);
#244=CARTESIAN_POINT('',(44.111178492,42.191610158,40.210015182));
#245=VERTEX_POINT('',#244);
#246=CARTESIAN_POINT('',(44.111178492,44.445871089,40.210015182));
#247=DIRECTION('',(-0.,-1.,0.));
#248=VECTOR('',#247,2.254260931);
#249=LINE('',#246,#248);
#250=EDGE_CURVE('',#243,#245,#249,.T.);
#251=ORIENTED_EDGE('',*,*,#250,.F.);
#252=CARTESIAN_POINT('',(37.931178492,44.445871089,40.210015182));
#253=DIRECTION('',(0.,-1.,0.));
#254=DIRECTION('',(0.,0.,-1.));
#255=AXIS2_PLACEMENT_3D('',#252,#253,#254);
#256=CIRCLE('',#255,6.18);
#257=EDGE_CURVE('',#243,#212,#256,.T.);
#258=ORIENTED_EDGE('',*,*,#257,.T.);
#259=ORIENTED_EDGE('',*,*,#219,.T.);
#260=CARTESIAN_POINT('',(37.931178492,42.191610158,40.210015182));
#261=DIRECTION('',(0.,1.,-0.));
#262=DIRECTION('',(1.,-0.,0.));
#263=AXIS2_PLACEMENT_3D('',#260,#261,#262);
#264=CIRCLE('',#263,6.18);
#265=EDGE_CURVE('',#214,#245,#264,.T.);
#266=ORIENTED_EDGE('',*,*,#265,.T.);
#267=EDGE_LOOP('',(#251,#258,#259,#266));
#268=FACE_BOUND('',#267,.T.);
#269=ADVANCED_FACE('',(#268),#241,.T.);
#270=CARTESIAN_POINT('',(44.111178492,46.445871089,23.275080711));
#271=DIRECTION('',(-1.,0.,0.));
#272=DIRECTION('',(-0.,0.,-1.));
#273=AXIS2_PLACEMENT_3D('',#270,#271,#272);
#274=PLANE('',#273);
#275=CARTESIAN_POINT('',(44.111178492,44.445871089,6.340146241));
#276=VERTEX_POINT('',#275);
#277=CARTESIAN_POINT('',(44.111178492,42.191610158,6.340146241));
#278=VERTEX_POINT('',#277);
#279=CARTESIAN_POINT('',(44.111178492,44.445871089,6.340146241));
#280=DIRECTION('',(-0.,-1.,0.));
#281=VECTOR('',#280,2.254260931);
#282=LINE('',#279,#281);
#283=EDGE_CURVE('',#276,#278,#282,.T.);
#284=ORIENTED_EDGE('',*,*,#283,.F.);
#285=CARTESIAN_POINT('',(44.111178492,44.445871089,6.340146241));
#286=DIRECTION('',(0.,0.,1.));
#287=VECTOR('',#286,33.869868941);
#288=LINE('',#285,#287);
#289=EDGE_CURVE('',#276,#243,#288,.T.);
#290=ORIENTED_EDGE('',*,*,#289,.T.);
#291=ORIENTED_EDGE('',*,*,#250,.T.);
#292=CARTESIAN_POINT('',(44.111178492,42.191610158,40.210015182));
#293=DIRECTION('',(-0.,-0.,-1.));
#294=VECTOR('',#293,33.869868941);
#295=LINE('',#292,#294);
#296=EDGE_CURVE('',#245,#278,#295,.T.);
#297=ORIENTED_EDGE('',*,*,#296,.T.);
#298=EDGE_LOOP('',(#284,#290,#291,#297));
#299=FACE_BOUND('',#298,.T.);
#300=ADVANCED_FACE('',(#299),#274,.F.);
#301=CARTESIAN_POINT('',(37.931178492,46.445871089,6.340146241));
#302=DIRECTION('',(-0.,-1.,0.));
#303=DIRECTION('',(0.,0.,1.));
#304=AXIS2_PLACEMENT_3D('',#301,#302,#303);
#305=CYLINDRICAL_SURFACE('',#304,6.18);
#306=CARTESIAN_POINT('',(37.931178492,44.445871089,0.160146241));
#307=VERTEX_POINT('',#306);
#308=CARTESIAN_POINT('',(37.931178492,42.191610158,0.160146241));
#309=VERTEX_POINT('',#308);
#310=CARTESIAN_POINT('',(37.931178492,44.445871089,0.160146241));
#311=DIRECTION('',(-0.,-1.,0.));
#312=VECTOR('',#311,2.254260931);
#313=LINE('',#310,#312);
#314=EDGE_CURVE('',#307,#309,#313,.T.);
#315=ORIENTED_EDGE('',*,*,#314,.F.);
#316=CARTESIAN_POINT('',(37.931178492,44.445871089,6.340146241));
#317=DIRECTION('',(0.,-1.,0.));
#318=DIRECTION('',(0.,0.,-1.));
#319=AXIS2_PLACEMENT_3D('',#316,#317,#318);
#320=CIRCLE('',#319,6.18);
#321=EDGE_CURVE('',#307,#276,#320,.T.);
#322=ORIENTED_EDGE('',*,*,#321,.T.);
#323=ORIENTED_EDGE('',*,*,#283,.T.);
#324=CARTESIAN_POINT('',(37.931178492,42.191610158,6.340146241));
#325=DIRECTION('',(0.,1.,-0.));
#326=DIRECTION('',(1.,-0.,0.));
#327=AXIS2_PLACEMENT_3D('',#324,#325,#326);
#328=CIRCLE('',#327,6.18);
#329=EDGE_CURVE('',#278,#309,#328,.T.);
#330=ORIENTED_EDGE('',*,*,#329,.T.);
#331=EDGE_LOOP('',(#315,#322,#323,#330));
#332=FACE_BOUND('',#331,.T.);
#333=ADVANCED_FACE('',(#332),#305,.T.);
#334=CARTESIAN_POINT('',(-0.,46.445871089,0.160146241));
#335=DIRECTION('',(0.,0.,1.));
#336=DIRECTION('',(-1.,0.,0.));
#337=AXIS2_PLACEMENT_3D('',#334,#335,#336);
#338=PLANE('',#337);
#339=CARTESIAN_POINT('',(-37.931178492,44.445871089,0.160146241));
#340=VERTEX_POINT('',#339);
#341=CARTESIAN_POINT('',(-37.931178492,42.191610158,0.160146241));
#342=VERTEX_POINT('',#341);
#343=CARTESIAN_POINT('',(-37.931178492,44.445871089,0.160146241));
#344=DIRECTION('',(-0.,-1.,0.));
#345=VECTOR('',#344,2.254260931);
#346=LINE('',#343,#345);
#347=EDGE_CURVE('',#340,#342,#346,.T.);
#348=ORIENTED_EDGE('',*,*,#347,.F.);
#349=CARTESIAN_POINT('',(-37.931178492,44.445871089,0.160146241));
#350=DIRECTION('',(1.,0.,-0.));
#351=VECTOR('',#350,75.862356984);
#352=LINE('',#349,#351);
#353=EDGE_CURVE('',#340,#307,#352,.T.);
#354=ORIENTED_EDGE('',*,*,#353,.T.);
#355=ORIENTED_EDGE('',*,*,#314,.T.);
#356=CARTESIAN_POINT('',(37.931178492,42.191610158,0.160146241));
#357=DIRECTION('',(-1.,0.,0.));
#358=VECTOR('',#357,75.862356984);
#359=LINE('',#356,#358);
#360=EDGE_CURVE('',#309,#342,#359,.T.);
#361=ORIENTED_EDGE('',*,*,#360,.T.);
#362=EDGE_LOOP('',(#348,#354,#355,#361));
#363=FACE_BOUND('',#362,.T.);
#364=ADVANCED_FACE('',(#363),#338,.F.);
#365=CARTESIAN_POINT('',(-37.931178492,46.445871089,6.340146241));
#366=DIRECTION('',(-0.,-1.,0.));
#367=DIRECTION('',(0.,0.,1.));
#368=AXIS2_PLACEMENT_3D('',#365,#366,#367);
#369=CYLINDRICAL_SURFACE('',#368,6.18);
#370=ORIENTED_EDGE('',*,*,#162,.F.);
#371=CARTESIAN_POINT('',(-37.931178492,44.445871089,6.340146241));
#372=DIRECTION('',(0.,-1.,0.));
#373=DIRECTION('',(0.,0.,-1.));
#374=AXIS2_PLACEMENT_3D('',#371,#372,#373);
#375=CIRCLE('',#374,6.18);
#376=EDGE_CURVE('',#149,#340,#375,.T.);
#377=ORIENTED_EDGE('',*,*,#376,.T.);
#378=ORIENTED_EDGE('',*,*,#347,.T.);
#379=CARTESIAN_POINT('',(-37.931178492,42.191610158,6.340146241));
#380=DIRECTION('',(0.,1.,-0.));
#381=DIRECTION('',(1.,-0.,0.));
#382=AXIS2_PLACEMENT_3D('',#379,#380,#381);
#383=CIRCLE('',#382,6.18);
#384=EDGE_CURVE('',#342,#157,#383,.T.);
#385=ORIENTED_EDGE('',*,*,#384,.T.);
#386=EDGE_LOOP('',(#370,#377,#378,#385));
#387=FACE_BOUND('',#386,.T.);
#388=ADVANCED_FACE('',(#387),#369,.T.);
#389=CARTESIAN_POINT('',(-37.340831973,202.251250808,30.858500248));
#390=DIRECTION('',(-0.,-1.,0.));
#391=DIRECTION('',(1.,-0.,0.));
#392=AXIS2_PLACEMENT_3D('',#389,#390,#391);
#393=CYLINDRICAL_SURFACE('',#392,1.54979687);
#394=CARTESIAN_POINT('',(-35.791035102,42.191610158,30.858500248));
#395=VERTEX_POINT('',#394);
#396=CARTESIAN_POINT('',(-35.791035102,44.445871089,30.858500248));
#397=VERTEX_POINT('',#396);
#398=CARTESIAN_POINT('',(-35.791035102,42.191610158,30.858500248));
#399=DIRECTION('',(0.,1.,-0.));
#400=VECTOR('',#399,2.254260931);
#401=LINE('',#398,#400);
#402=EDGE_CURVE('',#395,#397,#401,.T.);
#403=ORIENTED_EDGE('',*,*,#402,.F.);
#404=CARTESIAN_POINT('',(-37.340831973,42.191610158,30.858500248));
#405=DIRECTION('',(-0.,-1.,0.));
#406=DIRECTION('',(1.,-0.,0.));
#407=AXIS2_PLACEMENT_3D('',#404,#405,#406);
#408=CIRCLE('',#407,1.54979687);
#409=EDGE_CURVE('',#395,#395,#408,.T.);
#410=ORIENTED_EDGE('',*,*,#409,.T.);
#411=ORIENTED_EDGE('',*,*,#402,.T.);
#412=CARTESIAN_POINT('',(-37.340831973,44.445871089,29.308703377));
#413=VERTEX_POINT('',#412);
#414=CARTESIAN_POINT('',(-37.340831973,44.445871089,30.858500248));
#415=DIRECTION('',(-0.,1.,-0.));
#416=DIRECTION('',(0.,0.,-1.));
#417=AXIS2_PLACEMENT_3D('',#414,#415,#416);
#418=CIRCLE('',#417,1.54979687);
#419=EDGE_CURVE('',#397,#413,#418,.T.);
#420=ORIENTED_EDGE('',*,*,#419,.T.);
#421=CARTESIAN_POINT('',(-37.340831973,44.445871089,30.858500248));
#422=DIRECTION('',(-0.,1.,-0.));
#423=DIRECTION('',(0.,0.,-1.));
#424=AXIS2_PLACEMENT_3D('',#421,#422,#423);
#425=CIRCLE('',#424,1.54979687);
#426=EDGE_CURVE('',#413,#397,#425,.T.);
#427=ORIENTED_EDGE('',*,*,#426,.T.);
#428=EDGE_LOOP('',(#403,#410,#411,#420,#427));
#429=FACE_BOUND('',#428,.T.);
#430=ADVANCED_FACE('',(#429),#393,.F.);
#431=CARTESIAN_POINT('',(37.340831973,202.509440084,15.821441755));
#432=DIRECTION('',(-0.,-1.,0.));
#433=DIRECTION('',(1.,-0.,0.));
#434=AXIS2_PLACEMENT_3D('',#431,#432,#433);
#435=CYLINDRICAL_SURFACE('',#434,1.54979687);
#436=CARTESIAN_POINT('',(38.890628843,42.191610158,15.821441755));
#437=VERTEX_POINT('',#436);
#438=CARTESIAN_POINT('',(38.890628843,44.445871089,15.821441755));
#439=VERTEX_POINT('',#438);
#440=CARTESIAN_POINT('',(38.890628843,42.191610158,15.821441755));
#441=DIRECTION('',(0.,1.,-0.));
#442=VECTOR('',#441,2.254260931);
#443=LINE('',#440,#442);
#444=EDGE_CURVE('',#437,#439,#443,.T.);
#445=ORIENTED_EDGE('',*,*,#444,.F.);
#446=CARTESIAN_POINT('',(37.340831973,42.191610158,15.821441755));
#447=DIRECTION('',(-0.,-1.,0.));
#448=DIRECTION('',(1.,-0.,0.));
#449=AXIS2_PLACEMENT_3D('',#446,#447,#448);
#450=CIRCLE('',#449,1.54979687);
#451=EDGE_CURVE('',#437,#437,#450,.T.);
#452=ORIENTED_EDGE('',*,*,#451,.T.);
#453=ORIENTED_EDGE('',*,*,#444,.T.);
#454=CARTESIAN_POINT('',(37.340831973,44.445871089,14.271644884));
#455=VERTEX_POINT('',#454);
#456=CARTESIAN_POINT('',(37.340831973,44.445871089,15.821441755));
#457=DIRECTION('',(-0.,1.,-0.));
#458=DIRECTION('',(0.,0.,-1.));
#459=AXIS2_PLACEMENT_3D('',#456,#457,#458);
#460=CIRCLE('',#459,1.54979687);
#461=EDGE_CURVE('',#439,#455,#460,.T.);
#462=ORIENTED_EDGE('',*,*,#461,.T.);
#463=CARTESIAN_POINT('',(37.340831973,44.445871089,15.821441755));
#464=DIRECTION('',(-0.,1.,-0.));
#465=DIRECTION('',(0.,0.,-1.));
#466=AXIS2_PLACEMENT_3D('',#463,#464,#465);
#467=CIRCLE('',#466,1.54979687);
#468=EDGE_CURVE('',#455,#439,#467,.T.);
#469=ORIENTED_EDGE('',*,*,#468,.T.);
#470=EDGE_LOOP('',(#445,#452,#453,#462,#469));
#471=FACE_BOUND('',#470,.T.);
#472=ADVANCED_FACE('',(#471),#435,.F.);
#473=CARTESIAN_POINT('',(37.340831973,195.075144096,30.858500248));
#474=DIRECTION('',(-0.,-1.,0.));
#475=DIRECTION('',(1.,-0.,0.));
#476=AXIS2_PLACEMENT_3D('',#473,#474,#475);
#477=CYLINDRICAL_SURFACE('',#476,1.54979687);
#478=CARTESIAN_POINT('',(38.890628843,42.191610158,30.858500248));
#479=VERTEX_POINT('',#478);
#480=CARTESIAN_POINT('',(38.890628843,44.445871089,30.858500248));
#481=VERTEX_POINT('',#480);
#482=CARTESIAN_POINT('',(38.890628843,42.191610158,30.858500248));
#483=DIRECTION('',(0.,1.,-0.));
#484=VECTOR('',#483,2.254260931);
#485=LINE('',#482,#484);
#486=EDGE_CURVE('',#479,#481,#485,.T.);
#487=ORIENTED_EDGE('',*,*,#486,.F.);
#488=CARTESIAN_POINT('',(37.340831973,42.191610158,30.858500248));
#489=DIRECTION('',(-0.,-1.,0.));
#490=DIRECTION('',(1.,-0.,0.));
#491=AXIS2_PLACEMENT_3D('',#488,#489,#490);
#492=CIRCLE('',#491,1.54979687);
#493=EDGE_CURVE('',#479,#479,#492,.T.);
#494=ORIENTED_EDGE('',*,*,#493,.T.);
#495=ORIENTED_EDGE('',*,*,#486,.T.);
#496=CARTESIAN_POINT('',(37.340831973,44.445871089,29.308703377));
#497=VERTEX_POINT('',#496);
#498=CARTESIAN_POINT('',(37.340831973,44.445871089,30.858500248));
#499=DIRECTION('',(-0.,1.,-0.));
#500=DIRECTION('',(0.,0.,-1.));
#501=AXIS2_PLACEMENT_3D('',#498,#499,#500);
#502=CIRCLE('',#501,1.54979687);
#503=EDGE_CURVE('',#481,#497,#502,.T.);
#504=ORIENTED_EDGE('',*,*,#503,.T.);
#505=CARTESIAN_POINT('',(37.340831973,44.445871089,30.858500248));
#506=DIRECTION('',(-0.,1.,-0.));
#507=DIRECTION('',(0.,0.,-1.));
#508=AXIS2_PLACEMENT_3D('',#505,#506,#507);
#509=CIRCLE('',#508,1.54979687);
#510=EDGE_CURVE('',#497,#481,#509,.T.);
#511=ORIENTED_EDGE('',*,*,#510,.T.);
#512=EDGE_LOOP('',(#487,#494,#495,#504,#511));
#513=FACE_BOUND('',#512,.T.);
#514=ADVANCED_FACE('',(#513),#477,.F.);
#515=CARTESIAN_POINT('',(-0.,42.191610158,23.275080711));
#516=DIRECTION('',(-0.,-1.,0.));
#517=DIRECTION('',(0.,0.,1.));
#518=AXIS2_PLACEMENT_3D('',#515,#516,#517);
#519=PLANE('',#518);
#520=CARTESIAN_POINT('',(14.573736489,42.191610158,6.228221135));
#521=VERTEX_POINT('',#520);
#522=CARTESIAN_POINT('',(14.573736489,42.191610158,6.228221135));
#523=DIRECTION('',(-1.,0.,0.));
#524=VECTOR('',#523,28.984750787);
#525=LINE('',#522,#524);
#526=EDGE_CURVE('',#521,#52,#525,.T.);
#527=ORIENTED_EDGE('',*,*,#526,.T.);
#528=ORIENTED_EDGE('',*,*,#58,.F.);
#529=ORIENTED_EDGE('',*,*,#94,.F.);
#530=ORIENTED_EDGE('',*,*,#120,.F.);
#531=CARTESIAN_POINT('',(14.573736489,42.191610158,10.008221135));
#532=DIRECTION('',(-0.,-1.,0.));
#533=DIRECTION('',(1.,-0.,0.));
#534=AXIS2_PLACEMENT_3D('',#531,#532,#533);
#535=CIRCLE('',#534,3.78);
#536=EDGE_CURVE('',#521,#106,#535,.T.);
#537=ORIENTED_EDGE('',*,*,#536,.F.);
#538=EDGE_LOOP('',(#527,#528,#529,#530,#537));
#539=FACE_BOUND('',#538,.T.);
#540=ORIENTED_EDGE('',*,*,#493,.F.);
#541=EDGE_LOOP('',(#540));
#542=FACE_BOUND('',#541,.T.);
#543=ORIENTED_EDGE('',*,*,#451,.F.);
#544=EDGE_LOOP('',(#543));
#545=FACE_BOUND('',#544,.T.);
#546=CARTESIAN_POINT('',(-35.791035102,42.191610158,15.821441755));
#547=VERTEX_POINT('',#546);
#548=CARTESIAN_POINT('',(-37.340831973,42.191610158,15.821441755));
#549=DIRECTION('',(-0.,-1.,0.));
#550=DIRECTION('',(1.,-0.,0.));
#551=AXIS2_PLACEMENT_3D('',#548,#549,#550);
#552=CIRCLE('',#551,1.54979687);
#553=EDGE_CURVE('',#547,#547,#552,.T.);
#554=ORIENTED_EDGE('',*,*,#553,.F.);
#555=EDGE_LOOP('',(#554));
#556=FACE_BOUND('',#555,.T.);
#557=ORIENTED_EDGE('',*,*,#409,.F.);
#558=EDGE_LOOP('',(#557));
#559=FACE_BOUND('',#558,.T.);
#560=ORIENTED_EDGE('',*,*,#329,.F.);
#561=ORIENTED_EDGE('',*,*,#296,.F.);
#562=ORIENTED_EDGE('',*,*,#265,.F.);
#563=ORIENTED_EDGE('',*,*,#232,.F.);
#564=ORIENTED_EDGE('',*,*,#201,.F.);
#565=ORIENTED_EDGE('',*,*,#168,.F.);
#566=ORIENTED_EDGE('',*,*,#384,.F.);
#567=ORIENTED_EDGE('',*,*,#360,.F.);
#568=EDGE_LOOP('',(#560,#561,#562,#563,#564,#565,#566,#567));
#569=FACE_BOUND('',#568,.T.);
#570=ADVANCED_FACE('',(#539,#542,#545,#556,#559,#569),#519,.T.);
#571=CARTESIAN_POINT('',(-37.340831973,194.763739977,15.821441755));
#572=DIRECTION('',(-0.,-1.,0.));
#573=DIRECTION('',(1.,-0.,0.));
#574=AXIS2_PLACEMENT_3D('',#571,#572,#573);
#575=CYLINDRICAL_SURFACE('',#574,1.54979687);
#576=CARTESIAN_POINT('',(-35.791035102,44.445871089,15.821441755));
#577=VERTEX_POINT('',#576);
#578=CARTESIAN_POINT('',(-35.791035102,42.191610158,15.821441755));
#579=DIRECTION('',(0.,1.,-0.));
#580=VECTOR('',#579,2.254260931);
#581=LINE('',#578,#580);
#582=EDGE_CURVE('',#547,#577,#581,.T.);
#583=ORIENTED_EDGE('',*,*,#582,.F.);
#584=ORIENTED_EDGE('',*,*,#553,.T.);
#585=ORIENTED_EDGE('',*,*,#582,.T.);
#586=CARTESIAN_POINT('',(-37.340831973,44.445871089,14.271644884));
#587=VERTEX_POINT('',#586);
#588=CARTESIAN_POINT('',(-37.340831973,44.445871089,15.821441755));
#589=DIRECTION('',(-0.,1.,-0.));
#590=DIRECTION('',(0.,0.,-1.));
#591=AXIS2_PLACEMENT_3D('',#588,#589,#590);
#592=CIRCLE('',#591,1.54979687);
#593=EDGE_CURVE('',#577,#587,#592,.T.);
#594=ORIENTED_EDGE('',*,*,#593,.T.);
#595=CARTESIAN_POINT('',(-37.340831973,44.445871089,15.821441755));
#596=DIRECTION('',(-0.,1.,-0.));
#597=DIRECTION('',(0.,0.,-1.));
#598=AXIS2_PLACEMENT_3D('',#595,#596,#597);
#599=CIRCLE('',#598,1.54979687);
#600=EDGE_CURVE('',#587,#577,#599,.T.);
#601=ORIENTED_EDGE('',*,*,#600,.T.);
#602=EDGE_LOOP('',(#583,#584,#585,#594,#601));
#603=FACE_BOUND('',#602,.T.);
#604=ADVANCED_FACE('',(#603),#575,.F.);
#605=CARTESIAN_POINT('',(-9.173143145,-69.506242103,6.228221135));
#606=DIRECTION('',(0.,0.,1.));
#607=DIRECTION('',(1.,0.,0.));
#608=AXIS2_PLACEMENT_3D('',#605,#606,#607);
#609=PLANE('',#608);
#610=CARTESIAN_POINT('',(14.573736489,43.443183237,6.228221135));
#611=VERTEX_POINT('',#610);
#612=CARTESIAN_POINT('',(14.573736489,43.443183237,6.228221135));
#613=DIRECTION('',(0.,-1.,0.));
#614=VECTOR('',#613,1.251573079);
#615=LINE('',#612,#614);
#616=EDGE_CURVE('',#611,#521,#615,.T.);
#617=ORIENTED_EDGE('',*,*,#616,.F.);
#618=CARTESIAN_POINT('',(-14.411014298,43.443183237,6.228221135));
#619=DIRECTION('',(1.,-0.,0.));
#620=VECTOR('',#619,28.984750787);
#621=LINE('',#618,#620);
#622=EDGE_CURVE('',#35,#611,#621,.T.);
#623=ORIENTED_EDGE('',*,*,#622,.F.);
#624=ORIENTED_EDGE('',*,*,#64,.T.);
#625=ORIENTED_EDGE('',*,*,#526,.F.);
#626=EDGE_LOOP('',(#617,#623,#624,#625));
#627=FACE_BOUND('',#626,.T.);
#628=ADVANCED_FACE('',(#627),#609,.T.);
#629=CARTESIAN_POINT('',(14.573736489,60.993940984,10.008221135));
#630=DIRECTION('',(0.,-1.,0.));
#631=DIRECTION('',(1.,0.,0.));
#632=AXIS2_PLACEMENT_3D('',#629,#630,#631);
#633=CYLINDRICAL_SURFACE('',#632,1.54979687);
#634=CARTESIAN_POINT('',(16.123533359,43.443183237,10.008221135));
#635=VERTEX_POINT('',#634);
#636=CARTESIAN_POINT('',(16.123533359,44.445871089,10.008221135));
#637=VERTEX_POINT('',#636);
#638=CARTESIAN_POINT('',(16.123533359,43.443183237,10.008221135));
#639=DIRECTION('',(-0.,1.,-0.));
#640=VECTOR('',#639,1.002687852);
#641=LINE('',#638,#640);
#642=EDGE_CURVE('',#635,#637,#641,.T.);
#643=ORIENTED_EDGE('',*,*,#642,.F.);
#644=CARTESIAN_POINT('',(14.573736489,43.443183237,8.458424264));
#645=VERTEX_POINT('',#644);
#646=CARTESIAN_POINT('',(14.573736489,43.443183237,10.008221135));
#647=DIRECTION('',(0.,1.,-0.));
#648=DIRECTION('',(0.,-0.,-1.));
#649=AXIS2_PLACEMENT_3D('',#646,#647,#648);
#650=CIRCLE('',#649,1.54979687);
#651=EDGE_CURVE('',#645,#635,#650,.T.);
#652=ORIENTED_EDGE('',*,*,#651,.F.);
#653=CARTESIAN_POINT('',(14.573736489,43.443183237,10.008221135));
#654=DIRECTION('',(0.,1.,-0.));
#655=DIRECTION('',(0.,-0.,-1.));
#656=AXIS2_PLACEMENT_3D('',#653,#654,#655);
#657=CIRCLE('',#656,1.54979687);
#658=EDGE_CURVE('',#635,#645,#657,.T.);
#659=ORIENTED_EDGE('',*,*,#658,.F.);
#660=ORIENTED_EDGE('',*,*,#642,.T.);
#661=CARTESIAN_POINT('',(14.573736489,44.445871089,8.458424264));
#662=VERTEX_POINT('',#661);
#663=CARTESIAN_POINT('',(14.573736489,44.445871089,10.008221135));
#664=DIRECTION('',(-0.,1.,-0.));
#665=DIRECTION('',(0.,0.,-1.));
#666=AXIS2_PLACEMENT_3D('',#663,#664,#665);
#667=CIRCLE('',#666,1.54979687);
#668=EDGE_CURVE('',#637,#662,#667,.T.);
#669=ORIENTED_EDGE('',*,*,#668,.T.);
#670=CARTESIAN_POINT('',(14.573736489,44.445871089,10.008221135));
#671=DIRECTION('',(-0.,1.,-0.));
#672=DIRECTION('',(0.,0.,-1.));
#673=AXIS2_PLACEMENT_3D('',#670,#671,#672);
#674=CIRCLE('',#673,1.54979687);
#675=EDGE_CURVE('',#662,#637,#674,.T.);
#676=ORIENTED_EDGE('',*,*,#675,.T.);
#677=EDGE_LOOP('',(#643,#652,#659,#660,#669,#676));
#678=FACE_BOUND('',#677,.T.);
#679=ADVANCED_FACE('',(#678),#633,.F.);
#680=CARTESIAN_POINT('',(-14.411014298,60.993940984,10.008221135));
#681=DIRECTION('',(-0.,-1.,0.));
#682=DIRECTION('',(-1.,0.,0.));
#683=AXIS2_PLACEMENT_3D('',#680,#681,#682);
#684=CYLINDRICAL_SURFACE('',#683,1.54979687);
#685=CARTESIAN_POINT('',(-15.960811168,43.443183237,10.008221135));
#686=VERTEX_POINT('',#685);
#687=CARTESIAN_POINT('',(-15.960811168,44.445871089,10.008221135));
#688=VERTEX_POINT('',#687);
#689=CARTESIAN_POINT('',(-15.960811168,43.443183237,10.008221135));
#690=DIRECTION('',(0.,1.,-0.));
#691=VECTOR('',#690,1.002687852);
#692=LINE('',#689,#691);
#693=EDGE_CURVE('',#686,#688,#692,.T.);
#694=ORIENTED_EDGE('',*,*,#693,.F.);
#695=CARTESIAN_POINT('',(-14.411014298,43.443183237,8.458424264));
#696=VERTEX_POINT('',#695);
#697=CARTESIAN_POINT('',(-14.411014298,43.443183237,10.008221135));
#698=DIRECTION('',(-0.,-1.,0.));
#699=DIRECTION('',(-0.,-0.,-1.));
#700=AXIS2_PLACEMENT_3D('',#697,#698,#699);
#701=CIRCLE('',#700,1.54979687);
#702=EDGE_CURVE('',#686,#696,#701,.T.);
#703=ORIENTED_EDGE('',*,*,#702,.T.);
#704=CARTESIAN_POINT('',(-14.411014298,43.443183237,10.008221135));
#705=DIRECTION('',(-0.,-1.,0.));
#706=DIRECTION('',(-0.,-0.,-1.));
#707=AXIS2_PLACEMENT_3D('',#704,#705,#706);
#708=CIRCLE('',#707,1.54979687);
#709=EDGE_CURVE('',#696,#686,#708,.T.);
#710=ORIENTED_EDGE('',*,*,#709,.T.);
#711=ORIENTED_EDGE('',*,*,#693,.T.);
#712=CARTESIAN_POINT('',(-14.411014298,44.445871089,8.458424264));
#713=VERTEX_POINT('',#712);
#714=CARTESIAN_POINT('',(-14.411014298,44.445871089,10.008221135));
#715=DIRECTION('',(-0.,1.,-0.));
#716=DIRECTION('',(0.,0.,-1.));
#717=AXIS2_PLACEMENT_3D('',#714,#715,#716);
#718=CIRCLE('',#717,1.54979687);
#719=EDGE_CURVE('',#688,#713,#718,.T.);
#720=ORIENTED_EDGE('',*,*,#719,.T.);
#721=CARTESIAN_POINT('',(-14.411014298,44.445871089,10.008221135));
#722=DIRECTION('',(-0.,1.,-0.));
#723=DIRECTION('',(0.,0.,-1.));
#724=AXIS2_PLACEMENT_3D('',#721,#722,#723);
#725=CIRCLE('',#724,1.54979687);
#726=EDGE_CURVE('',#713,#688,#725,.T.);
#727=ORIENTED_EDGE('',*,*,#726,.T.);
#728=EDGE_LOOP('',(#694,#703,#710,#711,#720,#727));
#729=FACE_BOUND('',#728,.T.);
#730=ADVANCED_FACE('',(#729),#684,.F.);
#731=CARTESIAN_POINT('',(9.261335682,43.443183237,12.608221135));
#732=DIRECTION('',(-0.,-1.,0.));
#733=DIRECTION('',(-0.,0.,1.));
#734=AXIS2_PLACEMENT_3D('',#731,#732,#733);
#735=PLANE('',#734);
#736=CARTESIAN_POINT('',(4.729797732,43.443183237,10.311582667));
#737=VERTEX_POINT('',#736);
#738=CARTESIAN_POINT('',(3.274612766,43.443183237,11.766767633));
#739=VERTEX_POINT('',#738);
#740=CARTESIAN_POINT('',(3.274612766,43.443183237,10.311582667));
#741=DIRECTION('',(-0.,-1.,0.));
#742=DIRECTION('',(0.,0.,1.));
#743=AXIS2_PLACEMENT_3D('',#740,#741,#742);
#744=CIRCLE('',#743,1.455184966);
#745=EDGE_CURVE('',#737,#739,#744,.T.);
#746=ORIENTED_EDGE('',*,*,#745,.F.);
#747=CARTESIAN_POINT('',(4.729796398,43.443183237,9.692289471));
#748=VERTEX_POINT('',#747);
#749=CARTESIAN_POINT('',(4.729796398,43.443183237,9.692289471));
#750=DIRECTION('',(0.,0.,1.));
#751=VECTOR('',#750,0.619293196);
#752=LINE('',#749,#751);
#753=EDGE_CURVE('',#748,#737,#752,.T.);
#754=ORIENTED_EDGE('',*,*,#753,.F.);
#755=CARTESIAN_POINT('',(3.274611432,43.443183237,8.237104505));
#756=VERTEX_POINT('',#755);
#757=CARTESIAN_POINT('',(3.274611432,43.443183237,9.692289471));
#758=DIRECTION('',(-0.,-1.,0.));
#759=DIRECTION('',(0.,0.,1.));
#760=AXIS2_PLACEMENT_3D('',#757,#758,#759);
#761=CIRCLE('',#760,1.455184966);
#762=EDGE_CURVE('',#756,#748,#761,.T.);
#763=ORIENTED_EDGE('',*,*,#762,.F.);
#764=CARTESIAN_POINT('',(-3.111865161,43.443183237,8.237104505));
#765=VERTEX_POINT('',#764);
#766=CARTESIAN_POINT('',(-3.111865161,43.443183237,8.237104505));
#767=DIRECTION('',(1.,-0.,0.));
#768=VECTOR('',#767,6.386476593);
#769=LINE('',#766,#768);
#770=EDGE_CURVE('',#765,#756,#769,.T.);
#771=ORIENTED_EDGE('',*,*,#770,.F.);
#772=CARTESIAN_POINT('',(-4.567050128,43.443183237,9.692289471));
#773=VERTEX_POINT('',#772);
#774=CARTESIAN_POINT('',(-3.111865161,43.443183237,9.692289471));
#775=DIRECTION('',(-0.,-1.,0.));
#776=DIRECTION('',(0.,0.,1.));
#777=AXIS2_PLACEMENT_3D('',#774,#775,#776);
#778=CIRCLE('',#777,1.455184966);
#779=EDGE_CURVE('',#773,#765,#778,.T.);
#780=ORIENTED_EDGE('',*,*,#779,.F.);
#781=CARTESIAN_POINT('',(-4.567050128,43.443183237,10.311582667));
#782=VERTEX_POINT('',#781);
#783=CARTESIAN_POINT('',(-4.567050128,43.443183237,10.311582667));
#784=DIRECTION('',(-0.,-0.,-1.));
#785=VECTOR('',#784,0.619293196);
#786=LINE('',#783,#785);
#787=EDGE_CURVE('',#782,#773,#786,.T.);
#788=ORIENTED_EDGE('',*,*,#787,.F.);
#789=CARTESIAN_POINT('',(-3.111863827,43.443183237,11.766767633));
#790=VERTEX_POINT('',#789);
#791=CARTESIAN_POINT('',(-3.111863827,43.443183237,10.311582667));
#792=DIRECTION('',(-0.,-1.,0.));
#793=DIRECTION('',(0.,0.,1.));
#794=AXIS2_PLACEMENT_3D('',#791,#792,#793);
#795=CIRCLE('',#794,1.455184966);
#796=EDGE_CURVE('',#790,#782,#795,.T.);
#797=ORIENTED_EDGE('',*,*,#796,.F.);
#798=CARTESIAN_POINT('',(3.274612766,43.443183237,11.766767633));
#799=DIRECTION('',(-1.,0.,0.));
#800=VECTOR('',#799,6.386476593);
#801=LINE('',#798,#800);
#802=EDGE_CURVE('',#739,#790,#801,.T.);
#803=ORIENTED_EDGE('',*,*,#802,.F.);
#804=EDGE_LOOP('',(#746,#754,#763,#771,#780,#788,#797,#803));
#805=FACE_BOUND('',#804,.T.);
#806=ORIENTED_EDGE('',*,*,#702,.F.);
#807=ORIENTED_EDGE('',*,*,#709,.F.);
#808=EDGE_LOOP('',(#806,#807));
#809=FACE_BOUND('',#808,.T.);
#810=ORIENTED_EDGE('',*,*,#622,.T.);
#811=CARTESIAN_POINT('',(14.573736489,43.443183237,10.008221135));
#812=DIRECTION('',(0.,1.,-0.));
#813=DIRECTION('',(0.,-0.,-1.));
#814=AXIS2_PLACEMENT_3D('',#811,#812,#813);
#815=CIRCLE('',#814,3.78);
#816=EDGE_CURVE('',#108,#611,#815,.T.);
#817=ORIENTED_EDGE('',*,*,#816,.F.);
#818=ORIENTED_EDGE('',*,*,#128,.F.);
#819=ORIENTED_EDGE('',*,*,#80,.T.);
#820=ORIENTED_EDGE('',*,*,#41,.T.);
#821=EDGE_LOOP('',(#810,#817,#818,#819,#820));
#822=FACE_BOUND('',#821,.T.);
#823=ORIENTED_EDGE('',*,*,#651,.T.);
#824=ORIENTED_EDGE('',*,*,#658,.T.);
#825=EDGE_LOOP('',(#823,#824));
#826=FACE_BOUND('',#825,.T.);
#827=ADVANCED_FACE('',(#805,#809,#822,#826),#735,.T.);
#828=CARTESIAN_POINT('',(-3.111863827,8.408012119,11.766767633));
#829=DIRECTION('',(0.,0.,1.));
#830=DIRECTION('',(-1.,0.,0.));
#831=AXIS2_PLACEMENT_3D('',#828,#829,#830);
#832=PLANE('',#831);
#833=CARTESIAN_POINT('',(-3.111863827,44.445871089,11.766767633));
#834=VERTEX_POINT('',#833);
#835=CARTESIAN_POINT('',(-3.111863827,43.443183237,11.766767633));
#836=DIRECTION('',(0.,1.,-0.));
#837=VECTOR('',#836,1.002687852);
#838=LINE('',#835,#837);
#839=EDGE_CURVE('',#790,#834,#838,.T.);
#840=ORIENTED_EDGE('',*,*,#839,.T.);
#841=CARTESIAN_POINT('',(3.274612766,44.445871089,11.766767633));
#842=VERTEX_POINT('',#841);
#843=CARTESIAN_POINT('',(-3.111863827,44.445871089,11.766767633));
#844=DIRECTION('',(1.,0.,-0.));
#845=VECTOR('',#844,6.386476593);
#846=LINE('',#843,#845);
#847=EDGE_CURVE('',#834,#842,#846,.T.);
#848=ORIENTED_EDGE('',*,*,#847,.T.);
#849=CARTESIAN_POINT('',(3.274612766,43.443183237,11.766767633));
#850=DIRECTION('',(0.,1.,-0.));
#851=VECTOR('',#850,1.002687852);
#852=LINE('',#849,#851);
#853=EDGE_CURVE('',#739,#842,#852,.T.);
#854=ORIENTED_EDGE('',*,*,#853,.F.);
#855=ORIENTED_EDGE('',*,*,#802,.T.);
#856=EDGE_LOOP('',(#840,#848,#854,#855));
#857=FACE_BOUND('',#856,.T.);
#858=ADVANCED_FACE('',(#857),#832,.F.);
#859=CARTESIAN_POINT('',(-3.111863827,8.408012119,10.311582667));
#860=DIRECTION('',(0.,1.,-0.));
#861=DIRECTION('',(-0.,-0.,-1.));
#862=AXIS2_PLACEMENT_3D('',#859,#860,#861);
#863=CYLINDRICAL_SURFACE('',#862,1.455184966);
#864=CARTESIAN_POINT('',(-4.567048794,44.445871089,10.311582667));
#865=VERTEX_POINT('',#864);
#866=CARTESIAN_POINT('',(-4.567050128,43.443183237,10.311582667));
#867=DIRECTION('',(0.,1.,-0.));
#868=VECTOR('',#867,1.002687852);
#869=LINE('',#866,#868);
#870=EDGE_CURVE('',#782,#865,#869,.T.);
#871=ORIENTED_EDGE('',*,*,#870,.T.);
#872=CARTESIAN_POINT('',(-3.111863827,44.445871089,10.311582667));
#873=DIRECTION('',(-0.,1.,-0.));
#874=DIRECTION('',(0.,0.,-1.));
#875=AXIS2_PLACEMENT_3D('',#872,#873,#874);
#876=CIRCLE('',#875,1.455184966);
#877=EDGE_CURVE('',#865,#834,#876,.T.);
#878=ORIENTED_EDGE('',*,*,#877,.T.);
#879=ORIENTED_EDGE('',*,*,#839,.F.);
#880=ORIENTED_EDGE('',*,*,#796,.T.);
#881=EDGE_LOOP('',(#871,#878,#879,#880));
#882=FACE_BOUND('',#881,.T.);
#883=ADVANCED_FACE('',(#882),#863,.F.);
#884=CARTESIAN_POINT('',(-4.567050128,8.408012119,9.692289471));
#885=DIRECTION('',(-1.,0.,-0.));
#886=DIRECTION('',(-0.,-0.,-1.));
#887=AXIS2_PLACEMENT_3D('',#884,#885,#886);
#888=PLANE('',#887);
#889=CARTESIAN_POINT('',(-4.567050128,44.445871089,9.692289471));
#890=VERTEX_POINT('',#889);
#891=CARTESIAN_POINT('',(-4.567050128,43.443183237,9.692289471));
#892=DIRECTION('',(0.,1.,-0.));
#893=VECTOR('',#892,1.002687852);
#894=LINE('',#891,#893);
#895=EDGE_CURVE('',#773,#890,#894,.T.);
#896=ORIENTED_EDGE('',*,*,#895,.T.);
#897=CARTESIAN_POINT('',(-4.567050128,44.445871089,9.692289471));
#898=DIRECTION('',(-0.,0.,1.));
#899=VECTOR('',#898,0.619293196);
#900=LINE('',#897,#899);
#901=EDGE_CURVE('',#890,#865,#900,.T.);
#902=ORIENTED_EDGE('',*,*,#901,.T.);
#903=ORIENTED_EDGE('',*,*,#870,.F.);
#904=ORIENTED_EDGE('',*,*,#787,.T.);
#905=EDGE_LOOP('',(#896,#902,#903,#904));
#906=FACE_BOUND('',#905,.T.);
#907=ADVANCED_FACE('',(#906),#888,.F.);
#908=CARTESIAN_POINT('',(-3.111865161,8.408012119,9.692289471));
#909=DIRECTION('',(0.,1.,-0.));
#910=DIRECTION('',(-0.,-0.,-1.));
#911=AXIS2_PLACEMENT_3D('',#908,#909,#910);
#912=CYLINDRICAL_SURFACE('',#911,1.455184966);
#913=CARTESIAN_POINT('',(-3.111865161,44.445871089,8.237104505));
#914=VERTEX_POINT('',#913);
#915=CARTESIAN_POINT('',(-3.111865161,43.443183237,8.237104505));
#916=DIRECTION('',(0.,1.,-0.));
#917=VECTOR('',#916,1.002687852);
#918=LINE('',#915,#917);
#919=EDGE_CURVE('',#765,#914,#918,.T.);
#920=ORIENTED_EDGE('',*,*,#919,.T.);
#921=CARTESIAN_POINT('',(-3.111865161,44.445871089,9.692289471));
#922=DIRECTION('',(-0.,1.,-0.));
#923=DIRECTION('',(0.,0.,-1.));
#924=AXIS2_PLACEMENT_3D('',#921,#922,#923);
#925=CIRCLE('',#924,1.455184966);
#926=EDGE_CURVE('',#914,#890,#925,.T.);
#927=ORIENTED_EDGE('',*,*,#926,.T.);
#928=ORIENTED_EDGE('',*,*,#895,.F.);
#929=ORIENTED_EDGE('',*,*,#779,.T.);
#930=EDGE_LOOP('',(#920,#927,#928,#929));
#931=FACE_BOUND('',#930,.T.);
#932=ADVANCED_FACE('',(#931),#912,.F.);
#933=CARTESIAN_POINT('',(3.274611432,8.408012119,8.237104505));
#934=DIRECTION('',(-0.,-0.,-1.));
#935=DIRECTION('',(1.,-0.,0.));
#936=AXIS2_PLACEMENT_3D('',#933,#934,#935);
#937=PLANE('',#936);
#938=CARTESIAN_POINT('',(3.274611432,44.445871089,8.237104505));
#939=VERTEX_POINT('',#938);
#940=CARTESIAN_POINT('',(3.274611432,43.443183237,8.237104505));
#941=DIRECTION('',(0.,1.,-0.));
#942=VECTOR('',#941,1.002687852);
#943=LINE('',#940,#942);
#944=EDGE_CURVE('',#756,#939,#943,.T.);
#945=ORIENTED_EDGE('',*,*,#944,.T.);
#946=CARTESIAN_POINT('',(3.274611432,44.445871089,8.237104505));
#947=DIRECTION('',(-1.,0.,0.));
#948=VECTOR('',#947,6.386476593);
#949=LINE('',#946,#948);
#950=EDGE_CURVE('',#939,#914,#949,.T.);
#951=ORIENTED_EDGE('',*,*,#950,.T.);
#952=ORIENTED_EDGE('',*,*,#919,.F.);
#953=ORIENTED_EDGE('',*,*,#770,.T.);
#954=EDGE_LOOP('',(#945,#951,#952,#953));
#955=FACE_BOUND('',#954,.T.);
#956=ADVANCED_FACE('',(#955),#937,.F.);
#957=CARTESIAN_POINT('',(3.274611432,8.408012119,9.692289471));
#958=DIRECTION('',(0.,1.,-0.));
#959=DIRECTION('',(-0.,-0.,-1.));
#960=AXIS2_PLACEMENT_3D('',#957,#958,#959);
#961=CYLINDRICAL_SURFACE('',#960,1.455184966);
#962=CARTESIAN_POINT('',(4.729796398,44.445871089,9.692289471));
#963=VERTEX_POINT('',#962);
#964=CARTESIAN_POINT('',(4.729796398,43.443183237,9.692289471));
#965=DIRECTION('',(0.,1.,-0.));
#966=VECTOR('',#965,1.002687852);
#967=LINE('',#964,#966);
#968=EDGE_CURVE('',#748,#963,#967,.T.);
#969=ORIENTED_EDGE('',*,*,#968,.T.);
#970=CARTESIAN_POINT('',(3.274611432,44.445871089,9.692289471));
#971=DIRECTION('',(-0.,1.,-0.));
#972=DIRECTION('',(0.,0.,-1.));
#973=AXIS2_PLACEMENT_3D('',#970,#971,#972);
#974=CIRCLE('',#973,1.455184966);
#975=EDGE_CURVE('',#963,#939,#974,.T.);
#976=ORIENTED_EDGE('',*,*,#975,.T.);
#977=ORIENTED_EDGE('',*,*,#944,.F.);
#978=ORIENTED_EDGE('',*,*,#762,.T.);
#979=EDGE_LOOP('',(#969,#976,#977,#978));
#980=FACE_BOUND('',#979,.T.);
#981=ADVANCED_FACE('',(#980),#961,.F.);
#982=CARTESIAN_POINT('',(4.729796398,8.408012119,10.311582667));
#983=DIRECTION('',(1.,-0.,0.));
#984=DIRECTION('',(0.,0.,1.));
#985=AXIS2_PLACEMENT_3D('',#982,#983,#984);
#986=PLANE('',#985);
#987=CARTESIAN_POINT('',(4.729796398,44.445871089,10.311582667));
#988=VERTEX_POINT('',#987);
#989=CARTESIAN_POINT('',(4.729797732,43.443183237,10.311582667));
#990=DIRECTION('',(0.,1.,-0.));
#991=VECTOR('',#990,1.002687852);
#992=LINE('',#989,#991);
#993=EDGE_CURVE('',#737,#988,#992,.T.);
#994=ORIENTED_EDGE('',*,*,#993,.T.);
#995=CARTESIAN_POINT('',(4.729796398,44.445871089,10.311582667));
#996=DIRECTION('',(0.,0.,-1.));
#997=VECTOR('',#996,0.619293196);
#998=LINE('',#995,#997);
#999=EDGE_CURVE('',#988,#963,#998,.T.);
#1000=ORIENTED_EDGE('',*,*,#999,.T.);
#1001=ORIENTED_EDGE('',*,*,#968,.F.);
#1002=ORIENTED_EDGE('',*,*,#753,.T.);
#1003=EDGE_LOOP('',(#994,#1000,#1001,#1002));
#1004=FACE_BOUND('',#1003,.T.);
#1005=ADVANCED_FACE('',(#1004),#986,.F.);
#1006=CARTESIAN_POINT('',(3.274612766,8.408012119,10.311582667));
#1007=DIRECTION('',(0.,1.,-0.));
#1008=DIRECTION('',(-0.,-0.,-1.));
#1009=AXIS2_PLACEMENT_3D('',#1006,#1007,#1008);
#1010=CYLINDRICAL_SURFACE('',#1009,1.455184966);
#1011=ORIENTED_EDGE('',*,*,#853,.T.);
#1012=CARTESIAN_POINT('',(3.274612766,44.445871089,10.311582667));
#1013=DIRECTION('',(-0.,1.,-0.));
#1014=DIRECTION('',(0.,0.,-1.));
#1015=AXIS2_PLACEMENT_3D('',#1012,#1013,#1014);
#1016=CIRCLE('',#1015,1.455184966);
#1017=EDGE_CURVE('',#842,#988,#1016,.T.);
#1018=ORIENTED_EDGE('',*,*,#1017,.T.);
#1019=ORIENTED_EDGE('',*,*,#993,.F.);
#1020=ORIENTED_EDGE('',*,*,#745,.T.);
#1021=EDGE_LOOP('',(#1011,#1018,#1019,#1020));
#1022=FACE_BOUND('',#1021,.T.);
#1023=ADVANCED_FACE('',(#1022),#1010,.F.);
#1024=CARTESIAN_POINT('',(-0.,44.445871089,23.275080711));
#1025=DIRECTION('',(-0.,-1.,0.));
#1026=DIRECTION('',(0.,0.,1.));
#1027=AXIS2_PLACEMENT_3D('',#1024,#1025,#1026);
#1028=PLANE('',#1027);
#1029=ORIENTED_EDGE('',*,*,#419,.F.);
#1030=ORIENTED_EDGE('',*,*,#426,.F.);
#1031=EDGE_LOOP('',(#1029,#1030));
#1032=FACE_BOUND('',#1031,.T.);
#1033=ORIENTED_EDGE('',*,*,#461,.F.);
#1034=ORIENTED_EDGE('',*,*,#468,.F.);
#1035=EDGE_LOOP('',(#1033,#1034));
#1036=FACE_BOUND('',#1035,.T.);
#1037=ORIENTED_EDGE('',*,*,#719,.F.);
#1038=ORIENTED_EDGE('',*,*,#726,.F.);
#1039=EDGE_LOOP('',(#1037,#1038));
#1040=FACE_BOUND('',#1039,.T.);
#1041=ORIENTED_EDGE('',*,*,#847,.F.);
#1042=ORIENTED_EDGE('',*,*,#877,.F.);
#1043=ORIENTED_EDGE('',*,*,#901,.F.);
#1044=ORIENTED_EDGE('',*,*,#926,.F.);
#1045=ORIENTED_EDGE('',*,*,#950,.F.);
#1046=ORIENTED_EDGE('',*,*,#975,.F.);
#1047=ORIENTED_EDGE('',*,*,#999,.F.);
#1048=ORIENTED_EDGE('',*,*,#1017,.F.);
#1049=EDGE_LOOP('',(#1041,#1042,#1043,#1044,#1045,#1046,#1047,#1048));
#1050=FACE_BOUND('',#1049,.T.);
#1051=ORIENTED_EDGE('',*,*,#668,.F.);
#1052=ORIENTED_EDGE('',*,*,#675,.F.);
#1053=EDGE_LOOP('',(#1051,#1052));
#1054=FACE_BOUND('',#1053,.T.);
#1055=ORIENTED_EDGE('',*,*,#593,.F.);
#1056=ORIENTED_EDGE('',*,*,#600,.F.);
#1057=EDGE_LOOP('',(#1055,#1056));
#1058=FACE_BOUND('',#1057,.T.);
#1059=ORIENTED_EDGE('',*,*,#503,.F.);
#1060=ORIENTED_EDGE('',*,*,#510,.F.);
#1061=EDGE_LOOP('',(#1059,#1060));
#1062=FACE_BOUND('',#1061,.T.);
#1063=ORIENTED_EDGE('',*,*,#154,.F.);
#1064=ORIENTED_EDGE('',*,*,#193,.F.);
#1065=ORIENTED_EDGE('',*,*,#225,.F.);
#1066=ORIENTED_EDGE('',*,*,#257,.F.);
#1067=ORIENTED_EDGE('',*,*,#289,.F.);
#1068=ORIENTED_EDGE('',*,*,#321,.F.);
#1069=ORIENTED_EDGE('',*,*,#353,.F.);
#1070=ORIENTED_EDGE('',*,*,#376,.F.);
#1071=EDGE_LOOP('',(#1063,#1064,#1065,#1066,#1067,#1068,#1069,#1070));
#1072=FACE_BOUND('',#1071,.T.);
#1073=ADVANCED_FACE('',(#1032,#1036,#1040,#1050,#1054,#1058,#1062,#1072),#1028,.F.);
#1074=CARTESIAN_POINT('',(14.573736489,185.453731571,10.008221135));
#1075=DIRECTION('',(0.,-1.,0.));
#1076=DIRECTION('',(1.,0.,0.));
#1077=AXIS2_PLACEMENT_3D('',#1074,#1075,#1076);
#1078=CYLINDRICAL_SURFACE('',#1077,3.78);
#1079=ORIENTED_EDGE('',*,*,#113,.T.);
#1080=ORIENTED_EDGE('',*,*,#816,.T.);
#1081=ORIENTED_EDGE('',*,*,#616,.T.);
#1082=ORIENTED_EDGE('',*,*,#536,.T.);
#1083=EDGE_LOOP('',(#1079,#1080,#1081,#1082));
#1084=FACE_BOUND('',#1083,.T.);
#1085=ADVANCED_FACE('',(#1084),#1078,.F.);
#1086=CLOSED_SHELL('',(#68,#99,#132,#172,#205,#236,#269,#300,#333,#364,#388,#430,#472,#514,#570,#604,#628,#679,#730,#827,#858,#883,#907,#932,#956,#981,
#1005,#1023,#1073,#1085));
#1087=MANIFOLD_SOLID_BREP('BK_PANEL',#1086);
#26=STYLED_ITEM('',(),#1087);
#16=SHAPE_REPRESENTATION('root',(#15),#10);
#17=ADVANCED_BREP_SHAPE_REPRESENTATION('root',(#1087),#10);
#1095=SHAPE_REPRESENTATION_RELATIONSHIP('','',#16,#17);
#1096=APPLICATION_CONTEXT('configuration controlled 3D design of mechanical parts and assemblies');
#1097=APPLICATION_PROTOCOL_DEFINITION('international standard','configuration_control_3d_design_ed2_mim',2004,#1096);
#1098=PRODUCT_CONTEXT('',#1096,'mechanical');
#1099=PRODUCT_DEFINITION_CONTEXT('part definition',#1096,'design');
#24=PRODUCT('root','root','',(#1098));
#1100=PRODUCT_RELATED_PRODUCT_CATEGORY('part','',(#24));
#1101=PRODUCT_DEFINITION_FORMATION_WITH_SPECIFIED_SOURCE('','',#24,.NOT_KNOWN.);
#25=PRODUCT_DEFINITION('design','',#1101,#1099);
#23=PRODUCT_DEFINITION_SHAPE('','',#25);
#1102=SHAPE_DEFINITION_REPRESENTATION(#23,#16);
#11=DRAUGHTING_MODEL('',(),#10);
#1=MECHANICAL_DESIGN_GEOMETRIC_PRESENTATION_REPRESENTATION('',(#26),#10);
ENDSEC;
END-ISO-10303-21;
