ISO-10303-21;
HEADER;

/* File generated by HOOPS Exchange Version 24.2.0 */

FILE_DESCRIPTION(('HOOPS Exchange Step'),'2;1');

FILE_NAME('D:\\downloads\\captioncast\\captioncast\\enclosure\\exports\\v1\\FRNT_PNL.stp',
'2026-06-22T22:49:28+05:30',
('sushi'),
('Unknown organisation'),
'HOOPS Exchange 2024.2',
'HOOPS Exchange',
'Unknown authorisation');

FILE_SCHEMA( ('AP203_CONFIGURATION_CONTROLLED_3D_DESIGN_OF_MECHANICAL_PARTS_AND_ASSEMBLIES_MIM_LF') );

ENDSEC;

DATA;
#3=(NAMED_UNIT(*)PLANE_ANGLE_UNIT()SI_UNIT($,.RADIAN.));
#4=PLANE_ANGLE_MEASURE_WITH_UNIT(PLANE_ANGLE_MEASURE(0.0174532925),#3);
#5=(CONVERSION_BASED_UNIT('DEGREE',#4)NAMED_UNIT(#6)PLANE_ANGLE_UNIT());
#6=DIMENSIONAL_EXPONENTS(0.,0.,0.,0.,0.,0.,0.);
#7=(NAMED_UNIT(*)SI_UNIT($,.STERADIAN.)SOLID_ANGLE_UNIT());
#8=(LENGTH_UNIT()NAMED_UNIT(*)SI_UNIT(.MILLI.,.METRE.));
#9=UNCERTAINTY_MEASURE_WITH_UNIT(LENGTH_MEASURE(1.000000E-05),#8,'DISTANCE_ACCURACY_VALUE','Maximum Tolerance applied to model');
#10=(GEOMETRIC_REPRESENTATION_CONTEXT(3)GLOBAL_UNCERTAINTY_ASSIGNED_CONTEXT((#9))GLOBAL_UNIT_ASSIGNED_CONTEXT((#8,#5,#7))REPRESENTATION_CONTEXT('','root'));
#12=CARTESIAN_POINT('',(0.,0.,0.));
#13=DIRECTION('',(0.,0.,1.));
#14=DIRECTION('',(1.,0.,0.));
#15=AXIS2_PLACEMENT_3D('',#12,#13,#14);
#27=CARTESIAN_POINT('',(37.931178492,-0.049885471,46.390015182));
#28=DIRECTION('',(0.,0.,-1.));
#29=DIRECTION('',(-1.,0.,0.));
#30=AXIS2_PLACEMENT_3D('',#27,#28,#29);
#31=PLANE('',#30);
#32=CARTESIAN_POINT('',(37.931178492,1.950114529,46.390015182));
#33=VERTEX_POINT('',#32);
#34=CARTESIAN_POINT('',(-37.931178492,1.950114529,46.390015182));
#35=VERTEX_POINT('',#34);
#36=CARTESIAN_POINT('',(37.931178492,1.950114529,46.390015182));
#37=DIRECTION('',(-1.,0.,0.));
#38=VECTOR('',#37,75.862356984);
#39=LINE('',#36,#38);
#40=EDGE_CURVE('',#33,#35,#39,.T.);
#41=ORIENTED_EDGE('',*,*,#40,.F.);
#42=CARTESIAN_POINT('',(37.931178492,5.950114529,46.390015182));
#43=VERTEX_POINT('',#42);
#44=CARTESIAN_POINT('',(37.931178492,1.950114529,46.390015182));
#45=DIRECTION('',(0.,1.,0.));
#46=VECTOR('',#45,4.);
#47=LINE('',#44,#46);
#48=EDGE_CURVE('',#33,#43,#47,.T.);
#49=ORIENTED_EDGE('',*,*,#48,.T.);
#50=CARTESIAN_POINT('',(-37.931178492,5.950114529,46.390015182));
#51=VERTEX_POINT('',#50);
#52=CARTESIAN_POINT('',(37.931178492,5.950114529,46.390015182));
#53=DIRECTION('',(-1.,0.,0.));
#54=VECTOR('',#53,75.862356984);
#55=LINE('',#52,#54);
#56=EDGE_CURVE('',#43,#51,#55,.T.);
#57=ORIENTED_EDGE('',*,*,#56,.T.);
#58=CARTESIAN_POINT('',(-37.931178492,1.950114529,46.390015182));
#59=DIRECTION('',(0.,1.,0.));
#60=VECTOR('',#59,4.);
#61=LINE('',#58,#60);
#62=EDGE_CURVE('',#35,#51,#61,.T.);
#63=ORIENTED_EDGE('',*,*,#62,.F.);
#64=EDGE_LOOP('',(#41,#49,#57,#63));
#65=FACE_BOUND('',#64,.T.);
#66=ADVANCED_FACE('',(#65),#31,.F.);
#67=CARTESIAN_POINT('',(37.931178492,-0.049885471,40.210015182));
#68=DIRECTION('',(0.,1.,0.));
#69=DIRECTION('',(0.,-0.,1.));
#70=AXIS2_PLACEMENT_3D('',#67,#68,#69);
#71=CYLINDRICAL_SURFACE('',#70,6.18);
#72=CARTESIAN_POINT('',(44.111178492,1.950114529,40.210015182));
#73=VERTEX_POINT('',#72);
#74=CARTESIAN_POINT('',(37.931178492,1.950114529,40.210015182));
#75=DIRECTION('',(0.,-1.,0.));
#76=DIRECTION('',(0.,0.,-1.));
#77=AXIS2_PLACEMENT_3D('',#74,#75,#76);
#78=CIRCLE('',#77,6.18);
#79=EDGE_CURVE('',#73,#33,#78,.T.);
#80=ORIENTED_EDGE('',*,*,#79,.F.);
#81=CARTESIAN_POINT('',(44.111178492,5.950114529,40.210015182));
#82=VERTEX_POINT('',#81);
#83=CARTESIAN_POINT('',(44.111178492,1.950114529,40.210015182));
#84=DIRECTION('',(0.,1.,0.));
#85=VECTOR('',#84,4.);
#86=LINE('',#83,#85);
#87=EDGE_CURVE('',#73,#82,#86,.T.);
#88=ORIENTED_EDGE('',*,*,#87,.T.);
#89=CARTESIAN_POINT('',(37.931178492,5.950114529,40.210015182));
#90=DIRECTION('',(-0.,-1.,-0.));
#91=DIRECTION('',(0.,0.,-1.));
#92=AXIS2_PLACEMENT_3D('',#89,#90,#91);
#93=CIRCLE('',#92,6.18);
#94=EDGE_CURVE('',#82,#43,#93,.T.);
#95=ORIENTED_EDGE('',*,*,#94,.T.);
#96=ORIENTED_EDGE('',*,*,#48,.F.);
#97=EDGE_LOOP('',(#80,#88,#95,#96));
#98=FACE_BOUND('',#97,.T.);
#99=ADVANCED_FACE('',(#98),#71,.T.);
#100=CARTESIAN_POINT('',(44.111178492,-0.049885471,40.210015182));
#101=DIRECTION('',(-1.,0.,-0.));
#102=DIRECTION('',(-0.,0.,1.));
#103=AXIS2_PLACEMENT_3D('',#100,#101,#102);
#104=PLANE('',#103);
#105=CARTESIAN_POINT('',(44.111178492,1.950114529,6.340146241));
#106=VERTEX_POINT('',#105);
#107=CARTESIAN_POINT('',(44.111178492,1.950114529,6.340146241));
#108=DIRECTION('',(-0.,0.,1.));
#109=VECTOR('',#108,33.869868941);
#110=LINE('',#107,#109);
#111=EDGE_CURVE('',#106,#73,#110,.T.);
#112=ORIENTED_EDGE('',*,*,#111,.F.);
#113=CARTESIAN_POINT('',(44.111178492,5.950114529,6.340146241));
#114=VERTEX_POINT('',#113);
#115=CARTESIAN_POINT('',(44.111178492,1.950114529,6.340146241));
#116=DIRECTION('',(0.,1.,0.));
#117=VECTOR('',#116,4.);
#118=LINE('',#115,#117);
#119=EDGE_CURVE('',#106,#114,#118,.T.);
#120=ORIENTED_EDGE('',*,*,#119,.T.);
#121=CARTESIAN_POINT('',(44.111178492,5.950114529,6.340146241));
#122=DIRECTION('',(-0.,-0.,1.));
#123=VECTOR('',#122,33.869868941);
#124=LINE('',#121,#123);
#125=EDGE_CURVE('',#114,#82,#124,.T.);
#126=ORIENTED_EDGE('',*,*,#125,.T.);
#127=ORIENTED_EDGE('',*,*,#87,.F.);
#128=EDGE_LOOP('',(#112,#120,#126,#127));
#129=FACE_BOUND('',#128,.T.);
#130=ADVANCED_FACE('',(#129),#104,.F.);
#131=CARTESIAN_POINT('',(37.931178492,-0.049885471,6.340146241));
#132=DIRECTION('',(0.,1.,0.));
#133=DIRECTION('',(0.,-0.,1.));
#134=AXIS2_PLACEMENT_3D('',#131,#132,#133);
#135=CYLINDRICAL_SURFACE('',#134,6.18);
#136=CARTESIAN_POINT('',(37.931178492,1.950114529,0.160146241));
#137=VERTEX_POINT('',#136);
#138=CARTESIAN_POINT('',(37.931178492,1.950114529,6.340146241));
#139=DIRECTION('',(0.,-1.,0.));
#140=DIRECTION('',(0.,0.,-1.));
#141=AXIS2_PLACEMENT_3D('',#138,#139,#140);
#142=CIRCLE('',#141,6.18);
#143=EDGE_CURVE('',#137,#106,#142,.T.);
#144=ORIENTED_EDGE('',*,*,#143,.F.);
#145=CARTESIAN_POINT('',(37.931178492,5.950114529,0.160146241));
#146=VERTEX_POINT('',#145);
#147=CARTESIAN_POINT('',(37.931178492,1.950114529,0.160146241));
#148=DIRECTION('',(0.,1.,0.));
#149=VECTOR('',#148,4.);
#150=LINE('',#147,#149);
#151=EDGE_CURVE('',#137,#146,#150,.T.);
#152=ORIENTED_EDGE('',*,*,#151,.T.);
#153=CARTESIAN_POINT('',(37.931178492,5.950114529,6.340146241));
#154=DIRECTION('',(-0.,-1.,-0.));
#155=DIRECTION('',(0.,0.,-1.));
#156=AXIS2_PLACEMENT_3D('',#153,#154,#155);
#157=CIRCLE('',#156,6.18);
#158=EDGE_CURVE('',#146,#114,#157,.T.);
#159=ORIENTED_EDGE('',*,*,#158,.T.);
#160=ORIENTED_EDGE('',*,*,#119,.F.);
#161=EDGE_LOOP('',(#144,#152,#159,#160));
#162=FACE_BOUND('',#161,.T.);
#163=ADVANCED_FACE('',(#162),#135,.T.);
#164=CARTESIAN_POINT('',(37.931178492,-0.049885471,0.160146241));
#165=DIRECTION('',(0.,0.,1.));
#166=DIRECTION('',(1.,0.,0.));
#167=AXIS2_PLACEMENT_3D('',#164,#165,#166);
#168=PLANE('',#167);
#169=CARTESIAN_POINT('',(-37.931178492,1.950114529,0.160146241));
#170=VERTEX_POINT('',#169);
#171=CARTESIAN_POINT('',(-37.931178492,1.950114529,0.160146241));
#172=DIRECTION('',(1.,0.,-0.));
#173=VECTOR('',#172,75.862356984);
#174=LINE('',#171,#173);
#175=EDGE_CURVE('',#170,#137,#174,.T.);
#176=ORIENTED_EDGE('',*,*,#175,.F.);
#177=CARTESIAN_POINT('',(-37.931178492,5.950114529,0.160146241));
#178=VERTEX_POINT('',#177);
#179=CARTESIAN_POINT('',(-37.931178492,1.950114529,0.160146241));
#180=DIRECTION('',(0.,1.,0.));
#181=VECTOR('',#180,4.);
#182=LINE('',#179,#181);
#183=EDGE_CURVE('',#170,#178,#182,.T.);
#184=ORIENTED_EDGE('',*,*,#183,.T.);
#185=CARTESIAN_POINT('',(-37.931178492,5.950114529,0.160146241));
#186=DIRECTION('',(1.,-0.,0.));
#187=VECTOR('',#186,75.862356984);
#188=LINE('',#185,#187);
#189=EDGE_CURVE('',#178,#146,#188,.T.);
#190=ORIENTED_EDGE('',*,*,#189,.T.);
#191=ORIENTED_EDGE('',*,*,#151,.F.);
#192=EDGE_LOOP('',(#176,#184,#190,#191));
#193=FACE_BOUND('',#192,.T.);
#194=ADVANCED_FACE('',(#193),#168,.F.);
#195=CARTESIAN_POINT('',(-37.931178492,-0.049885471,6.340146241));
#196=DIRECTION('',(0.,1.,0.));
#197=DIRECTION('',(0.,-0.,1.));
#198=AXIS2_PLACEMENT_3D('',#195,#196,#197);
#199=CYLINDRICAL_SURFACE('',#198,6.18);
#200=CARTESIAN_POINT('',(-44.111178492,1.950114529,6.340146241));
#201=VERTEX_POINT('',#200);
#202=CARTESIAN_POINT('',(-37.931178492,1.950114529,6.340146241));
#203=DIRECTION('',(0.,-1.,0.));
#204=DIRECTION('',(0.,0.,-1.));
#205=AXIS2_PLACEMENT_3D('',#202,#203,#204);
#206=CIRCLE('',#205,6.18);
#207=EDGE_CURVE('',#201,#170,#206,.T.);
#208=ORIENTED_EDGE('',*,*,#207,.F.);
#209=CARTESIAN_POINT('',(-44.111178492,5.950114529,6.340146241));
#210=VERTEX_POINT('',#209);
#211=CARTESIAN_POINT('',(-44.111178492,1.950114529,6.340146241));
#212=DIRECTION('',(0.,1.,0.));
#213=VECTOR('',#212,4.);
#214=LINE('',#211,#213);
#215=EDGE_CURVE('',#201,#210,#214,.T.);
#216=ORIENTED_EDGE('',*,*,#215,.T.);
#217=CARTESIAN_POINT('',(-37.931178492,5.950114529,6.340146241));
#218=DIRECTION('',(-0.,-1.,-0.));
#219=DIRECTION('',(0.,0.,-1.));
#220=AXIS2_PLACEMENT_3D('',#217,#218,#219);
#221=CIRCLE('',#220,6.18);
#222=EDGE_CURVE('',#210,#178,#221,.T.);
#223=ORIENTED_EDGE('',*,*,#222,.T.);
#224=ORIENTED_EDGE('',*,*,#183,.F.);
#225=EDGE_LOOP('',(#208,#216,#223,#224));
#226=FACE_BOUND('',#225,.T.);
#227=ADVANCED_FACE('',(#226),#199,.T.);
#228=CARTESIAN_POINT('',(-44.111178492,-0.049885471,6.340146241));
#229=DIRECTION('',(1.,0.,0.));
#230=DIRECTION('',(0.,0.,-1.));
#231=AXIS2_PLACEMENT_3D('',#228,#229,#230);
#232=PLANE('',#231);
#233=CARTESIAN_POINT('',(-44.111178492,1.950114529,40.210015182));
#234=VERTEX_POINT('',#233);
#235=CARTESIAN_POINT('',(-44.111178492,1.950114529,40.210015182));
#236=DIRECTION('',(0.,0.,-1.));
#237=VECTOR('',#236,33.869868941);
#238=LINE('',#235,#237);
#239=EDGE_CURVE('',#234,#201,#238,.T.);
#240=ORIENTED_EDGE('',*,*,#239,.F.);
#241=CARTESIAN_POINT('',(-44.111178492,5.950114529,40.210015182));
#242=VERTEX_POINT('',#241);
#243=CARTESIAN_POINT('',(-44.111178492,1.950114529,40.210015182));
#244=DIRECTION('',(0.,1.,0.));
#245=VECTOR('',#244,4.);
#246=LINE('',#243,#245);
#247=EDGE_CURVE('',#234,#242,#246,.T.);
#248=ORIENTED_EDGE('',*,*,#247,.T.);
#249=CARTESIAN_POINT('',(-44.111178492,5.950114529,40.210015182));
#250=DIRECTION('',(0.,0.,-1.));
#251=VECTOR('',#250,33.869868941);
#252=LINE('',#249,#251);
#253=EDGE_CURVE('',#242,#210,#252,.T.);
#254=ORIENTED_EDGE('',*,*,#253,.T.);
#255=ORIENTED_EDGE('',*,*,#215,.F.);
#256=EDGE_LOOP('',(#240,#248,#254,#255));
#257=FACE_BOUND('',#256,.T.);
#258=ADVANCED_FACE('',(#257),#232,.F.);
#259=CARTESIAN_POINT('',(-37.931178492,-0.049885471,40.210015182));
#260=DIRECTION('',(0.,1.,0.));
#261=DIRECTION('',(0.,-0.,1.));
#262=AXIS2_PLACEMENT_3D('',#259,#260,#261);
#263=CYLINDRICAL_SURFACE('',#262,6.18);
#264=CARTESIAN_POINT('',(-37.931178492,1.950114529,40.210015182));
#265=DIRECTION('',(0.,-1.,0.));
#266=DIRECTION('',(0.,0.,-1.));
#267=AXIS2_PLACEMENT_3D('',#264,#265,#266);
#268=CIRCLE('',#267,6.18);
#269=EDGE_CURVE('',#35,#234,#268,.T.);
#270=ORIENTED_EDGE('',*,*,#269,.F.);
#271=ORIENTED_EDGE('',*,*,#62,.T.);
#272=CARTESIAN_POINT('',(-37.931178492,5.950114529,40.210015182));
#273=DIRECTION('',(-0.,-1.,-0.));
#274=DIRECTION('',(0.,0.,-1.));
#275=AXIS2_PLACEMENT_3D('',#272,#273,#274);
#276=CIRCLE('',#275,6.18);
#277=EDGE_CURVE('',#51,#242,#276,.T.);
#278=ORIENTED_EDGE('',*,*,#277,.T.);
#279=ORIENTED_EDGE('',*,*,#247,.F.);
#280=EDGE_LOOP('',(#270,#271,#278,#279));
#281=FACE_BOUND('',#280,.T.);
#282=ADVANCED_FACE('',(#281),#263,.T.);
#283=CARTESIAN_POINT('',(-27.51000209,-166.580851779,12.204629508));
#284=DIRECTION('',(0.000000156,-0.,1.));
#285=DIRECTION('',(1.,0.,-0.000000156));
#286=AXIS2_PLACEMENT_3D('',#283,#284,#285);
#287=PLANE('',#286);
#288=CARTESIAN_POINT('',(-26.51000209,3.950114529,12.204629352));
#289=VERTEX_POINT('',#288);
#290=CARTESIAN_POINT('',(-26.51000209,1.950114529,12.204629352));
#291=VERTEX_POINT('',#290);
#292=CARTESIAN_POINT('',(-26.51000209,3.950114529,12.204629352));
#293=DIRECTION('',(-0.,-1.,0.));
#294=VECTOR('',#293,2.);
#295=LINE('',#292,#294);
#296=EDGE_CURVE('',#289,#291,#295,.T.);
#297=ORIENTED_EDGE('',*,*,#296,.T.);
#298=CARTESIAN_POINT('',(26.499998066,1.950114529,12.204621066));
#299=VERTEX_POINT('',#298);
#300=CARTESIAN_POINT('',(-26.51000209,1.950114529,12.204629352));
#301=DIRECTION('',(1.,0.,-0.000000156));
#302=VECTOR('',#301,53.010000156);
#303=LINE('',#300,#302);
#304=EDGE_CURVE('',#291,#299,#303,.T.);
#305=ORIENTED_EDGE('',*,*,#304,.T.);
#306=CARTESIAN_POINT('',(26.49999791,3.950114529,12.204621066));
#307=VERTEX_POINT('',#306);
#308=CARTESIAN_POINT('',(26.49999791,1.950114529,12.204621066));
#309=DIRECTION('',(0.,1.,-0.));
#310=VECTOR('',#309,2.);
#311=LINE('',#308,#310);
#312=EDGE_CURVE('',#299,#307,#311,.T.);
#313=ORIENTED_EDGE('',*,*,#312,.T.);
#314=CARTESIAN_POINT('',(-26.51000209,3.950114529,12.204629352));
#315=DIRECTION('',(1.,-0.,-0.000000156));
#316=VECTOR('',#315,53.01);
#317=LINE('',#314,#316);
#318=EDGE_CURVE('',#289,#307,#317,.T.);
#319=ORIENTED_EDGE('',*,*,#318,.F.);
#320=EDGE_LOOP('',(#297,#305,#313,#319));
#321=FACE_BOUND('',#320,.T.);
#322=ADVANCED_FACE('',(#321),#287,.T.);
#323=CARTESIAN_POINT('',(27.500002207,-166.580851779,39.69462091));
#324=DIRECTION('',(-0.000000156,0.,-1.));
#325=DIRECTION('',(-1.,0.,0.000000156));
#326=AXIS2_PLACEMENT_3D('',#323,#324,#325);
#327=PLANE('',#326);
#328=CARTESIAN_POINT('',(26.500002207,3.950114529,39.694621066));
#329=VERTEX_POINT('',#328);
#330=CARTESIAN_POINT('',(26.500002207,1.950114529,39.694621066));
#331=VERTEX_POINT('',#330);
#332=CARTESIAN_POINT('',(26.500002207,3.950114529,39.694621066));
#333=DIRECTION('',(-0.,-1.,0.));
#334=VECTOR('',#333,2.);
#335=LINE('',#332,#334);
#336=EDGE_CURVE('',#329,#331,#335,.T.);
#337=ORIENTED_EDGE('',*,*,#336,.T.);
#338=CARTESIAN_POINT('',(-26.509997793,1.950114529,39.694629352));
#339=VERTEX_POINT('',#338);
#340=CARTESIAN_POINT('',(26.500002207,1.950114529,39.694621066));
#341=DIRECTION('',(-1.,0.,0.000000156));
#342=VECTOR('',#341,53.01);
#343=LINE('',#340,#342);
#344=EDGE_CURVE('',#331,#339,#343,.T.);
#345=ORIENTED_EDGE('',*,*,#344,.T.);
#346=CARTESIAN_POINT('',(-26.509997793,3.950114529,39.694629352));
#347=VERTEX_POINT('',#346);
#348=CARTESIAN_POINT('',(-26.509997793,1.950114529,39.694629352));
#349=DIRECTION('',(0.,1.,-0.));
#350=VECTOR('',#349,2.);
#351=LINE('',#348,#350);
#352=EDGE_CURVE('',#339,#347,#351,.T.);
#353=ORIENTED_EDGE('',*,*,#352,.T.);
#354=CARTESIAN_POINT('',(26.500002207,3.950114529,39.694621066));
#355=DIRECTION('',(-1.,0.,0.000000156));
#356=VECTOR('',#355,53.01);
#357=LINE('',#354,#356);
#358=EDGE_CURVE('',#329,#347,#357,.T.);
#359=ORIENTED_EDGE('',*,*,#358,.F.);
#360=EDGE_LOOP('',(#337,#345,#353,#359));
#361=FACE_BOUND('',#360,.T.);
#362=ADVANCED_FACE('',(#361),#327,.T.);
#363=CARTESIAN_POINT('',(27.49999791,-166.580851779,12.20462091));
#364=DIRECTION('',(-1.,0.,0.000000156));
#365=DIRECTION('',(0.000000156,0.,1.));
#366=AXIS2_PLACEMENT_3D('',#363,#364,#365);
#367=PLANE('',#366);
#368=CARTESIAN_POINT('',(27.499998066,3.950114529,13.20462091));
#369=VERTEX_POINT('',#368);
#370=CARTESIAN_POINT('',(27.499998066,1.950114529,13.20462091));
#371=VERTEX_POINT('',#370);
#372=CARTESIAN_POINT('',(27.499998066,3.950114529,13.20462091));
#373=DIRECTION('',(-0.,-1.,0.));
#374=VECTOR('',#373,2.);
#375=LINE('',#372,#374);
#376=EDGE_CURVE('',#369,#371,#375,.T.);
#377=ORIENTED_EDGE('',*,*,#376,.T.);
#378=CARTESIAN_POINT('',(27.500002051,1.950114529,38.69462091));
#379=VERTEX_POINT('',#378);
#380=CARTESIAN_POINT('',(27.499998066,1.950114529,13.20462091));
#381=DIRECTION('',(0.000000156,0.,1.));
#382=VECTOR('',#381,25.49);
#383=LINE('',#380,#382);
#384=EDGE_CURVE('',#371,#379,#383,.T.);
#385=ORIENTED_EDGE('',*,*,#384,.T.);
#386=CARTESIAN_POINT('',(27.500002051,3.950114529,38.69462091));
#387=VERTEX_POINT('',#386);
#388=CARTESIAN_POINT('',(27.500002051,1.950114529,38.69462091));
#389=DIRECTION('',(0.,1.,0.));
#390=VECTOR('',#389,2.);
#391=LINE('',#388,#390);
#392=EDGE_CURVE('',#379,#387,#391,.T.);
#393=ORIENTED_EDGE('',*,*,#392,.T.);
#394=CARTESIAN_POINT('',(27.499998066,3.950114529,13.20462091));
#395=DIRECTION('',(0.000000156,-0.,1.));
#396=VECTOR('',#395,25.49);
#397=LINE('',#394,#396);
#398=EDGE_CURVE('',#369,#387,#397,.T.);
#399=ORIENTED_EDGE('',*,*,#398,.F.);
#400=EDGE_LOOP('',(#377,#385,#393,#399));
#401=FACE_BOUND('',#400,.T.);
#402=ADVANCED_FACE('',(#401),#367,.T.);
#403=CARTESIAN_POINT('',(26.500002051,-166.580851779,38.694621066));
#404=DIRECTION('',(0.,1.,0.));
#405=DIRECTION('',(0.,-0.,1.));
#406=AXIS2_PLACEMENT_3D('',#403,#404,#405);
#407=CYLINDRICAL_SURFACE('',#406,1.);
#408=ORIENTED_EDGE('',*,*,#392,.F.);
#409=CARTESIAN_POINT('',(26.500002051,1.950114529,38.694621066));
#410=DIRECTION('',(0.,-1.,0.));
#411=DIRECTION('',(0.,0.,-1.));
#412=AXIS2_PLACEMENT_3D('',#409,#410,#411);
#413=CIRCLE('',#412,1.);
#414=EDGE_CURVE('',#379,#331,#413,.T.);
#415=ORIENTED_EDGE('',*,*,#414,.T.);
#416=ORIENTED_EDGE('',*,*,#336,.F.);
#417=CARTESIAN_POINT('',(26.500002051,3.950114529,38.694621066));
#418=DIRECTION('',(-0.,-1.,-0.));
#419=DIRECTION('',(0.,0.,-1.));
#420=AXIS2_PLACEMENT_3D('',#417,#418,#419);
#421=CIRCLE('',#420,1.);
#422=EDGE_CURVE('',#387,#329,#421,.T.);
#423=ORIENTED_EDGE('',*,*,#422,.F.);
#424=EDGE_LOOP('',(#408,#415,#416,#423));
#425=FACE_BOUND('',#424,.T.);
#426=ADVANCED_FACE('',(#425),#407,.F.);
#427=CARTESIAN_POINT('',(-27.509997793,-166.580851779,39.694629508));
#428=DIRECTION('',(1.,-0.,-0.000000156));
#429=DIRECTION('',(-0.000000156,0.,-1.));
#430=AXIS2_PLACEMENT_3D('',#427,#428,#429);
#431=PLANE('',#430);
#432=CARTESIAN_POINT('',(-27.509997949,3.950114529,38.694629508));
#433=VERTEX_POINT('',#432);
#434=CARTESIAN_POINT('',(-27.509997949,1.950114529,38.694629508));
#435=VERTEX_POINT('',#434);
#436=CARTESIAN_POINT('',(-27.509997949,3.950114529,38.694629508));
#437=DIRECTION('',(-0.,-1.,0.));
#438=VECTOR('',#437,2.);
#439=LINE('',#436,#438);
#440=EDGE_CURVE('',#433,#435,#439,.T.);
#441=ORIENTED_EDGE('',*,*,#440,.T.);
#442=CARTESIAN_POINT('',(-27.510001934,1.950114529,13.204629508));
#443=VERTEX_POINT('',#442);
#444=CARTESIAN_POINT('',(-27.509997949,1.950114529,38.694629508));
#445=DIRECTION('',(-0.000000156,0.,-1.));
#446=VECTOR('',#445,25.49);
#447=LINE('',#444,#446);
#448=EDGE_CURVE('',#435,#443,#447,.T.);
#449=ORIENTED_EDGE('',*,*,#448,.T.);
#450=CARTESIAN_POINT('',(-27.510001934,3.950114529,13.204629508));
#451=VERTEX_POINT('',#450);
#452=CARTESIAN_POINT('',(-27.510001934,1.950114529,13.204629508));
#453=DIRECTION('',(0.,1.,0.));
#454=VECTOR('',#453,2.);
#455=LINE('',#452,#454);
#456=EDGE_CURVE('',#443,#451,#455,.T.);
#457=ORIENTED_EDGE('',*,*,#456,.T.);
#458=CARTESIAN_POINT('',(-27.509997949,3.950114529,38.694629508));
#459=DIRECTION('',(-0.000000156,0.,-1.));
#460=VECTOR('',#459,25.49);
#461=LINE('',#458,#460);
#462=EDGE_CURVE('',#433,#451,#461,.T.);
#463=ORIENTED_EDGE('',*,*,#462,.F.);
#464=EDGE_LOOP('',(#441,#449,#457,#463));
#465=FACE_BOUND('',#464,.T.);
#466=ADVANCED_FACE('',(#465),#431,.T.);
#467=CARTESIAN_POINT('',(-26.510001934,-166.580851779,13.204629352));
#468=DIRECTION('',(0.,1.,0.));
#469=DIRECTION('',(0.,-0.,1.));
#470=AXIS2_PLACEMENT_3D('',#467,#468,#469);
#471=CYLINDRICAL_SURFACE('',#470,1.);
#472=ORIENTED_EDGE('',*,*,#456,.F.);
#473=CARTESIAN_POINT('',(-26.510001934,1.950114529,13.204629352));
#474=DIRECTION('',(0.,-1.,0.));
#475=DIRECTION('',(0.,0.,-1.));
#476=AXIS2_PLACEMENT_3D('',#473,#474,#475);
#477=CIRCLE('',#476,1.);
#478=EDGE_CURVE('',#443,#291,#477,.T.);
#479=ORIENTED_EDGE('',*,*,#478,.T.);
#480=ORIENTED_EDGE('',*,*,#296,.F.);
#481=CARTESIAN_POINT('',(-26.510001934,3.950114529,13.204629352));
#482=DIRECTION('',(-0.,-1.,-0.));
#483=DIRECTION('',(0.,0.,-1.));
#484=AXIS2_PLACEMENT_3D('',#481,#482,#483);
#485=CIRCLE('',#484,1.);
#486=EDGE_CURVE('',#451,#289,#485,.T.);
#487=ORIENTED_EDGE('',*,*,#486,.F.);
#488=EDGE_LOOP('',(#472,#479,#480,#487));
#489=FACE_BOUND('',#488,.T.);
#490=ADVANCED_FACE('',(#489),#471,.F.);
#491=CARTESIAN_POINT('',(-26.509997949,3.950114529,38.694629352));
#492=DIRECTION('',(0.,1.,0.));
#493=DIRECTION('',(0.,0.,-1.));
#494=AXIS2_PLACEMENT_3D('',#491,#492,#493);
#495=CYLINDRICAL_SURFACE('',#494,1.);
#496=CARTESIAN_POINT('',(-26.509997949,1.950114529,38.694629352));
#497=DIRECTION('',(-0.,1.,-0.));
#498=DIRECTION('',(0.,0.,-1.));
#499=AXIS2_PLACEMENT_3D('',#496,#497,#498);
#500=CIRCLE('',#499,1.);
#501=EDGE_CURVE('',#435,#339,#500,.T.);
#502=ORIENTED_EDGE('',*,*,#501,.F.);
#503=ORIENTED_EDGE('',*,*,#440,.F.);
#504=CARTESIAN_POINT('',(-26.509997949,3.950114529,38.694629352));
#505=DIRECTION('',(-0.,-1.,-0.));
#506=DIRECTION('',(0.,0.,-1.));
#507=AXIS2_PLACEMENT_3D('',#504,#505,#506);
#508=CIRCLE('',#507,1.);
#509=EDGE_CURVE('',#347,#433,#508,.T.);
#510=ORIENTED_EDGE('',*,*,#509,.F.);
#511=ORIENTED_EDGE('',*,*,#352,.F.);
#512=EDGE_LOOP('',(#502,#503,#510,#511));
#513=FACE_BOUND('',#512,.T.);
#514=ADVANCED_FACE('',(#513),#495,.F.);
#515=CARTESIAN_POINT('',(26.499998066,3.950114529,13.204621066));
#516=DIRECTION('',(0.,1.,0.));
#517=DIRECTION('',(0.,0.,-1.));
#518=AXIS2_PLACEMENT_3D('',#515,#516,#517);
#519=CYLINDRICAL_SURFACE('',#518,1.);
#520=CARTESIAN_POINT('',(26.499998066,1.950114529,13.204621066));
#521=DIRECTION('',(-0.,1.,-0.));
#522=DIRECTION('',(0.,0.,-1.));
#523=AXIS2_PLACEMENT_3D('',#520,#521,#522);
#524=CIRCLE('',#523,1.);
#525=EDGE_CURVE('',#371,#299,#524,.T.);
#526=ORIENTED_EDGE('',*,*,#525,.F.);
#527=ORIENTED_EDGE('',*,*,#376,.F.);
#528=CARTESIAN_POINT('',(26.499998066,3.950114529,13.204621066));
#529=DIRECTION('',(-0.,-1.,-0.));
#530=DIRECTION('',(0.,0.,-1.));
#531=AXIS2_PLACEMENT_3D('',#528,#529,#530);
#532=CIRCLE('',#531,1.);
#533=EDGE_CURVE('',#307,#369,#532,.T.);
#534=ORIENTED_EDGE('',*,*,#533,.F.);
#535=ORIENTED_EDGE('',*,*,#312,.F.);
#536=EDGE_LOOP('',(#526,#527,#534,#535));
#537=FACE_BOUND('',#536,.T.);
#538=ADVANCED_FACE('',(#537),#519,.F.);
#539=CARTESIAN_POINT('',(-37.340831973,-148.679158478,30.858500248));
#540=DIRECTION('',(0.,1.,0.));
#541=DIRECTION('',(-1.,0.,0.));
#542=AXIS2_PLACEMENT_3D('',#539,#540,#541);
#543=CYLINDRICAL_SURFACE('',#542,1.54979687);
#544=CARTESIAN_POINT('',(-38.890628843,5.950114529,30.858500248));
#545=VERTEX_POINT('',#544);
#546=CARTESIAN_POINT('',(-38.890628843,1.950114529,30.858500248));
#547=VERTEX_POINT('',#546);
#548=CARTESIAN_POINT('',(-38.890628843,5.950114529,30.858500248));
#549=DIRECTION('',(-0.,-1.,-0.));
#550=VECTOR('',#549,4.);
#551=LINE('',#548,#550);
#552=EDGE_CURVE('',#545,#547,#551,.T.);
#553=ORIENTED_EDGE('',*,*,#552,.F.);
#554=CARTESIAN_POINT('',(-37.340831973,5.950114529,30.858500248));
#555=DIRECTION('',(-0.,1.,0.));
#556=DIRECTION('',(-1.,-0.,0.));
#557=AXIS2_PLACEMENT_3D('',#554,#555,#556);
#558=CIRCLE('',#557,1.54979687);
#559=EDGE_CURVE('',#545,#545,#558,.T.);
#560=ORIENTED_EDGE('',*,*,#559,.T.);
#561=ORIENTED_EDGE('',*,*,#552,.T.);
#562=CARTESIAN_POINT('',(-37.340831973,1.950114529,29.308703377));
#563=VERTEX_POINT('',#562);
#564=CARTESIAN_POINT('',(-37.340831973,1.950114529,30.858500248));
#565=DIRECTION('',(-0.,1.,-0.));
#566=DIRECTION('',(0.,0.,-1.));
#567=AXIS2_PLACEMENT_3D('',#564,#565,#566);
#568=CIRCLE('',#567,1.54979687);
#569=EDGE_CURVE('',#563,#547,#568,.T.);
#570=ORIENTED_EDGE('',*,*,#569,.F.);
#571=CARTESIAN_POINT('',(-37.340831973,1.950114529,30.858500248));
#572=DIRECTION('',(-0.,1.,-0.));
#573=DIRECTION('',(0.,0.,-1.));
#574=AXIS2_PLACEMENT_3D('',#571,#572,#573);
#575=CIRCLE('',#574,1.54979687);
#576=EDGE_CURVE('',#547,#563,#575,.T.);
#577=ORIENTED_EDGE('',*,*,#576,.F.);
#578=EDGE_LOOP('',(#553,#560,#561,#570,#577));
#579=FACE_BOUND('',#578,.T.);
#580=ADVANCED_FACE('',(#579),#543,.F.);
#581=CARTESIAN_POINT('',(-37.340831973,-156.113454465,15.821441755));
#582=DIRECTION('',(0.,1.,0.));
#583=DIRECTION('',(-1.,0.,0.));
#584=AXIS2_PLACEMENT_3D('',#581,#582,#583);
#585=CYLINDRICAL_SURFACE('',#584,1.54979687);
#586=CARTESIAN_POINT('',(-38.890628843,5.950114529,15.821441755));
#587=VERTEX_POINT('',#586);
#588=CARTESIAN_POINT('',(-38.890628843,1.950114529,15.821441755));
#589=VERTEX_POINT('',#588);
#590=CARTESIAN_POINT('',(-38.890628843,5.950114529,15.821441755));
#591=DIRECTION('',(-0.,-1.,-0.));
#592=VECTOR('',#591,4.);
#593=LINE('',#590,#592);
#594=EDGE_CURVE('',#587,#589,#593,.T.);
#595=ORIENTED_EDGE('',*,*,#594,.F.);
#596=CARTESIAN_POINT('',(-37.340831973,5.950114529,15.821441755));
#597=DIRECTION('',(-0.,1.,0.));
#598=DIRECTION('',(-1.,-0.,0.));
#599=AXIS2_PLACEMENT_3D('',#596,#597,#598);
#600=CIRCLE('',#599,1.54979687);
#601=EDGE_CURVE('',#587,#587,#600,.T.);
#602=ORIENTED_EDGE('',*,*,#601,.T.);
#603=ORIENTED_EDGE('',*,*,#594,.T.);
#604=CARTESIAN_POINT('',(-37.340831973,1.950114529,14.271644884));
#605=VERTEX_POINT('',#604);
#606=CARTESIAN_POINT('',(-37.340831973,1.950114529,15.821441755));
#607=DIRECTION('',(-0.,1.,-0.));
#608=DIRECTION('',(0.,0.,-1.));
#609=AXIS2_PLACEMENT_3D('',#606,#607,#608);
#610=CIRCLE('',#609,1.54979687);
#611=EDGE_CURVE('',#605,#589,#610,.T.);
#612=ORIENTED_EDGE('',*,*,#611,.F.);
#613=CARTESIAN_POINT('',(-37.340831973,1.950114529,15.821441755));
#614=DIRECTION('',(-0.,1.,-0.));
#615=DIRECTION('',(0.,0.,-1.));
#616=AXIS2_PLACEMENT_3D('',#613,#614,#615);
#617=CIRCLE('',#616,1.54979687);
#618=EDGE_CURVE('',#589,#605,#617,.T.);
#619=ORIENTED_EDGE('',*,*,#618,.F.);
#620=EDGE_LOOP('',(#595,#602,#603,#612,#619));
#621=FACE_BOUND('',#620,.T.);
#622=ADVANCED_FACE('',(#621),#585,.F.);
#623=CARTESIAN_POINT('',(37.340831973,-155.85526519,30.858500248));
#624=DIRECTION('',(0.,1.,0.));
#625=DIRECTION('',(-1.,0.,0.));
#626=AXIS2_PLACEMENT_3D('',#623,#624,#625);
#627=CYLINDRICAL_SURFACE('',#626,1.54979687);
#628=CARTESIAN_POINT('',(35.791035102,5.950114529,30.858500248));
#629=VERTEX_POINT('',#628);
#630=CARTESIAN_POINT('',(35.791035102,1.950114529,30.858500248));
#631=VERTEX_POINT('',#630);
#632=CARTESIAN_POINT('',(35.791035102,5.950114529,30.858500248));
#633=DIRECTION('',(-0.,-1.,-0.));
#634=VECTOR('',#633,4.);
#635=LINE('',#632,#634);
#636=EDGE_CURVE('',#629,#631,#635,.T.);
#637=ORIENTED_EDGE('',*,*,#636,.F.);
#638=CARTESIAN_POINT('',(37.340831973,5.950114529,30.858500248));
#639=DIRECTION('',(-0.,1.,0.));
#640=DIRECTION('',(-1.,-0.,0.));
#641=AXIS2_PLACEMENT_3D('',#638,#639,#640);
#642=CIRCLE('',#641,1.54979687);
#643=EDGE_CURVE('',#629,#629,#642,.T.);
#644=ORIENTED_EDGE('',*,*,#643,.T.);
#645=ORIENTED_EDGE('',*,*,#636,.T.);
#646=CARTESIAN_POINT('',(37.340831973,1.950114529,29.308703377));
#647=VERTEX_POINT('',#646);
#648=CARTESIAN_POINT('',(37.340831973,1.950114529,30.858500248));
#649=DIRECTION('',(-0.,1.,-0.));
#650=DIRECTION('',(0.,0.,-1.));
#651=AXIS2_PLACEMENT_3D('',#648,#649,#650);
#652=CIRCLE('',#651,1.54979687);
#653=EDGE_CURVE('',#647,#631,#652,.T.);
#654=ORIENTED_EDGE('',*,*,#653,.F.);
#655=CARTESIAN_POINT('',(37.340831973,1.950114529,30.858500248));
#656=DIRECTION('',(-0.,1.,-0.));
#657=DIRECTION('',(0.,0.,-1.));
#658=AXIS2_PLACEMENT_3D('',#655,#656,#657);
#659=CIRCLE('',#658,1.54979687);
#660=EDGE_CURVE('',#631,#647,#659,.T.);
#661=ORIENTED_EDGE('',*,*,#660,.F.);
#662=EDGE_LOOP('',(#637,#644,#645,#654,#661));
#663=FACE_BOUND('',#662,.T.);
#664=ADVANCED_FACE('',(#663),#627,.F.);
#665=CARTESIAN_POINT('',(37.340831973,-148.367754358,15.821441755));
#666=DIRECTION('',(0.,1.,0.));
#667=DIRECTION('',(-1.,0.,0.));
#668=AXIS2_PLACEMENT_3D('',#665,#666,#667);
#669=CYLINDRICAL_SURFACE('',#668,1.54979687);
#670=CARTESIAN_POINT('',(35.791035102,5.950114529,15.821441755));
#671=VERTEX_POINT('',#670);
#672=CARTESIAN_POINT('',(35.791035102,1.950114529,15.821441755));
#673=VERTEX_POINT('',#672);
#674=CARTESIAN_POINT('',(35.791035102,5.950114529,15.821441755));
#675=DIRECTION('',(-0.,-1.,-0.));
#676=VECTOR('',#675,4.);
#677=LINE('',#674,#676);
#678=EDGE_CURVE('',#671,#673,#677,.T.);
#679=ORIENTED_EDGE('',*,*,#678,.F.);
#680=CARTESIAN_POINT('',(37.340831973,5.950114529,15.821441755));
#681=DIRECTION('',(-0.,1.,0.));
#682=DIRECTION('',(-1.,-0.,0.));
#683=AXIS2_PLACEMENT_3D('',#680,#681,#682);
#684=CIRCLE('',#683,1.54979687);
#685=EDGE_CURVE('',#671,#671,#684,.T.);
#686=ORIENTED_EDGE('',*,*,#685,.T.);
#687=ORIENTED_EDGE('',*,*,#678,.T.);
#688=CARTESIAN_POINT('',(37.340831973,1.950114529,14.271644884));
#689=VERTEX_POINT('',#688);
#690=CARTESIAN_POINT('',(37.340831973,1.950114529,15.821441755));
#691=DIRECTION('',(-0.,1.,-0.));
#692=DIRECTION('',(0.,0.,-1.));
#693=AXIS2_PLACEMENT_3D('',#690,#691,#692);
#694=CIRCLE('',#693,1.54979687);
#695=EDGE_CURVE('',#689,#673,#694,.T.);
#696=ORIENTED_EDGE('',*,*,#695,.F.);
#697=CARTESIAN_POINT('',(37.340831973,1.950114529,15.821441755));
#698=DIRECTION('',(-0.,1.,-0.));
#699=DIRECTION('',(0.,0.,-1.));
#700=AXIS2_PLACEMENT_3D('',#697,#698,#699);
#701=CIRCLE('',#700,1.54979687);
#702=EDGE_CURVE('',#673,#689,#701,.T.);
#703=ORIENTED_EDGE('',*,*,#702,.F.);
#704=EDGE_LOOP('',(#679,#686,#687,#696,#703));
#705=FACE_BOUND('',#704,.T.);
#706=ADVANCED_FACE('',(#705),#669,.F.);
#707=CARTESIAN_POINT('',(-37.931178492,2.350114529,40.210015182));
#708=DIRECTION('',(-0.,-1.,0.));
#709=DIRECTION('',(0.,0.,1.));
#710=AXIS2_PLACEMENT_3D('',#707,#708,#709);
#711=PLANE('',#710);
#712=CARTESIAN_POINT('',(-37.931178492,2.350114529,41.364418665));
#713=VERTEX_POINT('',#712);
#714=CARTESIAN_POINT('',(-37.931178492,2.350114529,39.055611698));
#715=VERTEX_POINT('',#714);
#716=CARTESIAN_POINT('',(-37.931178492,2.350114529,40.210015182));
#717=DIRECTION('',(-0.,-1.,0.));
#718=DIRECTION('',(-0.,0.,-1.));
#719=AXIS2_PLACEMENT_3D('',#716,#717,#718);
#720=CIRCLE('',#719,1.154403484);
#721=EDGE_CURVE('',#713,#715,#720,.T.);
#722=ORIENTED_EDGE('',*,*,#721,.F.);
#723=CARTESIAN_POINT('',(-37.931178492,2.350114529,40.210015182));
#724=DIRECTION('',(-0.,-1.,0.));
#725=DIRECTION('',(-0.,0.,-1.));
#726=AXIS2_PLACEMENT_3D('',#723,#724,#725);
#727=CIRCLE('',#726,1.154403484);
#728=EDGE_CURVE('',#715,#713,#727,.T.);
#729=ORIENTED_EDGE('',*,*,#728,.F.);
#730=EDGE_LOOP('',(#722,#729));
#731=FACE_BOUND('',#730,.T.);
#732=ADVANCED_FACE('',(#731),#711,.F.);
#733=CARTESIAN_POINT('',(-37.931178492,5.550114529,40.210015182));
#734=DIRECTION('',(-0.,-1.,0.));
#735=DIRECTION('',(0.,0.,1.));
#736=AXIS2_PLACEMENT_3D('',#733,#734,#735);
#737=CYLINDRICAL_SURFACE('',#736,1.154403484);
#738=CARTESIAN_POINT('',(-37.931178492,3.950114529,41.364418665));
#739=VERTEX_POINT('',#738);
#740=CARTESIAN_POINT('',(-37.931178492,2.350114529,41.364418665));
#741=DIRECTION('',(0.,1.,-0.));
#742=VECTOR('',#741,1.6);
#743=LINE('',#740,#742);
#744=EDGE_CURVE('',#713,#739,#743,.T.);
#745=ORIENTED_EDGE('',*,*,#744,.F.);
#746=ORIENTED_EDGE('',*,*,#721,.T.);
#747=ORIENTED_EDGE('',*,*,#728,.T.);
#748=ORIENTED_EDGE('',*,*,#744,.T.);
#749=CARTESIAN_POINT('',(-37.931178492,3.950114529,39.055611698));
#750=VERTEX_POINT('',#749);
#751=CARTESIAN_POINT('',(-37.931178492,3.950114529,40.210015182));
#752=DIRECTION('',(0.,1.,0.));
#753=DIRECTION('',(0.,0.,-1.));
#754=AXIS2_PLACEMENT_3D('',#751,#752,#753);
#755=CIRCLE('',#754,1.154403484);
#756=EDGE_CURVE('',#739,#750,#755,.T.);
#757=ORIENTED_EDGE('',*,*,#756,.T.);
#758=CARTESIAN_POINT('',(-37.931178492,3.950114529,40.210015182));
#759=DIRECTION('',(0.,1.,0.));
#760=DIRECTION('',(0.,0.,-1.));
#761=AXIS2_PLACEMENT_3D('',#758,#759,#760);
#762=CIRCLE('',#761,1.154403484);
#763=EDGE_CURVE('',#750,#739,#762,.T.);
#764=ORIENTED_EDGE('',*,*,#763,.T.);
#765=EDGE_LOOP('',(#745,#746,#747,#748,#757,#764));
#766=FACE_BOUND('',#765,.T.);
#767=ADVANCED_FACE('',(#766),#737,.F.);
#768=CARTESIAN_POINT('',(-37.931178492,2.350114529,6.340146241));
#769=DIRECTION('',(-0.,-1.,0.));
#770=DIRECTION('',(0.,0.,1.));
#771=AXIS2_PLACEMENT_3D('',#768,#769,#770);
#772=PLANE('',#771);
#773=CARTESIAN_POINT('',(-37.931178492,2.350114529,7.494549725));
#774=VERTEX_POINT('',#773);
#775=CARTESIAN_POINT('',(-37.931178492,2.350114529,5.185742757));
#776=VERTEX_POINT('',#775);
#777=CARTESIAN_POINT('',(-37.931178492,2.350114529,6.340146241));
#778=DIRECTION('',(-0.,-1.,0.));
#779=DIRECTION('',(-0.,0.,-1.));
#780=AXIS2_PLACEMENT_3D('',#777,#778,#779);
#781=CIRCLE('',#780,1.154403484);
#782=EDGE_CURVE('',#774,#776,#781,.T.);
#783=ORIENTED_EDGE('',*,*,#782,.F.);
#784=CARTESIAN_POINT('',(-37.931178492,2.350114529,6.340146241));
#785=DIRECTION('',(-0.,-1.,0.));
#786=DIRECTION('',(-0.,0.,-1.));
#787=AXIS2_PLACEMENT_3D('',#784,#785,#786);
#788=CIRCLE('',#787,1.154403484);
#789=EDGE_CURVE('',#776,#774,#788,.T.);
#790=ORIENTED_EDGE('',*,*,#789,.F.);
#791=EDGE_LOOP('',(#783,#790));
#792=FACE_BOUND('',#791,.T.);
#793=ADVANCED_FACE('',(#792),#772,.F.);
#794=CARTESIAN_POINT('',(-37.931178492,5.550114529,6.340146241));
#795=DIRECTION('',(-0.,-1.,0.));
#796=DIRECTION('',(0.,0.,1.));
#797=AXIS2_PLACEMENT_3D('',#794,#795,#796);
#798=CYLINDRICAL_SURFACE('',#797,1.154403484);
#799=CARTESIAN_POINT('',(-37.931178492,3.950114529,7.494549725));
#800=VERTEX_POINT('',#799);
#801=CARTESIAN_POINT('',(-37.931178492,2.350114529,7.494549725));
#802=DIRECTION('',(0.,1.,-0.));
#803=VECTOR('',#802,1.6);
#804=LINE('',#801,#803);
#805=EDGE_CURVE('',#774,#800,#804,.T.);
#806=ORIENTED_EDGE('',*,*,#805,.F.);
#807=ORIENTED_EDGE('',*,*,#782,.T.);
#808=ORIENTED_EDGE('',*,*,#789,.T.);
#809=ORIENTED_EDGE('',*,*,#805,.T.);
#810=CARTESIAN_POINT('',(-37.931178492,3.950114529,5.185742757));
#811=VERTEX_POINT('',#810);
#812=CARTESIAN_POINT('',(-37.931178492,3.950114529,6.340146241));
#813=DIRECTION('',(0.,1.,0.));
#814=DIRECTION('',(0.,0.,-1.));
#815=AXIS2_PLACEMENT_3D('',#812,#813,#814);
#816=CIRCLE('',#815,1.154403484);
#817=EDGE_CURVE('',#800,#811,#816,.T.);
#818=ORIENTED_EDGE('',*,*,#817,.T.);
#819=CARTESIAN_POINT('',(-37.931178492,3.950114529,6.340146241));
#820=DIRECTION('',(0.,1.,0.));
#821=DIRECTION('',(0.,0.,-1.));
#822=AXIS2_PLACEMENT_3D('',#819,#820,#821);
#823=CIRCLE('',#822,1.154403484);
#824=EDGE_CURVE('',#811,#800,#823,.T.);
#825=ORIENTED_EDGE('',*,*,#824,.T.);
#826=EDGE_LOOP('',(#806,#807,#808,#809,#818,#825));
#827=FACE_BOUND('',#826,.T.);
#828=ADVANCED_FACE('',(#827),#798,.F.);
#829=CARTESIAN_POINT('',(37.931178492,2.350114529,6.340146241));
#830=DIRECTION('',(-0.,-1.,0.));
#831=DIRECTION('',(0.,0.,1.));
#832=AXIS2_PLACEMENT_3D('',#829,#830,#831);
#833=PLANE('',#832);
#834=CARTESIAN_POINT('',(37.931178492,2.350114529,7.494549725));
#835=VERTEX_POINT('',#834);
#836=CARTESIAN_POINT('',(37.931178492,2.350114529,5.185742757));
#837=VERTEX_POINT('',#836);
#838=CARTESIAN_POINT('',(37.931178492,2.350114529,6.340146241));
#839=DIRECTION('',(-0.,-1.,0.));
#840=DIRECTION('',(-0.,0.,-1.));
#841=AXIS2_PLACEMENT_3D('',#838,#839,#840);
#842=CIRCLE('',#841,1.154403484);
#843=EDGE_CURVE('',#835,#837,#842,.T.);
#844=ORIENTED_EDGE('',*,*,#843,.F.);
#845=CARTESIAN_POINT('',(37.931178492,2.350114529,6.340146241));
#846=DIRECTION('',(-0.,-1.,0.));
#847=DIRECTION('',(-0.,0.,-1.));
#848=AXIS2_PLACEMENT_3D('',#845,#846,#847);
#849=CIRCLE('',#848,1.154403484);
#850=EDGE_CURVE('',#837,#835,#849,.T.);
#851=ORIENTED_EDGE('',*,*,#850,.F.);
#852=EDGE_LOOP('',(#844,#851));
#853=FACE_BOUND('',#852,.T.);
#854=ADVANCED_FACE('',(#853),#833,.F.);
#855=CARTESIAN_POINT('',(37.931178492,5.550114529,6.340146241));
#856=DIRECTION('',(-0.,-1.,0.));
#857=DIRECTION('',(0.,0.,1.));
#858=AXIS2_PLACEMENT_3D('',#855,#856,#857);
#859=CYLINDRICAL_SURFACE('',#858,1.154403484);
#860=CARTESIAN_POINT('',(37.931178492,3.950114529,7.494549725));
#861=VERTEX_POINT('',#860);
#862=CARTESIAN_POINT('',(37.931178492,2.350114529,7.494549725));
#863=DIRECTION('',(0.,1.,-0.));
#864=VECTOR('',#863,1.6);
#865=LINE('',#862,#864);
#866=EDGE_CURVE('',#835,#861,#865,.T.);
#867=ORIENTED_EDGE('',*,*,#866,.F.);
#868=ORIENTED_EDGE('',*,*,#843,.T.);
#869=ORIENTED_EDGE('',*,*,#850,.T.);
#870=ORIENTED_EDGE('',*,*,#866,.T.);
#871=CARTESIAN_POINT('',(37.931178492,3.950114529,5.185742757));
#872=VERTEX_POINT('',#871);
#873=CARTESIAN_POINT('',(37.931178492,3.950114529,6.340146241));
#874=DIRECTION('',(0.,1.,0.));
#875=DIRECTION('',(0.,0.,-1.));
#876=AXIS2_PLACEMENT_3D('',#873,#874,#875);
#877=CIRCLE('',#876,1.154403484);
#878=EDGE_CURVE('',#861,#872,#877,.T.);
#879=ORIENTED_EDGE('',*,*,#878,.T.);
#880=CARTESIAN_POINT('',(37.931178492,3.950114529,6.340146241));
#881=DIRECTION('',(0.,1.,0.));
#882=DIRECTION('',(0.,0.,-1.));
#883=AXIS2_PLACEMENT_3D('',#880,#881,#882);
#884=CIRCLE('',#883,1.154403484);
#885=EDGE_CURVE('',#872,#861,#884,.T.);
#886=ORIENTED_EDGE('',*,*,#885,.T.);
#887=EDGE_LOOP('',(#867,#868,#869,#870,#879,#886));
#888=FACE_BOUND('',#887,.T.);
#889=ADVANCED_FACE('',(#888),#859,.F.);
#890=CARTESIAN_POINT('',(37.931178492,2.350114529,40.210015182));
#891=DIRECTION('',(-0.,-1.,0.));
#892=DIRECTION('',(0.,0.,1.));
#893=AXIS2_PLACEMENT_3D('',#890,#891,#892);
#894=PLANE('',#893);
#895=CARTESIAN_POINT('',(37.931178492,2.350114529,41.364418665));
#896=VERTEX_POINT('',#895);
#897=CARTESIAN_POINT('',(37.931178492,2.350114529,39.055611698));
#898=VERTEX_POINT('',#897);
#899=CARTESIAN_POINT('',(37.931178492,2.350114529,40.210015182));
#900=DIRECTION('',(-0.,-1.,0.));
#901=DIRECTION('',(-0.,0.,-1.));
#902=AXIS2_PLACEMENT_3D('',#899,#900,#901);
#903=CIRCLE('',#902,1.154403484);
#904=EDGE_CURVE('',#896,#898,#903,.T.);
#905=ORIENTED_EDGE('',*,*,#904,.F.);
#906=CARTESIAN_POINT('',(37.931178492,2.350114529,40.210015182));
#907=DIRECTION('',(-0.,-1.,0.));
#908=DIRECTION('',(-0.,0.,-1.));
#909=AXIS2_PLACEMENT_3D('',#906,#907,#908);
#910=CIRCLE('',#909,1.154403484);
#911=EDGE_CURVE('',#898,#896,#910,.T.);
#912=ORIENTED_EDGE('',*,*,#911,.F.);
#913=EDGE_LOOP('',(#905,#912));
#914=FACE_BOUND('',#913,.T.);
#915=ADVANCED_FACE('',(#914),#894,.F.);
#916=CARTESIAN_POINT('',(37.931178492,5.550114529,40.210015182));
#917=DIRECTION('',(-0.,-1.,0.));
#918=DIRECTION('',(0.,0.,1.));
#919=AXIS2_PLACEMENT_3D('',#916,#917,#918);
#920=CYLINDRICAL_SURFACE('',#919,1.154403484);
#921=CARTESIAN_POINT('',(37.931178492,3.950114529,41.364418665));
#922=VERTEX_POINT('',#921);
#923=CARTESIAN_POINT('',(37.931178492,2.350114529,41.364418665));
#924=DIRECTION('',(0.,1.,-0.));
#925=VECTOR('',#924,1.6);
#926=LINE('',#923,#925);
#927=EDGE_CURVE('',#896,#922,#926,.T.);
#928=ORIENTED_EDGE('',*,*,#927,.F.);
#929=ORIENTED_EDGE('',*,*,#904,.T.);
#930=ORIENTED_EDGE('',*,*,#911,.T.);
#931=ORIENTED_EDGE('',*,*,#927,.T.);
#932=CARTESIAN_POINT('',(37.931178492,3.950114529,39.055611698));
#933=VERTEX_POINT('',#932);
#934=CARTESIAN_POINT('',(37.931178492,3.950114529,40.210015182));
#935=DIRECTION('',(0.,1.,0.));
#936=DIRECTION('',(0.,0.,-1.));
#937=AXIS2_PLACEMENT_3D('',#934,#935,#936);
#938=CIRCLE('',#937,1.154403484);
#939=EDGE_CURVE('',#922,#933,#938,.T.);
#940=ORIENTED_EDGE('',*,*,#939,.T.);
#941=CARTESIAN_POINT('',(37.931178492,3.950114529,40.210015182));
#942=DIRECTION('',(0.,1.,0.));
#943=DIRECTION('',(0.,0.,-1.));
#944=AXIS2_PLACEMENT_3D('',#941,#942,#943);
#945=CIRCLE('',#944,1.154403484);
#946=EDGE_CURVE('',#933,#922,#945,.T.);
#947=ORIENTED_EDGE('',*,*,#946,.T.);
#948=EDGE_LOOP('',(#928,#929,#930,#931,#940,#947));
#949=FACE_BOUND('',#948,.T.);
#950=ADVANCED_FACE('',(#949),#920,.F.);
#951=CARTESIAN_POINT('',(-42.931178492,5.950114529,11.520146241));
#952=DIRECTION('',(0.,0.,-1.));
#953=DIRECTION('',(-0.,-1.,-0.));
#954=AXIS2_PLACEMENT_3D('',#951,#952,#953);
#955=PLANE('',#954);
#956=CARTESIAN_POINT('',(-33.111178492,5.950114529,11.520146241));
#957=VERTEX_POINT('',#956);
#958=CARTESIAN_POINT('',(-33.111178492,3.950114529,11.520146241));
#959=VERTEX_POINT('',#958);
#960=CARTESIAN_POINT('',(-33.111178492,5.950114529,11.520146241));
#961=DIRECTION('',(-0.,-1.,-0.));
#962=VECTOR('',#961,2.);
#963=LINE('',#960,#962);
#964=EDGE_CURVE('',#957,#959,#963,.T.);
#965=ORIENTED_EDGE('',*,*,#964,.T.);
#966=CARTESIAN_POINT('',(-37.931178492,3.950114529,11.520146241));
#967=VERTEX_POINT('',#966);
#968=CARTESIAN_POINT('',(-37.931178492,3.950114529,11.520146241));
#969=DIRECTION('',(1.,-0.,0.));
#970=VECTOR('',#969,4.82);
#971=LINE('',#968,#970);
#972=EDGE_CURVE('',#967,#959,#971,.T.);
#973=ORIENTED_EDGE('',*,*,#972,.F.);
#974=CARTESIAN_POINT('',(-37.931178492,5.950114529,11.520146241));
#975=VERTEX_POINT('',#974);
#976=CARTESIAN_POINT('',(-37.931178492,5.950114529,11.520146241));
#977=DIRECTION('',(-0.,-1.,-0.));
#978=VECTOR('',#977,2.);
#979=LINE('',#976,#978);
#980=EDGE_CURVE('',#975,#967,#979,.T.);
#981=ORIENTED_EDGE('',*,*,#980,.F.);
#982=CARTESIAN_POINT('',(-37.931178492,5.950114529,11.520146241));
#983=DIRECTION('',(1.,-0.,0.));
#984=VECTOR('',#983,4.82);
#985=LINE('',#982,#984);
#986=EDGE_CURVE('',#975,#957,#985,.T.);
#987=ORIENTED_EDGE('',*,*,#986,.T.);
#988=EDGE_LOOP('',(#965,#973,#981,#987));
#989=FACE_BOUND('',#988,.T.);
#990=ADVANCED_FACE('',(#989),#955,.T.);
#991=CARTESIAN_POINT('',(-33.111178492,5.950114529,3.340146241));
#992=DIRECTION('',(1.,-0.,0.));
#993=DIRECTION('',(0.,0.,1.));
#994=AXIS2_PLACEMENT_3D('',#991,#992,#993);
#995=PLANE('',#994);
#996=CARTESIAN_POINT('',(-33.111178492,5.950114529,35.030015182));
#997=VERTEX_POINT('',#996);
#998=CARTESIAN_POINT('',(-33.111178492,3.950114529,35.030015182));
#999=VERTEX_POINT('',#998);
#1000=CARTESIAN_POINT('',(-33.111178492,5.950114529,35.030015182));
#1001=DIRECTION('',(-0.,-1.,-0.));
#1002=VECTOR('',#1001,2.);
#1003=LINE('',#1000,#1002);
#1004=EDGE_CURVE('',#997,#999,#1003,.T.);
#1005=ORIENTED_EDGE('',*,*,#1004,.T.);
#1006=CARTESIAN_POINT('',(-33.111178492,3.950114529,11.520146241));
#1007=DIRECTION('',(-0.,-0.,1.));
#1008=VECTOR('',#1007,23.509868941);
#1009=LINE('',#1006,#1008);
#1010=EDGE_CURVE('',#959,#999,#1009,.T.);
#1011=ORIENTED_EDGE('',*,*,#1010,.F.);
#1012=ORIENTED_EDGE('',*,*,#964,.F.);
#1013=CARTESIAN_POINT('',(-33.111178492,5.950114529,11.520146241));
#1014=DIRECTION('',(-0.,-0.,1.));
#1015=VECTOR('',#1014,23.509868941);
#1016=LINE('',#1013,#1015);
#1017=EDGE_CURVE('',#957,#997,#1016,.T.);
#1018=ORIENTED_EDGE('',*,*,#1017,.T.);
#1019=EDGE_LOOP('',(#1005,#1011,#1012,#1018));
#1020=FACE_BOUND('',#1019,.T.);
#1021=ADVANCED_FACE('',(#1020),#995,.T.);
#1022=CARTESIAN_POINT('',(-32.931178492,5.950114529,35.030015182));
#1023=DIRECTION('',(-0.,-0.,1.));
#1024=DIRECTION('',(0.,1.,0.));
#1025=AXIS2_PLACEMENT_3D('',#1022,#1023,#1024);
#1026=PLANE('',#1025);
#1027=CARTESIAN_POINT('',(-37.931178492,5.950114529,35.030015182));
#1028=VERTEX_POINT('',#1027);
#1029=CARTESIAN_POINT('',(-37.931178492,3.950114529,35.030015182));
#1030=VERTEX_POINT('',#1029);
#1031=CARTESIAN_POINT('',(-37.931178492,5.950114529,35.030015182));
#1032=DIRECTION('',(-0.,-1.,-0.));
#1033=VECTOR('',#1032,2.);
#1034=LINE('',#1031,#1033);
#1035=EDGE_CURVE('',#1028,#1030,#1034,.T.);
#1036=ORIENTED_EDGE('',*,*,#1035,.T.);
#1037=CARTESIAN_POINT('',(-33.111178492,3.950114529,35.030015182));
#1038=DIRECTION('',(-1.,0.,0.));
#1039=VECTOR('',#1038,4.82);
#1040=LINE('',#1037,#1039);
#1041=EDGE_CURVE('',#999,#1030,#1040,.T.);
#1042=ORIENTED_EDGE('',*,*,#1041,.F.);
#1043=ORIENTED_EDGE('',*,*,#1004,.F.);
#1044=CARTESIAN_POINT('',(-33.111178492,5.950114529,35.030015182));
#1045=DIRECTION('',(-1.,0.,0.));
#1046=VECTOR('',#1045,4.82);
#1047=LINE('',#1044,#1046);
#1048=EDGE_CURVE('',#997,#1028,#1047,.T.);
#1049=ORIENTED_EDGE('',*,*,#1048,.T.);
#1050=EDGE_LOOP('',(#1036,#1042,#1043,#1049));
#1051=FACE_BOUND('',#1050,.T.);
#1052=ADVANCED_FACE('',(#1051),#1026,.T.);
#1053=CARTESIAN_POINT('',(32.931178492,5.950114529,35.030015182));
#1054=DIRECTION('',(-0.,-0.,1.));
#1055=DIRECTION('',(0.,1.,0.));
#1056=AXIS2_PLACEMENT_3D('',#1053,#1054,#1055);
#1057=PLANE('',#1056);
#1058=CARTESIAN_POINT('',(33.111178492,5.950114529,35.030015182));
#1059=VERTEX_POINT('',#1058);
#1060=CARTESIAN_POINT('',(33.111178492,3.950114529,35.030015182));
#1061=VERTEX_POINT('',#1060);
#1062=CARTESIAN_POINT('',(33.111178492,5.950114529,35.030015182));
#1063=DIRECTION('',(-0.,-1.,-0.));
#1064=VECTOR('',#1063,2.);
#1065=LINE('',#1062,#1064);
#1066=EDGE_CURVE('',#1059,#1061,#1065,.T.);
#1067=ORIENTED_EDGE('',*,*,#1066,.T.);
#1068=CARTESIAN_POINT('',(37.931178492,3.950114529,35.030015182));
#1069=VERTEX_POINT('',#1068);
#1070=CARTESIAN_POINT('',(37.931178492,3.950114529,35.030015182));
#1071=DIRECTION('',(-1.,0.,0.));
#1072=VECTOR('',#1071,4.82);
#1073=LINE('',#1070,#1072);
#1074=EDGE_CURVE('',#1069,#1061,#1073,.T.);
#1075=ORIENTED_EDGE('',*,*,#1074,.F.);
#1076=CARTESIAN_POINT('',(37.931178492,5.950114529,35.030015182));
#1077=VERTEX_POINT('',#1076);
#1078=CARTESIAN_POINT('',(37.931178492,5.950114529,35.030015182));
#1079=DIRECTION('',(-0.,-1.,-0.));
#1080=VECTOR('',#1079,2.);
#1081=LINE('',#1078,#1080);
#1082=EDGE_CURVE('',#1077,#1069,#1081,.T.);
#1083=ORIENTED_EDGE('',*,*,#1082,.F.);
#1084=CARTESIAN_POINT('',(37.931178492,5.950114529,35.030015182));
#1085=DIRECTION('',(-1.,0.,0.));
#1086=VECTOR('',#1085,4.82);
#1087=LINE('',#1084,#1086);
#1088=EDGE_CURVE('',#1077,#1059,#1087,.T.);
#1089=ORIENTED_EDGE('',*,*,#1088,.T.);
#1090=EDGE_LOOP('',(#1067,#1075,#1083,#1089));
#1091=FACE_BOUND('',#1090,.T.);
#1092=ADVANCED_FACE('',(#1091),#1057,.T.);
#1093=CARTESIAN_POINT('',(33.111178492,5.950114529,43.210015182));
#1094=DIRECTION('',(-1.,0.,0.));
#1095=DIRECTION('',(0.,0.,-1.));
#1096=AXIS2_PLACEMENT_3D('',#1093,#1094,#1095);
#1097=PLANE('',#1096);
#1098=CARTESIAN_POINT('',(33.111178492,5.950114529,11.520146241));
#1099=VERTEX_POINT('',#1098);
#1100=CARTESIAN_POINT('',(33.111178492,3.950114529,11.520146241));
#1101=VERTEX_POINT('',#1100);
#1102=CARTESIAN_POINT('',(33.111178492,5.950114529,11.520146241));
#1103=DIRECTION('',(-0.,-1.,-0.));
#1104=VECTOR('',#1103,2.);
#1105=LINE('',#1102,#1104);
#1106=EDGE_CURVE('',#1099,#1101,#1105,.T.);
#1107=ORIENTED_EDGE('',*,*,#1106,.T.);
#1108=CARTESIAN_POINT('',(33.111178492,3.950114529,35.030015182));
#1109=DIRECTION('',(0.,0.,-1.));
#1110=VECTOR('',#1109,23.509868941);
#1111=LINE('',#1108,#1110);
#1112=EDGE_CURVE('',#1061,#1101,#1111,.T.);
#1113=ORIENTED_EDGE('',*,*,#1112,.F.);
#1114=ORIENTED_EDGE('',*,*,#1066,.F.);
#1115=CARTESIAN_POINT('',(33.111178492,5.950114529,35.030015182));
#1116=DIRECTION('',(0.,0.,-1.));
#1117=VECTOR('',#1116,23.509868941);
#1118=LINE('',#1115,#1117);
#1119=EDGE_CURVE('',#1059,#1099,#1118,.T.);
#1120=ORIENTED_EDGE('',*,*,#1119,.T.);
#1121=EDGE_LOOP('',(#1107,#1113,#1114,#1120));
#1122=FACE_BOUND('',#1121,.T.);
#1123=ADVANCED_FACE('',(#1122),#1097,.T.);
#1124=CARTESIAN_POINT('',(42.931178492,5.950114529,11.520146241));
#1125=DIRECTION('',(0.,0.,-1.));
#1126=DIRECTION('',(-0.,-1.,-0.));
#1127=AXIS2_PLACEMENT_3D('',#1124,#1125,#1126);
#1128=PLANE('',#1127);
#1129=CARTESIAN_POINT('',(37.931178492,5.950114529,11.520146241));
#1130=VERTEX_POINT('',#1129);
#1131=CARTESIAN_POINT('',(37.931178492,3.950114529,11.520146241));
#1132=VERTEX_POINT('',#1131);
#1133=CARTESIAN_POINT('',(37.931178492,5.950114529,11.520146241));
#1134=DIRECTION('',(-0.,-1.,-0.));
#1135=VECTOR('',#1134,2.);
#1136=LINE('',#1133,#1135);
#1137=EDGE_CURVE('',#1130,#1132,#1136,.T.);
#1138=ORIENTED_EDGE('',*,*,#1137,.T.);
#1139=CARTESIAN_POINT('',(33.111178492,3.950114529,11.520146241));
#1140=DIRECTION('',(1.,-0.,-0.));
#1141=VECTOR('',#1140,4.82);
#1142=LINE('',#1139,#1141);
#1143=EDGE_CURVE('',#1101,#1132,#1142,.T.);
#1144=ORIENTED_EDGE('',*,*,#1143,.F.);
#1145=ORIENTED_EDGE('',*,*,#1106,.F.);
#1146=CARTESIAN_POINT('',(33.111178492,5.950114529,11.520146241));
#1147=DIRECTION('',(1.,-0.,-0.));
#1148=VECTOR('',#1147,4.82);
#1149=LINE('',#1146,#1148);
#1150=EDGE_CURVE('',#1099,#1130,#1149,.T.);
#1151=ORIENTED_EDGE('',*,*,#1150,.T.);
#1152=EDGE_LOOP('',(#1138,#1144,#1145,#1151));
#1153=FACE_BOUND('',#1152,.T.);
#1154=ADVANCED_FACE('',(#1153),#1128,.T.);
#1155=CARTESIAN_POINT('',(-37.931178492,5.950114529,40.210015182));
#1156=DIRECTION('',(-0.,-1.,-0.));
#1157=DIRECTION('',(-0.,-0.,1.));
#1158=AXIS2_PLACEMENT_3D('',#1155,#1156,#1157);
#1159=CYLINDRICAL_SURFACE('',#1158,5.18);
#1160=CARTESIAN_POINT('',(-37.931178492,3.950114529,45.390015182));
#1161=VERTEX_POINT('',#1160);
#1162=CARTESIAN_POINT('',(-37.931178492,3.950114529,40.210015182));
#1163=DIRECTION('',(0.,1.,0.));
#1164=DIRECTION('',(-1.,0.,0.));
#1165=AXIS2_PLACEMENT_3D('',#1162,#1163,#1164);
#1166=CIRCLE('',#1165,5.18);
#1167=EDGE_CURVE('',#1030,#1161,#1166,.T.);
#1168=ORIENTED_EDGE('',*,*,#1167,.F.);
#1169=ORIENTED_EDGE('',*,*,#1035,.F.);
#1170=CARTESIAN_POINT('',(-37.931178492,5.950114529,45.390015182));
#1171=VERTEX_POINT('',#1170);
#1172=CARTESIAN_POINT('',(-37.931178492,5.950114529,40.210015182));
#1173=DIRECTION('',(0.,1.,0.));
#1174=DIRECTION('',(-1.,0.,0.));
#1175=AXIS2_PLACEMENT_3D('',#1172,#1173,#1174);
#1176=CIRCLE('',#1175,5.18);
#1177=EDGE_CURVE('',#1028,#1171,#1176,.T.);
#1178=ORIENTED_EDGE('',*,*,#1177,.T.);
#1179=CARTESIAN_POINT('',(-37.931178492,5.950114529,45.390015182));
#1180=DIRECTION('',(-0.,-1.,-0.));
#1181=VECTOR('',#1180,2.);
#1182=LINE('',#1179,#1181);
#1183=EDGE_CURVE('',#1171,#1161,#1182,.T.);
#1184=ORIENTED_EDGE('',*,*,#1183,.T.);
#1185=EDGE_LOOP('',(#1168,#1169,#1178,#1184));
#1186=FACE_BOUND('',#1185,.T.);
#1187=ADVANCED_FACE('',(#1186),#1159,.F.);
#1188=CARTESIAN_POINT('',(37.931178492,5.950114529,40.210015182));
#1189=DIRECTION('',(-0.,-1.,-0.));
#1190=DIRECTION('',(-0.,-0.,1.));
#1191=AXIS2_PLACEMENT_3D('',#1188,#1189,#1190);
#1192=CYLINDRICAL_SURFACE('',#1191,5.18);
#1193=CARTESIAN_POINT('',(37.931178492,3.950114529,45.390015182));
#1194=VERTEX_POINT('',#1193);
#1195=CARTESIAN_POINT('',(37.931178492,3.950114529,40.210015182));
#1196=DIRECTION('',(0.,1.,0.));
#1197=DIRECTION('',(1.,-0.,-0.));
#1198=AXIS2_PLACEMENT_3D('',#1195,#1196,#1197);
#1199=CIRCLE('',#1198,5.18);
#1200=EDGE_CURVE('',#1194,#1069,#1199,.T.);
#1201=ORIENTED_EDGE('',*,*,#1200,.F.);
#1202=CARTESIAN_POINT('',(37.931178492,5.950114529,45.390015182));
#1203=VERTEX_POINT('',#1202);
#1204=CARTESIAN_POINT('',(37.931178492,5.950114529,45.390015182));
#1205=DIRECTION('',(-0.,-1.,-0.));
#1206=VECTOR('',#1205,2.);
#1207=LINE('',#1204,#1206);
#1208=EDGE_CURVE('',#1203,#1194,#1207,.T.);
#1209=ORIENTED_EDGE('',*,*,#1208,.F.);
#1210=CARTESIAN_POINT('',(37.931178492,5.950114529,40.210015182));
#1211=DIRECTION('',(0.,1.,0.));
#1212=DIRECTION('',(1.,-0.,-0.));
#1213=AXIS2_PLACEMENT_3D('',#1210,#1211,#1212);
#1214=CIRCLE('',#1213,5.18);
#1215=EDGE_CURVE('',#1203,#1077,#1214,.T.);
#1216=ORIENTED_EDGE('',*,*,#1215,.T.);
#1217=ORIENTED_EDGE('',*,*,#1082,.T.);
#1218=EDGE_LOOP('',(#1201,#1209,#1216,#1217));
#1219=FACE_BOUND('',#1218,.T.);
#1220=ADVANCED_FACE('',(#1219),#1192,.F.);
#1221=CARTESIAN_POINT('',(37.931178492,5.950114529,6.340146241));
#1222=DIRECTION('',(-0.,-1.,-0.));
#1223=DIRECTION('',(-0.,-0.,1.));
#1224=AXIS2_PLACEMENT_3D('',#1221,#1222,#1223);
#1225=CYLINDRICAL_SURFACE('',#1224,5.18);
#1226=CARTESIAN_POINT('',(37.931178492,3.950114529,1.160146241));
#1227=VERTEX_POINT('',#1226);
#1228=CARTESIAN_POINT('',(37.931178492,3.950114529,6.340146241));
#1229=DIRECTION('',(0.,1.,0.));
#1230=DIRECTION('',(1.,-0.,-0.));
#1231=AXIS2_PLACEMENT_3D('',#1228,#1229,#1230);
#1232=CIRCLE('',#1231,5.18);
#1233=EDGE_CURVE('',#1132,#1227,#1232,.T.);
#1234=ORIENTED_EDGE('',*,*,#1233,.F.);
#1235=ORIENTED_EDGE('',*,*,#1137,.F.);
#1236=CARTESIAN_POINT('',(37.931178492,5.950114529,1.160146241));
#1237=VERTEX_POINT('',#1236);
#1238=CARTESIAN_POINT('',(37.931178492,5.950114529,6.340146241));
#1239=DIRECTION('',(0.,1.,0.));
#1240=DIRECTION('',(1.,-0.,-0.));
#1241=AXIS2_PLACEMENT_3D('',#1238,#1239,#1240);
#1242=CIRCLE('',#1241,5.18);
#1243=EDGE_CURVE('',#1130,#1237,#1242,.T.);
#1244=ORIENTED_EDGE('',*,*,#1243,.T.);
#1245=CARTESIAN_POINT('',(37.931178492,5.950114529,1.160146241));
#1246=DIRECTION('',(-0.,-1.,-0.));
#1247=VECTOR('',#1246,2.);
#1248=LINE('',#1245,#1247);
#1249=EDGE_CURVE('',#1237,#1227,#1248,.T.);
#1250=ORIENTED_EDGE('',*,*,#1249,.T.);
#1251=EDGE_LOOP('',(#1234,#1235,#1244,#1250));
#1252=FACE_BOUND('',#1251,.T.);
#1253=ADVANCED_FACE('',(#1252),#1225,.F.);
#1254=CARTESIAN_POINT('',(-37.931178492,5.950114529,6.340146241));
#1255=DIRECTION('',(-0.,-1.,-0.));
#1256=DIRECTION('',(-0.,-0.,1.));
#1257=AXIS2_PLACEMENT_3D('',#1254,#1255,#1256);
#1258=CYLINDRICAL_SURFACE('',#1257,5.18);
#1259=CARTESIAN_POINT('',(-37.931178492,3.950114529,1.160146241));
#1260=VERTEX_POINT('',#1259);
#1261=CARTESIAN_POINT('',(-37.931178492,3.950114529,6.340146241));
#1262=DIRECTION('',(0.,1.,0.));
#1263=DIRECTION('',(-1.,0.,0.));
#1264=AXIS2_PLACEMENT_3D('',#1261,#1262,#1263);
#1265=CIRCLE('',#1264,5.18);
#1266=EDGE_CURVE('',#1260,#967,#1265,.T.);
#1267=ORIENTED_EDGE('',*,*,#1266,.F.);
#1268=CARTESIAN_POINT('',(-37.931178492,5.950114529,1.160146241));
#1269=VERTEX_POINT('',#1268);
#1270=CARTESIAN_POINT('',(-37.931178492,5.950114529,1.160146241));
#1271=DIRECTION('',(-0.,-1.,-0.));
#1272=VECTOR('',#1271,2.);
#1273=LINE('',#1270,#1272);
#1274=EDGE_CURVE('',#1269,#1260,#1273,.T.);
#1275=ORIENTED_EDGE('',*,*,#1274,.F.);
#1276=CARTESIAN_POINT('',(-37.931178492,5.950114529,6.340146241));
#1277=DIRECTION('',(0.,1.,0.));
#1278=DIRECTION('',(-1.,0.,0.));
#1279=AXIS2_PLACEMENT_3D('',#1276,#1277,#1278);
#1280=CIRCLE('',#1279,5.18);
#1281=EDGE_CURVE('',#1269,#975,#1280,.T.);
#1282=ORIENTED_EDGE('',*,*,#1281,.T.);
#1283=ORIENTED_EDGE('',*,*,#980,.T.);
#1284=EDGE_LOOP('',(#1267,#1275,#1282,#1283));
#1285=FACE_BOUND('',#1284,.T.);
#1286=ADVANCED_FACE('',(#1285),#1258,.F.);
#1287=CARTESIAN_POINT('',(-32.931178492,5.950114529,1.160146241));
#1288=DIRECTION('',(-0.,-0.,1.));
#1289=DIRECTION('',(0.,1.,0.));
#1290=AXIS2_PLACEMENT_3D('',#1287,#1288,#1289);
#1291=PLANE('',#1290);
#1292=CARTESIAN_POINT('',(37.931178492,3.950114529,1.160146241));
#1293=DIRECTION('',(-1.,0.,0.));
#1294=VECTOR('',#1293,75.862356984);
#1295=LINE('',#1292,#1294);
#1296=EDGE_CURVE('',#1227,#1260,#1295,.T.);
#1297=ORIENTED_EDGE('',*,*,#1296,.F.);
#1298=ORIENTED_EDGE('',*,*,#1249,.F.);
#1299=CARTESIAN_POINT('',(37.931178492,5.950114529,1.160146241));
#1300=DIRECTION('',(-1.,0.,0.));
#1301=VECTOR('',#1300,75.862356984);
#1302=LINE('',#1299,#1301);
#1303=EDGE_CURVE('',#1237,#1269,#1302,.T.);
#1304=ORIENTED_EDGE('',*,*,#1303,.T.);
#1305=ORIENTED_EDGE('',*,*,#1274,.T.);
#1306=EDGE_LOOP('',(#1297,#1298,#1304,#1305));
#1307=FACE_BOUND('',#1306,.T.);
#1308=ADVANCED_FACE('',(#1307),#1291,.T.);
#1309=CARTESIAN_POINT('',(-42.931178492,5.950114529,45.390015182));
#1310=DIRECTION('',(0.,0.,-1.));
#1311=DIRECTION('',(-0.,-1.,-0.));
#1312=AXIS2_PLACEMENT_3D('',#1309,#1310,#1311);
#1313=PLANE('',#1312);
#1314=CARTESIAN_POINT('',(-37.931178492,3.950114529,45.390015182));
#1315=DIRECTION('',(1.,-0.,0.));
#1316=VECTOR('',#1315,75.862356984);
#1317=LINE('',#1314,#1316);
#1318=EDGE_CURVE('',#1161,#1194,#1317,.T.);
#1319=ORIENTED_EDGE('',*,*,#1318,.F.);
#1320=ORIENTED_EDGE('',*,*,#1183,.F.);
#1321=CARTESIAN_POINT('',(-37.931178492,5.950114529,45.390015182));
#1322=DIRECTION('',(1.,-0.,0.));
#1323=VECTOR('',#1322,75.862356984);
#1324=LINE('',#1321,#1323);
#1325=EDGE_CURVE('',#1171,#1203,#1324,.T.);
#1326=ORIENTED_EDGE('',*,*,#1325,.T.);
#1327=ORIENTED_EDGE('',*,*,#1208,.T.);
#1328=EDGE_LOOP('',(#1319,#1320,#1326,#1327));
#1329=FACE_BOUND('',#1328,.T.);
#1330=ADVANCED_FACE('',(#1329),#1313,.T.);
#1331=CARTESIAN_POINT('',(-0.,3.950114529,6.340146241));
#1332=DIRECTION('',(0.,1.,0.));
#1333=DIRECTION('',(0.,0.,-1.));
#1334=AXIS2_PLACEMENT_3D('',#1331,#1332,#1333);
#1335=PLANE('',#1334);
#1336=ORIENTED_EDGE('',*,*,#756,.F.);
#1337=ORIENTED_EDGE('',*,*,#763,.F.);
#1338=EDGE_LOOP('',(#1336,#1337));
#1339=FACE_BOUND('',#1338,.T.);
#1340=ORIENTED_EDGE('',*,*,#817,.F.);
#1341=ORIENTED_EDGE('',*,*,#824,.F.);
#1342=EDGE_LOOP('',(#1340,#1341));
#1343=FACE_BOUND('',#1342,.T.);
#1344=ORIENTED_EDGE('',*,*,#878,.F.);
#1345=ORIENTED_EDGE('',*,*,#885,.F.);
#1346=EDGE_LOOP('',(#1344,#1345));
#1347=FACE_BOUND('',#1346,.T.);
#1348=ORIENTED_EDGE('',*,*,#939,.F.);
#1349=ORIENTED_EDGE('',*,*,#946,.F.);
#1350=EDGE_LOOP('',(#1348,#1349));
#1351=FACE_BOUND('',#1350,.T.);
#1352=ORIENTED_EDGE('',*,*,#1266,.T.);
#1353=ORIENTED_EDGE('',*,*,#972,.T.);
#1354=ORIENTED_EDGE('',*,*,#1010,.T.);
#1355=ORIENTED_EDGE('',*,*,#1041,.T.);
#1356=ORIENTED_EDGE('',*,*,#1167,.T.);
#1357=ORIENTED_EDGE('',*,*,#1318,.T.);
#1358=ORIENTED_EDGE('',*,*,#1200,.T.);
#1359=ORIENTED_EDGE('',*,*,#1074,.T.);
#1360=ORIENTED_EDGE('',*,*,#1112,.T.);
#1361=ORIENTED_EDGE('',*,*,#1143,.T.);
#1362=ORIENTED_EDGE('',*,*,#1233,.T.);
#1363=ORIENTED_EDGE('',*,*,#1296,.T.);
#1364=EDGE_LOOP('',(#1352,#1353,#1354,#1355,#1356,#1357,#1358,#1359,#1360,#1361,#1362,#1363));
#1365=FACE_BOUND('',#1364,.T.);
#1366=ORIENTED_EDGE('',*,*,#462,.T.);
#1367=ORIENTED_EDGE('',*,*,#486,.T.);
#1368=ORIENTED_EDGE('',*,*,#318,.T.);
#1369=ORIENTED_EDGE('',*,*,#533,.T.);
#1370=ORIENTED_EDGE('',*,*,#398,.T.);
#1371=ORIENTED_EDGE('',*,*,#422,.T.);
#1372=ORIENTED_EDGE('',*,*,#358,.T.);
#1373=ORIENTED_EDGE('',*,*,#509,.T.);
#1374=EDGE_LOOP('',(#1366,#1367,#1368,#1369,#1370,#1371,#1372,#1373));
#1375=FACE_BOUND('',#1374,.T.);
#1376=ADVANCED_FACE('',(#1339,#1343,#1347,#1351,#1365,#1375),#1335,.T.);
#1377=CARTESIAN_POINT('',(37.340831973,5.950114529,15.821441755));
#1378=DIRECTION('',(-0.,1.,0.));
#1379=DIRECTION('',(1.,0.,-0.));
#1380=AXIS2_PLACEMENT_3D('',#1377,#1378,#1379);
#1381=PLANE('',#1380);
#1382=ORIENTED_EDGE('',*,*,#685,.F.);
#1383=EDGE_LOOP('',(#1382));
#1384=FACE_BOUND('',#1383,.T.);
#1385=ORIENTED_EDGE('',*,*,#643,.F.);
#1386=EDGE_LOOP('',(#1385));
#1387=FACE_BOUND('',#1386,.T.);
#1388=ORIENTED_EDGE('',*,*,#601,.F.);
#1389=EDGE_LOOP('',(#1388));
#1390=FACE_BOUND('',#1389,.T.);
#1391=ORIENTED_EDGE('',*,*,#559,.F.);
#1392=EDGE_LOOP('',(#1391));
#1393=FACE_BOUND('',#1392,.T.);
#1394=ORIENTED_EDGE('',*,*,#1281,.F.);
#1395=ORIENTED_EDGE('',*,*,#1303,.F.);
#1396=ORIENTED_EDGE('',*,*,#1243,.F.);
#1397=ORIENTED_EDGE('',*,*,#1150,.F.);
#1398=ORIENTED_EDGE('',*,*,#1119,.F.);
#1399=ORIENTED_EDGE('',*,*,#1088,.F.);
#1400=ORIENTED_EDGE('',*,*,#1215,.F.);
#1401=ORIENTED_EDGE('',*,*,#1325,.F.);
#1402=ORIENTED_EDGE('',*,*,#1177,.F.);
#1403=ORIENTED_EDGE('',*,*,#1048,.F.);
#1404=ORIENTED_EDGE('',*,*,#1017,.F.);
#1405=ORIENTED_EDGE('',*,*,#986,.F.);
#1406=EDGE_LOOP('',(#1394,#1395,#1396,#1397,#1398,#1399,#1400,#1401,#1402,#1403,#1404,#1405));
#1407=FACE_BOUND('',#1406,.T.);
#1408=ORIENTED_EDGE('',*,*,#222,.F.);
#1409=ORIENTED_EDGE('',*,*,#253,.F.);
#1410=ORIENTED_EDGE('',*,*,#277,.F.);
#1411=ORIENTED_EDGE('',*,*,#56,.F.);
#1412=ORIENTED_EDGE('',*,*,#94,.F.);
#1413=ORIENTED_EDGE('',*,*,#125,.F.);
#1414=ORIENTED_EDGE('',*,*,#158,.F.);
#1415=ORIENTED_EDGE('',*,*,#189,.F.);
#1416=EDGE_LOOP('',(#1408,#1409,#1410,#1411,#1412,#1413,#1414,#1415));
#1417=FACE_BOUND('',#1416,.T.);
#1418=ADVANCED_FACE('',(#1384,#1387,#1390,#1393,#1407,#1417),#1381,.T.);
#1419=CARTESIAN_POINT('',(-52.920363793,1.950114529,-143.49924953));
#1420=DIRECTION('',(0.,-1.,0.));
#1421=DIRECTION('',(0.,0.,-1.));
#1422=AXIS2_PLACEMENT_3D('',#1419,#1420,#1421);
#1423=PLANE('',#1422);
#1424=ORIENTED_EDGE('',*,*,#448,.F.);
#1425=ORIENTED_EDGE('',*,*,#501,.T.);
#1426=ORIENTED_EDGE('',*,*,#344,.F.);
#1427=ORIENTED_EDGE('',*,*,#414,.F.);
#1428=ORIENTED_EDGE('',*,*,#384,.F.);
#1429=ORIENTED_EDGE('',*,*,#525,.T.);
#1430=ORIENTED_EDGE('',*,*,#304,.F.);
#1431=ORIENTED_EDGE('',*,*,#478,.F.);
#1432=EDGE_LOOP('',(#1424,#1425,#1426,#1427,#1428,#1429,#1430,#1431));
#1433=FACE_BOUND('',#1432,.T.);
#1434=ORIENTED_EDGE('',*,*,#569,.T.);
#1435=ORIENTED_EDGE('',*,*,#576,.T.);
#1436=EDGE_LOOP('',(#1434,#1435));
#1437=FACE_BOUND('',#1436,.T.);
#1438=ORIENTED_EDGE('',*,*,#653,.T.);
#1439=ORIENTED_EDGE('',*,*,#660,.T.);
#1440=EDGE_LOOP('',(#1438,#1439));
#1441=FACE_BOUND('',#1440,.T.);
#1442=ORIENTED_EDGE('',*,*,#695,.T.);
#1443=ORIENTED_EDGE('',*,*,#702,.T.);
#1444=EDGE_LOOP('',(#1442,#1443));
#1445=FACE_BOUND('',#1444,.T.);
#1446=ORIENTED_EDGE('',*,*,#611,.T.);
#1447=ORIENTED_EDGE('',*,*,#618,.T.);
#1448=EDGE_LOOP('',(#1446,#1447));
#1449=FACE_BOUND('',#1448,.T.);
#1450=ORIENTED_EDGE('',*,*,#79,.T.);
#1451=ORIENTED_EDGE('',*,*,#40,.T.);
#1452=ORIENTED_EDGE('',*,*,#269,.T.);
#1453=ORIENTED_EDGE('',*,*,#239,.T.);
#1454=ORIENTED_EDGE('',*,*,#207,.T.);
#1455=ORIENTED_EDGE('',*,*,#175,.T.);
#1456=ORIENTED_EDGE('',*,*,#143,.T.);
#1457=ORIENTED_EDGE('',*,*,#111,.T.);
#1458=EDGE_LOOP('',(#1450,#1451,#1452,#1453,#1454,#1455,#1456,#1457));
#1459=FACE_BOUND('',#1458,.T.);
#1460=ADVANCED_FACE('',(#1433,#1437,#1441,#1445,#1449,#1459),#1423,.T.);
#1461=CLOSED_SHELL('',(#66,#99,#130,#163,#194,#227,#258,#282,#322,#362,#402,#426,#466,#490,#514,#538,#580,#622,#664,#706,#732,#767,#793,#828,#854,#889,
#915,#950,#990,#1021,#1052,#1092,#1123,#1154,#1187,#1220,#1253,#1286,#1308,#1330,#1376,#1418,#1460));
#1462=MANIFOLD_SOLID_BREP('FRONT_PNL',#1461);
#26=STYLED_ITEM('',(),#1462);
#16=SHAPE_REPRESENTATION('root',(#15),#10);
#17=ADVANCED_BREP_SHAPE_REPRESENTATION('root',(#1462),#10);
#1470=SHAPE_REPRESENTATION_RELATIONSHIP('','',#16,#17);
#1471=APPLICATION_CONTEXT('configuration controlled 3D design of mechanical parts and assemblies');
#1472=APPLICATION_PROTOCOL_DEFINITION('international standard','configuration_control_3d_design_ed2_mim',2004,#1471);
#1473=PRODUCT_CONTEXT('',#1471,'mechanical');
#1474=PRODUCT_DEFINITION_CONTEXT('part definition',#1471,'design');
#24=PRODUCT('root','root','',(#1473));
#1475=PRODUCT_RELATED_PRODUCT_CATEGORY('part','',(#24));
#1476=PRODUCT_DEFINITION_FORMATION_WITH_SPECIFIED_SOURCE('','',#24,.NOT_KNOWN.);
#25=PRODUCT_DEFINITION('design','',#1476,#1474);
#23=PRODUCT_DEFINITION_SHAPE('','',#25);
#1477=SHAPE_DEFINITION_REPRESENTATION(#23,#16);
#11=DRAUGHTING_MODEL('',(),#10);
#1=MECHANICAL_DESIGN_GEOMETRIC_PRESENTATION_REPRESENTATION('',(#26),#10);
ENDSEC;
END-ISO-10303-21;
