ISO-10303-21;
HEADER;

/* File generated by HOOPS Exchange Version 24.2.0 */

FILE_DESCRIPTION(('HOOPS Exchange Step'),'2;1');

FILE_NAME('D:\\downloads\\captioncast\\captioncast\\enclosure\\exports\\v1\\CASE_TOP.stp',
'2026-06-22T22:50:50+05:30',
('sushi'),
('Unknown organisation'),
'HOOPS Exchange 2024.2',
'HOOPS Exchange',
'Unknown authorisation');

FILE_SCHEMA( ('AP203_CONFIGURATION_CONTROLLED_3D_DESIGN_OF_MECHANICAL_PARTS_AND_ASSEMBLIES_MIM_LF') );

ENDSEC;

DATA;
#3=(NAMED_UNIT(*)PLANE_ANGLE_UNIT()SI_UNIT($,.RADIAN.));
#4=PLANE_ANGLE_MEASURE_WITH_UNIT(PLANE_ANGLE_MEASURE(0.0174532925),#3);
#5=(CONVERSION_BASED_UNIT('DEGREE',#4)NAMED_UNIT(#6)PLANE_ANGLE_UNIT());
#6=DIMENSIONAL_EXPONENTS(0.,0.,0.,0.,0.,0.,0.);
#7=(NAMED_UNIT(*)SI_UNIT($,.STERADIAN.)SOLID_ANGLE_UNIT());
#8=(LENGTH_UNIT()NAMED_UNIT(*)SI_UNIT(.MILLI.,.METRE.));
#9=UNCERTAINTY_MEASURE_WITH_UNIT(LENGTH_MEASURE(1.000000E-05),#8,'DISTANCE_ACCURACY_VALUE','Maximum Tolerance applied to model');
#10=(GEOMETRIC_REPRESENTATION_CONTEXT(3)GLOBAL_UNCERTAINTY_ASSIGNED_CONTEXT((#9))GLOBAL_UNIT_ASSIGNED_CONTEXT((#8,#5,#7))REPRESENTATION_CONTEXT('','root'));
#12=CARTESIAN_POINT('',(0.,0.,0.));
#13=DIRECTION('',(0.,0.,1.));
#14=DIRECTION('',(1.,0.,0.));
#15=AXIS2_PLACEMENT_3D('',#12,#13,#14);
#27=CARTESIAN_POINT('',(-21.55452272,23.234834914,48.570015182));
#28=DIRECTION('',(-0.,-0.,-1.));
#29=DIRECTION('',(1.,0.,-0.));
#30=AXIS2_PLACEMENT_3D('',#27,#28,#29);
#31=PLANE('',#30);
#32=CARTESIAN_POINT('',(27.09477769,8.461785575,48.570015182));
#33=VERTEX_POINT('',#32);
#34=CARTESIAN_POINT('',(29.59477769,8.461785575,48.570015182));
#35=DIRECTION('',(0.,0.,1.));
#36=DIRECTION('',(-1.,0.,0.));
#37=AXIS2_PLACEMENT_3D('',#34,#35,#36);
#38=CIRCLE('',#37,2.5);
#39=EDGE_CURVE('',#33,#33,#38,.T.);
#40=ORIENTED_EDGE('',*,*,#39,.F.);
#41=EDGE_LOOP('',(#40));
#42=FACE_BOUND('',#41,.T.);
#43=CARTESIAN_POINT('',(-33.931178492,2.950114529,48.570015182));
#44=VERTEX_POINT('',#43);
#45=CARTESIAN_POINT('',(33.931178492,2.950114529,48.570015182));
#46=VERTEX_POINT('',#45);
#47=CARTESIAN_POINT('',(-33.931178492,2.950114529,48.570015182));
#48=DIRECTION('',(1.,0.,-0.));
#49=VECTOR('',#48,67.862356984);
#50=LINE('',#47,#49);
#51=EDGE_CURVE('',#44,#46,#50,.T.);
#52=ORIENTED_EDGE('',*,*,#51,.T.);
#53=CARTESIAN_POINT('',(35.931178492,4.950114529,48.570015182));
#54=VERTEX_POINT('',#53);
#55=CARTESIAN_POINT('',(33.931178492,4.950114529,48.570015182));
#56=DIRECTION('',(-0.,-0.,-1.));
#57=DIRECTION('',(-1.,0.,0.));
#58=AXIS2_PLACEMENT_3D('',#55,#56,#57);
#59=CIRCLE('',#58,2.);
#60=EDGE_CURVE('',#54,#46,#59,.T.);
#61=ORIENTED_EDGE('',*,*,#60,.F.);
#62=CARTESIAN_POINT('',(35.931178492,41.445871089,48.570015182));
#63=VERTEX_POINT('',#62);
#64=CARTESIAN_POINT('',(35.931178492,41.445871089,48.570015182));
#65=DIRECTION('',(0.,-1.,0.));
#66=VECTOR('',#65,36.49575656);
#67=LINE('',#64,#66);
#68=EDGE_CURVE('',#63,#54,#67,.T.);
#69=ORIENTED_EDGE('',*,*,#68,.F.);
#70=CARTESIAN_POINT('',(33.931178492,43.445871089,48.570015182));
#71=VERTEX_POINT('',#70);
#72=CARTESIAN_POINT('',(33.931178492,41.445871089,48.570015182));
#73=DIRECTION('',(-0.,-0.,-1.));
#74=DIRECTION('',(-1.,0.,0.));
#75=AXIS2_PLACEMENT_3D('',#72,#73,#74);
#76=CIRCLE('',#75,2.);
#77=EDGE_CURVE('',#71,#63,#76,.T.);
#78=ORIENTED_EDGE('',*,*,#77,.F.);
#79=CARTESIAN_POINT('',(-33.931178492,43.445871089,48.570015182));
#80=VERTEX_POINT('',#79);
#81=CARTESIAN_POINT('',(33.931178492,43.445871089,48.570015182));
#82=DIRECTION('',(-1.,-0.,0.));
#83=VECTOR('',#82,67.862356984);
#84=LINE('',#81,#83);
#85=EDGE_CURVE('',#71,#80,#84,.T.);
#86=ORIENTED_EDGE('',*,*,#85,.T.);
#87=CARTESIAN_POINT('',(-35.931178492,41.445871089,48.570015182));
#88=VERTEX_POINT('',#87);
#89=CARTESIAN_POINT('',(-33.931178492,41.445871089,48.570015182));
#90=DIRECTION('',(0.,0.,1.));
#91=DIRECTION('',(-1.,0.,0.));
#92=AXIS2_PLACEMENT_3D('',#89,#90,#91);
#93=CIRCLE('',#92,2.);
#94=EDGE_CURVE('',#80,#88,#93,.T.);
#95=ORIENTED_EDGE('',*,*,#94,.T.);
#96=CARTESIAN_POINT('',(-35.931178492,4.950114529,48.570015182));
#97=VERTEX_POINT('',#96);
#98=CARTESIAN_POINT('',(-35.931178492,41.445871089,48.570015182));
#99=DIRECTION('',(-0.,-1.,0.));
#100=VECTOR('',#99,36.49575656);
#101=LINE('',#98,#100);
#102=EDGE_CURVE('',#88,#97,#101,.T.);
#103=ORIENTED_EDGE('',*,*,#102,.T.);
#104=CARTESIAN_POINT('',(-33.931178492,4.950114529,48.570015182));
#105=DIRECTION('',(0.,0.,1.));
#106=DIRECTION('',(-1.,0.,0.));
#107=AXIS2_PLACEMENT_3D('',#104,#105,#106);
#108=CIRCLE('',#107,2.);
#109=EDGE_CURVE('',#97,#44,#108,.T.);
#110=ORIENTED_EDGE('',*,*,#109,.T.);
#111=EDGE_LOOP('',(#52,#61,#69,#78,#86,#95,#103,#110));
#112=FACE_BOUND('',#111,.T.);
#113=CARTESIAN_POINT('',(34.259243152,36.81163302,48.570015182));
#114=VERTEX_POINT('',#113);
#115=CARTESIAN_POINT('',(31.056882936,40.01163215,48.570015182));
#116=VERTEX_POINT('',#115);
#117=CARTESIAN_POINT('',(31.059243152,36.81163302,48.570015182));
#118=DIRECTION('',(0.,0.,1.));
#119=DIRECTION('',(-1.,0.,0.));
#120=AXIS2_PLACEMENT_3D('',#117,#118,#119);
#121=CIRCLE('',#120,3.2);
#122=EDGE_CURVE('',#114,#116,#121,.T.);
#123=ORIENTED_EDGE('',*,*,#122,.F.);
#124=CARTESIAN_POINT('',(34.259243152,17.81163302,48.570015182));
#125=VERTEX_POINT('',#124);
#126=CARTESIAN_POINT('',(34.259243152,17.81163302,48.570015182));
#127=DIRECTION('',(-0.,1.,-0.));
#128=VECTOR('',#127,19.);
#129=LINE('',#126,#128);
#130=EDGE_CURVE('',#125,#114,#129,.T.);
#131=ORIENTED_EDGE('',*,*,#130,.F.);
#132=CARTESIAN_POINT('',(31.059243152,14.61163302,48.570015182));
#133=VERTEX_POINT('',#132);
#134=CARTESIAN_POINT('',(31.059243152,17.81163302,48.570015182));
#135=DIRECTION('',(0.,0.,1.));
#136=DIRECTION('',(-1.,0.,0.));
#137=AXIS2_PLACEMENT_3D('',#134,#135,#136);
#138=CIRCLE('',#137,3.2);
#139=EDGE_CURVE('',#133,#125,#138,.T.);
#140=ORIENTED_EDGE('',*,*,#139,.F.);
#141=CARTESIAN_POINT('',(31.056882936,14.61163389,48.570015182));
#142=VERTEX_POINT('',#141);
#143=CARTESIAN_POINT('',(31.059243152,17.81163302,48.570015182));
#144=DIRECTION('',(0.,0.,1.));
#145=DIRECTION('',(-1.,0.,0.));
#146=AXIS2_PLACEMENT_3D('',#143,#144,#145);
#147=CIRCLE('',#146,3.2);
#148=EDGE_CURVE('',#142,#133,#147,.T.);
#149=ORIENTED_EDGE('',*,*,#148,.F.);
#150=CARTESIAN_POINT('',(31.05452272,14.61163302,48.570015182));
#151=VERTEX_POINT('',#150);
#152=CARTESIAN_POINT('',(31.056854938,14.61163387,48.570015182));
#153=CARTESIAN_POINT('',(31.056071085,14.611633299,48.570015182));
#154=CARTESIAN_POINT('',(31.055287203,14.611633015,48.570015182));
#155=CARTESIAN_POINT('',(31.054503292,14.61163302,48.570015182));
#156=(BOUNDED_CURVE()
B_SPLINE_CURVE(3,(#152,#153,#154,#155),.UNSPECIFIED.,.F.,.F.)
B_SPLINE_CURVE_WITH_KNOTS((4,4),(0.657471512,0.657593759),.UNSPECIFIED.)
CURVE()
GEOMETRIC_REPRESENTATION_ITEM()
RATIONAL_B_SPLINE_CURVE((0.65267517,0.652626612,0.652578087,0.652529593))
REPRESENTATION_ITEM(''));
#157=EDGE_CURVE('',#142,#151,#156,.T.);
#158=ORIENTED_EDGE('',*,*,#157,.T.);
#159=CARTESIAN_POINT('',(11.995761011,14.61163302,48.570015182));
#160=VERTEX_POINT('',#159);
#161=CARTESIAN_POINT('',(31.05452272,14.61163302,48.570015182));
#162=DIRECTION('',(-1.,0.,0.));
#163=VECTOR('',#162,19.058761709);
#164=LINE('',#161,#163);
#165=EDGE_CURVE('',#151,#160,#164,.T.);
#166=ORIENTED_EDGE('',*,*,#165,.T.);
#167=CARTESIAN_POINT('',(8.795761011,17.81163302,48.570015182));
#168=VERTEX_POINT('',#167);
#169=CARTESIAN_POINT('',(11.995761011,17.81163302,48.570015182));
#170=DIRECTION('',(-0.,-0.,-1.));
#171=DIRECTION('',(-1.,0.,0.));
#172=AXIS2_PLACEMENT_3D('',#169,#170,#171);
#173=CIRCLE('',#172,3.2);
#174=EDGE_CURVE('',#160,#168,#173,.T.);
#175=ORIENTED_EDGE('',*,*,#174,.T.);
#176=CARTESIAN_POINT('',(8.795761011,36.81163302,48.570015182));
#177=VERTEX_POINT('',#176);
#178=CARTESIAN_POINT('',(8.795761011,17.81163302,48.570015182));
#179=DIRECTION('',(-0.,1.,-0.));
#180=VECTOR('',#179,19.);
#181=LINE('',#178,#180);
#182=EDGE_CURVE('',#168,#177,#181,.T.);
#183=ORIENTED_EDGE('',*,*,#182,.T.);
#184=CARTESIAN_POINT('',(11.995761011,40.01163302,48.570015182));
#185=VERTEX_POINT('',#184);
#186=CARTESIAN_POINT('',(11.995761011,36.81163302,48.570015182));
#187=DIRECTION('',(-0.,-0.,-1.));
#188=DIRECTION('',(-1.,0.,0.));
#189=AXIS2_PLACEMENT_3D('',#186,#187,#188);
#190=CIRCLE('',#189,3.2);
#191=EDGE_CURVE('',#177,#185,#190,.T.);
#192=ORIENTED_EDGE('',*,*,#191,.T.);
#193=CARTESIAN_POINT('',(31.05452272,40.01163302,48.570015182));
#194=VERTEX_POINT('',#193);
#195=CARTESIAN_POINT('',(11.995761011,40.01163302,48.570015182));
#196=DIRECTION('',(1.,0.,-0.));
#197=VECTOR('',#196,19.058761709);
#198=LINE('',#195,#197);
#199=EDGE_CURVE('',#185,#194,#198,.T.);
#200=ORIENTED_EDGE('',*,*,#199,.T.);
#201=CARTESIAN_POINT('',(31.054542149,40.01163302,48.570015182));
#202=CARTESIAN_POINT('',(31.055326521,40.011633015,48.570015182));
#203=CARTESIAN_POINT('',(31.056110922,40.011632722,48.570015182));
#204=CARTESIAN_POINT('',(31.056895352,40.01163214,48.570015182));
#205=(BOUNDED_CURVE()
B_SPLINE_CURVE(3,(#201,#202,#203,#204),.UNSPECIFIED.,.F.,.F.)
B_SPLINE_CURVE_WITH_KNOTS((4,4),(0.657593759,0.657716059),.UNSPECIFIED.)
CURVE()
GEOMETRIC_REPRESENTATION_ITEM()
RATIONAL_B_SPLINE_CURVE((0.652529593,0.652481078,0.652432596,0.652384145))
REPRESENTATION_ITEM(''));
#206=EDGE_CURVE('',#194,#116,#205,.T.);
#207=ORIENTED_EDGE('',*,*,#206,.T.);
#208=EDGE_LOOP('',(#123,#131,#140,#149,#158,#166,#175,#183,#192,#200,#207));
#209=FACE_BOUND('',#208,.T.);
#210=CARTESIAN_POINT('',(-32.09477769,8.461785575,48.570015182));
#211=VERTEX_POINT('',#210);
#212=CARTESIAN_POINT('',(-27.09477769,8.461785575,48.570015182));
#213=VERTEX_POINT('',#212);
#214=CARTESIAN_POINT('',(-29.59477769,8.461785575,48.570015182));
#215=DIRECTION('',(-0.,-0.,-1.));
#216=DIRECTION('',(-1.,0.,0.));
#217=AXIS2_PLACEMENT_3D('',#214,#215,#216);
#218=CIRCLE('',#217,2.5);
#219=EDGE_CURVE('',#211,#213,#218,.T.);
#220=ORIENTED_EDGE('',*,*,#219,.T.);
#221=CARTESIAN_POINT('',(-29.59477769,8.461785575,48.570015182));
#222=DIRECTION('',(-0.,-0.,-1.));
#223=DIRECTION('',(-1.,0.,0.));
#224=AXIS2_PLACEMENT_3D('',#221,#222,#223);
#225=CIRCLE('',#224,2.5);
#226=EDGE_CURVE('',#213,#211,#225,.T.);
#227=ORIENTED_EDGE('',*,*,#226,.T.);
#228=EDGE_LOOP('',(#220,#227));
#229=FACE_BOUND('',#228,.T.);
#230=CARTESIAN_POINT('',(-34.259243152,36.81163302,48.570015182));
#231=VERTEX_POINT('',#230);
#232=CARTESIAN_POINT('',(-31.056882936,40.01163215,48.570015182));
#233=VERTEX_POINT('',#232);
#234=CARTESIAN_POINT('',(-31.059243152,36.81163302,48.570015182));
#235=DIRECTION('',(-0.,-0.,-1.));
#236=DIRECTION('',(-1.,0.,0.));
#237=AXIS2_PLACEMENT_3D('',#234,#235,#236);
#238=CIRCLE('',#237,3.2);
#239=EDGE_CURVE('',#231,#233,#238,.T.);
#240=ORIENTED_EDGE('',*,*,#239,.T.);
#241=CARTESIAN_POINT('',(-31.05452272,40.01163302,48.570015182));
#242=VERTEX_POINT('',#241);
#243=CARTESIAN_POINT('',(-31.05452272,36.81163302,48.570015182));
#244=DIRECTION('',(0.,0.,1.));
#245=DIRECTION('',(-1.,0.,0.));
#246=AXIS2_PLACEMENT_3D('',#243,#244,#245);
#247=CIRCLE('',#246,3.2);
#248=EDGE_CURVE('',#242,#233,#247,.T.);
#249=ORIENTED_EDGE('',*,*,#248,.F.);
#250=CARTESIAN_POINT('',(-11.995761011,40.01163302,48.570015182));
#251=VERTEX_POINT('',#250);
#252=CARTESIAN_POINT('',(-11.995761011,40.01163302,48.570015182));
#253=DIRECTION('',(-1.,0.,0.));
#254=VECTOR('',#253,19.058761709);
#255=LINE('',#252,#254);
#256=EDGE_CURVE('',#251,#242,#255,.T.);
#257=ORIENTED_EDGE('',*,*,#256,.F.);
#258=CARTESIAN_POINT('',(-8.795761011,36.81163302,48.570015182));
#259=VERTEX_POINT('',#258);
#260=CARTESIAN_POINT('',(-11.995761011,36.81163302,48.570015182));
#261=DIRECTION('',(0.,0.,1.));
#262=DIRECTION('',(-1.,0.,0.));
#263=AXIS2_PLACEMENT_3D('',#260,#261,#262);
#264=CIRCLE('',#263,3.2);
#265=EDGE_CURVE('',#259,#251,#264,.T.);
#266=ORIENTED_EDGE('',*,*,#265,.F.);
#267=CARTESIAN_POINT('',(-8.795761011,17.81163302,48.570015182));
#268=VERTEX_POINT('',#267);
#269=CARTESIAN_POINT('',(-8.795761011,17.81163302,48.570015182));
#270=DIRECTION('',(0.,1.,-0.));
#271=VECTOR('',#270,19.);
#272=LINE('',#269,#271);
#273=EDGE_CURVE('',#268,#259,#272,.T.);
#274=ORIENTED_EDGE('',*,*,#273,.F.);
#275=CARTESIAN_POINT('',(-11.995761011,14.61163302,48.570015182));
#276=VERTEX_POINT('',#275);
#277=CARTESIAN_POINT('',(-11.995761011,17.81163302,48.570015182));
#278=DIRECTION('',(0.,0.,1.));
#279=DIRECTION('',(-1.,0.,0.));
#280=AXIS2_PLACEMENT_3D('',#277,#278,#279);
#281=CIRCLE('',#280,3.2);
#282=EDGE_CURVE('',#276,#268,#281,.T.);
#283=ORIENTED_EDGE('',*,*,#282,.F.);
#284=CARTESIAN_POINT('',(-31.05452272,14.61163302,48.570015182));
#285=VERTEX_POINT('',#284);
#286=CARTESIAN_POINT('',(-31.05452272,14.61163302,48.570015182));
#287=DIRECTION('',(1.,0.,-0.));
#288=VECTOR('',#287,19.058761709);
#289=LINE('',#286,#288);
#290=EDGE_CURVE('',#285,#276,#289,.T.);
#291=ORIENTED_EDGE('',*,*,#290,.F.);
#292=CARTESIAN_POINT('',(-31.056882936,14.61163389,48.570015182));
#293=VERTEX_POINT('',#292);
#294=CARTESIAN_POINT('',(-31.056895352,14.6116339,48.570015182));
#295=CARTESIAN_POINT('',(-31.056110922,14.611633318,48.570015182));
#296=CARTESIAN_POINT('',(-31.055326521,14.611633025,48.570015182));
#297=CARTESIAN_POINT('',(-31.054542149,14.61163302,48.570015182));
#298=(BOUNDED_CURVE()
B_SPLINE_CURVE(3,(#294,#295,#296,#297),.UNSPECIFIED.,.F.,.F.)
B_SPLINE_CURVE_WITH_KNOTS((4,4),(0.657593759,0.657716059),.UNSPECIFIED.)
CURVE()
GEOMETRIC_REPRESENTATION_ITEM()
RATIONAL_B_SPLINE_CURVE((0.652384145,0.652432596,0.652481078,0.652529593))
REPRESENTATION_ITEM(''));
#299=EDGE_CURVE('',#293,#285,#298,.T.);
#300=ORIENTED_EDGE('',*,*,#299,.F.);
#301=CARTESIAN_POINT('',(-31.059243152,14.61163302,48.570015182));
#302=VERTEX_POINT('',#301);
#303=CARTESIAN_POINT('',(-31.059243152,17.81163302,48.570015182));
#304=DIRECTION('',(-0.,-0.,-1.));
#305=DIRECTION('',(-1.,0.,0.));
#306=AXIS2_PLACEMENT_3D('',#303,#304,#305);
#307=CIRCLE('',#306,3.2);
#308=EDGE_CURVE('',#293,#302,#307,.T.);
#309=ORIENTED_EDGE('',*,*,#308,.T.);
#310=CARTESIAN_POINT('',(-34.259243152,17.81163302,48.570015182));
#311=VERTEX_POINT('',#310);
#312=CARTESIAN_POINT('',(-31.059243152,17.81163302,48.570015182));
#313=DIRECTION('',(-0.,-0.,-1.));
#314=DIRECTION('',(-1.,0.,0.));
#315=AXIS2_PLACEMENT_3D('',#312,#313,#314);
#316=CIRCLE('',#315,3.2);
#317=EDGE_CURVE('',#302,#311,#316,.T.);
#318=ORIENTED_EDGE('',*,*,#317,.T.);
#319=CARTESIAN_POINT('',(-34.259243152,17.81163302,48.570015182));
#320=DIRECTION('',(0.,1.,-0.));
#321=VECTOR('',#320,19.);
#322=LINE('',#319,#321);
#323=EDGE_CURVE('',#311,#231,#322,.T.);
#324=ORIENTED_EDGE('',*,*,#323,.T.);
#325=EDGE_LOOP('',(#240,#249,#257,#266,#274,#283,#291,#300,#309,#318,#324));
#326=FACE_BOUND('',#325,.T.);
#327=ADVANCED_FACE('',(#42,#112,#209,#229,#326),#31,.F.);
#328=CARTESIAN_POINT('',(-37.931178492,2.950114529,233.335599074));
#329=DIRECTION('',(0.,-1.,-0.));
#330=DIRECTION('',(-0.,0.,-1.));
#331=AXIS2_PLACEMENT_3D('',#328,#329,#330);
#332=PLANE('',#331);
#333=ORIENTED_EDGE('',*,*,#51,.F.);
#334=CARTESIAN_POINT('',(-33.931178492,2.950114529,46.748006808));
#335=VERTEX_POINT('',#334);
#336=CARTESIAN_POINT('',(-33.931178492,2.950114529,48.570015182));
#337=DIRECTION('',(0.,0.,-1.));
#338=VECTOR('',#337,1.822008373);
#339=LINE('',#336,#338);
#340=EDGE_CURVE('',#44,#335,#339,.T.);
#341=ORIENTED_EDGE('',*,*,#340,.T.);
#342=CARTESIAN_POINT('',(33.931178492,2.950114529,46.748006808));
#343=VERTEX_POINT('',#342);
#344=CARTESIAN_POINT('',(-33.931178492,2.950114529,46.748006808));
#345=DIRECTION('',(1.,0.,-0.));
#346=VECTOR('',#345,67.862356984);
#347=LINE('',#344,#346);
#348=EDGE_CURVE('',#335,#343,#347,.T.);
#349=ORIENTED_EDGE('',*,*,#348,.T.);
#350=CARTESIAN_POINT('',(33.931178492,2.950114529,48.570015182));
#351=DIRECTION('',(-0.,0.,-1.));
#352=VECTOR('',#351,1.822008373);
#353=LINE('',#350,#352);
#354=EDGE_CURVE('',#46,#343,#353,.T.);
#355=ORIENTED_EDGE('',*,*,#354,.F.);
#356=EDGE_LOOP('',(#333,#341,#349,#355));
#357=FACE_BOUND('',#356,.T.);
#358=ADVANCED_FACE('',(#357),#332,.T.);
#359=CARTESIAN_POINT('',(-37.931178492,43.445871089,233.335599074));
#360=DIRECTION('',(-0.,1.,0.));
#361=DIRECTION('',(0.,-0.,1.));
#362=AXIS2_PLACEMENT_3D('',#359,#360,#361);
#363=PLANE('',#362);
#364=CARTESIAN_POINT('',(33.931178492,43.445871089,46.748006808));
#365=VERTEX_POINT('',#364);
#366=CARTESIAN_POINT('',(-33.931178492,43.445871089,46.748006808));
#367=VERTEX_POINT('',#366);
#368=CARTESIAN_POINT('',(33.931178492,43.445871089,46.748006808));
#369=DIRECTION('',(-1.,-0.,0.));
#370=VECTOR('',#369,67.862356984);
#371=LINE('',#368,#370);
#372=EDGE_CURVE('',#365,#367,#371,.T.);
#373=ORIENTED_EDGE('',*,*,#372,.T.);
#374=CARTESIAN_POINT('',(-33.931178492,43.445871089,48.570015182));
#375=DIRECTION('',(0.,0.,-1.));
#376=VECTOR('',#375,1.822008373);
#377=LINE('',#374,#376);
#378=EDGE_CURVE('',#80,#367,#377,.T.);
#379=ORIENTED_EDGE('',*,*,#378,.F.);
#380=ORIENTED_EDGE('',*,*,#85,.F.);
#381=CARTESIAN_POINT('',(33.931178492,43.445871089,48.570015182));
#382=DIRECTION('',(-0.,0.,-1.));
#383=VECTOR('',#382,1.822008373);
#384=LINE('',#381,#383);
#385=EDGE_CURVE('',#71,#365,#384,.T.);
#386=ORIENTED_EDGE('',*,*,#385,.T.);
#387=EDGE_LOOP('',(#373,#379,#380,#386));
#388=FACE_BOUND('',#387,.T.);
#389=ADVANCED_FACE('',(#388),#363,.T.);
#390=CARTESIAN_POINT('',(-37.931178492,43.34248006,46.748006808));
#391=DIRECTION('',(-0.,0.,-1.));
#392=DIRECTION('',(1.,0.,-0.));
#393=AXIS2_PLACEMENT_3D('',#390,#391,#392);
#394=PLANE('',#393);
#395=ORIENTED_EDGE('',*,*,#348,.F.);
#396=CARTESIAN_POINT('',(-35.931178492,4.950114529,46.748006808));
#397=VERTEX_POINT('',#396);
#398=CARTESIAN_POINT('',(-33.931178492,4.950114529,46.748006808));
#399=DIRECTION('',(-0.,-0.,1.));
#400=DIRECTION('',(-0.,1.,0.));
#401=AXIS2_PLACEMENT_3D('',#398,#399,#400);
#402=CIRCLE('',#401,2.);
#403=EDGE_CURVE('',#397,#335,#402,.T.);
#404=ORIENTED_EDGE('',*,*,#403,.F.);
#405=CARTESIAN_POINT('',(-35.931178492,41.445871089,46.748006808));
#406=VERTEX_POINT('',#405);
#407=CARTESIAN_POINT('',(-35.931178492,41.445871089,46.748006808));
#408=DIRECTION('',(-0.,-1.,-0.));
#409=VECTOR('',#408,36.49575656);
#410=LINE('',#407,#409);
#411=EDGE_CURVE('',#406,#397,#410,.T.);
#412=ORIENTED_EDGE('',*,*,#411,.F.);
#413=CARTESIAN_POINT('',(-33.931178492,41.445871089,46.748006808));
#414=DIRECTION('',(-0.,-0.,1.));
#415=DIRECTION('',(-0.,1.,0.));
#416=AXIS2_PLACEMENT_3D('',#413,#414,#415);
#417=CIRCLE('',#416,2.);
#418=EDGE_CURVE('',#367,#406,#417,.T.);
#419=ORIENTED_EDGE('',*,*,#418,.F.);
#420=ORIENTED_EDGE('',*,*,#372,.F.);
#421=CARTESIAN_POINT('',(35.931178492,41.445871089,46.748006808));
#422=VERTEX_POINT('',#421);
#423=CARTESIAN_POINT('',(33.931178492,41.445871089,46.748006808));
#424=DIRECTION('',(-0.,0.,-1.));
#425=DIRECTION('',(0.,1.,0.));
#426=AXIS2_PLACEMENT_3D('',#423,#424,#425);
#427=CIRCLE('',#426,2.);
#428=EDGE_CURVE('',#365,#422,#427,.T.);
#429=ORIENTED_EDGE('',*,*,#428,.T.);
#430=CARTESIAN_POINT('',(35.931178492,4.950114529,46.748006808));
#431=VERTEX_POINT('',#430);
#432=CARTESIAN_POINT('',(35.931178492,41.445871089,46.748006808));
#433=DIRECTION('',(0.,-1.,-0.));
#434=VECTOR('',#433,36.49575656);
#435=LINE('',#432,#434);
#436=EDGE_CURVE('',#422,#431,#435,.T.);
#437=ORIENTED_EDGE('',*,*,#436,.T.);
#438=CARTESIAN_POINT('',(33.931178492,4.950114529,46.748006808));
#439=DIRECTION('',(-0.,0.,-1.));
#440=DIRECTION('',(0.,1.,0.));
#441=AXIS2_PLACEMENT_3D('',#438,#439,#440);
#442=CIRCLE('',#441,2.);
#443=EDGE_CURVE('',#431,#343,#442,.T.);
#444=ORIENTED_EDGE('',*,*,#443,.T.);
#445=EDGE_LOOP('',(#395,#404,#412,#419,#420,#429,#437,#444));
#446=FACE_BOUND('',#445,.T.);
#447=CARTESIAN_POINT('',(35.907471197,36.81163302,46.748006808));
#448=VERTEX_POINT('',#447);
#449=CARTESIAN_POINT('',(31.027471197,41.69163302,46.748006808));
#450=VERTEX_POINT('',#449);
#451=CARTESIAN_POINT('',(31.027471197,36.81163302,46.748006808));
#452=DIRECTION('',(0.,-0.,1.));
#453=DIRECTION('',(0.,1.,0.));
#454=AXIS2_PLACEMENT_3D('',#451,#452,#453);
#455=CIRCLE('',#454,4.88);
#456=EDGE_CURVE('',#448,#450,#455,.T.);
#457=ORIENTED_EDGE('',*,*,#456,.T.);
#458=CARTESIAN_POINT('',(12.027471197,41.69163302,46.748006808));
#459=VERTEX_POINT('',#458);
#460=CARTESIAN_POINT('',(31.027471197,41.69163302,46.748006808));
#461=DIRECTION('',(-1.,0.,0.));
#462=VECTOR('',#461,19.);
#463=LINE('',#460,#462);
#464=EDGE_CURVE('',#450,#459,#463,.T.);
#465=ORIENTED_EDGE('',*,*,#464,.T.);
#466=CARTESIAN_POINT('',(7.147471197,36.81163302,46.748006808));
#467=VERTEX_POINT('',#466);
#468=CARTESIAN_POINT('',(12.027471197,36.81163302,46.748006808));
#469=DIRECTION('',(0.,-0.,1.));
#470=DIRECTION('',(0.,1.,0.));
#471=AXIS2_PLACEMENT_3D('',#468,#469,#470);
#472=CIRCLE('',#471,4.88);
#473=EDGE_CURVE('',#459,#467,#472,.T.);
#474=ORIENTED_EDGE('',*,*,#473,.T.);
#475=CARTESIAN_POINT('',(7.147471197,17.81163302,46.748006808));
#476=VERTEX_POINT('',#475);
#477=CARTESIAN_POINT('',(7.147471197,36.81163302,46.748006808));
#478=DIRECTION('',(-0.,-1.,-0.));
#479=VECTOR('',#478,19.);
#480=LINE('',#477,#479);
#481=EDGE_CURVE('',#467,#476,#480,.T.);
#482=ORIENTED_EDGE('',*,*,#481,.T.);
#483=CARTESIAN_POINT('',(12.027471197,12.93163302,46.748006808));
#484=VERTEX_POINT('',#483);
#485=CARTESIAN_POINT('',(12.027471197,17.81163302,46.748006808));
#486=DIRECTION('',(0.,-0.,1.));
#487=DIRECTION('',(0.,1.,0.));
#488=AXIS2_PLACEMENT_3D('',#485,#486,#487);
#489=CIRCLE('',#488,4.88);
#490=EDGE_CURVE('',#476,#484,#489,.T.);
#491=ORIENTED_EDGE('',*,*,#490,.T.);
#492=CARTESIAN_POINT('',(31.027471197,12.93163302,46.748006808));
#493=VERTEX_POINT('',#492);
#494=CARTESIAN_POINT('',(12.027471197,12.93163302,46.748006808));
#495=DIRECTION('',(1.,0.,-0.));
#496=VECTOR('',#495,19.);
#497=LINE('',#494,#496);
#498=EDGE_CURVE('',#484,#493,#497,.T.);
#499=ORIENTED_EDGE('',*,*,#498,.T.);
#500=CARTESIAN_POINT('',(35.907471197,17.81163302,46.748006808));
#501=VERTEX_POINT('',#500);
#502=CARTESIAN_POINT('',(31.027471197,17.81163302,46.748006808));
#503=DIRECTION('',(0.,-0.,1.));
#504=DIRECTION('',(0.,1.,0.));
#505=AXIS2_PLACEMENT_3D('',#502,#503,#504);
#506=CIRCLE('',#505,4.88);
#507=EDGE_CURVE('',#493,#501,#506,.T.);
#508=ORIENTED_EDGE('',*,*,#507,.T.);
#509=CARTESIAN_POINT('',(35.907471197,17.81163302,46.748006808));
#510=DIRECTION('',(0.,1.,0.));
#511=VECTOR('',#510,19.);
#512=LINE('',#509,#511);
#513=EDGE_CURVE('',#501,#448,#512,.T.);
#514=ORIENTED_EDGE('',*,*,#513,.T.);
#515=EDGE_LOOP('',(#457,#465,#474,#482,#491,#499,#508,#514));
#516=FACE_BOUND('',#515,.T.);
#517=CARTESIAN_POINT('',(28.09477769,8.461785575,46.748006808));
#518=VERTEX_POINT('',#517);
#519=CARTESIAN_POINT('',(29.59477769,8.461785575,46.748006808));
#520=DIRECTION('',(-0.,0.,-1.));
#521=DIRECTION('',(-1.,0.,0.));
#522=AXIS2_PLACEMENT_3D('',#519,#520,#521);
#523=CIRCLE('',#522,1.5);
#524=EDGE_CURVE('',#518,#518,#523,.T.);
#525=ORIENTED_EDGE('',*,*,#524,.F.);
#526=EDGE_LOOP('',(#525));
#527=FACE_BOUND('',#526,.T.);
#528=CARTESIAN_POINT('',(-35.907471197,36.81163302,46.748006808));
#529=VERTEX_POINT('',#528);
#530=CARTESIAN_POINT('',(-31.027471197,41.69163302,46.748006808));
#531=VERTEX_POINT('',#530);
#532=CARTESIAN_POINT('',(-31.027471197,36.81163302,46.748006808));
#533=DIRECTION('',(0.,0.,-1.));
#534=DIRECTION('',(-0.,1.,0.));
#535=AXIS2_PLACEMENT_3D('',#532,#533,#534);
#536=CIRCLE('',#535,4.88);
#537=EDGE_CURVE('',#529,#531,#536,.T.);
#538=ORIENTED_EDGE('',*,*,#537,.F.);
#539=CARTESIAN_POINT('',(-35.907471197,17.81163302,46.748006808));
#540=VERTEX_POINT('',#539);
#541=CARTESIAN_POINT('',(-35.907471197,17.81163302,46.748006808));
#542=DIRECTION('',(-0.,1.,0.));
#543=VECTOR('',#542,19.);
#544=LINE('',#541,#543);
#545=EDGE_CURVE('',#540,#529,#544,.T.);
#546=ORIENTED_EDGE('',*,*,#545,.F.);
#547=CARTESIAN_POINT('',(-31.027471197,12.93163302,46.748006808));
#548=VERTEX_POINT('',#547);
#549=CARTESIAN_POINT('',(-31.027471197,17.81163302,46.748006808));
#550=DIRECTION('',(0.,0.,-1.));
#551=DIRECTION('',(-0.,1.,0.));
#552=AXIS2_PLACEMENT_3D('',#549,#550,#551);
#553=CIRCLE('',#552,4.88);
#554=EDGE_CURVE('',#548,#540,#553,.T.);
#555=ORIENTED_EDGE('',*,*,#554,.F.);
#556=CARTESIAN_POINT('',(-12.027471197,12.93163302,46.748006808));
#557=VERTEX_POINT('',#556);
#558=CARTESIAN_POINT('',(-12.027471197,12.93163302,46.748006808));
#559=DIRECTION('',(-1.,0.,-0.));
#560=VECTOR('',#559,19.);
#561=LINE('',#558,#560);
#562=EDGE_CURVE('',#557,#548,#561,.T.);
#563=ORIENTED_EDGE('',*,*,#562,.F.);
#564=CARTESIAN_POINT('',(-7.147471197,17.81163302,46.748006808));
#565=VERTEX_POINT('',#564);
#566=CARTESIAN_POINT('',(-12.027471197,17.81163302,46.748006808));
#567=DIRECTION('',(0.,0.,-1.));
#568=DIRECTION('',(-0.,1.,0.));
#569=AXIS2_PLACEMENT_3D('',#566,#567,#568);
#570=CIRCLE('',#569,4.88);
#571=EDGE_CURVE('',#565,#557,#570,.T.);
#572=ORIENTED_EDGE('',*,*,#571,.F.);
#573=CARTESIAN_POINT('',(-7.147471197,36.81163302,46.748006808));
#574=VERTEX_POINT('',#573);
#575=CARTESIAN_POINT('',(-7.147471197,36.81163302,46.748006808));
#576=DIRECTION('',(0.,-1.,-0.));
#577=VECTOR('',#576,19.);
#578=LINE('',#575,#577);
#579=EDGE_CURVE('',#574,#565,#578,.T.);
#580=ORIENTED_EDGE('',*,*,#579,.F.);
#581=CARTESIAN_POINT('',(-12.027471197,41.69163302,46.748006808));
#582=VERTEX_POINT('',#581);
#583=CARTESIAN_POINT('',(-12.027471197,36.81163302,46.748006808));
#584=DIRECTION('',(0.,0.,-1.));
#585=DIRECTION('',(-0.,1.,0.));
#586=AXIS2_PLACEMENT_3D('',#583,#584,#585);
#587=CIRCLE('',#586,4.88);
#588=EDGE_CURVE('',#582,#574,#587,.T.);
#589=ORIENTED_EDGE('',*,*,#588,.F.);
#590=CARTESIAN_POINT('',(-31.027471197,41.69163302,46.748006808));
#591=DIRECTION('',(1.,0.,0.));
#592=VECTOR('',#591,19.);
#593=LINE('',#590,#592);
#594=EDGE_CURVE('',#531,#582,#593,.T.);
#595=ORIENTED_EDGE('',*,*,#594,.F.);
#596=EDGE_LOOP('',(#538,#546,#555,#563,#572,#580,#589,#595));
#597=FACE_BOUND('',#596,.T.);
#598=CARTESIAN_POINT('',(-28.09477769,8.461785575,46.748006808));
#599=VERTEX_POINT('',#598);
#600=CARTESIAN_POINT('',(-29.59477769,8.461785575,46.748006808));
#601=DIRECTION('',(0.,0.,1.));
#602=DIRECTION('',(1.,0.,-0.));
#603=AXIS2_PLACEMENT_3D('',#600,#601,#602);
#604=CIRCLE('',#603,1.5);
#605=EDGE_CURVE('',#599,#599,#604,.T.);
#606=ORIENTED_EDGE('',*,*,#605,.T.);
#607=EDGE_LOOP('',(#606));
#608=FACE_BOUND('',#607,.T.);
#609=ADVANCED_FACE('',(#446,#516,#527,#597,#608),#394,.T.);
#610=CARTESIAN_POINT('',(28.577471197,34.36163302,101.609684672));
#611=DIRECTION('',(0.,1.,0.));
#612=DIRECTION('',(0.,0.,1.));
#613=AXIS2_PLACEMENT_3D('',#610,#611,#612);
#614=PLANE('',#613);
#615=CARTESIAN_POINT('',(28.577471197,34.36163302,40.729076441));
#616=VERTEX_POINT('',#615);
#617=CARTESIAN_POINT('',(28.577471197,34.36163302,38.729076441));
#618=VERTEX_POINT('',#617);
#619=CARTESIAN_POINT('',(28.577471197,34.36163302,40.729076441));
#620=DIRECTION('',(-0.,0.,-1.));
#621=VECTOR('',#620,2.);
#622=LINE('',#619,#621);
#623=EDGE_CURVE('',#616,#618,#622,.T.);
#624=ORIENTED_EDGE('',*,*,#623,.F.);
#625=CARTESIAN_POINT('',(14.477471197,34.36163302,40.729076441));
#626=VERTEX_POINT('',#625);
#627=CARTESIAN_POINT('',(28.577471197,34.36163302,40.729076441));
#628=DIRECTION('',(-1.,0.,0.));
#629=VECTOR('',#628,14.1);
#630=LINE('',#627,#629);
#631=EDGE_CURVE('',#616,#626,#630,.T.);
#632=ORIENTED_EDGE('',*,*,#631,.T.);
#633=CARTESIAN_POINT('',(14.477471197,34.36163302,38.729076441));
#634=VERTEX_POINT('',#633);
#635=CARTESIAN_POINT('',(14.477471197,34.36163302,40.729076441));
#636=DIRECTION('',(-0.,0.,-1.));
#637=VECTOR('',#636,2.);
#638=LINE('',#635,#637);
#639=EDGE_CURVE('',#626,#634,#638,.T.);
#640=ORIENTED_EDGE('',*,*,#639,.T.);
#641=CARTESIAN_POINT('',(28.577471197,34.36163302,38.729076441));
#642=DIRECTION('',(-1.,0.,0.));
#643=VECTOR('',#642,14.1);
#644=LINE('',#641,#643);
#645=EDGE_CURVE('',#618,#634,#644,.T.);
#646=ORIENTED_EDGE('',*,*,#645,.F.);
#647=EDGE_LOOP('',(#624,#632,#640,#646));
#648=FACE_BOUND('',#647,.T.);
#649=ADVANCED_FACE('',(#648),#614,.F.);
#650=CARTESIAN_POINT('',(14.477471197,34.36163302,101.609684672));
#651=DIRECTION('',(-1.,0.,0.));
#652=DIRECTION('',(0.,1.,-0.));
#653=AXIS2_PLACEMENT_3D('',#650,#651,#652);
#654=PLANE('',#653);
#655=ORIENTED_EDGE('',*,*,#639,.F.);
#656=CARTESIAN_POINT('',(14.477471197,20.26163302,40.729076441));
#657=VERTEX_POINT('',#656);
#658=CARTESIAN_POINT('',(14.477471197,34.36163302,40.729076441));
#659=DIRECTION('',(-0.,-1.,-0.));
#660=VECTOR('',#659,14.1);
#661=LINE('',#658,#660);
#662=EDGE_CURVE('',#626,#657,#661,.T.);
#663=ORIENTED_EDGE('',*,*,#662,.T.);
#664=CARTESIAN_POINT('',(14.477471197,20.26163302,38.729076441));
#665=VERTEX_POINT('',#664);
#666=CARTESIAN_POINT('',(14.477471197,20.26163302,40.729076441));
#667=DIRECTION('',(-0.,0.,-1.));
#668=VECTOR('',#667,2.);
#669=LINE('',#666,#668);
#670=EDGE_CURVE('',#657,#665,#669,.T.);
#671=ORIENTED_EDGE('',*,*,#670,.T.);
#672=CARTESIAN_POINT('',(14.477471197,34.36163302,38.729076441));
#673=DIRECTION('',(-0.,-1.,-0.));
#674=VECTOR('',#673,14.1);
#675=LINE('',#672,#674);
#676=EDGE_CURVE('',#634,#665,#675,.T.);
#677=ORIENTED_EDGE('',*,*,#676,.F.);
#678=EDGE_LOOP('',(#655,#663,#671,#677));
#679=FACE_BOUND('',#678,.T.);
#680=ADVANCED_FACE('',(#679),#654,.F.);
#681=CARTESIAN_POINT('',(14.477471197,20.26163302,101.609684672));
#682=DIRECTION('',(-0.,-1.,0.));
#683=DIRECTION('',(-1.,0.,0.));
#684=AXIS2_PLACEMENT_3D('',#681,#682,#683);
#685=PLANE('',#684);
#686=ORIENTED_EDGE('',*,*,#670,.F.);
#687=CARTESIAN_POINT('',(28.577471197,20.26163302,40.729076441));
#688=VERTEX_POINT('',#687);
#689=CARTESIAN_POINT('',(14.477471197,20.26163302,40.729076441));
#690=DIRECTION('',(1.,-0.,-0.));
#691=VECTOR('',#690,14.1);
#692=LINE('',#689,#691);
#693=EDGE_CURVE('',#657,#688,#692,.T.);
#694=ORIENTED_EDGE('',*,*,#693,.T.);
#695=CARTESIAN_POINT('',(28.577471197,20.26163302,38.729076441));
#696=VERTEX_POINT('',#695);
#697=CARTESIAN_POINT('',(28.577471197,20.26163302,40.729076441));
#698=DIRECTION('',(-0.,0.,-1.));
#699=VECTOR('',#698,2.);
#700=LINE('',#697,#699);
#701=EDGE_CURVE('',#688,#696,#700,.T.);
#702=ORIENTED_EDGE('',*,*,#701,.T.);
#703=CARTESIAN_POINT('',(14.477471197,20.26163302,38.729076441));
#704=DIRECTION('',(1.,-0.,-0.));
#705=VECTOR('',#704,14.1);
#706=LINE('',#703,#705);
#707=EDGE_CURVE('',#665,#696,#706,.T.);
#708=ORIENTED_EDGE('',*,*,#707,.F.);
#709=EDGE_LOOP('',(#686,#694,#702,#708));
#710=FACE_BOUND('',#709,.T.);
#711=ADVANCED_FACE('',(#710),#685,.F.);
#712=CARTESIAN_POINT('',(28.577471197,20.26163302,101.609684672));
#713=DIRECTION('',(1.,0.,-0.));
#714=DIRECTION('',(0.,0.,1.));
#715=AXIS2_PLACEMENT_3D('',#712,#713,#714);
#716=PLANE('',#715);
#717=ORIENTED_EDGE('',*,*,#701,.F.);
#718=CARTESIAN_POINT('',(28.577471197,20.26163302,40.729076441));
#719=DIRECTION('',(0.,1.,0.));
#720=VECTOR('',#719,14.1);
#721=LINE('',#718,#720);
#722=EDGE_CURVE('',#688,#616,#721,.T.);
#723=ORIENTED_EDGE('',*,*,#722,.T.);
#724=ORIENTED_EDGE('',*,*,#623,.T.);
#725=CARTESIAN_POINT('',(28.577471197,20.26163302,38.729076441));
#726=DIRECTION('',(0.,1.,0.));
#727=VECTOR('',#726,14.1);
#728=LINE('',#725,#727);
#729=EDGE_CURVE('',#696,#618,#728,.T.);
#730=ORIENTED_EDGE('',*,*,#729,.F.);
#731=EDGE_LOOP('',(#717,#723,#724,#730));
#732=FACE_BOUND('',#731,.T.);
#733=ADVANCED_FACE('',(#732),#716,.F.);
#734=CARTESIAN_POINT('',(21.527471197,27.31163302,38.729076441));
#735=DIRECTION('',(-0.,0.,-1.));
#736=DIRECTION('',(0.,1.,0.));
#737=AXIS2_PLACEMENT_3D('',#734,#735,#736);
#738=PLANE('',#737);
#739=ORIENTED_EDGE('',*,*,#645,.T.);
#740=ORIENTED_EDGE('',*,*,#676,.T.);
#741=ORIENTED_EDGE('',*,*,#707,.T.);
#742=ORIENTED_EDGE('',*,*,#729,.T.);
#743=EDGE_LOOP('',(#739,#740,#741,#742));
#744=FACE_BOUND('',#743,.T.);
#745=CARTESIAN_POINT('',(31.027471197,41.69163302,38.729076441));
#746=VERTEX_POINT('',#745);
#747=CARTESIAN_POINT('',(12.027471197,41.69163302,38.729076441));
#748=VERTEX_POINT('',#747);
#749=CARTESIAN_POINT('',(31.027471197,41.69163302,38.729076441));
#750=DIRECTION('',(-1.,0.,0.));
#751=VECTOR('',#750,19.);
#752=LINE('',#749,#751);
#753=EDGE_CURVE('',#746,#748,#752,.T.);
#754=ORIENTED_EDGE('',*,*,#753,.F.);
#755=CARTESIAN_POINT('',(35.907471197,36.81163302,38.729076441));
#756=VERTEX_POINT('',#755);
#757=CARTESIAN_POINT('',(31.027471197,36.81163302,38.729076441));
#758=DIRECTION('',(0.,-0.,1.));
#759=DIRECTION('',(0.,1.,0.));
#760=AXIS2_PLACEMENT_3D('',#757,#758,#759);
#761=CIRCLE('',#760,4.88);
#762=EDGE_CURVE('',#756,#746,#761,.T.);
#763=ORIENTED_EDGE('',*,*,#762,.F.);
#764=CARTESIAN_POINT('',(35.907471197,17.81163302,38.729076441));
#765=VERTEX_POINT('',#764);
#766=CARTESIAN_POINT('',(35.907471197,17.81163302,38.729076441));
#767=DIRECTION('',(0.,1.,0.));
#768=VECTOR('',#767,19.);
#769=LINE('',#766,#768);
#770=EDGE_CURVE('',#765,#756,#769,.T.);
#771=ORIENTED_EDGE('',*,*,#770,.F.);
#772=CARTESIAN_POINT('',(31.027471197,12.93163302,38.729076441));
#773=VERTEX_POINT('',#772);
#774=CARTESIAN_POINT('',(31.027471197,17.81163302,38.729076441));
#775=DIRECTION('',(0.,-0.,1.));
#776=DIRECTION('',(0.,1.,0.));
#777=AXIS2_PLACEMENT_3D('',#774,#775,#776);
#778=CIRCLE('',#777,4.88);
#779=EDGE_CURVE('',#773,#765,#778,.T.);
#780=ORIENTED_EDGE('',*,*,#779,.F.);
#781=CARTESIAN_POINT('',(12.027471197,12.93163302,38.729076441));
#782=VERTEX_POINT('',#781);
#783=CARTESIAN_POINT('',(12.027471197,12.93163302,38.729076441));
#784=DIRECTION('',(1.,0.,-0.));
#785=VECTOR('',#784,19.);
#786=LINE('',#783,#785);
#787=EDGE_CURVE('',#782,#773,#786,.T.);
#788=ORIENTED_EDGE('',*,*,#787,.F.);
#789=CARTESIAN_POINT('',(7.147471197,17.81163302,38.729076441));
#790=VERTEX_POINT('',#789);
#791=CARTESIAN_POINT('',(12.027471197,17.81163302,38.729076441));
#792=DIRECTION('',(0.,-0.,1.));
#793=DIRECTION('',(0.,1.,0.));
#794=AXIS2_PLACEMENT_3D('',#791,#792,#793);
#795=CIRCLE('',#794,4.88);
#796=EDGE_CURVE('',#790,#782,#795,.T.);
#797=ORIENTED_EDGE('',*,*,#796,.F.);
#798=CARTESIAN_POINT('',(7.147471197,36.81163302,38.729076441));
#799=VERTEX_POINT('',#798);
#800=CARTESIAN_POINT('',(7.147471197,36.81163302,38.729076441));
#801=DIRECTION('',(-0.,-1.,-0.));
#802=VECTOR('',#801,19.);
#803=LINE('',#800,#802);
#804=EDGE_CURVE('',#799,#790,#803,.T.);
#805=ORIENTED_EDGE('',*,*,#804,.F.);
#806=CARTESIAN_POINT('',(12.027471197,36.81163302,38.729076441));
#807=DIRECTION('',(0.,-0.,1.));
#808=DIRECTION('',(0.,1.,0.));
#809=AXIS2_PLACEMENT_3D('',#806,#807,#808);
#810=CIRCLE('',#809,4.88);
#811=EDGE_CURVE('',#748,#799,#810,.T.);
#812=ORIENTED_EDGE('',*,*,#811,.F.);
#813=EDGE_LOOP('',(#754,#763,#771,#780,#788,#797,#805,#812));
#814=FACE_BOUND('',#813,.T.);
#815=CARTESIAN_POINT('',(29.55452272,36.81163302,38.729076441));
#816=VERTEX_POINT('',#815);
#817=CARTESIAN_POINT('',(29.554635671,36.793225457,38.729076441));
#818=VERTEX_POINT('',#817);
#819=CARTESIAN_POINT('',(31.05452272,36.81163302,38.729076441));
#820=DIRECTION('',(-0.,0.,-1.));
#821=DIRECTION('',(-0.9999247,-0.012271709,0.));
#822=AXIS2_PLACEMENT_3D('',#819,#820,#821);
#823=CIRCLE('',#822,1.5);
#824=EDGE_CURVE('',#816,#818,#823,.T.);
#825=ORIENTED_EDGE('',*,*,#824,.F.);
#826=CARTESIAN_POINT('',(31.05452272,36.81163302,38.729076441));
#827=DIRECTION('',(-0.,0.,-1.));
#828=DIRECTION('',(-0.9999247,-0.012271709,0.));
#829=AXIS2_PLACEMENT_3D('',#826,#827,#828);
#830=CIRCLE('',#829,1.5);
#831=EDGE_CURVE('',#818,#816,#830,.T.);
#832=ORIENTED_EDGE('',*,*,#831,.F.);
#833=EDGE_LOOP('',(#825,#832));
#834=FACE_BOUND('',#833,.T.);
#835=ADVANCED_FACE('',(#744,#814,#834),#738,.T.);
#836=CARTESIAN_POINT('',(21.527471197,27.31163302,40.729076441));
#837=DIRECTION('',(-0.,0.,-1.));
#838=DIRECTION('',(0.,1.,0.));
#839=AXIS2_PLACEMENT_3D('',#836,#837,#838);
#840=PLANE('',#839);
#841=CARTESIAN_POINT('',(28.55452272,36.81163302,40.729076441));
#842=VERTEX_POINT('',#841);
#843=CARTESIAN_POINT('',(33.55452272,36.81163302,40.729076441));
#844=VERTEX_POINT('',#843);
#845=CARTESIAN_POINT('',(31.05452272,36.81163302,40.729076441));
#846=DIRECTION('',(0.,-0.,1.));
#847=DIRECTION('',(1.,0.,-0.));
#848=AXIS2_PLACEMENT_3D('',#845,#846,#847);
#849=CIRCLE('',#848,2.5);
#850=EDGE_CURVE('',#842,#844,#849,.T.);
#851=ORIENTED_EDGE('',*,*,#850,.F.);
#852=CARTESIAN_POINT('',(31.05452272,36.81163302,40.729076441));
#853=DIRECTION('',(0.,-0.,1.));
#854=DIRECTION('',(1.,0.,-0.));
#855=AXIS2_PLACEMENT_3D('',#852,#853,#854);
#856=CIRCLE('',#855,2.5);
#857=EDGE_CURVE('',#844,#842,#856,.T.);
#858=ORIENTED_EDGE('',*,*,#857,.F.);
#859=EDGE_LOOP('',(#851,#858));
#860=FACE_BOUND('',#859,.T.);
#861=ORIENTED_EDGE('',*,*,#722,.F.);
#862=ORIENTED_EDGE('',*,*,#693,.F.);
#863=ORIENTED_EDGE('',*,*,#662,.F.);
#864=ORIENTED_EDGE('',*,*,#631,.F.);
#865=EDGE_LOOP('',(#861,#862,#863,#864));
#866=FACE_BOUND('',#865,.T.);
#867=CARTESIAN_POINT('',(31.059243152,40.01163302,40.729076441));
#868=VERTEX_POINT('',#867);
#869=CARTESIAN_POINT('',(11.995761011,40.01163302,40.729076441));
#870=VERTEX_POINT('',#869);
#871=CARTESIAN_POINT('',(31.059243152,40.01163302,40.729076441));
#872=DIRECTION('',(-1.,0.,0.));
#873=VECTOR('',#872,19.063482141);
#874=LINE('',#871,#873);
#875=EDGE_CURVE('',#868,#870,#874,.T.);
#876=ORIENTED_EDGE('',*,*,#875,.T.);
#877=CARTESIAN_POINT('',(8.795761011,36.81163302,40.729076441));
#878=VERTEX_POINT('',#877);
#879=CARTESIAN_POINT('',(11.995761011,36.81163302,40.729076441));
#880=DIRECTION('',(-0.,0.,-1.));
#881=DIRECTION('',(-1.,0.,0.));
#882=AXIS2_PLACEMENT_3D('',#879,#880,#881);
#883=CIRCLE('',#882,3.2);
#884=EDGE_CURVE('',#878,#870,#883,.T.);
#885=ORIENTED_EDGE('',*,*,#884,.F.);
#886=CARTESIAN_POINT('',(8.795761011,17.81163302,40.729076441));
#887=VERTEX_POINT('',#886);
#888=CARTESIAN_POINT('',(8.795761011,17.81163302,40.729076441));
#889=DIRECTION('',(0.,1.,0.));
#890=VECTOR('',#889,19.);
#891=LINE('',#888,#890);
#892=EDGE_CURVE('',#887,#878,#891,.T.);
#893=ORIENTED_EDGE('',*,*,#892,.F.);
#894=CARTESIAN_POINT('',(11.995761011,14.61163302,40.729076441));
#895=VERTEX_POINT('',#894);
#896=CARTESIAN_POINT('',(11.995761011,17.81163302,40.729076441));
#897=DIRECTION('',(-0.,0.,-1.));
#898=DIRECTION('',(-1.,0.,0.));
#899=AXIS2_PLACEMENT_3D('',#896,#897,#898);
#900=CIRCLE('',#899,3.2);
#901=EDGE_CURVE('',#895,#887,#900,.T.);
#902=ORIENTED_EDGE('',*,*,#901,.F.);
#903=CARTESIAN_POINT('',(31.059243152,14.61163302,40.729076441));
#904=VERTEX_POINT('',#903);
#905=CARTESIAN_POINT('',(11.995761011,14.61163302,40.729076441));
#906=DIRECTION('',(1.,0.,-0.));
#907=VECTOR('',#906,19.063482141);
#908=LINE('',#905,#907);
#909=EDGE_CURVE('',#895,#904,#908,.T.);
#910=ORIENTED_EDGE('',*,*,#909,.T.);
#911=CARTESIAN_POINT('',(34.259243152,17.81163302,40.729076441));
#912=VERTEX_POINT('',#911);
#913=CARTESIAN_POINT('',(31.059243152,17.81163302,40.729076441));
#914=DIRECTION('',(0.,-0.,1.));
#915=DIRECTION('',(0.,1.,0.));
#916=AXIS2_PLACEMENT_3D('',#913,#914,#915);
#917=CIRCLE('',#916,3.2);
#918=EDGE_CURVE('',#904,#912,#917,.T.);
#919=ORIENTED_EDGE('',*,*,#918,.T.);
#920=CARTESIAN_POINT('',(34.259243152,36.81163302,40.729076441));
#921=VERTEX_POINT('',#920);
#922=CARTESIAN_POINT('',(34.259243152,17.81163302,40.729076441));
#923=DIRECTION('',(0.,1.,0.));
#924=VECTOR('',#923,19.);
#925=LINE('',#922,#924);
#926=EDGE_CURVE('',#912,#921,#925,.T.);
#927=ORIENTED_EDGE('',*,*,#926,.T.);
#928=CARTESIAN_POINT('',(31.059243152,36.81163302,40.729076441));
#929=DIRECTION('',(0.,-0.,1.));
#930=DIRECTION('',(0.,1.,0.));
#931=AXIS2_PLACEMENT_3D('',#928,#929,#930);
#932=CIRCLE('',#931,3.2);
#933=EDGE_CURVE('',#921,#868,#932,.T.);
#934=ORIENTED_EDGE('',*,*,#933,.T.);
#935=EDGE_LOOP('',(#876,#885,#893,#902,#910,#919,#927,#934));
#936=FACE_BOUND('',#935,.T.);
#937=ADVANCED_FACE('',(#860,#866,#936),#840,.F.);
#938=CARTESIAN_POINT('',(35.907471197,43.34248006,39.429077414));
#939=DIRECTION('',(-1.,0.,0.));
#940=DIRECTION('',(-0.,0.,-1.));
#941=AXIS2_PLACEMENT_3D('',#938,#939,#940);
#942=PLANE('',#941);
#943=ORIENTED_EDGE('',*,*,#513,.F.);
#944=CARTESIAN_POINT('',(35.907471197,17.81163302,38.729076441));
#945=DIRECTION('',(0.,-0.,1.));
#946=VECTOR('',#945,8.018930367);
#947=LINE('',#944,#946);
#948=EDGE_CURVE('',#765,#501,#947,.T.);
#949=ORIENTED_EDGE('',*,*,#948,.F.);
#950=ORIENTED_EDGE('',*,*,#770,.T.);
#951=CARTESIAN_POINT('',(35.907471197,36.81163302,38.729076441));
#952=DIRECTION('',(0.,-0.,1.));
#953=VECTOR('',#952,8.018930367);
#954=LINE('',#951,#953);
#955=EDGE_CURVE('',#756,#448,#954,.T.);
#956=ORIENTED_EDGE('',*,*,#955,.T.);
#957=EDGE_LOOP('',(#943,#949,#950,#956));
#958=FACE_BOUND('',#957,.T.);
#959=ADVANCED_FACE('',(#958),#942,.F.);
#960=CARTESIAN_POINT('',(31.027471197,17.81163302,39.429077414));
#961=DIRECTION('',(0.,-0.,1.));
#962=DIRECTION('',(-0.,-1.,-0.));
#963=AXIS2_PLACEMENT_3D('',#960,#961,#962);
#964=CYLINDRICAL_SURFACE('',#963,4.88);
#965=ORIENTED_EDGE('',*,*,#507,.F.);
#966=CARTESIAN_POINT('',(31.027471197,12.93163302,38.729076441));
#967=DIRECTION('',(0.,-0.,1.));
#968=VECTOR('',#967,8.018930367);
#969=LINE('',#966,#968);
#970=EDGE_CURVE('',#773,#493,#969,.T.);
#971=ORIENTED_EDGE('',*,*,#970,.F.);
#972=ORIENTED_EDGE('',*,*,#779,.T.);
#973=ORIENTED_EDGE('',*,*,#948,.T.);
#974=EDGE_LOOP('',(#965,#971,#972,#973));
#975=FACE_BOUND('',#974,.T.);
#976=ADVANCED_FACE('',(#975),#964,.T.);
#977=CARTESIAN_POINT('',(-37.931178492,12.93163302,39.429077414));
#978=DIRECTION('',(0.,1.,0.));
#979=DIRECTION('',(0.,-0.,1.));
#980=AXIS2_PLACEMENT_3D('',#977,#978,#979);
#981=PLANE('',#980);
#982=ORIENTED_EDGE('',*,*,#498,.F.);
#983=CARTESIAN_POINT('',(12.027471197,12.93163302,38.729076441));
#984=DIRECTION('',(0.,-0.,1.));
#985=VECTOR('',#984,8.018930367);
#986=LINE('',#983,#985);
#987=EDGE_CURVE('',#782,#484,#986,.T.);
#988=ORIENTED_EDGE('',*,*,#987,.F.);
#989=ORIENTED_EDGE('',*,*,#787,.T.);
#990=ORIENTED_EDGE('',*,*,#970,.T.);
#991=EDGE_LOOP('',(#982,#988,#989,#990));
#992=FACE_BOUND('',#991,.T.);
#993=ADVANCED_FACE('',(#992),#981,.F.);
#994=CARTESIAN_POINT('',(12.027471197,17.81163302,39.429077414));
#995=DIRECTION('',(0.,-0.,1.));
#996=DIRECTION('',(-0.,-1.,-0.));
#997=AXIS2_PLACEMENT_3D('',#994,#995,#996);
#998=CYLINDRICAL_SURFACE('',#997,4.88);
#999=ORIENTED_EDGE('',*,*,#490,.F.);
#1000=CARTESIAN_POINT('',(7.147471197,17.81163302,38.729076441));
#1001=DIRECTION('',(0.,-0.,1.));
#1002=VECTOR('',#1001,8.018930367);
#1003=LINE('',#1000,#1002);
#1004=EDGE_CURVE('',#790,#476,#1003,.T.);
#1005=ORIENTED_EDGE('',*,*,#1004,.F.);
#1006=ORIENTED_EDGE('',*,*,#796,.T.);
#1007=ORIENTED_EDGE('',*,*,#987,.T.);
#1008=EDGE_LOOP('',(#999,#1005,#1006,#1007));
#1009=FACE_BOUND('',#1008,.T.);
#1010=ADVANCED_FACE('',(#1009),#998,.T.);
#1011=CARTESIAN_POINT('',(7.147471197,43.34248006,39.429077414));
#1012=DIRECTION('',(1.,0.,-0.));
#1013=DIRECTION('',(0.,0.,1.));
#1014=AXIS2_PLACEMENT_3D('',#1011,#1012,#1013);
#1015=PLANE('',#1014);
#1016=ORIENTED_EDGE('',*,*,#481,.F.);
#1017=CARTESIAN_POINT('',(7.147471197,36.81163302,38.729076441));
#1018=DIRECTION('',(0.,-0.,1.));
#1019=VECTOR('',#1018,8.018930367);
#1020=LINE('',#1017,#1019);
#1021=EDGE_CURVE('',#799,#467,#1020,.T.);
#1022=ORIENTED_EDGE('',*,*,#1021,.F.);
#1023=ORIENTED_EDGE('',*,*,#804,.T.);
#1024=ORIENTED_EDGE('',*,*,#1004,.T.);
#1025=EDGE_LOOP('',(#1016,#1022,#1023,#1024));
#1026=FACE_BOUND('',#1025,.T.);
#1027=ADVANCED_FACE('',(#1026),#1015,.F.);
#1028=CARTESIAN_POINT('',(12.027471197,36.81163302,39.429077414));
#1029=DIRECTION('',(0.,-0.,1.));
#1030=DIRECTION('',(-0.,-1.,-0.));
#1031=AXIS2_PLACEMENT_3D('',#1028,#1029,#1030);
#1032=CYLINDRICAL_SURFACE('',#1031,4.88);
#1033=ORIENTED_EDGE('',*,*,#473,.F.);
#1034=CARTESIAN_POINT('',(12.027471197,41.69163302,38.729076441));
#1035=DIRECTION('',(0.,-0.,1.));
#1036=VECTOR('',#1035,8.018930367);
#1037=LINE('',#1034,#1036);
#1038=EDGE_CURVE('',#748,#459,#1037,.T.);
#1039=ORIENTED_EDGE('',*,*,#1038,.F.);
#1040=ORIENTED_EDGE('',*,*,#811,.T.);
#1041=ORIENTED_EDGE('',*,*,#1021,.T.);
#1042=EDGE_LOOP('',(#1033,#1039,#1040,#1041));
#1043=FACE_BOUND('',#1042,.T.);
#1044=ADVANCED_FACE('',(#1043),#1032,.T.);
#1045=CARTESIAN_POINT('',(-37.931178492,41.69163302,39.429077414));
#1046=DIRECTION('',(-0.,-1.,-0.));
#1047=DIRECTION('',(-0.,0.,-1.));
#1048=AXIS2_PLACEMENT_3D('',#1045,#1046,#1047);
#1049=PLANE('',#1048);
#1050=ORIENTED_EDGE('',*,*,#464,.F.);
#1051=CARTESIAN_POINT('',(31.027471197,41.69163302,38.729076441));
#1052=DIRECTION('',(0.,-0.,1.));
#1053=VECTOR('',#1052,8.018930367);
#1054=LINE('',#1051,#1053);
#1055=EDGE_CURVE('',#746,#450,#1054,.T.);
#1056=ORIENTED_EDGE('',*,*,#1055,.F.);
#1057=ORIENTED_EDGE('',*,*,#753,.T.);
#1058=ORIENTED_EDGE('',*,*,#1038,.T.);
#1059=EDGE_LOOP('',(#1050,#1056,#1057,#1058));
#1060=FACE_BOUND('',#1059,.T.);
#1061=ADVANCED_FACE('',(#1060),#1049,.F.);
#1062=CARTESIAN_POINT('',(31.027471197,36.81163302,39.429077414));
#1063=DIRECTION('',(0.,-0.,1.));
#1064=DIRECTION('',(-0.,-1.,-0.));
#1065=AXIS2_PLACEMENT_3D('',#1062,#1063,#1064);
#1066=CYLINDRICAL_SURFACE('',#1065,4.88);
#1067=ORIENTED_EDGE('',*,*,#456,.F.);
#1068=ORIENTED_EDGE('',*,*,#955,.F.);
#1069=ORIENTED_EDGE('',*,*,#762,.T.);
#1070=ORIENTED_EDGE('',*,*,#1055,.T.);
#1071=EDGE_LOOP('',(#1067,#1068,#1069,#1070));
#1072=FACE_BOUND('',#1071,.T.);
#1073=ADVANCED_FACE('',(#1072),#1066,.T.);
#1074=CARTESIAN_POINT('',(33.931178492,41.445871089,233.335599074));
#1075=DIRECTION('',(-0.,0.,-1.));
#1076=DIRECTION('',(0.,1.,0.));
#1077=AXIS2_PLACEMENT_3D('',#1074,#1075,#1076);
#1078=CYLINDRICAL_SURFACE('',#1077,2.);
#1079=ORIENTED_EDGE('',*,*,#428,.F.);
#1080=ORIENTED_EDGE('',*,*,#385,.F.);
#1081=ORIENTED_EDGE('',*,*,#77,.T.);
#1082=CARTESIAN_POINT('',(35.931178492,41.445871089,48.570015182));
#1083=DIRECTION('',(-0.,0.,-1.));
#1084=VECTOR('',#1083,1.822008373);
#1085=LINE('',#1082,#1084);
#1086=EDGE_CURVE('',#63,#422,#1085,.T.);
#1087=ORIENTED_EDGE('',*,*,#1086,.T.);
#1088=EDGE_LOOP('',(#1079,#1080,#1081,#1087));
#1089=FACE_BOUND('',#1088,.T.);
#1090=ADVANCED_FACE('',(#1089),#1078,.T.);
#1091=CARTESIAN_POINT('',(35.931178492,43.34248006,233.335599074));
#1092=DIRECTION('',(1.,0.,-0.));
#1093=DIRECTION('',(-0.,1.,0.));
#1094=AXIS2_PLACEMENT_3D('',#1091,#1092,#1093);
#1095=PLANE('',#1094);
#1096=ORIENTED_EDGE('',*,*,#436,.F.);
#1097=ORIENTED_EDGE('',*,*,#1086,.F.);
#1098=ORIENTED_EDGE('',*,*,#68,.T.);
#1099=CARTESIAN_POINT('',(35.931178492,4.950114529,48.570015182));
#1100=DIRECTION('',(-0.,0.,-1.));
#1101=VECTOR('',#1100,1.822008373);
#1102=LINE('',#1099,#1101);
#1103=EDGE_CURVE('',#54,#431,#1102,.T.);
#1104=ORIENTED_EDGE('',*,*,#1103,.T.);
#1105=EDGE_LOOP('',(#1096,#1097,#1098,#1104));
#1106=FACE_BOUND('',#1105,.T.);
#1107=ADVANCED_FACE('',(#1106),#1095,.T.);
#1108=CARTESIAN_POINT('',(33.931178492,4.950114529,233.335599074));
#1109=DIRECTION('',(-0.,0.,-1.));
#1110=DIRECTION('',(0.,1.,0.));
#1111=AXIS2_PLACEMENT_3D('',#1108,#1109,#1110);
#1112=CYLINDRICAL_SURFACE('',#1111,2.);
#1113=ORIENTED_EDGE('',*,*,#443,.F.);
#1114=ORIENTED_EDGE('',*,*,#1103,.F.);
#1115=ORIENTED_EDGE('',*,*,#60,.T.);
#1116=ORIENTED_EDGE('',*,*,#354,.T.);
#1117=EDGE_LOOP('',(#1113,#1114,#1115,#1116));
#1118=FACE_BOUND('',#1117,.T.);
#1119=ADVANCED_FACE('',(#1118),#1112,.T.);
#1120=CARTESIAN_POINT('',(31.05452272,36.81163302,242.183375373));
#1121=DIRECTION('',(-0.,0.,-1.));
#1122=DIRECTION('',(-1.,0.,0.));
#1123=AXIS2_PLACEMENT_3D('',#1120,#1121,#1122);
#1124=CYLINDRICAL_SURFACE('',#1123,3.2);
#1125=CARTESIAN_POINT('',(31.056882936,40.011632585,46.748006808));
#1126=VERTEX_POINT('',#1125);
#1127=CARTESIAN_POINT('',(31.056882936,40.01163215,48.570015182));
#1128=DIRECTION('',(-0.,0.,-1.));
#1129=VECTOR('',#1128,1.822008373);
#1130=LINE('',#1127,#1129);
#1131=EDGE_CURVE('',#116,#1126,#1130,.T.);
#1132=ORIENTED_EDGE('',*,*,#1131,.F.);
#1133=ORIENTED_EDGE('',*,*,#206,.F.);
#1134=CARTESIAN_POINT('',(31.05452272,40.01163302,48.570015182));
#1135=DIRECTION('',(-0.,0.,-1.));
#1136=VECTOR('',#1135,1.822008373);
#1137=LINE('',#1134,#1136);
#1138=EDGE_CURVE('',#194,#1126,#1137,.T.);
#1139=ORIENTED_EDGE('',*,*,#1138,.T.);
#1140=EDGE_LOOP('',(#1132,#1133,#1139));
#1141=FACE_BOUND('',#1140,.T.);
#1142=ADVANCED_FACE('',(#1141),#1124,.F.);
#1143=CARTESIAN_POINT('',(9.05452272,40.01163302,242.183375373));
#1144=DIRECTION('',(0.,1.,0.));
#1145=DIRECTION('',(0.,0.,1.));
#1146=AXIS2_PLACEMENT_3D('',#1143,#1144,#1145);
#1147=PLANE('',#1146);
#1148=CARTESIAN_POINT('',(11.995761011,40.01163302,48.570015182));
#1149=DIRECTION('',(-0.,-0.,-1.));
#1150=VECTOR('',#1149,7.84093874);
#1151=LINE('',#1148,#1150);
#1152=EDGE_CURVE('',#185,#870,#1151,.T.);
#1153=ORIENTED_EDGE('',*,*,#1152,.T.);
#1154=ORIENTED_EDGE('',*,*,#875,.F.);
#1155=CARTESIAN_POINT('',(31.059243152,40.01163302,40.729076441));
#1156=DIRECTION('',(0.,-0.,1.));
#1157=VECTOR('',#1156,6.018930367);
#1158=LINE('',#1155,#1157);
#1159=EDGE_CURVE('',#868,#1126,#1158,.T.);
#1160=ORIENTED_EDGE('',*,*,#1159,.T.);
#1161=ORIENTED_EDGE('',*,*,#1138,.F.);
#1162=ORIENTED_EDGE('',*,*,#199,.F.);
#1163=EDGE_LOOP('',(#1153,#1154,#1160,#1161,#1162));
#1164=FACE_BOUND('',#1163,.T.);
#1165=ADVANCED_FACE('',(#1164),#1147,.F.);
#1166=CARTESIAN_POINT('',(11.995761011,36.81163302,242.183375373));
#1167=DIRECTION('',(-0.,0.,-1.));
#1168=DIRECTION('',(-1.,0.,0.));
#1169=AXIS2_PLACEMENT_3D('',#1166,#1167,#1168);
#1170=CYLINDRICAL_SURFACE('',#1169,3.2);
#1171=ORIENTED_EDGE('',*,*,#884,.T.);
#1172=ORIENTED_EDGE('',*,*,#1152,.F.);
#1173=ORIENTED_EDGE('',*,*,#191,.F.);
#1174=CARTESIAN_POINT('',(8.795761011,36.81163302,48.570015182));
#1175=DIRECTION('',(-0.,0.,-1.));
#1176=VECTOR('',#1175,7.84093874);
#1177=LINE('',#1174,#1176);
#1178=EDGE_CURVE('',#177,#878,#1177,.T.);
#1179=ORIENTED_EDGE('',*,*,#1178,.T.);
#1180=EDGE_LOOP('',(#1171,#1172,#1173,#1179));
#1181=FACE_BOUND('',#1180,.T.);
#1182=ADVANCED_FACE('',(#1181),#1170,.F.);
#1183=CARTESIAN_POINT('',(8.795761011,14.81163302,242.183375373));
#1184=DIRECTION('',(-1.,0.,0.));
#1185=DIRECTION('',(0.,0.,1.));
#1186=AXIS2_PLACEMENT_3D('',#1183,#1184,#1185);
#1187=PLANE('',#1186);
#1188=ORIENTED_EDGE('',*,*,#892,.T.);
#1189=ORIENTED_EDGE('',*,*,#1178,.F.);
#1190=ORIENTED_EDGE('',*,*,#182,.F.);
#1191=CARTESIAN_POINT('',(8.795761011,17.81163302,48.570015182));
#1192=DIRECTION('',(-0.,-0.,-1.));
#1193=VECTOR('',#1192,7.84093874);
#1194=LINE('',#1191,#1193);
#1195=EDGE_CURVE('',#168,#887,#1194,.T.);
#1196=ORIENTED_EDGE('',*,*,#1195,.T.);
#1197=EDGE_LOOP('',(#1188,#1189,#1190,#1196));
#1198=FACE_BOUND('',#1197,.T.);
#1199=ADVANCED_FACE('',(#1198),#1187,.F.);
#1200=CARTESIAN_POINT('',(11.995761011,17.81163302,242.183375373));
#1201=DIRECTION('',(-0.,0.,-1.));
#1202=DIRECTION('',(-1.,0.,0.));
#1203=AXIS2_PLACEMENT_3D('',#1200,#1201,#1202);
#1204=CYLINDRICAL_SURFACE('',#1203,3.2);
#1205=ORIENTED_EDGE('',*,*,#901,.T.);
#1206=ORIENTED_EDGE('',*,*,#1195,.F.);
#1207=ORIENTED_EDGE('',*,*,#174,.F.);
#1208=CARTESIAN_POINT('',(11.995761011,14.61163302,48.570015182));
#1209=DIRECTION('',(-0.,0.,-1.));
#1210=VECTOR('',#1209,7.84093874);
#1211=LINE('',#1208,#1210);
#1212=EDGE_CURVE('',#160,#895,#1211,.T.);
#1213=ORIENTED_EDGE('',*,*,#1212,.T.);
#1214=EDGE_LOOP('',(#1205,#1206,#1207,#1213));
#1215=FACE_BOUND('',#1214,.T.);
#1216=ADVANCED_FACE('',(#1215),#1204,.F.);
#1217=CARTESIAN_POINT('',(34.05452272,14.61163302,242.183375373));
#1218=DIRECTION('',(0.,-1.,0.));
#1219=DIRECTION('',(-0.,0.,-1.));
#1220=AXIS2_PLACEMENT_3D('',#1217,#1218,#1219);
#1221=PLANE('',#1220);
#1222=CARTESIAN_POINT('',(31.056882936,14.611633455,46.748006808));
#1223=VERTEX_POINT('',#1222);
#1224=CARTESIAN_POINT('',(31.05452272,14.61163302,48.570015182));
#1225=DIRECTION('',(-0.,0.,-1.));
#1226=VECTOR('',#1225,1.822008373);
#1227=LINE('',#1224,#1226);
#1228=EDGE_CURVE('',#151,#1223,#1227,.T.);
#1229=ORIENTED_EDGE('',*,*,#1228,.T.);
#1230=CARTESIAN_POINT('',(31.059243152,14.61163302,40.729076441));
#1231=DIRECTION('',(0.,-0.,1.));
#1232=VECTOR('',#1231,6.018930367);
#1233=LINE('',#1230,#1232);
#1234=EDGE_CURVE('',#904,#1223,#1233,.T.);
#1235=ORIENTED_EDGE('',*,*,#1234,.F.);
#1236=ORIENTED_EDGE('',*,*,#909,.F.);
#1237=ORIENTED_EDGE('',*,*,#1212,.F.);
#1238=ORIENTED_EDGE('',*,*,#165,.F.);
#1239=EDGE_LOOP('',(#1229,#1235,#1236,#1237,#1238));
#1240=FACE_BOUND('',#1239,.T.);
#1241=ADVANCED_FACE('',(#1240),#1221,.F.);
#1242=CARTESIAN_POINT('',(31.05452272,17.81163302,242.183375373));
#1243=DIRECTION('',(-0.,0.,-1.));
#1244=DIRECTION('',(-1.,0.,0.));
#1245=AXIS2_PLACEMENT_3D('',#1242,#1243,#1244);
#1246=CYLINDRICAL_SURFACE('',#1245,3.2);
#1247=CARTESIAN_POINT('',(31.056882936,14.61163389,46.748006808));
#1248=DIRECTION('',(0.,-0.,1.));
#1249=VECTOR('',#1248,1.822008373);
#1250=LINE('',#1247,#1249);
#1251=EDGE_CURVE('',#1223,#142,#1250,.T.);
#1252=ORIENTED_EDGE('',*,*,#1251,.F.);
#1253=ORIENTED_EDGE('',*,*,#1228,.F.);
#1254=ORIENTED_EDGE('',*,*,#157,.F.);
#1255=EDGE_LOOP('',(#1252,#1253,#1254));
#1256=FACE_BOUND('',#1255,.T.);
#1257=ADVANCED_FACE('',(#1256),#1246,.F.);
#1258=CARTESIAN_POINT('',(31.059243152,17.81163302,39.429077414));
#1259=DIRECTION('',(0.,-0.,1.));
#1260=DIRECTION('',(-0.,-1.,-0.));
#1261=AXIS2_PLACEMENT_3D('',#1258,#1259,#1260);
#1262=CYLINDRICAL_SURFACE('',#1261,3.2);
#1263=CARTESIAN_POINT('',(31.059243152,14.61163302,48.570015182));
#1264=DIRECTION('',(-0.,0.,-1.));
#1265=VECTOR('',#1264,1.822008373);
#1266=LINE('',#1263,#1265);
#1267=EDGE_CURVE('',#133,#1223,#1266,.T.);
#1268=ORIENTED_EDGE('',*,*,#1267,.F.);
#1269=ORIENTED_EDGE('',*,*,#139,.T.);
#1270=CARTESIAN_POINT('',(34.259243152,17.81163302,40.729076441));
#1271=DIRECTION('',(0.,-0.,1.));
#1272=VECTOR('',#1271,7.84093874);
#1273=LINE('',#1270,#1272);
#1274=EDGE_CURVE('',#912,#125,#1273,.T.);
#1275=ORIENTED_EDGE('',*,*,#1274,.F.);
#1276=ORIENTED_EDGE('',*,*,#918,.F.);
#1277=ORIENTED_EDGE('',*,*,#1234,.T.);
#1278=EDGE_LOOP('',(#1268,#1269,#1275,#1276,#1277));
#1279=FACE_BOUND('',#1278,.T.);
#1280=ADVANCED_FACE('',(#1279),#1262,.F.);
#1281=CARTESIAN_POINT('',(34.259243152,43.34248006,39.429077414));
#1282=DIRECTION('',(-1.,0.,0.));
#1283=DIRECTION('',(-0.,0.,-1.));
#1284=AXIS2_PLACEMENT_3D('',#1281,#1282,#1283);
#1285=PLANE('',#1284);
#1286=ORIENTED_EDGE('',*,*,#130,.T.);
#1287=CARTESIAN_POINT('',(34.259243152,36.81163302,40.729076441));
#1288=DIRECTION('',(0.,-0.,1.));
#1289=VECTOR('',#1288,7.84093874);
#1290=LINE('',#1287,#1289);
#1291=EDGE_CURVE('',#921,#114,#1290,.T.);
#1292=ORIENTED_EDGE('',*,*,#1291,.F.);
#1293=ORIENTED_EDGE('',*,*,#926,.F.);
#1294=ORIENTED_EDGE('',*,*,#1274,.T.);
#1295=EDGE_LOOP('',(#1286,#1292,#1293,#1294));
#1296=FACE_BOUND('',#1295,.T.);
#1297=ADVANCED_FACE('',(#1296),#1285,.T.);
#1298=CARTESIAN_POINT('',(31.059243152,36.81163302,39.429077414));
#1299=DIRECTION('',(0.,-0.,1.));
#1300=DIRECTION('',(-0.,-1.,-0.));
#1301=AXIS2_PLACEMENT_3D('',#1298,#1299,#1300);
#1302=CYLINDRICAL_SURFACE('',#1301,3.2);
#1303=ORIENTED_EDGE('',*,*,#122,.T.);
#1304=ORIENTED_EDGE('',*,*,#1131,.T.);
#1305=ORIENTED_EDGE('',*,*,#1159,.F.);
#1306=ORIENTED_EDGE('',*,*,#933,.F.);
#1307=ORIENTED_EDGE('',*,*,#1291,.T.);
#1308=EDGE_LOOP('',(#1303,#1304,#1305,#1306,#1307));
#1309=FACE_BOUND('',#1308,.T.);
#1310=ADVANCED_FACE('',(#1309),#1302,.F.);
#1311=CARTESIAN_POINT('',(31.05452272,36.81163302,-73.898118264));
#1312=DIRECTION('',(0.,0.,1.));
#1313=DIRECTION('',(-1.,0.,0.));
#1314=AXIS2_PLACEMENT_3D('',#1311,#1312,#1313);
#1315=CYLINDRICAL_SURFACE('',#1314,2.5);
#1316=CARTESIAN_POINT('',(28.55452272,36.81163302,39.935445258));
#1317=VERTEX_POINT('',#1316);
#1318=CARTESIAN_POINT('',(28.55452272,36.81163302,40.729076441));
#1319=DIRECTION('',(-0.,-0.,-1.));
#1320=VECTOR('',#1319,0.793631183);
#1321=LINE('',#1318,#1320);
#1322=EDGE_CURVE('',#842,#1317,#1321,.T.);
#1323=ORIENTED_EDGE('',*,*,#1322,.F.);
#1324=ORIENTED_EDGE('',*,*,#850,.T.);
#1325=ORIENTED_EDGE('',*,*,#857,.T.);
#1326=ORIENTED_EDGE('',*,*,#1322,.T.);
#1327=CARTESIAN_POINT('',(31.05452272,36.81163302,39.935445258));
#1328=DIRECTION('',(-0.,0.,-1.));
#1329=DIRECTION('',(-1.,0.,0.));
#1330=AXIS2_PLACEMENT_3D('',#1327,#1328,#1329);
#1331=CIRCLE('',#1330,2.5);
#1332=EDGE_CURVE('',#1317,#1317,#1331,.T.);
#1333=ORIENTED_EDGE('',*,*,#1332,.T.);
#1334=EDGE_LOOP('',(#1323,#1324,#1325,#1326,#1333));
#1335=FACE_BOUND('',#1334,.T.);
#1336=ADVANCED_FACE('',(#1335),#1315,.F.);
#1337=CARTESIAN_POINT('',(31.05452272,36.81163302,38.729076441));
#1338=DIRECTION('',(0.,0.,1.));
#1339=DIRECTION('',(-1.,0.,0.));
#1340=AXIS2_PLACEMENT_3D('',#1337,#1338,#1339);
#1341=CYLINDRICAL_SURFACE('',#1340,1.5);
#1342=CARTESIAN_POINT('',(29.55452272,36.81163302,39.935445258));
#1343=VERTEX_POINT('',#1342);
#1344=CARTESIAN_POINT('',(29.55452272,36.81163302,39.935445258));
#1345=DIRECTION('',(-0.,-0.,-1.));
#1346=VECTOR('',#1345,1.206368817);
#1347=LINE('',#1344,#1346);
#1348=EDGE_CURVE('',#1343,#816,#1347,.T.);
#1349=ORIENTED_EDGE('',*,*,#1348,.F.);
#1350=CARTESIAN_POINT('',(31.05452272,36.81163302,39.935445258));
#1351=DIRECTION('',(-0.,0.,-1.));
#1352=DIRECTION('',(-1.,0.,0.));
#1353=AXIS2_PLACEMENT_3D('',#1350,#1351,#1352);
#1354=CIRCLE('',#1353,1.5);
#1355=EDGE_CURVE('',#1343,#1343,#1354,.T.);
#1356=ORIENTED_EDGE('',*,*,#1355,.F.);
#1357=ORIENTED_EDGE('',*,*,#1348,.T.);
#1358=ORIENTED_EDGE('',*,*,#824,.T.);
#1359=ORIENTED_EDGE('',*,*,#831,.T.);
#1360=EDGE_LOOP('',(#1349,#1356,#1357,#1358,#1359));
#1361=FACE_BOUND('',#1360,.T.);
#1362=ADVANCED_FACE('',(#1361),#1341,.F.);
#1363=CARTESIAN_POINT('',(31.05452272,36.81163302,39.935445258));
#1364=DIRECTION('',(0.,0.,1.));
#1365=DIRECTION('',(-1.,0.,0.));
#1366=AXIS2_PLACEMENT_3D('',#1363,#1364,#1365);
#1367=PLANE('',#1366);
#1368=ORIENTED_EDGE('',*,*,#1355,.T.);
#1369=EDGE_LOOP('',(#1368));
#1370=FACE_BOUND('',#1369,.T.);
#1371=ORIENTED_EDGE('',*,*,#1332,.F.);
#1372=EDGE_LOOP('',(#1371));
#1373=FACE_BOUND('',#1372,.T.);
#1374=ADVANCED_FACE('',(#1370,#1373),#1367,.T.);
#1375=CARTESIAN_POINT('',(29.59477769,8.461785575,-85.684291498));
#1376=DIRECTION('',(0.,0.,1.));
#1377=DIRECTION('',(-1.,0.,0.));
#1378=AXIS2_PLACEMENT_3D('',#1375,#1376,#1377);
#1379=CYLINDRICAL_SURFACE('',#1378,2.5);
#1380=CARTESIAN_POINT('',(27.09477769,8.461785575,47.882976904));
#1381=VERTEX_POINT('',#1380);
#1382=CARTESIAN_POINT('',(27.09477769,8.461785575,48.570015182));
#1383=DIRECTION('',(-0.,-0.,-1.));
#1384=VECTOR('',#1383,0.687038278);
#1385=LINE('',#1382,#1384);
#1386=EDGE_CURVE('',#33,#1381,#1385,.T.);
#1387=ORIENTED_EDGE('',*,*,#1386,.F.);
#1388=ORIENTED_EDGE('',*,*,#39,.T.);
#1389=ORIENTED_EDGE('',*,*,#1386,.T.);
#1390=CARTESIAN_POINT('',(29.59477769,8.461785575,47.882976904));
#1391=DIRECTION('',(-0.,0.,-1.));
#1392=DIRECTION('',(-1.,0.,0.));
#1393=AXIS2_PLACEMENT_3D('',#1390,#1391,#1392);
#1394=CIRCLE('',#1393,2.5);
#1395=EDGE_CURVE('',#1381,#1381,#1394,.T.);
#1396=ORIENTED_EDGE('',*,*,#1395,.T.);
#1397=EDGE_LOOP('',(#1387,#1388,#1389,#1396));
#1398=FACE_BOUND('',#1397,.T.);
#1399=ADVANCED_FACE('',(#1398),#1379,.F.);
#1400=CARTESIAN_POINT('',(29.59477769,8.461785575,45.887656347));
#1401=DIRECTION('',(0.,0.,1.));
#1402=DIRECTION('',(-1.,0.,0.));
#1403=AXIS2_PLACEMENT_3D('',#1400,#1401,#1402);
#1404=CYLINDRICAL_SURFACE('',#1403,1.5);
#1405=CARTESIAN_POINT('',(28.09477769,8.461785575,47.882976904));
#1406=VERTEX_POINT('',#1405);
#1407=CARTESIAN_POINT('',(28.09477769,8.461785575,47.882976904));
#1408=DIRECTION('',(-0.,-0.,-1.));
#1409=VECTOR('',#1408,1.134970096);
#1410=LINE('',#1407,#1409);
#1411=EDGE_CURVE('',#1406,#518,#1410,.T.);
#1412=ORIENTED_EDGE('',*,*,#1411,.F.);
#1413=CARTESIAN_POINT('',(29.59477769,8.461785575,47.882976904));
#1414=DIRECTION('',(-0.,0.,-1.));
#1415=DIRECTION('',(-1.,0.,0.));
#1416=AXIS2_PLACEMENT_3D('',#1413,#1414,#1415);
#1417=CIRCLE('',#1416,1.5);
#1418=EDGE_CURVE('',#1406,#1406,#1417,.T.);
#1419=ORIENTED_EDGE('',*,*,#1418,.F.);
#1420=ORIENTED_EDGE('',*,*,#1411,.T.);
#1421=ORIENTED_EDGE('',*,*,#524,.T.);
#1422=EDGE_LOOP('',(#1412,#1419,#1420,#1421));
#1423=FACE_BOUND('',#1422,.T.);
#1424=ADVANCED_FACE('',(#1423),#1404,.F.);
#1425=CARTESIAN_POINT('',(29.59477769,8.461785575,47.882976904));
#1426=DIRECTION('',(0.,0.,1.));
#1427=DIRECTION('',(-1.,0.,0.));
#1428=AXIS2_PLACEMENT_3D('',#1425,#1426,#1427);
#1429=PLANE('',#1428);
#1430=ORIENTED_EDGE('',*,*,#1418,.T.);
#1431=EDGE_LOOP('',(#1430));
#1432=FACE_BOUND('',#1431,.T.);
#1433=ORIENTED_EDGE('',*,*,#1395,.F.);
#1434=EDGE_LOOP('',(#1433));
#1435=FACE_BOUND('',#1434,.T.);
#1436=ADVANCED_FACE('',(#1432,#1435),#1429,.T.);
#1437=CARTESIAN_POINT('',(-28.577471197,34.36163302,101.609684672));
#1438=DIRECTION('',(0.,1.,0.));
#1439=DIRECTION('',(-0.,0.,1.));
#1440=AXIS2_PLACEMENT_3D('',#1437,#1438,#1439);
#1441=PLANE('',#1440);
#1442=CARTESIAN_POINT('',(-28.577471197,34.36163302,40.729076441));
#1443=VERTEX_POINT('',#1442);
#1444=CARTESIAN_POINT('',(-28.577471197,34.36163302,38.729076441));
#1445=VERTEX_POINT('',#1444);
#1446=CARTESIAN_POINT('',(-28.577471197,34.36163302,40.729076441));
#1447=DIRECTION('',(0.,0.,-1.));
#1448=VECTOR('',#1447,2.);
#1449=LINE('',#1446,#1448);
#1450=EDGE_CURVE('',#1443,#1445,#1449,.T.);
#1451=ORIENTED_EDGE('',*,*,#1450,.T.);
#1452=CARTESIAN_POINT('',(-14.477471197,34.36163302,38.729076441));
#1453=VERTEX_POINT('',#1452);
#1454=CARTESIAN_POINT('',(-28.577471197,34.36163302,38.729076441));
#1455=DIRECTION('',(1.,0.,0.));
#1456=VECTOR('',#1455,14.1);
#1457=LINE('',#1454,#1456);
#1458=EDGE_CURVE('',#1445,#1453,#1457,.T.);
#1459=ORIENTED_EDGE('',*,*,#1458,.T.);
#1460=CARTESIAN_POINT('',(-14.477471197,34.36163302,40.729076441));
#1461=VERTEX_POINT('',#1460);
#1462=CARTESIAN_POINT('',(-14.477471197,34.36163302,40.729076441));
#1463=DIRECTION('',(0.,0.,-1.));
#1464=VECTOR('',#1463,2.);
#1465=LINE('',#1462,#1464);
#1466=EDGE_CURVE('',#1461,#1453,#1465,.T.);
#1467=ORIENTED_EDGE('',*,*,#1466,.F.);
#1468=CARTESIAN_POINT('',(-28.577471197,34.36163302,40.729076441));
#1469=DIRECTION('',(1.,0.,0.));
#1470=VECTOR('',#1469,14.1);
#1471=LINE('',#1468,#1470);
#1472=EDGE_CURVE('',#1443,#1461,#1471,.T.);
#1473=ORIENTED_EDGE('',*,*,#1472,.F.);
#1474=EDGE_LOOP('',(#1451,#1459,#1467,#1473));
#1475=FACE_BOUND('',#1474,.T.);
#1476=ADVANCED_FACE('',(#1475),#1441,.F.);
#1477=CARTESIAN_POINT('',(-14.477471197,34.36163302,101.609684672));
#1478=DIRECTION('',(1.,0.,0.));
#1479=DIRECTION('',(-0.,1.,-0.));
#1480=AXIS2_PLACEMENT_3D('',#1477,#1478,#1479);
#1481=PLANE('',#1480);
#1482=ORIENTED_EDGE('',*,*,#1466,.T.);
#1483=CARTESIAN_POINT('',(-14.477471197,20.26163302,38.729076441));
#1484=VERTEX_POINT('',#1483);
#1485=CARTESIAN_POINT('',(-14.477471197,34.36163302,38.729076441));
#1486=DIRECTION('',(0.,-1.,-0.));
#1487=VECTOR('',#1486,14.1);
#1488=LINE('',#1485,#1487);
#1489=EDGE_CURVE('',#1453,#1484,#1488,.T.);
#1490=ORIENTED_EDGE('',*,*,#1489,.T.);
#1491=CARTESIAN_POINT('',(-14.477471197,20.26163302,40.729076441));
#1492=VERTEX_POINT('',#1491);
#1493=CARTESIAN_POINT('',(-14.477471197,20.26163302,40.729076441));
#1494=DIRECTION('',(0.,0.,-1.));
#1495=VECTOR('',#1494,2.);
#1496=LINE('',#1493,#1495);
#1497=EDGE_CURVE('',#1492,#1484,#1496,.T.);
#1498=ORIENTED_EDGE('',*,*,#1497,.F.);
#1499=CARTESIAN_POINT('',(-14.477471197,34.36163302,40.729076441));
#1500=DIRECTION('',(0.,-1.,-0.));
#1501=VECTOR('',#1500,14.1);
#1502=LINE('',#1499,#1501);
#1503=EDGE_CURVE('',#1461,#1492,#1502,.T.);
#1504=ORIENTED_EDGE('',*,*,#1503,.F.);
#1505=EDGE_LOOP('',(#1482,#1490,#1498,#1504));
#1506=FACE_BOUND('',#1505,.T.);
#1507=ADVANCED_FACE('',(#1506),#1481,.F.);
#1508=CARTESIAN_POINT('',(-14.477471197,20.26163302,101.609684672));
#1509=DIRECTION('',(0.,-1.,0.));
#1510=DIRECTION('',(1.,0.,0.));
#1511=AXIS2_PLACEMENT_3D('',#1508,#1509,#1510);
#1512=PLANE('',#1511);
#1513=ORIENTED_EDGE('',*,*,#1497,.T.);
#1514=CARTESIAN_POINT('',(-28.577471197,20.26163302,38.729076441));
#1515=VERTEX_POINT('',#1514);
#1516=CARTESIAN_POINT('',(-14.477471197,20.26163302,38.729076441));
#1517=DIRECTION('',(-1.,-0.,-0.));
#1518=VECTOR('',#1517,14.1);
#1519=LINE('',#1516,#1518);
#1520=EDGE_CURVE('',#1484,#1515,#1519,.T.);
#1521=ORIENTED_EDGE('',*,*,#1520,.T.);
#1522=CARTESIAN_POINT('',(-28.577471197,20.26163302,40.729076441));
#1523=VERTEX_POINT('',#1522);
#1524=CARTESIAN_POINT('',(-28.577471197,20.26163302,40.729076441));
#1525=DIRECTION('',(0.,0.,-1.));
#1526=VECTOR('',#1525,2.);
#1527=LINE('',#1524,#1526);
#1528=EDGE_CURVE('',#1523,#1515,#1527,.T.);
#1529=ORIENTED_EDGE('',*,*,#1528,.F.);
#1530=CARTESIAN_POINT('',(-14.477471197,20.26163302,40.729076441));
#1531=DIRECTION('',(-1.,-0.,-0.));
#1532=VECTOR('',#1531,14.1);
#1533=LINE('',#1530,#1532);
#1534=EDGE_CURVE('',#1492,#1523,#1533,.T.);
#1535=ORIENTED_EDGE('',*,*,#1534,.F.);
#1536=EDGE_LOOP('',(#1513,#1521,#1529,#1535));
#1537=FACE_BOUND('',#1536,.T.);
#1538=ADVANCED_FACE('',(#1537),#1512,.F.);
#1539=CARTESIAN_POINT('',(-28.577471197,20.26163302,101.609684672));
#1540=DIRECTION('',(-1.,0.,-0.));
#1541=DIRECTION('',(-0.,0.,1.));
#1542=AXIS2_PLACEMENT_3D('',#1539,#1540,#1541);
#1543=PLANE('',#1542);
#1544=ORIENTED_EDGE('',*,*,#1528,.T.);
#1545=CARTESIAN_POINT('',(-28.577471197,20.26163302,38.729076441));
#1546=DIRECTION('',(-0.,1.,0.));
#1547=VECTOR('',#1546,14.1);
#1548=LINE('',#1545,#1547);
#1549=EDGE_CURVE('',#1515,#1445,#1548,.T.);
#1550=ORIENTED_EDGE('',*,*,#1549,.T.);
#1551=ORIENTED_EDGE('',*,*,#1450,.F.);
#1552=CARTESIAN_POINT('',(-28.577471197,20.26163302,40.729076441));
#1553=DIRECTION('',(-0.,1.,0.));
#1554=VECTOR('',#1553,14.1);
#1555=LINE('',#1552,#1554);
#1556=EDGE_CURVE('',#1523,#1443,#1555,.T.);
#1557=ORIENTED_EDGE('',*,*,#1556,.F.);
#1558=EDGE_LOOP('',(#1544,#1550,#1551,#1557));
#1559=FACE_BOUND('',#1558,.T.);
#1560=ADVANCED_FACE('',(#1559),#1543,.F.);
#1561=CARTESIAN_POINT('',(-21.527471197,27.31163302,38.729076441));
#1562=DIRECTION('',(0.,0.,-1.));
#1563=DIRECTION('',(-0.,1.,0.));
#1564=AXIS2_PLACEMENT_3D('',#1561,#1562,#1563);
#1565=PLANE('',#1564);
#1566=ORIENTED_EDGE('',*,*,#1458,.F.);
#1567=ORIENTED_EDGE('',*,*,#1549,.F.);
#1568=ORIENTED_EDGE('',*,*,#1520,.F.);
#1569=ORIENTED_EDGE('',*,*,#1489,.F.);
#1570=EDGE_LOOP('',(#1566,#1567,#1568,#1569));
#1571=FACE_BOUND('',#1570,.T.);
#1572=CARTESIAN_POINT('',(-31.027471197,41.69163302,38.729076441));
#1573=VERTEX_POINT('',#1572);
#1574=CARTESIAN_POINT('',(-12.027471197,41.69163302,38.729076441));
#1575=VERTEX_POINT('',#1574);
#1576=CARTESIAN_POINT('',(-31.027471197,41.69163302,38.729076441));
#1577=DIRECTION('',(1.,0.,0.));
#1578=VECTOR('',#1577,19.);
#1579=LINE('',#1576,#1578);
#1580=EDGE_CURVE('',#1573,#1575,#1579,.T.);
#1581=ORIENTED_EDGE('',*,*,#1580,.T.);
#1582=CARTESIAN_POINT('',(-7.147471197,36.81163302,38.729076441));
#1583=VERTEX_POINT('',#1582);
#1584=CARTESIAN_POINT('',(-12.027471197,36.81163302,38.729076441));
#1585=DIRECTION('',(0.,0.,-1.));
#1586=DIRECTION('',(-0.,1.,0.));
#1587=AXIS2_PLACEMENT_3D('',#1584,#1585,#1586);
#1588=CIRCLE('',#1587,4.88);
#1589=EDGE_CURVE('',#1575,#1583,#1588,.T.);
#1590=ORIENTED_EDGE('',*,*,#1589,.T.);
#1591=CARTESIAN_POINT('',(-7.147471197,17.81163302,38.729076441));
#1592=VERTEX_POINT('',#1591);
#1593=CARTESIAN_POINT('',(-7.147471197,36.81163302,38.729076441));
#1594=DIRECTION('',(0.,-1.,-0.));
#1595=VECTOR('',#1594,19.);
#1596=LINE('',#1593,#1595);
#1597=EDGE_CURVE('',#1583,#1592,#1596,.T.);
#1598=ORIENTED_EDGE('',*,*,#1597,.T.);
#1599=CARTESIAN_POINT('',(-12.027471197,12.93163302,38.729076441));
#1600=VERTEX_POINT('',#1599);
#1601=CARTESIAN_POINT('',(-12.027471197,17.81163302,38.729076441));
#1602=DIRECTION('',(0.,0.,-1.));
#1603=DIRECTION('',(-0.,1.,0.));
#1604=AXIS2_PLACEMENT_3D('',#1601,#1602,#1603);
#1605=CIRCLE('',#1604,4.88);
#1606=EDGE_CURVE('',#1592,#1600,#1605,.T.);
#1607=ORIENTED_EDGE('',*,*,#1606,.T.);
#1608=CARTESIAN_POINT('',(-31.027471197,12.93163302,38.729076441));
#1609=VERTEX_POINT('',#1608);
#1610=CARTESIAN_POINT('',(-12.027471197,12.93163302,38.729076441));
#1611=DIRECTION('',(-1.,0.,-0.));
#1612=VECTOR('',#1611,19.);
#1613=LINE('',#1610,#1612);
#1614=EDGE_CURVE('',#1600,#1609,#1613,.T.);
#1615=ORIENTED_EDGE('',*,*,#1614,.T.);
#1616=CARTESIAN_POINT('',(-35.907471197,17.81163302,38.729076441));
#1617=VERTEX_POINT('',#1616);
#1618=CARTESIAN_POINT('',(-31.027471197,17.81163302,38.729076441));
#1619=DIRECTION('',(0.,0.,-1.));
#1620=DIRECTION('',(-0.,1.,0.));
#1621=AXIS2_PLACEMENT_3D('',#1618,#1619,#1620);
#1622=CIRCLE('',#1621,4.88);
#1623=EDGE_CURVE('',#1609,#1617,#1622,.T.);
#1624=ORIENTED_EDGE('',*,*,#1623,.T.);
#1625=CARTESIAN_POINT('',(-35.907471197,36.81163302,38.729076441));
#1626=VERTEX_POINT('',#1625);
#1627=CARTESIAN_POINT('',(-35.907471197,17.81163302,38.729076441));
#1628=DIRECTION('',(-0.,1.,0.));
#1629=VECTOR('',#1628,19.);
#1630=LINE('',#1627,#1629);
#1631=EDGE_CURVE('',#1617,#1626,#1630,.T.);
#1632=ORIENTED_EDGE('',*,*,#1631,.T.);
#1633=CARTESIAN_POINT('',(-31.027471197,36.81163302,38.729076441));
#1634=DIRECTION('',(0.,0.,-1.));
#1635=DIRECTION('',(-0.,1.,0.));
#1636=AXIS2_PLACEMENT_3D('',#1633,#1634,#1635);
#1637=CIRCLE('',#1636,4.88);
#1638=EDGE_CURVE('',#1626,#1573,#1637,.T.);
#1639=ORIENTED_EDGE('',*,*,#1638,.T.);
#1640=EDGE_LOOP('',(#1581,#1590,#1598,#1607,#1615,#1624,#1632,#1639));
#1641=FACE_BOUND('',#1640,.T.);
#1642=CARTESIAN_POINT('',(-29.554635671,36.793225457,38.729076441));
#1643=VERTEX_POINT('',#1642);
#1644=CARTESIAN_POINT('',(-29.55452272,36.81163302,38.729076441));
#1645=VERTEX_POINT('',#1644);
#1646=CARTESIAN_POINT('',(-31.05452272,36.81163302,38.729076441));
#1647=DIRECTION('',(0.,0.,1.));
#1648=DIRECTION('',(0.9999247,-0.012271709,0.));
#1649=AXIS2_PLACEMENT_3D('',#1646,#1647,#1648);
#1650=CIRCLE('',#1649,1.5);
#1651=EDGE_CURVE('',#1643,#1645,#1650,.T.);
#1652=ORIENTED_EDGE('',*,*,#1651,.T.);
#1653=CARTESIAN_POINT('',(-31.05452272,36.81163302,38.729076441));
#1654=DIRECTION('',(0.,0.,1.));
#1655=DIRECTION('',(0.9999247,-0.012271709,0.));
#1656=AXIS2_PLACEMENT_3D('',#1653,#1654,#1655);
#1657=CIRCLE('',#1656,1.5);
#1658=EDGE_CURVE('',#1645,#1643,#1657,.T.);
#1659=ORIENTED_EDGE('',*,*,#1658,.T.);
#1660=EDGE_LOOP('',(#1652,#1659));
#1661=FACE_BOUND('',#1660,.T.);
#1662=ADVANCED_FACE('',(#1571,#1641,#1661),#1565,.T.);
#1663=CARTESIAN_POINT('',(-21.527471197,27.31163302,40.729076441));
#1664=DIRECTION('',(0.,0.,-1.));
#1665=DIRECTION('',(-0.,1.,0.));
#1666=AXIS2_PLACEMENT_3D('',#1663,#1664,#1665);
#1667=PLANE('',#1666);
#1668=CARTESIAN_POINT('',(-33.55452272,36.81163302,40.729076441));
#1669=VERTEX_POINT('',#1668);
#1670=CARTESIAN_POINT('',(-28.55452272,36.81163302,40.729076441));
#1671=VERTEX_POINT('',#1670);
#1672=CARTESIAN_POINT('',(-31.05452272,36.81163302,40.729076441));
#1673=DIRECTION('',(0.,0.,-1.));
#1674=DIRECTION('',(-1.,0.,-0.));
#1675=AXIS2_PLACEMENT_3D('',#1672,#1673,#1674);
#1676=CIRCLE('',#1675,2.5);
#1677=EDGE_CURVE('',#1669,#1671,#1676,.T.);
#1678=ORIENTED_EDGE('',*,*,#1677,.T.);
#1679=CARTESIAN_POINT('',(-31.05452272,36.81163302,40.729076441));
#1680=DIRECTION('',(0.,0.,-1.));
#1681=DIRECTION('',(-1.,0.,-0.));
#1682=AXIS2_PLACEMENT_3D('',#1679,#1680,#1681);
#1683=CIRCLE('',#1682,2.5);
#1684=EDGE_CURVE('',#1671,#1669,#1683,.T.);
#1685=ORIENTED_EDGE('',*,*,#1684,.T.);
#1686=EDGE_LOOP('',(#1678,#1685));
#1687=FACE_BOUND('',#1686,.T.);
#1688=ORIENTED_EDGE('',*,*,#1556,.T.);
#1689=ORIENTED_EDGE('',*,*,#1472,.T.);
#1690=ORIENTED_EDGE('',*,*,#1503,.T.);
#1691=ORIENTED_EDGE('',*,*,#1534,.T.);
#1692=EDGE_LOOP('',(#1688,#1689,#1690,#1691));
#1693=FACE_BOUND('',#1692,.T.);
#1694=CARTESIAN_POINT('',(-31.059243152,40.01163302,40.729076441));
#1695=VERTEX_POINT('',#1694);
#1696=CARTESIAN_POINT('',(-11.995761011,40.01163302,40.729076441));
#1697=VERTEX_POINT('',#1696);
#1698=CARTESIAN_POINT('',(-31.059243152,40.01163302,40.729076441));
#1699=DIRECTION('',(1.,0.,0.));
#1700=VECTOR('',#1699,19.063482141);
#1701=LINE('',#1698,#1700);
#1702=EDGE_CURVE('',#1695,#1697,#1701,.T.);
#1703=ORIENTED_EDGE('',*,*,#1702,.F.);
#1704=CARTESIAN_POINT('',(-34.259243152,36.81163302,40.729076441));
#1705=VERTEX_POINT('',#1704);
#1706=CARTESIAN_POINT('',(-31.059243152,36.81163302,40.729076441));
#1707=DIRECTION('',(0.,0.,-1.));
#1708=DIRECTION('',(-0.,1.,0.));
#1709=AXIS2_PLACEMENT_3D('',#1706,#1707,#1708);
#1710=CIRCLE('',#1709,3.2);
#1711=EDGE_CURVE('',#1705,#1695,#1710,.T.);
#1712=ORIENTED_EDGE('',*,*,#1711,.F.);
#1713=CARTESIAN_POINT('',(-34.259243152,17.81163302,40.729076441));
#1714=VERTEX_POINT('',#1713);
#1715=CARTESIAN_POINT('',(-34.259243152,17.81163302,40.729076441));
#1716=DIRECTION('',(-0.,1.,0.));
#1717=VECTOR('',#1716,19.);
#1718=LINE('',#1715,#1717);
#1719=EDGE_CURVE('',#1714,#1705,#1718,.T.);
#1720=ORIENTED_EDGE('',*,*,#1719,.F.);
#1721=CARTESIAN_POINT('',(-31.059243152,14.61163302,40.729076441));
#1722=VERTEX_POINT('',#1721);
#1723=CARTESIAN_POINT('',(-31.059243152,17.81163302,40.729076441));
#1724=DIRECTION('',(0.,0.,-1.));
#1725=DIRECTION('',(-0.,1.,0.));
#1726=AXIS2_PLACEMENT_3D('',#1723,#1724,#1725);
#1727=CIRCLE('',#1726,3.2);
#1728=EDGE_CURVE('',#1722,#1714,#1727,.T.);
#1729=ORIENTED_EDGE('',*,*,#1728,.F.);
#1730=CARTESIAN_POINT('',(-11.995761011,14.61163302,40.729076441));
#1731=VERTEX_POINT('',#1730);
#1732=CARTESIAN_POINT('',(-11.995761011,14.61163302,40.729076441));
#1733=DIRECTION('',(-1.,0.,-0.));
#1734=VECTOR('',#1733,19.063482141);
#1735=LINE('',#1732,#1734);
#1736=EDGE_CURVE('',#1731,#1722,#1735,.T.);
#1737=ORIENTED_EDGE('',*,*,#1736,.F.);
#1738=CARTESIAN_POINT('',(-8.795761011,17.81163302,40.729076441));
#1739=VERTEX_POINT('',#1738);
#1740=CARTESIAN_POINT('',(-11.995761011,17.81163302,40.729076441));
#1741=DIRECTION('',(-0.,-0.,1.));
#1742=DIRECTION('',(1.,0.,0.));
#1743=AXIS2_PLACEMENT_3D('',#1740,#1741,#1742);
#1744=CIRCLE('',#1743,3.2);
#1745=EDGE_CURVE('',#1731,#1739,#1744,.T.);
#1746=ORIENTED_EDGE('',*,*,#1745,.T.);
#1747=CARTESIAN_POINT('',(-8.795761011,36.81163302,40.729076441));
#1748=VERTEX_POINT('',#1747);
#1749=CARTESIAN_POINT('',(-8.795761011,17.81163302,40.729076441));
#1750=DIRECTION('',(-0.,1.,0.));
#1751=VECTOR('',#1750,19.);
#1752=LINE('',#1749,#1751);
#1753=EDGE_CURVE('',#1739,#1748,#1752,.T.);
#1754=ORIENTED_EDGE('',*,*,#1753,.T.);
#1755=CARTESIAN_POINT('',(-11.995761011,36.81163302,40.729076441));
#1756=DIRECTION('',(-0.,-0.,1.));
#1757=DIRECTION('',(1.,0.,0.));
#1758=AXIS2_PLACEMENT_3D('',#1755,#1756,#1757);
#1759=CIRCLE('',#1758,3.2);
#1760=EDGE_CURVE('',#1748,#1697,#1759,.T.);
#1761=ORIENTED_EDGE('',*,*,#1760,.T.);
#1762=EDGE_LOOP('',(#1703,#1712,#1720,#1729,#1737,#1746,#1754,#1761));
#1763=FACE_BOUND('',#1762,.T.);
#1764=ADVANCED_FACE('',(#1687,#1693,#1763),#1667,.F.);
#1765=CARTESIAN_POINT('',(-35.907471197,43.34248006,39.429077414));
#1766=DIRECTION('',(1.,0.,0.));
#1767=DIRECTION('',(0.,0.,-1.));
#1768=AXIS2_PLACEMENT_3D('',#1765,#1766,#1767);
#1769=PLANE('',#1768);
#1770=ORIENTED_EDGE('',*,*,#545,.T.);
#1771=CARTESIAN_POINT('',(-35.907471197,36.81163302,38.729076441));
#1772=DIRECTION('',(-0.,-0.,1.));
#1773=VECTOR('',#1772,8.018930367);
#1774=LINE('',#1771,#1773);
#1775=EDGE_CURVE('',#1626,#529,#1774,.T.);
#1776=ORIENTED_EDGE('',*,*,#1775,.F.);
#1777=ORIENTED_EDGE('',*,*,#1631,.F.);
#1778=CARTESIAN_POINT('',(-35.907471197,17.81163302,38.729076441));
#1779=DIRECTION('',(-0.,-0.,1.));
#1780=VECTOR('',#1779,8.018930367);
#1781=LINE('',#1778,#1780);
#1782=EDGE_CURVE('',#1617,#540,#1781,.T.);
#1783=ORIENTED_EDGE('',*,*,#1782,.T.);
#1784=EDGE_LOOP('',(#1770,#1776,#1777,#1783));
#1785=FACE_BOUND('',#1784,.T.);
#1786=ADVANCED_FACE('',(#1785),#1769,.F.);
#1787=CARTESIAN_POINT('',(-31.027471197,17.81163302,39.429077414));
#1788=DIRECTION('',(-0.,-0.,1.));
#1789=DIRECTION('',(0.,-1.,-0.));
#1790=AXIS2_PLACEMENT_3D('',#1787,#1788,#1789);
#1791=CYLINDRICAL_SURFACE('',#1790,4.88);
#1792=ORIENTED_EDGE('',*,*,#554,.T.);
#1793=ORIENTED_EDGE('',*,*,#1782,.F.);
#1794=ORIENTED_EDGE('',*,*,#1623,.F.);
#1795=CARTESIAN_POINT('',(-31.027471197,12.93163302,38.729076441));
#1796=DIRECTION('',(-0.,-0.,1.));
#1797=VECTOR('',#1796,8.018930367);
#1798=LINE('',#1795,#1797);
#1799=EDGE_CURVE('',#1609,#548,#1798,.T.);
#1800=ORIENTED_EDGE('',*,*,#1799,.T.);
#1801=EDGE_LOOP('',(#1792,#1793,#1794,#1800));
#1802=FACE_BOUND('',#1801,.T.);
#1803=ADVANCED_FACE('',(#1802),#1791,.T.);
#1804=CARTESIAN_POINT('',(37.931178492,12.93163302,39.429077414));
#1805=DIRECTION('',(-0.,1.,0.));
#1806=DIRECTION('',(-0.,-0.,1.));
#1807=AXIS2_PLACEMENT_3D('',#1804,#1805,#1806);
#1808=PLANE('',#1807);
#1809=ORIENTED_EDGE('',*,*,#562,.T.);
#1810=ORIENTED_EDGE('',*,*,#1799,.F.);
#1811=ORIENTED_EDGE('',*,*,#1614,.F.);
#1812=CARTESIAN_POINT('',(-12.027471197,12.93163302,38.729076441));
#1813=DIRECTION('',(-0.,-0.,1.));
#1814=VECTOR('',#1813,8.018930367);
#1815=LINE('',#1812,#1814);
#1816=EDGE_CURVE('',#1600,#557,#1815,.T.);
#1817=ORIENTED_EDGE('',*,*,#1816,.T.);
#1818=EDGE_LOOP('',(#1809,#1810,#1811,#1817));
#1819=FACE_BOUND('',#1818,.T.);
#1820=ADVANCED_FACE('',(#1819),#1808,.F.);
#1821=CARTESIAN_POINT('',(-12.027471197,17.81163302,39.429077414));
#1822=DIRECTION('',(-0.,-0.,1.));
#1823=DIRECTION('',(0.,-1.,-0.));
#1824=AXIS2_PLACEMENT_3D('',#1821,#1822,#1823);
#1825=CYLINDRICAL_SURFACE('',#1824,4.88);
#1826=ORIENTED_EDGE('',*,*,#571,.T.);
#1827=ORIENTED_EDGE('',*,*,#1816,.F.);
#1828=ORIENTED_EDGE('',*,*,#1606,.F.);
#1829=CARTESIAN_POINT('',(-7.147471197,17.81163302,38.729076441));
#1830=DIRECTION('',(-0.,-0.,1.));
#1831=VECTOR('',#1830,8.018930367);
#1832=LINE('',#1829,#1831);
#1833=EDGE_CURVE('',#1592,#565,#1832,.T.);
#1834=ORIENTED_EDGE('',*,*,#1833,.T.);
#1835=EDGE_LOOP('',(#1826,#1827,#1828,#1834));
#1836=FACE_BOUND('',#1835,.T.);
#1837=ADVANCED_FACE('',(#1836),#1825,.T.);
#1838=CARTESIAN_POINT('',(-7.147471197,43.34248006,39.429077414));
#1839=DIRECTION('',(-1.,0.,-0.));
#1840=DIRECTION('',(-0.,0.,1.));
#1841=AXIS2_PLACEMENT_3D('',#1838,#1839,#1840);
#1842=PLANE('',#1841);
#1843=ORIENTED_EDGE('',*,*,#579,.T.);
#1844=ORIENTED_EDGE('',*,*,#1833,.F.);
#1845=ORIENTED_EDGE('',*,*,#1597,.F.);
#1846=CARTESIAN_POINT('',(-7.147471197,36.81163302,38.729076441));
#1847=DIRECTION('',(-0.,-0.,1.));
#1848=VECTOR('',#1847,8.018930367);
#1849=LINE('',#1846,#1848);
#1850=EDGE_CURVE('',#1583,#574,#1849,.T.);
#1851=ORIENTED_EDGE('',*,*,#1850,.T.);
#1852=EDGE_LOOP('',(#1843,#1844,#1845,#1851));
#1853=FACE_BOUND('',#1852,.T.);
#1854=ADVANCED_FACE('',(#1853),#1842,.F.);
#1855=CARTESIAN_POINT('',(-12.027471197,36.81163302,39.429077414));
#1856=DIRECTION('',(-0.,-0.,1.));
#1857=DIRECTION('',(0.,-1.,-0.));
#1858=AXIS2_PLACEMENT_3D('',#1855,#1856,#1857);
#1859=CYLINDRICAL_SURFACE('',#1858,4.88);
#1860=ORIENTED_EDGE('',*,*,#588,.T.);
#1861=ORIENTED_EDGE('',*,*,#1850,.F.);
#1862=ORIENTED_EDGE('',*,*,#1589,.F.);
#1863=CARTESIAN_POINT('',(-12.027471197,41.69163302,38.729076441));
#1864=DIRECTION('',(-0.,-0.,1.));
#1865=VECTOR('',#1864,8.018930367);
#1866=LINE('',#1863,#1865);
#1867=EDGE_CURVE('',#1575,#582,#1866,.T.);
#1868=ORIENTED_EDGE('',*,*,#1867,.T.);
#1869=EDGE_LOOP('',(#1860,#1861,#1862,#1868));
#1870=FACE_BOUND('',#1869,.T.);
#1871=ADVANCED_FACE('',(#1870),#1859,.T.);
#1872=CARTESIAN_POINT('',(37.931178492,41.69163302,39.429077414));
#1873=DIRECTION('',(0.,-1.,-0.));
#1874=DIRECTION('',(0.,0.,-1.));
#1875=AXIS2_PLACEMENT_3D('',#1872,#1873,#1874);
#1876=PLANE('',#1875);
#1877=ORIENTED_EDGE('',*,*,#594,.T.);
#1878=ORIENTED_EDGE('',*,*,#1867,.F.);
#1879=ORIENTED_EDGE('',*,*,#1580,.F.);
#1880=CARTESIAN_POINT('',(-31.027471197,41.69163302,38.729076441));
#1881=DIRECTION('',(-0.,-0.,1.));
#1882=VECTOR('',#1881,8.018930367);
#1883=LINE('',#1880,#1882);
#1884=EDGE_CURVE('',#1573,#531,#1883,.T.);
#1885=ORIENTED_EDGE('',*,*,#1884,.T.);
#1886=EDGE_LOOP('',(#1877,#1878,#1879,#1885));
#1887=FACE_BOUND('',#1886,.T.);
#1888=ADVANCED_FACE('',(#1887),#1876,.F.);
#1889=CARTESIAN_POINT('',(-31.027471197,36.81163302,39.429077414));
#1890=DIRECTION('',(-0.,-0.,1.));
#1891=DIRECTION('',(0.,-1.,-0.));
#1892=AXIS2_PLACEMENT_3D('',#1889,#1890,#1891);
#1893=CYLINDRICAL_SURFACE('',#1892,4.88);
#1894=ORIENTED_EDGE('',*,*,#537,.T.);
#1895=ORIENTED_EDGE('',*,*,#1884,.F.);
#1896=ORIENTED_EDGE('',*,*,#1638,.F.);
#1897=ORIENTED_EDGE('',*,*,#1775,.T.);
#1898=EDGE_LOOP('',(#1894,#1895,#1896,#1897));
#1899=FACE_BOUND('',#1898,.T.);
#1900=ADVANCED_FACE('',(#1899),#1893,.T.);
#1901=CARTESIAN_POINT('',(-33.931178492,41.445871089,233.335599074));
#1902=DIRECTION('',(0.,0.,-1.));
#1903=DIRECTION('',(-0.,1.,0.));
#1904=AXIS2_PLACEMENT_3D('',#1901,#1902,#1903);
#1905=CYLINDRICAL_SURFACE('',#1904,2.);
#1906=ORIENTED_EDGE('',*,*,#418,.T.);
#1907=CARTESIAN_POINT('',(-35.931178492,41.445871089,48.570015182));
#1908=DIRECTION('',(0.,0.,-1.));
#1909=VECTOR('',#1908,1.822008373);
#1910=LINE('',#1907,#1909);
#1911=EDGE_CURVE('',#88,#406,#1910,.T.);
#1912=ORIENTED_EDGE('',*,*,#1911,.F.);
#1913=ORIENTED_EDGE('',*,*,#94,.F.);
#1914=ORIENTED_EDGE('',*,*,#378,.T.);
#1915=EDGE_LOOP('',(#1906,#1912,#1913,#1914));
#1916=FACE_BOUND('',#1915,.T.);
#1917=ADVANCED_FACE('',(#1916),#1905,.T.);
#1918=CARTESIAN_POINT('',(-35.931178492,43.34248006,233.335599074));
#1919=DIRECTION('',(-1.,0.,-0.));
#1920=DIRECTION('',(0.,1.,0.));
#1921=AXIS2_PLACEMENT_3D('',#1918,#1919,#1920);
#1922=PLANE('',#1921);
#1923=ORIENTED_EDGE('',*,*,#411,.T.);
#1924=CARTESIAN_POINT('',(-35.931178492,4.950114529,48.570015182));
#1925=DIRECTION('',(0.,0.,-1.));
#1926=VECTOR('',#1925,1.822008373);
#1927=LINE('',#1924,#1926);
#1928=EDGE_CURVE('',#97,#397,#1927,.T.);
#1929=ORIENTED_EDGE('',*,*,#1928,.F.);
#1930=ORIENTED_EDGE('',*,*,#102,.F.);
#1931=ORIENTED_EDGE('',*,*,#1911,.T.);
#1932=EDGE_LOOP('',(#1923,#1929,#1930,#1931));
#1933=FACE_BOUND('',#1932,.T.);
#1934=ADVANCED_FACE('',(#1933),#1922,.T.);
#1935=CARTESIAN_POINT('',(-33.931178492,4.950114529,233.335599074));
#1936=DIRECTION('',(0.,0.,-1.));
#1937=DIRECTION('',(-0.,1.,0.));
#1938=AXIS2_PLACEMENT_3D('',#1935,#1936,#1937);
#1939=CYLINDRICAL_SURFACE('',#1938,2.);
#1940=ORIENTED_EDGE('',*,*,#403,.T.);
#1941=ORIENTED_EDGE('',*,*,#340,.F.);
#1942=ORIENTED_EDGE('',*,*,#109,.F.);
#1943=ORIENTED_EDGE('',*,*,#1928,.T.);
#1944=EDGE_LOOP('',(#1940,#1941,#1942,#1943));
#1945=FACE_BOUND('',#1944,.T.);
#1946=ADVANCED_FACE('',(#1945),#1939,.T.);
#1947=CARTESIAN_POINT('',(-31.05452272,36.81163302,242.183375373));
#1948=DIRECTION('',(0.,0.,-1.));
#1949=DIRECTION('',(1.,0.,0.));
#1950=AXIS2_PLACEMENT_3D('',#1947,#1948,#1949);
#1951=CYLINDRICAL_SURFACE('',#1950,3.2);
#1952=CARTESIAN_POINT('',(-31.056882936,40.011632585,46.748006808));
#1953=VERTEX_POINT('',#1952);
#1954=CARTESIAN_POINT('',(-31.056882936,40.01163215,48.570015182));
#1955=DIRECTION('',(0.,0.,-1.));
#1956=VECTOR('',#1955,1.822008373);
#1957=LINE('',#1954,#1956);
#1958=EDGE_CURVE('',#233,#1953,#1957,.T.);
#1959=ORIENTED_EDGE('',*,*,#1958,.T.);
#1960=CARTESIAN_POINT('',(-31.05452272,40.01163302,48.570015182));
#1961=DIRECTION('',(0.,0.,-1.));
#1962=VECTOR('',#1961,1.822008373);
#1963=LINE('',#1960,#1962);
#1964=EDGE_CURVE('',#242,#1953,#1963,.T.);
#1965=ORIENTED_EDGE('',*,*,#1964,.F.);
#1966=ORIENTED_EDGE('',*,*,#248,.T.);
#1967=EDGE_LOOP('',(#1959,#1965,#1966));
#1968=FACE_BOUND('',#1967,.T.);
#1969=ADVANCED_FACE('',(#1968),#1951,.F.);
#1970=CARTESIAN_POINT('',(-9.05452272,40.01163302,242.183375373));
#1971=DIRECTION('',(0.,1.,0.));
#1972=DIRECTION('',(-0.,0.,1.));
#1973=AXIS2_PLACEMENT_3D('',#1970,#1971,#1972);
#1974=PLANE('',#1973);
#1975=CARTESIAN_POINT('',(-11.995761011,40.01163302,48.570015182));
#1976=DIRECTION('',(0.,-0.,-1.));
#1977=VECTOR('',#1976,7.84093874);
#1978=LINE('',#1975,#1977);
#1979=EDGE_CURVE('',#251,#1697,#1978,.T.);
#1980=ORIENTED_EDGE('',*,*,#1979,.F.);
#1981=ORIENTED_EDGE('',*,*,#256,.T.);
#1982=ORIENTED_EDGE('',*,*,#1964,.T.);
#1983=CARTESIAN_POINT('',(-31.059243152,40.01163302,40.729076441));
#1984=DIRECTION('',(-0.,-0.,1.));
#1985=VECTOR('',#1984,6.018930367);
#1986=LINE('',#1983,#1985);
#1987=EDGE_CURVE('',#1695,#1953,#1986,.T.);
#1988=ORIENTED_EDGE('',*,*,#1987,.F.);
#1989=ORIENTED_EDGE('',*,*,#1702,.T.);
#1990=EDGE_LOOP('',(#1980,#1981,#1982,#1988,#1989));
#1991=FACE_BOUND('',#1990,.T.);
#1992=ADVANCED_FACE('',(#1991),#1974,.F.);
#1993=CARTESIAN_POINT('',(-11.995761011,36.81163302,242.183375373));
#1994=DIRECTION('',(0.,0.,-1.));
#1995=DIRECTION('',(1.,0.,0.));
#1996=AXIS2_PLACEMENT_3D('',#1993,#1994,#1995);
#1997=CYLINDRICAL_SURFACE('',#1996,3.2);
#1998=ORIENTED_EDGE('',*,*,#1760,.F.);
#1999=CARTESIAN_POINT('',(-8.795761011,36.81163302,48.570015182));
#2000=DIRECTION('',(0.,0.,-1.));
#2001=VECTOR('',#2000,7.84093874);
#2002=LINE('',#1999,#2001);
#2003=EDGE_CURVE('',#259,#1748,#2002,.T.);
#2004=ORIENTED_EDGE('',*,*,#2003,.F.);
#2005=ORIENTED_EDGE('',*,*,#265,.T.);
#2006=ORIENTED_EDGE('',*,*,#1979,.T.);
#2007=EDGE_LOOP('',(#1998,#2004,#2005,#2006));
#2008=FACE_BOUND('',#2007,.T.);
#2009=ADVANCED_FACE('',(#2008),#1997,.F.);
#2010=CARTESIAN_POINT('',(-8.795761011,14.81163302,242.183375373));
#2011=DIRECTION('',(1.,0.,0.));
#2012=DIRECTION('',(-0.,0.,1.));
#2013=AXIS2_PLACEMENT_3D('',#2010,#2011,#2012);
#2014=PLANE('',#2013);
#2015=ORIENTED_EDGE('',*,*,#1753,.F.);
#2016=CARTESIAN_POINT('',(-8.795761011,17.81163302,48.570015182));
#2017=DIRECTION('',(0.,-0.,-1.));
#2018=VECTOR('',#2017,7.84093874);
#2019=LINE('',#2016,#2018);
#2020=EDGE_CURVE('',#268,#1739,#2019,.T.);
#2021=ORIENTED_EDGE('',*,*,#2020,.F.);
#2022=ORIENTED_EDGE('',*,*,#273,.T.);
#2023=ORIENTED_EDGE('',*,*,#2003,.T.);
#2024=EDGE_LOOP('',(#2015,#2021,#2022,#2023));
#2025=FACE_BOUND('',#2024,.T.);
#2026=ADVANCED_FACE('',(#2025),#2014,.F.);
#2027=CARTESIAN_POINT('',(-11.995761011,17.81163302,242.183375373));
#2028=DIRECTION('',(0.,0.,-1.));
#2029=DIRECTION('',(1.,0.,0.));
#2030=AXIS2_PLACEMENT_3D('',#2027,#2028,#2029);
#2031=CYLINDRICAL_SURFACE('',#2030,3.2);
#2032=ORIENTED_EDGE('',*,*,#1745,.F.);
#2033=CARTESIAN_POINT('',(-11.995761011,14.61163302,48.570015182));
#2034=DIRECTION('',(0.,0.,-1.));
#2035=VECTOR('',#2034,7.84093874);
#2036=LINE('',#2033,#2035);
#2037=EDGE_CURVE('',#276,#1731,#2036,.T.);
#2038=ORIENTED_EDGE('',*,*,#2037,.F.);
#2039=ORIENTED_EDGE('',*,*,#282,.T.);
#2040=ORIENTED_EDGE('',*,*,#2020,.T.);
#2041=EDGE_LOOP('',(#2032,#2038,#2039,#2040));
#2042=FACE_BOUND('',#2041,.T.);
#2043=ADVANCED_FACE('',(#2042),#2031,.F.);
#2044=CARTESIAN_POINT('',(-34.05452272,14.61163302,242.183375373));
#2045=DIRECTION('',(0.,-1.,0.));
#2046=DIRECTION('',(0.,0.,-1.));
#2047=AXIS2_PLACEMENT_3D('',#2044,#2045,#2046);
#2048=PLANE('',#2047);
#2049=CARTESIAN_POINT('',(-31.056882936,14.611633455,46.748006808));
#2050=VERTEX_POINT('',#2049);
#2051=CARTESIAN_POINT('',(-31.05452272,14.61163302,48.570015182));
#2052=DIRECTION('',(0.,0.,-1.));
#2053=VECTOR('',#2052,1.822008373);
#2054=LINE('',#2051,#2053);
#2055=EDGE_CURVE('',#285,#2050,#2054,.T.);
#2056=ORIENTED_EDGE('',*,*,#2055,.F.);
#2057=ORIENTED_EDGE('',*,*,#290,.T.);
#2058=ORIENTED_EDGE('',*,*,#2037,.T.);
#2059=ORIENTED_EDGE('',*,*,#1736,.T.);
#2060=CARTESIAN_POINT('',(-31.059243152,14.61163302,40.729076441));
#2061=DIRECTION('',(-0.,-0.,1.));
#2062=VECTOR('',#2061,6.018930367);
#2063=LINE('',#2060,#2062);
#2064=EDGE_CURVE('',#1722,#2050,#2063,.T.);
#2065=ORIENTED_EDGE('',*,*,#2064,.T.);
#2066=EDGE_LOOP('',(#2056,#2057,#2058,#2059,#2065));
#2067=FACE_BOUND('',#2066,.T.);
#2068=ADVANCED_FACE('',(#2067),#2048,.F.);
#2069=CARTESIAN_POINT('',(-31.05452272,17.81163302,242.183375373));
#2070=DIRECTION('',(0.,0.,-1.));
#2071=DIRECTION('',(1.,0.,0.));
#2072=AXIS2_PLACEMENT_3D('',#2069,#2070,#2071);
#2073=CYLINDRICAL_SURFACE('',#2072,3.2);
#2074=CARTESIAN_POINT('',(-31.056882936,14.61163389,46.748006808));
#2075=DIRECTION('',(-0.,-0.,1.));
#2076=VECTOR('',#2075,1.822008373);
#2077=LINE('',#2074,#2076);
#2078=EDGE_CURVE('',#2050,#293,#2077,.T.);
#2079=ORIENTED_EDGE('',*,*,#2078,.T.);
#2080=ORIENTED_EDGE('',*,*,#299,.T.);
#2081=ORIENTED_EDGE('',*,*,#2055,.T.);
#2082=EDGE_LOOP('',(#2079,#2080,#2081));
#2083=FACE_BOUND('',#2082,.T.);
#2084=ADVANCED_FACE('',(#2083),#2073,.F.);
#2085=CARTESIAN_POINT('',(-31.059243152,17.81163302,39.429077414));
#2086=DIRECTION('',(-0.,-0.,1.));
#2087=DIRECTION('',(0.,-1.,-0.));
#2088=AXIS2_PLACEMENT_3D('',#2085,#2086,#2087);
#2089=CYLINDRICAL_SURFACE('',#2088,3.2);
#2090=CARTESIAN_POINT('',(-31.059243152,14.61163302,48.570015182));
#2091=DIRECTION('',(0.,0.,-1.));
#2092=VECTOR('',#2091,1.822008373);
#2093=LINE('',#2090,#2092);
#2094=EDGE_CURVE('',#302,#2050,#2093,.T.);
#2095=ORIENTED_EDGE('',*,*,#2094,.F.);
#2096=ORIENTED_EDGE('',*,*,#308,.F.);
#2097=ORIENTED_EDGE('',*,*,#2078,.F.);
#2098=EDGE_LOOP('',(#2095,#2096,#2097));
#2099=FACE_BOUND('',#2098,.T.);
#2100=ADVANCED_FACE('',(#2099),#2089,.F.);
#2101=CARTESIAN_POINT('',(-34.259243152,43.34248006,39.429077414));
#2102=DIRECTION('',(1.,0.,0.));
#2103=DIRECTION('',(0.,0.,-1.));
#2104=AXIS2_PLACEMENT_3D('',#2101,#2102,#2103);
#2105=PLANE('',#2104);
#2106=ORIENTED_EDGE('',*,*,#323,.F.);
#2107=CARTESIAN_POINT('',(-34.259243152,17.81163302,40.729076441));
#2108=DIRECTION('',(-0.,-0.,1.));
#2109=VECTOR('',#2108,7.84093874);
#2110=LINE('',#2107,#2109);
#2111=EDGE_CURVE('',#1714,#311,#2110,.T.);
#2112=ORIENTED_EDGE('',*,*,#2111,.F.);
#2113=ORIENTED_EDGE('',*,*,#1719,.T.);
#2114=CARTESIAN_POINT('',(-34.259243152,36.81163302,40.729076441));
#2115=DIRECTION('',(-0.,-0.,1.));
#2116=VECTOR('',#2115,7.84093874);
#2117=LINE('',#2114,#2116);
#2118=EDGE_CURVE('',#1705,#231,#2117,.T.);
#2119=ORIENTED_EDGE('',*,*,#2118,.T.);
#2120=EDGE_LOOP('',(#2106,#2112,#2113,#2119));
#2121=FACE_BOUND('',#2120,.T.);
#2122=ADVANCED_FACE('',(#2121),#2105,.T.);
#2123=CARTESIAN_POINT('',(-31.059243152,36.81163302,39.429077414));
#2124=DIRECTION('',(-0.,-0.,1.));
#2125=DIRECTION('',(0.,-1.,-0.));
#2126=AXIS2_PLACEMENT_3D('',#2123,#2124,#2125);
#2127=CYLINDRICAL_SURFACE('',#2126,3.2);
#2128=ORIENTED_EDGE('',*,*,#239,.F.);
#2129=ORIENTED_EDGE('',*,*,#2118,.F.);
#2130=ORIENTED_EDGE('',*,*,#1711,.T.);
#2131=ORIENTED_EDGE('',*,*,#1987,.T.);
#2132=ORIENTED_EDGE('',*,*,#1958,.F.);
#2133=EDGE_LOOP('',(#2128,#2129,#2130,#2131,#2132));
#2134=FACE_BOUND('',#2133,.T.);
#2135=ADVANCED_FACE('',(#2134),#2127,.F.);
#2136=CARTESIAN_POINT('',(-31.05452272,36.81163302,-73.898118264));
#2137=DIRECTION('',(0.,0.,1.));
#2138=DIRECTION('',(1.,0.,-0.));
#2139=AXIS2_PLACEMENT_3D('',#2136,#2137,#2138);
#2140=CYLINDRICAL_SURFACE('',#2139,2.5);
#2141=CARTESIAN_POINT('',(-28.55452272,36.81163302,39.935445258));
#2142=VERTEX_POINT('',#2141);
#2143=CARTESIAN_POINT('',(-28.55452272,36.81163302,40.729076441));
#2144=DIRECTION('',(-0.,-0.,-1.));
#2145=VECTOR('',#2144,0.793631183);
#2146=LINE('',#2143,#2145);
#2147=EDGE_CURVE('',#1671,#2142,#2146,.T.);
#2148=ORIENTED_EDGE('',*,*,#2147,.F.);
#2149=ORIENTED_EDGE('',*,*,#1677,.F.);
#2150=ORIENTED_EDGE('',*,*,#1684,.F.);
#2151=ORIENTED_EDGE('',*,*,#2147,.T.);
#2152=CARTESIAN_POINT('',(-31.05452272,36.81163302,39.935445258));
#2153=DIRECTION('',(0.,0.,1.));
#2154=DIRECTION('',(1.,0.,-0.));
#2155=AXIS2_PLACEMENT_3D('',#2152,#2153,#2154);
#2156=CIRCLE('',#2155,2.5);
#2157=EDGE_CURVE('',#2142,#2142,#2156,.T.);
#2158=ORIENTED_EDGE('',*,*,#2157,.F.);
#2159=EDGE_LOOP('',(#2148,#2149,#2150,#2151,#2158));
#2160=FACE_BOUND('',#2159,.T.);
#2161=ADVANCED_FACE('',(#2160),#2140,.F.);
#2162=CARTESIAN_POINT('',(-31.05452272,36.81163302,38.729076441));
#2163=DIRECTION('',(0.,0.,1.));
#2164=DIRECTION('',(1.,0.,-0.));
#2165=AXIS2_PLACEMENT_3D('',#2162,#2163,#2164);
#2166=CYLINDRICAL_SURFACE('',#2165,1.5);
#2167=CARTESIAN_POINT('',(-29.55452272,36.81163302,39.935445258));
#2168=VERTEX_POINT('',#2167);
#2169=CARTESIAN_POINT('',(-29.55452272,36.81163302,39.935445258));
#2170=DIRECTION('',(-0.,-0.,-1.));
#2171=VECTOR('',#2170,1.206368817);
#2172=LINE('',#2169,#2171);
#2173=EDGE_CURVE('',#2168,#1645,#2172,.T.);
#2174=ORIENTED_EDGE('',*,*,#2173,.F.);
#2175=CARTESIAN_POINT('',(-31.05452272,36.81163302,39.935445258));
#2176=DIRECTION('',(0.,0.,1.));
#2177=DIRECTION('',(1.,0.,-0.));
#2178=AXIS2_PLACEMENT_3D('',#2175,#2176,#2177);
#2179=CIRCLE('',#2178,1.5);
#2180=EDGE_CURVE('',#2168,#2168,#2179,.T.);
#2181=ORIENTED_EDGE('',*,*,#2180,.T.);
#2182=ORIENTED_EDGE('',*,*,#2173,.T.);
#2183=ORIENTED_EDGE('',*,*,#1651,.F.);
#2184=ORIENTED_EDGE('',*,*,#1658,.F.);
#2185=EDGE_LOOP('',(#2174,#2181,#2182,#2183,#2184));
#2186=FACE_BOUND('',#2185,.T.);
#2187=ADVANCED_FACE('',(#2186),#2166,.F.);
#2188=CARTESIAN_POINT('',(-31.05452272,36.81163302,39.935445258));
#2189=DIRECTION('',(0.,0.,1.));
#2190=DIRECTION('',(1.,0.,0.));
#2191=AXIS2_PLACEMENT_3D('',#2188,#2189,#2190);
#2192=PLANE('',#2191);
#2193=ORIENTED_EDGE('',*,*,#2180,.F.);
#2194=EDGE_LOOP('',(#2193));
#2195=FACE_BOUND('',#2194,.T.);
#2196=ORIENTED_EDGE('',*,*,#2157,.T.);
#2197=EDGE_LOOP('',(#2196));
#2198=FACE_BOUND('',#2197,.T.);
#2199=ADVANCED_FACE('',(#2195,#2198),#2192,.T.);
#2200=CARTESIAN_POINT('',(-29.59477769,8.461785575,-85.684291498));
#2201=DIRECTION('',(0.,0.,1.));
#2202=DIRECTION('',(1.,0.,-0.));
#2203=AXIS2_PLACEMENT_3D('',#2200,#2201,#2202);
#2204=CYLINDRICAL_SURFACE('',#2203,2.5);
#2205=CARTESIAN_POINT('',(-27.09477769,8.461785575,47.882976904));
#2206=VERTEX_POINT('',#2205);
#2207=CARTESIAN_POINT('',(-27.09477769,8.461785575,48.570015182));
#2208=DIRECTION('',(-0.,-0.,-1.));
#2209=VECTOR('',#2208,0.687038278);
#2210=LINE('',#2207,#2209);
#2211=EDGE_CURVE('',#213,#2206,#2210,.T.);
#2212=ORIENTED_EDGE('',*,*,#2211,.F.);
#2213=ORIENTED_EDGE('',*,*,#219,.F.);
#2214=ORIENTED_EDGE('',*,*,#226,.F.);
#2215=ORIENTED_EDGE('',*,*,#2211,.T.);
#2216=CARTESIAN_POINT('',(-29.59477769,8.461785575,47.882976904));
#2217=DIRECTION('',(0.,0.,1.));
#2218=DIRECTION('',(1.,0.,-0.));
#2219=AXIS2_PLACEMENT_3D('',#2216,#2217,#2218);
#2220=CIRCLE('',#2219,2.5);
#2221=EDGE_CURVE('',#2206,#2206,#2220,.T.);
#2222=ORIENTED_EDGE('',*,*,#2221,.F.);
#2223=EDGE_LOOP('',(#2212,#2213,#2214,#2215,#2222));
#2224=FACE_BOUND('',#2223,.T.);
#2225=ADVANCED_FACE('',(#2224),#2204,.F.);
#2226=CARTESIAN_POINT('',(-29.59477769,8.461785575,45.887656347));
#2227=DIRECTION('',(0.,0.,1.));
#2228=DIRECTION('',(1.,0.,-0.));
#2229=AXIS2_PLACEMENT_3D('',#2226,#2227,#2228);
#2230=CYLINDRICAL_SURFACE('',#2229,1.5);
#2231=CARTESIAN_POINT('',(-28.09477769,8.461785575,47.882976904));
#2232=VERTEX_POINT('',#2231);
#2233=CARTESIAN_POINT('',(-28.09477769,8.461785575,47.882976904));
#2234=DIRECTION('',(-0.,-0.,-1.));
#2235=VECTOR('',#2234,1.134970096);
#2236=LINE('',#2233,#2235);
#2237=EDGE_CURVE('',#2232,#599,#2236,.T.);
#2238=ORIENTED_EDGE('',*,*,#2237,.F.);
#2239=CARTESIAN_POINT('',(-29.59477769,8.461785575,47.882976904));
#2240=DIRECTION('',(0.,0.,1.));
#2241=DIRECTION('',(1.,0.,-0.));
#2242=AXIS2_PLACEMENT_3D('',#2239,#2240,#2241);
#2243=CIRCLE('',#2242,1.5);
#2244=EDGE_CURVE('',#2232,#2232,#2243,.T.);
#2245=ORIENTED_EDGE('',*,*,#2244,.T.);
#2246=ORIENTED_EDGE('',*,*,#2237,.T.);
#2247=ORIENTED_EDGE('',*,*,#605,.F.);
#2248=EDGE_LOOP('',(#2238,#2245,#2246,#2247));
#2249=FACE_BOUND('',#2248,.T.);
#2250=ADVANCED_FACE('',(#2249),#2230,.F.);
#2251=CARTESIAN_POINT('',(-29.59477769,8.461785575,47.882976904));
#2252=DIRECTION('',(0.,0.,1.));
#2253=DIRECTION('',(1.,0.,0.));
#2254=AXIS2_PLACEMENT_3D('',#2251,#2252,#2253);
#2255=PLANE('',#2254);
#2256=ORIENTED_EDGE('',*,*,#2244,.F.);
#2257=EDGE_LOOP('',(#2256));
#2258=FACE_BOUND('',#2257,.T.);
#2259=ORIENTED_EDGE('',*,*,#2221,.T.);
#2260=EDGE_LOOP('',(#2259));
#2261=FACE_BOUND('',#2260,.T.);
#2262=ADVANCED_FACE('',(#2258,#2261),#2255,.T.);
#2263=CARTESIAN_POINT('',(31.059243152,17.81163302,39.429077414));
#2264=DIRECTION('',(0.,-0.,1.));
#2265=DIRECTION('',(-0.,-1.,-0.));
#2266=AXIS2_PLACEMENT_3D('',#2263,#2264,#2265);
#2267=CYLINDRICAL_SURFACE('',#2266,3.2);
#2268=ORIENTED_EDGE('',*,*,#1267,.T.);
#2269=ORIENTED_EDGE('',*,*,#1251,.T.);
#2270=ORIENTED_EDGE('',*,*,#148,.T.);
#2271=EDGE_LOOP('',(#2268,#2269,#2270));
#2272=FACE_BOUND('',#2271,.T.);
#2273=ADVANCED_FACE('',(#2272),#2267,.F.);
#2274=CARTESIAN_POINT('',(-31.059243152,17.81163302,39.429077414));
#2275=DIRECTION('',(-0.,-0.,1.));
#2276=DIRECTION('',(0.,-1.,-0.));
#2277=AXIS2_PLACEMENT_3D('',#2274,#2275,#2276);
#2278=CYLINDRICAL_SURFACE('',#2277,3.2);
#2279=ORIENTED_EDGE('',*,*,#2094,.T.);
#2280=ORIENTED_EDGE('',*,*,#2064,.F.);
#2281=ORIENTED_EDGE('',*,*,#1728,.T.);
#2282=ORIENTED_EDGE('',*,*,#2111,.T.);
#2283=ORIENTED_EDGE('',*,*,#317,.F.);
#2284=EDGE_LOOP('',(#2279,#2280,#2281,#2282,#2283));
#2285=FACE_BOUND('',#2284,.T.);
#2286=ADVANCED_FACE('',(#2285),#2278,.F.);
#2287=CLOSED_SHELL('',(#327,#358,#389,#609,#649,#680,#711,#733,#835,#937,#959,#976,#993,#1010,#1027,#1044,#1061,#1073,#1090,#1107,#1119,#1142,#1165,#1182,#1199,#1216,
#1241,#1257,#1280,#1297,#1310,#1336,#1362,#1374,#1399,#1424,#1436,#1476,#1507,#1538,#1560,#1662,#1764,#1786,#1803,#1820,#1837,#1854,#1871,#1888,#1900,
#1917,#1934,#1946,#1969,#1992,#2009,#2026,#2043,#2068,#2084,#2100,#2122,#2135,#2161,#2187,#2199,#2225,#2250,#2262,#2273,#2286));
#2288=MANIFOLD_SOLID_BREP('CASE_TOP',#2287);
#26=STYLED_ITEM('',(),#2288);
#16=SHAPE_REPRESENTATION('root',(#15),#10);
#17=ADVANCED_BREP_SHAPE_REPRESENTATION('root',(#2288),#10);
#2296=SHAPE_REPRESENTATION_RELATIONSHIP('','',#16,#17);
#2297=APPLICATION_CONTEXT('configuration controlled 3D design of mechanical parts and assemblies');
#2298=APPLICATION_PROTOCOL_DEFINITION('international standard','configuration_control_3d_design_ed2_mim',2004,#2297);
#2299=PRODUCT_CONTEXT('',#2297,'mechanical');
#2300=PRODUCT_DEFINITION_CONTEXT('part definition',#2297,'design');
#24=PRODUCT('root','root','',(#2299));
#2301=PRODUCT_RELATED_PRODUCT_CATEGORY('part','',(#24));
#2302=PRODUCT_DEFINITION_FORMATION_WITH_SPECIFIED_SOURCE('','',#24,.NOT_KNOWN.);
#25=PRODUCT_DEFINITION('design','',#2302,#2300);
#23=PRODUCT_DEFINITION_SHAPE('','',#25);
#2303=SHAPE_DEFINITION_REPRESENTATION(#23,#16);
#11=DRAUGHTING_MODEL('',(),#10);
#1=MECHANICAL_DESIGN_GEOMETRIC_PRESENTATION_REPRESENTATION('',(#26),#10);
ENDSEC;
END-ISO-10303-21;
