ISO-10303-21;
HEADER;

/* File generated by HOOPS Exchange Version 24.2.0 */

FILE_DESCRIPTION(('HOOPS Exchange Step'),'2;1');

FILE_NAME('D:\\downloads\\captioncast\\captioncast\\enclosure\\exports\\v1\\CASE_TOP_V2.stp',
'2026-06-24T20:09:18+06:-30',
('sushi'),
('Unknown organisation'),
'HOOPS Exchange 2024.2',
'HOOPS Exchange',
'Unknown authorisation');

FILE_SCHEMA( ('AP203_CONFIGURATION_CONTROLLED_3D_DESIGN_OF_MECHANICAL_PARTS_AND_ASSEMBLIES_MIM_LF') );

ENDSEC;

DATA;
#3=(NAMED_UNIT(*)PLANE_ANGLE_UNIT()SI_UNIT($,.RADIAN.));
#4=PLANE_ANGLE_MEASURE_WITH_UNIT(PLANE_ANGLE_MEASURE(0.0174532925),#3);
#5=(CONVERSION_BASED_UNIT('DEGREE',#4)NAMED_UNIT(#6)PLANE_ANGLE_UNIT());
#6=DIMENSIONAL_EXPONENTS(0.,0.,0.,0.,0.,0.,0.);
#7=(NAMED_UNIT(*)SI_UNIT($,.STERADIAN.)SOLID_ANGLE_UNIT());
#8=(LENGTH_UNIT()NAMED_UNIT(*)SI_UNIT(.MILLI.,.METRE.));
#9=UNCERTAINTY_MEASURE_WITH_UNIT(LENGTH_MEASURE(1.000000E-05),#8,'DISTANCE_ACCURACY_VALUE','Maximum Tolerance applied to model');
#10=(GEOMETRIC_REPRESENTATION_CONTEXT(3)GLOBAL_UNCERTAINTY_ASSIGNED_CONTEXT((#9))GLOBAL_UNIT_ASSIGNED_CONTEXT((#8,#5,#7))REPRESENTATION_CONTEXT('','root'));
#12=CARTESIAN_POINT('',(0.,0.,0.));
#13=DIRECTION('',(0.,0.,1.));
#14=DIRECTION('',(1.,0.,0.));
#15=AXIS2_PLACEMENT_3D('',#12,#13,#14);
#27=CARTESIAN_POINT('',(31.05452272,17.81163302,39.935445258));
#28=DIRECTION('',(0.,-0.,1.));
#29=DIRECTION('',(-1.,0.,0.));
#30=AXIS2_PLACEMENT_3D('',#27,#28,#29);
#31=PLANE('',#30);
#32=CARTESIAN_POINT('',(29.55452272,17.81163302,39.935445258));
#33=VERTEX_POINT('',#32);
#34=CARTESIAN_POINT('',(31.05452272,17.81163302,39.935445258));
#35=DIRECTION('',(0.,-0.,1.));
#36=DIRECTION('',(-1.,0.,0.));
#37=AXIS2_PLACEMENT_3D('',#34,#35,#36);
#38=CIRCLE('',#37,1.5);
#39=EDGE_CURVE('',#33,#33,#38,.T.);
#40=ORIENTED_EDGE('',*,*,#39,.F.);
#41=EDGE_LOOP('',(#40));
#42=FACE_BOUND('',#41,.T.);
#43=CARTESIAN_POINT('',(28.55452272,17.81163302,39.935445258));
#44=VERTEX_POINT('',#43);
#45=CARTESIAN_POINT('',(31.05452272,17.81163302,39.935445258));
#46=DIRECTION('',(0.,-0.,1.));
#47=DIRECTION('',(-1.,0.,0.));
#48=AXIS2_PLACEMENT_3D('',#45,#46,#47);
#49=CIRCLE('',#48,2.5);
#50=EDGE_CURVE('',#44,#44,#49,.T.);
#51=ORIENTED_EDGE('',*,*,#50,.T.);
#52=EDGE_LOOP('',(#51));
#53=FACE_BOUND('',#52,.T.);
#54=ADVANCED_FACE('',(#42,#53),#31,.T.);
#55=CARTESIAN_POINT('',(31.05452272,17.81163302,38.729076441));
#56=DIRECTION('',(0.,-0.,1.));
#57=DIRECTION('',(-1.,0.,0.));
#58=AXIS2_PLACEMENT_3D('',#55,#56,#57);
#59=CYLINDRICAL_SURFACE('',#58,1.5);
#60=CARTESIAN_POINT('',(29.55452272,17.81163302,38.729076441));
#61=VERTEX_POINT('',#60);
#62=CARTESIAN_POINT('',(29.55452272,17.81163302,39.935445258));
#63=DIRECTION('',(-0.,0.,-1.));
#64=VECTOR('',#63,1.206368817);
#65=LINE('',#62,#64);
#66=EDGE_CURVE('',#33,#61,#65,.T.);
#67=ORIENTED_EDGE('',*,*,#66,.F.);
#68=ORIENTED_EDGE('',*,*,#39,.T.);
#69=ORIENTED_EDGE('',*,*,#66,.T.);
#70=CARTESIAN_POINT('',(29.554635671,17.830040583,38.729076441));
#71=VERTEX_POINT('',#70);
#72=CARTESIAN_POINT('',(31.05452272,17.81163302,38.729076441));
#73=DIRECTION('',(0.,-0.,1.));
#74=DIRECTION('',(-0.9999247,0.012271709,0.));
#75=AXIS2_PLACEMENT_3D('',#72,#73,#74);
#76=CIRCLE('',#75,1.5);
#77=EDGE_CURVE('',#71,#61,#76,.T.);
#78=ORIENTED_EDGE('',*,*,#77,.F.);
#79=CARTESIAN_POINT('',(31.05452272,17.81163302,38.729076441));
#80=DIRECTION('',(0.,-0.,1.));
#81=DIRECTION('',(-0.9999247,0.012271709,0.));
#82=AXIS2_PLACEMENT_3D('',#79,#80,#81);
#83=CIRCLE('',#82,1.5);
#84=EDGE_CURVE('',#61,#71,#83,.T.);
#85=ORIENTED_EDGE('',*,*,#84,.F.);
#86=EDGE_LOOP('',(#67,#68,#69,#78,#85));
#87=FACE_BOUND('',#86,.T.);
#88=ADVANCED_FACE('',(#87),#59,.F.);
#89=CARTESIAN_POINT('',(14.477471197,20.26163302,101.609684672));
#90=DIRECTION('',(-1.,-0.,0.));
#91=DIRECTION('',(0.,-1.,-0.));
#92=AXIS2_PLACEMENT_3D('',#89,#90,#91);
#93=PLANE('',#92);
#94=CARTESIAN_POINT('',(14.477471197,20.26163302,38.729076441));
#95=VERTEX_POINT('',#94);
#96=CARTESIAN_POINT('',(14.477471197,34.36163302,38.729076441));
#97=VERTEX_POINT('',#96);
#98=CARTESIAN_POINT('',(14.477471197,20.26163302,38.729076441));
#99=DIRECTION('',(-0.,1.,0.));
#100=VECTOR('',#99,14.1);
#101=LINE('',#98,#100);
#102=EDGE_CURVE('',#95,#97,#101,.T.);
#103=ORIENTED_EDGE('',*,*,#102,.T.);
#104=CARTESIAN_POINT('',(14.477471197,34.36163302,40.729076441));
#105=VERTEX_POINT('',#104);
#106=CARTESIAN_POINT('',(14.477471197,34.36163302,40.729076441));
#107=DIRECTION('',(-0.,0.,-1.));
#108=VECTOR('',#107,2.);
#109=LINE('',#106,#108);
#110=EDGE_CURVE('',#105,#97,#109,.T.);
#111=ORIENTED_EDGE('',*,*,#110,.F.);
#112=CARTESIAN_POINT('',(14.477471197,20.26163302,40.729076441));
#113=VERTEX_POINT('',#112);
#114=CARTESIAN_POINT('',(14.477471197,20.26163302,40.729076441));
#115=DIRECTION('',(-0.,1.,0.));
#116=VECTOR('',#115,14.1);
#117=LINE('',#114,#116);
#118=EDGE_CURVE('',#113,#105,#117,.T.);
#119=ORIENTED_EDGE('',*,*,#118,.F.);
#120=CARTESIAN_POINT('',(14.477471197,20.26163302,40.729076441));
#121=DIRECTION('',(-0.,0.,-1.));
#122=VECTOR('',#121,2.);
#123=LINE('',#120,#122);
#124=EDGE_CURVE('',#113,#95,#123,.T.);
#125=ORIENTED_EDGE('',*,*,#124,.T.);
#126=EDGE_LOOP('',(#103,#111,#119,#125));
#127=FACE_BOUND('',#126,.T.);
#128=ADVANCED_FACE('',(#127),#93,.F.);
#129=CARTESIAN_POINT('',(28.577471197,20.26163302,101.609684672));
#130=DIRECTION('',(-0.,-1.,-0.));
#131=DIRECTION('',(0.,-0.,1.));
#132=AXIS2_PLACEMENT_3D('',#129,#130,#131);
#133=PLANE('',#132);
#134=CARTESIAN_POINT('',(28.577471197,20.26163302,40.729076441));
#135=VERTEX_POINT('',#134);
#136=CARTESIAN_POINT('',(28.577471197,20.26163302,38.729076441));
#137=VERTEX_POINT('',#136);
#138=CARTESIAN_POINT('',(28.577471197,20.26163302,40.729076441));
#139=DIRECTION('',(-0.,0.,-1.));
#140=VECTOR('',#139,2.);
#141=LINE('',#138,#140);
#142=EDGE_CURVE('',#135,#137,#141,.T.);
#143=ORIENTED_EDGE('',*,*,#142,.T.);
#144=CARTESIAN_POINT('',(28.577471197,20.26163302,38.729076441));
#145=DIRECTION('',(-1.,-0.,0.));
#146=VECTOR('',#145,14.1);
#147=LINE('',#144,#146);
#148=EDGE_CURVE('',#137,#95,#147,.T.);
#149=ORIENTED_EDGE('',*,*,#148,.T.);
#150=ORIENTED_EDGE('',*,*,#124,.F.);
#151=CARTESIAN_POINT('',(28.577471197,20.26163302,40.729076441));
#152=DIRECTION('',(-1.,-0.,0.));
#153=VECTOR('',#152,14.1);
#154=LINE('',#151,#153);
#155=EDGE_CURVE('',#135,#113,#154,.T.);
#156=ORIENTED_EDGE('',*,*,#155,.F.);
#157=EDGE_LOOP('',(#143,#149,#150,#156));
#158=FACE_BOUND('',#157,.T.);
#159=ADVANCED_FACE('',(#158),#133,.F.);
#160=CARTESIAN_POINT('',(21.527471197,27.31163302,38.729076441));
#161=DIRECTION('',(-0.,0.,-1.));
#162=DIRECTION('',(0.,-1.,-0.));
#163=AXIS2_PLACEMENT_3D('',#160,#161,#162);
#164=PLANE('',#163);
#165=CARTESIAN_POINT('',(28.577471197,34.36163302,38.729076441));
#166=VERTEX_POINT('',#165);
#167=CARTESIAN_POINT('',(28.577471197,34.36163302,38.729076441));
#168=DIRECTION('',(0.,-1.,-0.));
#169=VECTOR('',#168,14.1);
#170=LINE('',#167,#169);
#171=EDGE_CURVE('',#166,#137,#170,.T.);
#172=ORIENTED_EDGE('',*,*,#171,.F.);
#173=CARTESIAN_POINT('',(28.577471197,34.36163302,38.729076441));
#174=DIRECTION('',(-1.,0.,0.));
#175=VECTOR('',#174,14.1);
#176=LINE('',#173,#175);
#177=EDGE_CURVE('',#166,#97,#176,.T.);
#178=ORIENTED_EDGE('',*,*,#177,.T.);
#179=ORIENTED_EDGE('',*,*,#102,.F.);
#180=ORIENTED_EDGE('',*,*,#148,.F.);
#181=EDGE_LOOP('',(#172,#178,#179,#180));
#182=FACE_BOUND('',#181,.T.);
#183=ORIENTED_EDGE('',*,*,#77,.T.);
#184=ORIENTED_EDGE('',*,*,#84,.T.);
#185=EDGE_LOOP('',(#183,#184));
#186=FACE_BOUND('',#185,.T.);
#187=CARTESIAN_POINT('',(29.55452272,36.81163302,38.729076441));
#188=VERTEX_POINT('',#187);
#189=CARTESIAN_POINT('',(29.554635671,36.793225457,38.729076441));
#190=VERTEX_POINT('',#189);
#191=CARTESIAN_POINT('',(31.05452272,36.81163302,38.729076441));
#192=DIRECTION('',(-0.,0.,-1.));
#193=DIRECTION('',(-0.9999247,-0.012271709,0.));
#194=AXIS2_PLACEMENT_3D('',#191,#192,#193);
#195=CIRCLE('',#194,1.5);
#196=EDGE_CURVE('',#188,#190,#195,.T.);
#197=ORIENTED_EDGE('',*,*,#196,.F.);
#198=CARTESIAN_POINT('',(31.05452272,36.81163302,38.729076441));
#199=DIRECTION('',(-0.,0.,-1.));
#200=DIRECTION('',(-0.9999247,-0.012271709,0.));
#201=AXIS2_PLACEMENT_3D('',#198,#199,#200);
#202=CIRCLE('',#201,1.5);
#203=EDGE_CURVE('',#190,#188,#202,.T.);
#204=ORIENTED_EDGE('',*,*,#203,.F.);
#205=EDGE_LOOP('',(#197,#204));
#206=FACE_BOUND('',#205,.T.);
#207=CARTESIAN_POINT('',(31.027471197,41.69163302,38.729076441));
#208=VERTEX_POINT('',#207);
#209=CARTESIAN_POINT('',(12.027471197,41.69163302,38.729076441));
#210=VERTEX_POINT('',#209);
#211=CARTESIAN_POINT('',(31.027471197,41.69163302,38.729076441));
#212=DIRECTION('',(-1.,0.,0.));
#213=VECTOR('',#212,19.);
#214=LINE('',#211,#213);
#215=EDGE_CURVE('',#208,#210,#214,.T.);
#216=ORIENTED_EDGE('',*,*,#215,.F.);
#217=CARTESIAN_POINT('',(35.907471197,36.81163302,38.729076441));
#218=VERTEX_POINT('',#217);
#219=CARTESIAN_POINT('',(31.027471197,36.81163302,38.729076441));
#220=DIRECTION('',(0.,-0.,1.));
#221=DIRECTION('',(0.,1.,0.));
#222=AXIS2_PLACEMENT_3D('',#219,#220,#221);
#223=CIRCLE('',#222,4.88);
#224=EDGE_CURVE('',#218,#208,#223,.T.);
#225=ORIENTED_EDGE('',*,*,#224,.F.);
#226=CARTESIAN_POINT('',(35.907471197,17.81163302,38.729076441));
#227=VERTEX_POINT('',#226);
#228=CARTESIAN_POINT('',(35.907471197,17.81163302,38.729076441));
#229=DIRECTION('',(0.,1.,0.));
#230=VECTOR('',#229,19.);
#231=LINE('',#228,#230);
#232=EDGE_CURVE('',#227,#218,#231,.T.);
#233=ORIENTED_EDGE('',*,*,#232,.F.);
#234=CARTESIAN_POINT('',(31.027471197,12.93163302,38.729076441));
#235=VERTEX_POINT('',#234);
#236=CARTESIAN_POINT('',(31.027471197,17.81163302,38.729076441));
#237=DIRECTION('',(0.,-0.,1.));
#238=DIRECTION('',(0.,1.,0.));
#239=AXIS2_PLACEMENT_3D('',#236,#237,#238);
#240=CIRCLE('',#239,4.88);
#241=EDGE_CURVE('',#235,#227,#240,.T.);
#242=ORIENTED_EDGE('',*,*,#241,.F.);
#243=CARTESIAN_POINT('',(12.027471197,12.93163302,38.729076441));
#244=VERTEX_POINT('',#243);
#245=CARTESIAN_POINT('',(12.027471197,12.93163302,38.729076441));
#246=DIRECTION('',(1.,0.,-0.));
#247=VECTOR('',#246,19.);
#248=LINE('',#245,#247);
#249=EDGE_CURVE('',#244,#235,#248,.T.);
#250=ORIENTED_EDGE('',*,*,#249,.F.);
#251=CARTESIAN_POINT('',(7.147471197,17.81163302,38.729076441));
#252=VERTEX_POINT('',#251);
#253=CARTESIAN_POINT('',(12.027471197,17.81163302,38.729076441));
#254=DIRECTION('',(0.,-0.,1.));
#255=DIRECTION('',(0.,1.,0.));
#256=AXIS2_PLACEMENT_3D('',#253,#254,#255);
#257=CIRCLE('',#256,4.88);
#258=EDGE_CURVE('',#252,#244,#257,.T.);
#259=ORIENTED_EDGE('',*,*,#258,.F.);
#260=CARTESIAN_POINT('',(7.147471197,36.81163302,38.729076441));
#261=VERTEX_POINT('',#260);
#262=CARTESIAN_POINT('',(7.147471197,36.81163302,38.729076441));
#263=DIRECTION('',(-0.,-1.,-0.));
#264=VECTOR('',#263,19.);
#265=LINE('',#262,#264);
#266=EDGE_CURVE('',#261,#252,#265,.T.);
#267=ORIENTED_EDGE('',*,*,#266,.F.);
#268=CARTESIAN_POINT('',(12.027471197,36.81163302,38.729076441));
#269=DIRECTION('',(0.,-0.,1.));
#270=DIRECTION('',(0.,1.,0.));
#271=AXIS2_PLACEMENT_3D('',#268,#269,#270);
#272=CIRCLE('',#271,4.88);
#273=EDGE_CURVE('',#210,#261,#272,.T.);
#274=ORIENTED_EDGE('',*,*,#273,.F.);
#275=EDGE_LOOP('',(#216,#225,#233,#242,#250,#259,#267,#274));
#276=FACE_BOUND('',#275,.T.);
#277=ADVANCED_FACE('',(#182,#186,#206,#276),#164,.T.);
#278=CARTESIAN_POINT('',(28.577471197,34.36163302,101.609684672));
#279=DIRECTION('',(1.,0.,-0.));
#280=DIRECTION('',(0.,-0.,1.));
#281=AXIS2_PLACEMENT_3D('',#278,#279,#280);
#282=PLANE('',#281);
#283=CARTESIAN_POINT('',(28.577471197,34.36163302,40.729076441));
#284=VERTEX_POINT('',#283);
#285=CARTESIAN_POINT('',(28.577471197,34.36163302,40.729076441));
#286=DIRECTION('',(0.,-1.,-0.));
#287=VECTOR('',#286,14.1);
#288=LINE('',#285,#287);
#289=EDGE_CURVE('',#284,#135,#288,.T.);
#290=ORIENTED_EDGE('',*,*,#289,.F.);
#291=CARTESIAN_POINT('',(28.577471197,34.36163302,40.729076441));
#292=DIRECTION('',(-0.,0.,-1.));
#293=VECTOR('',#292,2.);
#294=LINE('',#291,#293);
#295=EDGE_CURVE('',#284,#166,#294,.T.);
#296=ORIENTED_EDGE('',*,*,#295,.T.);
#297=ORIENTED_EDGE('',*,*,#171,.T.);
#298=ORIENTED_EDGE('',*,*,#142,.F.);
#299=EDGE_LOOP('',(#290,#296,#297,#298));
#300=FACE_BOUND('',#299,.T.);
#301=ADVANCED_FACE('',(#300),#282,.F.);
#302=CARTESIAN_POINT('',(31.05452272,17.81163302,-73.898118264));
#303=DIRECTION('',(0.,-0.,1.));
#304=DIRECTION('',(-1.,0.,0.));
#305=AXIS2_PLACEMENT_3D('',#302,#303,#304);
#306=CYLINDRICAL_SURFACE('',#305,2.5);
#307=CARTESIAN_POINT('',(28.55452272,17.81163302,40.729076441));
#308=VERTEX_POINT('',#307);
#309=CARTESIAN_POINT('',(28.55452272,17.81163302,40.729076441));
#310=DIRECTION('',(-0.,0.,-1.));
#311=VECTOR('',#310,0.793631183);
#312=LINE('',#309,#311);
#313=EDGE_CURVE('',#308,#44,#312,.T.);
#314=ORIENTED_EDGE('',*,*,#313,.F.);
#315=CARTESIAN_POINT('',(33.55452272,17.81163302,40.729076441));
#316=VERTEX_POINT('',#315);
#317=CARTESIAN_POINT('',(31.05452272,17.81163302,40.729076441));
#318=DIRECTION('',(-0.,0.,-1.));
#319=DIRECTION('',(1.,0.,-0.));
#320=AXIS2_PLACEMENT_3D('',#317,#318,#319);
#321=CIRCLE('',#320,2.5);
#322=EDGE_CURVE('',#316,#308,#321,.T.);
#323=ORIENTED_EDGE('',*,*,#322,.F.);
#324=CARTESIAN_POINT('',(31.05452272,17.81163302,40.729076441));
#325=DIRECTION('',(-0.,0.,-1.));
#326=DIRECTION('',(1.,0.,-0.));
#327=AXIS2_PLACEMENT_3D('',#324,#325,#326);
#328=CIRCLE('',#327,2.5);
#329=EDGE_CURVE('',#308,#316,#328,.T.);
#330=ORIENTED_EDGE('',*,*,#329,.F.);
#331=ORIENTED_EDGE('',*,*,#313,.T.);
#332=ORIENTED_EDGE('',*,*,#50,.F.);
#333=EDGE_LOOP('',(#314,#323,#330,#331,#332));
#334=FACE_BOUND('',#333,.T.);
#335=ADVANCED_FACE('',(#334),#306,.F.);
#336=CARTESIAN_POINT('',(21.527471197,27.31163302,40.729076441));
#337=DIRECTION('',(-0.,0.,-1.));
#338=DIRECTION('',(0.,-1.,-0.));
#339=AXIS2_PLACEMENT_3D('',#336,#337,#338);
#340=PLANE('',#339);
#341=CARTESIAN_POINT('',(28.577471197,34.36163302,40.729076441));
#342=DIRECTION('',(-1.,0.,0.));
#343=VECTOR('',#342,14.1);
#344=LINE('',#341,#343);
#345=EDGE_CURVE('',#284,#105,#344,.T.);
#346=ORIENTED_EDGE('',*,*,#345,.F.);
#347=ORIENTED_EDGE('',*,*,#289,.T.);
#348=ORIENTED_EDGE('',*,*,#155,.T.);
#349=ORIENTED_EDGE('',*,*,#118,.T.);
#350=EDGE_LOOP('',(#346,#347,#348,#349));
#351=FACE_BOUND('',#350,.T.);
#352=ORIENTED_EDGE('',*,*,#322,.T.);
#353=ORIENTED_EDGE('',*,*,#329,.T.);
#354=EDGE_LOOP('',(#352,#353));
#355=FACE_BOUND('',#354,.T.);
#356=CARTESIAN_POINT('',(31.059243152,14.61163302,40.729076441));
#357=VERTEX_POINT('',#356);
#358=CARTESIAN_POINT('',(34.259243152,17.81163302,40.729076441));
#359=VERTEX_POINT('',#358);
#360=CARTESIAN_POINT('',(31.059243152,17.81163302,40.729076441));
#361=DIRECTION('',(0.,-0.,1.));
#362=DIRECTION('',(0.,1.,0.));
#363=AXIS2_PLACEMENT_3D('',#360,#361,#362);
#364=CIRCLE('',#363,3.2);
#365=EDGE_CURVE('',#357,#359,#364,.T.);
#366=ORIENTED_EDGE('',*,*,#365,.T.);
#367=CARTESIAN_POINT('',(34.259243152,36.81163302,40.729076441));
#368=VERTEX_POINT('',#367);
#369=CARTESIAN_POINT('',(34.259243152,17.81163302,40.729076441));
#370=DIRECTION('',(0.,1.,0.));
#371=VECTOR('',#370,19.);
#372=LINE('',#369,#371);
#373=EDGE_CURVE('',#359,#368,#372,.T.);
#374=ORIENTED_EDGE('',*,*,#373,.T.);
#375=CARTESIAN_POINT('',(31.059243152,40.01163302,40.729076441));
#376=VERTEX_POINT('',#375);
#377=CARTESIAN_POINT('',(31.059243152,36.81163302,40.729076441));
#378=DIRECTION('',(0.,-0.,1.));
#379=DIRECTION('',(0.,1.,0.));
#380=AXIS2_PLACEMENT_3D('',#377,#378,#379);
#381=CIRCLE('',#380,3.2);
#382=EDGE_CURVE('',#368,#376,#381,.T.);
#383=ORIENTED_EDGE('',*,*,#382,.T.);
#384=CARTESIAN_POINT('',(11.995761011,40.01163302,40.729076441));
#385=VERTEX_POINT('',#384);
#386=CARTESIAN_POINT('',(31.059243152,40.01163302,40.729076441));
#387=DIRECTION('',(-1.,0.,0.));
#388=VECTOR('',#387,19.063482141);
#389=LINE('',#386,#388);
#390=EDGE_CURVE('',#376,#385,#389,.T.);
#391=ORIENTED_EDGE('',*,*,#390,.T.);
#392=CARTESIAN_POINT('',(8.795761011,36.81163302,40.729076441));
#393=VERTEX_POINT('',#392);
#394=CARTESIAN_POINT('',(11.995761011,36.81163302,40.729076441));
#395=DIRECTION('',(-0.,0.,-1.));
#396=DIRECTION('',(-1.,0.,0.));
#397=AXIS2_PLACEMENT_3D('',#394,#395,#396);
#398=CIRCLE('',#397,3.2);
#399=EDGE_CURVE('',#393,#385,#398,.T.);
#400=ORIENTED_EDGE('',*,*,#399,.F.);
#401=CARTESIAN_POINT('',(8.795761011,17.81163302,40.729076441));
#402=VERTEX_POINT('',#401);
#403=CARTESIAN_POINT('',(8.795761011,17.81163302,40.729076441));
#404=DIRECTION('',(0.,1.,0.));
#405=VECTOR('',#404,19.);
#406=LINE('',#403,#405);
#407=EDGE_CURVE('',#402,#393,#406,.T.);
#408=ORIENTED_EDGE('',*,*,#407,.F.);
#409=CARTESIAN_POINT('',(11.995761011,14.61163302,40.729076441));
#410=VERTEX_POINT('',#409);
#411=CARTESIAN_POINT('',(11.995761011,17.81163302,40.729076441));
#412=DIRECTION('',(-0.,0.,-1.));
#413=DIRECTION('',(-1.,0.,0.));
#414=AXIS2_PLACEMENT_3D('',#411,#412,#413);
#415=CIRCLE('',#414,3.2);
#416=EDGE_CURVE('',#410,#402,#415,.T.);
#417=ORIENTED_EDGE('',*,*,#416,.F.);
#418=CARTESIAN_POINT('',(11.995761011,14.61163302,40.729076441));
#419=DIRECTION('',(1.,0.,-0.));
#420=VECTOR('',#419,19.063482141);
#421=LINE('',#418,#420);
#422=EDGE_CURVE('',#410,#357,#421,.T.);
#423=ORIENTED_EDGE('',*,*,#422,.T.);
#424=EDGE_LOOP('',(#366,#374,#383,#391,#400,#408,#417,#423));
#425=FACE_BOUND('',#424,.T.);
#426=CARTESIAN_POINT('',(28.55452272,36.81163302,40.729076441));
#427=VERTEX_POINT('',#426);
#428=CARTESIAN_POINT('',(33.55452272,36.81163302,40.729076441));
#429=VERTEX_POINT('',#428);
#430=CARTESIAN_POINT('',(31.05452272,36.81163302,40.729076441));
#431=DIRECTION('',(0.,-0.,1.));
#432=DIRECTION('',(1.,0.,-0.));
#433=AXIS2_PLACEMENT_3D('',#430,#431,#432);
#434=CIRCLE('',#433,2.5);
#435=EDGE_CURVE('',#427,#429,#434,.T.);
#436=ORIENTED_EDGE('',*,*,#435,.F.);
#437=CARTESIAN_POINT('',(31.05452272,36.81163302,40.729076441));
#438=DIRECTION('',(0.,-0.,1.));
#439=DIRECTION('',(1.,0.,-0.));
#440=AXIS2_PLACEMENT_3D('',#437,#438,#439);
#441=CIRCLE('',#440,2.5);
#442=EDGE_CURVE('',#429,#427,#441,.T.);
#443=ORIENTED_EDGE('',*,*,#442,.F.);
#444=EDGE_LOOP('',(#436,#443));
#445=FACE_BOUND('',#444,.T.);
#446=ADVANCED_FACE('',(#351,#355,#425,#445),#340,.F.);
#447=CARTESIAN_POINT('',(31.05452272,36.81163302,39.935445258));
#448=DIRECTION('',(0.,0.,1.));
#449=DIRECTION('',(-1.,0.,0.));
#450=AXIS2_PLACEMENT_3D('',#447,#448,#449);
#451=PLANE('',#450);
#452=CARTESIAN_POINT('',(29.55452272,36.81163302,39.935445258));
#453=VERTEX_POINT('',#452);
#454=CARTESIAN_POINT('',(31.05452272,36.81163302,39.935445258));
#455=DIRECTION('',(-0.,0.,-1.));
#456=DIRECTION('',(-1.,0.,0.));
#457=AXIS2_PLACEMENT_3D('',#454,#455,#456);
#458=CIRCLE('',#457,1.5);
#459=EDGE_CURVE('',#453,#453,#458,.T.);
#460=ORIENTED_EDGE('',*,*,#459,.T.);
#461=EDGE_LOOP('',(#460));
#462=FACE_BOUND('',#461,.T.);
#463=CARTESIAN_POINT('',(28.55452272,36.81163302,39.935445258));
#464=VERTEX_POINT('',#463);
#465=CARTESIAN_POINT('',(31.05452272,36.81163302,39.935445258));
#466=DIRECTION('',(-0.,0.,-1.));
#467=DIRECTION('',(-1.,0.,0.));
#468=AXIS2_PLACEMENT_3D('',#465,#466,#467);
#469=CIRCLE('',#468,2.5);
#470=EDGE_CURVE('',#464,#464,#469,.T.);
#471=ORIENTED_EDGE('',*,*,#470,.F.);
#472=EDGE_LOOP('',(#471));
#473=FACE_BOUND('',#472,.T.);
#474=ADVANCED_FACE('',(#462,#473),#451,.T.);
#475=CARTESIAN_POINT('',(31.05452272,36.81163302,38.729076441));
#476=DIRECTION('',(0.,0.,1.));
#477=DIRECTION('',(-1.,0.,0.));
#478=AXIS2_PLACEMENT_3D('',#475,#476,#477);
#479=CYLINDRICAL_SURFACE('',#478,1.5);
#480=CARTESIAN_POINT('',(29.55452272,36.81163302,39.935445258));
#481=DIRECTION('',(-0.,-0.,-1.));
#482=VECTOR('',#481,1.206368817);
#483=LINE('',#480,#482);
#484=EDGE_CURVE('',#453,#188,#483,.T.);
#485=ORIENTED_EDGE('',*,*,#484,.F.);
#486=ORIENTED_EDGE('',*,*,#459,.F.);
#487=ORIENTED_EDGE('',*,*,#484,.T.);
#488=ORIENTED_EDGE('',*,*,#196,.T.);
#489=ORIENTED_EDGE('',*,*,#203,.T.);
#490=EDGE_LOOP('',(#485,#486,#487,#488,#489));
#491=FACE_BOUND('',#490,.T.);
#492=ADVANCED_FACE('',(#491),#479,.F.);
#493=CARTESIAN_POINT('',(28.577471197,34.36163302,101.609684672));
#494=DIRECTION('',(0.,1.,0.));
#495=DIRECTION('',(0.,0.,1.));
#496=AXIS2_PLACEMENT_3D('',#493,#494,#495);
#497=PLANE('',#496);
#498=ORIENTED_EDGE('',*,*,#295,.F.);
#499=ORIENTED_EDGE('',*,*,#345,.T.);
#500=ORIENTED_EDGE('',*,*,#110,.T.);
#501=ORIENTED_EDGE('',*,*,#177,.F.);
#502=EDGE_LOOP('',(#498,#499,#500,#501));
#503=FACE_BOUND('',#502,.T.);
#504=ADVANCED_FACE('',(#503),#497,.F.);
#505=CARTESIAN_POINT('',(31.05452272,36.81163302,-73.898118264));
#506=DIRECTION('',(0.,0.,1.));
#507=DIRECTION('',(-1.,0.,0.));
#508=AXIS2_PLACEMENT_3D('',#505,#506,#507);
#509=CYLINDRICAL_SURFACE('',#508,2.5);
#510=CARTESIAN_POINT('',(28.55452272,36.81163302,40.729076441));
#511=DIRECTION('',(-0.,-0.,-1.));
#512=VECTOR('',#511,0.793631183);
#513=LINE('',#510,#512);
#514=EDGE_CURVE('',#427,#464,#513,.T.);
#515=ORIENTED_EDGE('',*,*,#514,.F.);
#516=ORIENTED_EDGE('',*,*,#435,.T.);
#517=ORIENTED_EDGE('',*,*,#442,.T.);
#518=ORIENTED_EDGE('',*,*,#514,.T.);
#519=ORIENTED_EDGE('',*,*,#470,.T.);
#520=EDGE_LOOP('',(#515,#516,#517,#518,#519));
#521=FACE_BOUND('',#520,.T.);
#522=ADVANCED_FACE('',(#521),#509,.F.);
#523=CARTESIAN_POINT('',(34.259243152,43.34248006,39.429077414));
#524=DIRECTION('',(-1.,0.,0.));
#525=DIRECTION('',(-0.,0.,-1.));
#526=AXIS2_PLACEMENT_3D('',#523,#524,#525);
#527=PLANE('',#526);
#528=CARTESIAN_POINT('',(34.259243152,17.81163302,48.570015182));
#529=VERTEX_POINT('',#528);
#530=CARTESIAN_POINT('',(34.259243152,36.81163302,48.570015182));
#531=VERTEX_POINT('',#530);
#532=CARTESIAN_POINT('',(34.259243152,17.81163302,48.570015182));
#533=DIRECTION('',(-0.,1.,-0.));
#534=VECTOR('',#533,19.);
#535=LINE('',#532,#534);
#536=EDGE_CURVE('',#529,#531,#535,.T.);
#537=ORIENTED_EDGE('',*,*,#536,.T.);
#538=CARTESIAN_POINT('',(34.259243152,36.81163302,40.729076441));
#539=DIRECTION('',(0.,-0.,1.));
#540=VECTOR('',#539,7.84093874);
#541=LINE('',#538,#540);
#542=EDGE_CURVE('',#368,#531,#541,.T.);
#543=ORIENTED_EDGE('',*,*,#542,.F.);
#544=ORIENTED_EDGE('',*,*,#373,.F.);
#545=CARTESIAN_POINT('',(34.259243152,17.81163302,40.729076441));
#546=DIRECTION('',(0.,-0.,1.));
#547=VECTOR('',#546,7.84093874);
#548=LINE('',#545,#547);
#549=EDGE_CURVE('',#359,#529,#548,.T.);
#550=ORIENTED_EDGE('',*,*,#549,.T.);
#551=EDGE_LOOP('',(#537,#543,#544,#550));
#552=FACE_BOUND('',#551,.T.);
#553=ADVANCED_FACE('',(#552),#527,.T.);
#554=CARTESIAN_POINT('',(31.059243152,17.81163302,39.429077414));
#555=DIRECTION('',(0.,-0.,1.));
#556=DIRECTION('',(-0.,-1.,-0.));
#557=AXIS2_PLACEMENT_3D('',#554,#555,#556);
#558=CYLINDRICAL_SURFACE('',#557,3.2);
#559=CARTESIAN_POINT('',(31.059243152,14.61163302,48.570015182));
#560=VERTEX_POINT('',#559);
#561=CARTESIAN_POINT('',(31.059243152,17.81163302,48.570015182));
#562=DIRECTION('',(-0.,0.,1.));
#563=DIRECTION('',(1.,0.,0.));
#564=AXIS2_PLACEMENT_3D('',#561,#562,#563);
#565=CIRCLE('',#564,3.2);
#566=EDGE_CURVE('',#560,#529,#565,.T.);
#567=ORIENTED_EDGE('',*,*,#566,.T.);
#568=ORIENTED_EDGE('',*,*,#549,.F.);
#569=ORIENTED_EDGE('',*,*,#365,.F.);
#570=CARTESIAN_POINT('',(31.056882936,14.611633455,46.748006808));
#571=VERTEX_POINT('',#570);
#572=CARTESIAN_POINT('',(31.059243152,14.61163302,40.729076441));
#573=DIRECTION('',(0.,-0.,1.));
#574=VECTOR('',#573,6.018930367);
#575=LINE('',#572,#574);
#576=EDGE_CURVE('',#357,#571,#575,.T.);
#577=ORIENTED_EDGE('',*,*,#576,.T.);
#578=CARTESIAN_POINT('',(31.059243152,14.61163302,48.570015182));
#579=DIRECTION('',(-0.,0.,-1.));
#580=VECTOR('',#579,1.822008373);
#581=LINE('',#578,#580);
#582=EDGE_CURVE('',#560,#571,#581,.T.);
#583=ORIENTED_EDGE('',*,*,#582,.F.);
#584=EDGE_LOOP('',(#567,#568,#569,#577,#583));
#585=FACE_BOUND('',#584,.T.);
#586=ADVANCED_FACE('',(#585),#558,.F.);
#587=CARTESIAN_POINT('',(31.059243152,17.81163302,39.429077414));
#588=DIRECTION('',(0.,-0.,1.));
#589=DIRECTION('',(-0.,-1.,-0.));
#590=AXIS2_PLACEMENT_3D('',#587,#588,#589);
#591=CYLINDRICAL_SURFACE('',#590,3.2);
#592=ORIENTED_EDGE('',*,*,#582,.T.);
#593=CARTESIAN_POINT('',(31.056882936,14.61163389,48.570015182));
#594=VERTEX_POINT('',#593);
#595=CARTESIAN_POINT('',(31.056882936,14.61163389,46.748006808));
#596=DIRECTION('',(0.,-0.,1.));
#597=VECTOR('',#596,1.822008373);
#598=LINE('',#595,#597);
#599=EDGE_CURVE('',#571,#594,#598,.T.);
#600=ORIENTED_EDGE('',*,*,#599,.T.);
#601=CARTESIAN_POINT('',(31.059243152,17.81163302,48.570015182));
#602=DIRECTION('',(-0.,0.,1.));
#603=DIRECTION('',(1.,0.,0.));
#604=AXIS2_PLACEMENT_3D('',#601,#602,#603);
#605=CIRCLE('',#604,3.2);
#606=EDGE_CURVE('',#594,#560,#605,.T.);
#607=ORIENTED_EDGE('',*,*,#606,.T.);
#608=EDGE_LOOP('',(#592,#600,#607));
#609=FACE_BOUND('',#608,.T.);
#610=ADVANCED_FACE('',(#609),#591,.F.);
#611=CARTESIAN_POINT('',(31.05452272,17.81163302,242.183375373));
#612=DIRECTION('',(-0.,0.,-1.));
#613=DIRECTION('',(-1.,0.,0.));
#614=AXIS2_PLACEMENT_3D('',#611,#612,#613);
#615=CYLINDRICAL_SURFACE('',#614,3.2);
#616=ORIENTED_EDGE('',*,*,#599,.F.);
#617=CARTESIAN_POINT('',(31.05452272,14.61163302,48.570015182));
#618=VERTEX_POINT('',#617);
#619=CARTESIAN_POINT('',(31.05452272,14.61163302,48.570015182));
#620=DIRECTION('',(-0.,0.,-1.));
#621=VECTOR('',#620,1.822008373);
#622=LINE('',#619,#621);
#623=EDGE_CURVE('',#618,#571,#622,.T.);
#624=ORIENTED_EDGE('',*,*,#623,.F.);
#625=CARTESIAN_POINT('',(31.056895352,14.6116339,48.570015182));
#626=CARTESIAN_POINT('',(31.056110922,14.611633318,48.570015182));
#627=CARTESIAN_POINT('',(31.055326521,14.611633025,48.570015182));
#628=CARTESIAN_POINT('',(31.054542149,14.61163302,48.570015182));
#629=(BOUNDED_CURVE()
B_SPLINE_CURVE(3,(#625,#626,#627,#628),.UNSPECIFIED.,.F.,.F.)
B_SPLINE_CURVE_WITH_KNOTS((4,4),(0.657593759,0.657716059),.UNSPECIFIED.)
CURVE()
GEOMETRIC_REPRESENTATION_ITEM()
RATIONAL_B_SPLINE_CURVE((0.652384145,0.652432596,0.652481078,0.652529593))
REPRESENTATION_ITEM(''));
#630=EDGE_CURVE('',#594,#618,#629,.T.);
#631=ORIENTED_EDGE('',*,*,#630,.F.);
#632=EDGE_LOOP('',(#616,#624,#631));
#633=FACE_BOUND('',#632,.T.);
#634=ADVANCED_FACE('',(#633),#615,.F.);
#635=CARTESIAN_POINT('',(34.05452272,14.61163302,242.183375373));
#636=DIRECTION('',(0.,-1.,0.));
#637=DIRECTION('',(-0.,0.,-1.));
#638=AXIS2_PLACEMENT_3D('',#635,#636,#637);
#639=PLANE('',#638);
#640=ORIENTED_EDGE('',*,*,#623,.T.);
#641=ORIENTED_EDGE('',*,*,#576,.F.);
#642=ORIENTED_EDGE('',*,*,#422,.F.);
#643=CARTESIAN_POINT('',(11.995761011,14.61163302,48.570015182));
#644=VERTEX_POINT('',#643);
#645=CARTESIAN_POINT('',(11.995761011,14.61163302,48.570015182));
#646=DIRECTION('',(-0.,0.,-1.));
#647=VECTOR('',#646,7.84093874);
#648=LINE('',#645,#647);
#649=EDGE_CURVE('',#644,#410,#648,.T.);
#650=ORIENTED_EDGE('',*,*,#649,.F.);
#651=CARTESIAN_POINT('',(31.05452272,14.61163302,48.570015182));
#652=DIRECTION('',(-1.,0.,-0.));
#653=VECTOR('',#652,19.058761709);
#654=LINE('',#651,#653);
#655=EDGE_CURVE('',#618,#644,#654,.T.);
#656=ORIENTED_EDGE('',*,*,#655,.F.);
#657=EDGE_LOOP('',(#640,#641,#642,#650,#656));
#658=FACE_BOUND('',#657,.T.);
#659=ADVANCED_FACE('',(#658),#639,.F.);
#660=CARTESIAN_POINT('',(11.995761011,17.81163302,242.183375373));
#661=DIRECTION('',(-0.,0.,-1.));
#662=DIRECTION('',(-1.,0.,0.));
#663=AXIS2_PLACEMENT_3D('',#660,#661,#662);
#664=CYLINDRICAL_SURFACE('',#663,3.2);
#665=ORIENTED_EDGE('',*,*,#416,.T.);
#666=CARTESIAN_POINT('',(8.795761011,17.81163302,48.570015182));
#667=VERTEX_POINT('',#666);
#668=CARTESIAN_POINT('',(8.795761011,17.81163302,48.570015182));
#669=DIRECTION('',(-0.,-0.,-1.));
#670=VECTOR('',#669,7.84093874);
#671=LINE('',#668,#670);
#672=EDGE_CURVE('',#667,#402,#671,.T.);
#673=ORIENTED_EDGE('',*,*,#672,.F.);
#674=CARTESIAN_POINT('',(11.995761011,17.81163302,48.570015182));
#675=DIRECTION('',(0.,-0.,-1.));
#676=DIRECTION('',(1.,0.,0.));
#677=AXIS2_PLACEMENT_3D('',#674,#675,#676);
#678=CIRCLE('',#677,3.2);
#679=EDGE_CURVE('',#644,#667,#678,.T.);
#680=ORIENTED_EDGE('',*,*,#679,.F.);
#681=ORIENTED_EDGE('',*,*,#649,.T.);
#682=EDGE_LOOP('',(#665,#673,#680,#681));
#683=FACE_BOUND('',#682,.T.);
#684=ADVANCED_FACE('',(#683),#664,.F.);
#685=CARTESIAN_POINT('',(8.795761011,14.81163302,242.183375373));
#686=DIRECTION('',(-1.,0.,0.));
#687=DIRECTION('',(0.,0.,1.));
#688=AXIS2_PLACEMENT_3D('',#685,#686,#687);
#689=PLANE('',#688);
#690=ORIENTED_EDGE('',*,*,#407,.T.);
#691=CARTESIAN_POINT('',(8.795761011,36.81163302,48.570015182));
#692=VERTEX_POINT('',#691);
#693=CARTESIAN_POINT('',(8.795761011,36.81163302,48.570015182));
#694=DIRECTION('',(-0.,0.,-1.));
#695=VECTOR('',#694,7.84093874);
#696=LINE('',#693,#695);
#697=EDGE_CURVE('',#692,#393,#696,.T.);
#698=ORIENTED_EDGE('',*,*,#697,.F.);
#699=CARTESIAN_POINT('',(8.795761011,17.81163302,48.570015182));
#700=DIRECTION('',(-0.,1.,-0.));
#701=VECTOR('',#700,19.);
#702=LINE('',#699,#701);
#703=EDGE_CURVE('',#667,#692,#702,.T.);
#704=ORIENTED_EDGE('',*,*,#703,.F.);
#705=ORIENTED_EDGE('',*,*,#672,.T.);
#706=EDGE_LOOP('',(#690,#698,#704,#705));
#707=FACE_BOUND('',#706,.T.);
#708=ADVANCED_FACE('',(#707),#689,.F.);
#709=CARTESIAN_POINT('',(11.995761011,36.81163302,242.183375373));
#710=DIRECTION('',(-0.,0.,-1.));
#711=DIRECTION('',(-1.,0.,0.));
#712=AXIS2_PLACEMENT_3D('',#709,#710,#711);
#713=CYLINDRICAL_SURFACE('',#712,3.2);
#714=ORIENTED_EDGE('',*,*,#399,.T.);
#715=CARTESIAN_POINT('',(11.995761011,40.01163302,48.570015182));
#716=VERTEX_POINT('',#715);
#717=CARTESIAN_POINT('',(11.995761011,40.01163302,48.570015182));
#718=DIRECTION('',(-0.,-0.,-1.));
#719=VECTOR('',#718,7.84093874);
#720=LINE('',#717,#719);
#721=EDGE_CURVE('',#716,#385,#720,.T.);
#722=ORIENTED_EDGE('',*,*,#721,.F.);
#723=CARTESIAN_POINT('',(11.995761011,36.81163302,48.570015182));
#724=DIRECTION('',(0.,-0.,-1.));
#725=DIRECTION('',(1.,0.,0.));
#726=AXIS2_PLACEMENT_3D('',#723,#724,#725);
#727=CIRCLE('',#726,3.2);
#728=EDGE_CURVE('',#692,#716,#727,.T.);
#729=ORIENTED_EDGE('',*,*,#728,.F.);
#730=ORIENTED_EDGE('',*,*,#697,.T.);
#731=EDGE_LOOP('',(#714,#722,#729,#730));
#732=FACE_BOUND('',#731,.T.);
#733=ADVANCED_FACE('',(#732),#713,.F.);
#734=CARTESIAN_POINT('',(9.05452272,40.01163302,242.183375373));
#735=DIRECTION('',(0.,1.,0.));
#736=DIRECTION('',(0.,0.,1.));
#737=AXIS2_PLACEMENT_3D('',#734,#735,#736);
#738=PLANE('',#737);
#739=ORIENTED_EDGE('',*,*,#721,.T.);
#740=ORIENTED_EDGE('',*,*,#390,.F.);
#741=CARTESIAN_POINT('',(31.056882936,40.011632585,46.748006808));
#742=VERTEX_POINT('',#741);
#743=CARTESIAN_POINT('',(31.059243152,40.01163302,40.729076441));
#744=DIRECTION('',(0.,-0.,1.));
#745=VECTOR('',#744,6.018930367);
#746=LINE('',#743,#745);
#747=EDGE_CURVE('',#376,#742,#746,.T.);
#748=ORIENTED_EDGE('',*,*,#747,.T.);
#749=CARTESIAN_POINT('',(31.05452272,40.01163302,48.570015182));
#750=VERTEX_POINT('',#749);
#751=CARTESIAN_POINT('',(31.05452272,40.01163302,48.570015182));
#752=DIRECTION('',(-0.,0.,-1.));
#753=VECTOR('',#752,1.822008373);
#754=LINE('',#751,#753);
#755=EDGE_CURVE('',#750,#742,#754,.T.);
#756=ORIENTED_EDGE('',*,*,#755,.F.);
#757=CARTESIAN_POINT('',(11.995761011,40.01163302,48.570015182));
#758=DIRECTION('',(1.,0.,0.));
#759=VECTOR('',#758,19.058761709);
#760=LINE('',#757,#759);
#761=EDGE_CURVE('',#716,#750,#760,.T.);
#762=ORIENTED_EDGE('',*,*,#761,.F.);
#763=EDGE_LOOP('',(#739,#740,#748,#756,#762));
#764=FACE_BOUND('',#763,.T.);
#765=ADVANCED_FACE('',(#764),#738,.F.);
#766=CARTESIAN_POINT('',(31.05452272,36.81163302,242.183375373));
#767=DIRECTION('',(-0.,0.,-1.));
#768=DIRECTION('',(-1.,0.,0.));
#769=AXIS2_PLACEMENT_3D('',#766,#767,#768);
#770=CYLINDRICAL_SURFACE('',#769,3.2);
#771=CARTESIAN_POINT('',(31.056882936,40.01163215,48.570015182));
#772=VERTEX_POINT('',#771);
#773=CARTESIAN_POINT('',(31.056882936,40.01163215,48.570015182));
#774=DIRECTION('',(-0.,0.,-1.));
#775=VECTOR('',#774,1.822008373);
#776=LINE('',#773,#775);
#777=EDGE_CURVE('',#772,#742,#776,.T.);
#778=ORIENTED_EDGE('',*,*,#777,.F.);
#779=CARTESIAN_POINT('',(31.05452272,36.81163302,48.570015182));
#780=DIRECTION('',(0.,-0.,-1.));
#781=DIRECTION('',(1.,0.,0.));
#782=AXIS2_PLACEMENT_3D('',#779,#780,#781);
#783=CIRCLE('',#782,3.2);
#784=EDGE_CURVE('',#750,#772,#783,.T.);
#785=ORIENTED_EDGE('',*,*,#784,.F.);
#786=ORIENTED_EDGE('',*,*,#755,.T.);
#787=EDGE_LOOP('',(#778,#785,#786));
#788=FACE_BOUND('',#787,.T.);
#789=ADVANCED_FACE('',(#788),#770,.F.);
#790=CARTESIAN_POINT('',(31.059243152,36.81163302,39.429077414));
#791=DIRECTION('',(0.,-0.,1.));
#792=DIRECTION('',(-0.,-1.,-0.));
#793=AXIS2_PLACEMENT_3D('',#790,#791,#792);
#794=CYLINDRICAL_SURFACE('',#793,3.2);
#795=CARTESIAN_POINT('',(31.059243152,40.01163302,48.570015182));
#796=VERTEX_POINT('',#795);
#797=CARTESIAN_POINT('',(31.059243152,40.01163302,46.748006808));
#798=DIRECTION('',(0.,-0.,1.));
#799=VECTOR('',#798,1.822008373);
#800=LINE('',#797,#799);
#801=EDGE_CURVE('',#742,#796,#800,.T.);
#802=ORIENTED_EDGE('',*,*,#801,.T.);
#803=CARTESIAN_POINT('',(31.059243152,36.81163302,48.570015182));
#804=DIRECTION('',(-0.,0.,1.));
#805=DIRECTION('',(1.,0.,0.));
#806=AXIS2_PLACEMENT_3D('',#803,#804,#805);
#807=CIRCLE('',#806,3.2);
#808=EDGE_CURVE('',#796,#772,#807,.T.);
#809=ORIENTED_EDGE('',*,*,#808,.T.);
#810=ORIENTED_EDGE('',*,*,#777,.T.);
#811=EDGE_LOOP('',(#802,#809,#810));
#812=FACE_BOUND('',#811,.T.);
#813=ADVANCED_FACE('',(#812),#794,.F.);
#814=CARTESIAN_POINT('',(31.059243152,36.81163302,39.429077414));
#815=DIRECTION('',(0.,-0.,1.));
#816=DIRECTION('',(-0.,-1.,-0.));
#817=AXIS2_PLACEMENT_3D('',#814,#815,#816);
#818=CYLINDRICAL_SURFACE('',#817,3.2);
#819=ORIENTED_EDGE('',*,*,#747,.F.);
#820=ORIENTED_EDGE('',*,*,#382,.F.);
#821=ORIENTED_EDGE('',*,*,#542,.T.);
#822=CARTESIAN_POINT('',(31.059243152,36.81163302,48.570015182));
#823=DIRECTION('',(-0.,0.,1.));
#824=DIRECTION('',(1.,0.,0.));
#825=AXIS2_PLACEMENT_3D('',#822,#823,#824);
#826=CIRCLE('',#825,3.2);
#827=EDGE_CURVE('',#531,#796,#826,.T.);
#828=ORIENTED_EDGE('',*,*,#827,.T.);
#829=ORIENTED_EDGE('',*,*,#801,.F.);
#830=EDGE_LOOP('',(#819,#820,#821,#828,#829));
#831=FACE_BOUND('',#830,.T.);
#832=ADVANCED_FACE('',(#831),#818,.F.);
#833=CARTESIAN_POINT('',(-37.931178492,41.69163302,39.429077414));
#834=DIRECTION('',(-0.,-1.,-0.));
#835=DIRECTION('',(-0.,0.,-1.));
#836=AXIS2_PLACEMENT_3D('',#833,#834,#835);
#837=PLANE('',#836);
#838=CARTESIAN_POINT('',(31.027471197,41.69163302,46.748006808));
#839=VERTEX_POINT('',#838);
#840=CARTESIAN_POINT('',(12.027471197,41.69163302,46.748006808));
#841=VERTEX_POINT('',#840);
#842=CARTESIAN_POINT('',(31.027471197,41.69163302,46.748006808));
#843=DIRECTION('',(-1.,0.,0.));
#844=VECTOR('',#843,19.);
#845=LINE('',#842,#844);
#846=EDGE_CURVE('',#839,#841,#845,.T.);
#847=ORIENTED_EDGE('',*,*,#846,.F.);
#848=CARTESIAN_POINT('',(31.027471197,41.69163302,38.729076441));
#849=DIRECTION('',(0.,-0.,1.));
#850=VECTOR('',#849,8.018930367);
#851=LINE('',#848,#850);
#852=EDGE_CURVE('',#208,#839,#851,.T.);
#853=ORIENTED_EDGE('',*,*,#852,.F.);
#854=ORIENTED_EDGE('',*,*,#215,.T.);
#855=CARTESIAN_POINT('',(12.027471197,41.69163302,38.729076441));
#856=DIRECTION('',(0.,-0.,1.));
#857=VECTOR('',#856,8.018930367);
#858=LINE('',#855,#857);
#859=EDGE_CURVE('',#210,#841,#858,.T.);
#860=ORIENTED_EDGE('',*,*,#859,.T.);
#861=EDGE_LOOP('',(#847,#853,#854,#860));
#862=FACE_BOUND('',#861,.T.);
#863=ADVANCED_FACE('',(#862),#837,.F.);
#864=CARTESIAN_POINT('',(12.027471197,36.81163302,39.429077414));
#865=DIRECTION('',(0.,-0.,1.));
#866=DIRECTION('',(-0.,-1.,-0.));
#867=AXIS2_PLACEMENT_3D('',#864,#865,#866);
#868=CYLINDRICAL_SURFACE('',#867,4.88);
#869=CARTESIAN_POINT('',(7.147471197,36.81163302,46.748006808));
#870=VERTEX_POINT('',#869);
#871=CARTESIAN_POINT('',(12.027471197,36.81163302,46.748006808));
#872=DIRECTION('',(0.,-0.,1.));
#873=DIRECTION('',(0.,1.,0.));
#874=AXIS2_PLACEMENT_3D('',#871,#872,#873);
#875=CIRCLE('',#874,4.88);
#876=EDGE_CURVE('',#841,#870,#875,.T.);
#877=ORIENTED_EDGE('',*,*,#876,.F.);
#878=ORIENTED_EDGE('',*,*,#859,.F.);
#879=ORIENTED_EDGE('',*,*,#273,.T.);
#880=CARTESIAN_POINT('',(7.147471197,36.81163302,38.729076441));
#881=DIRECTION('',(0.,-0.,1.));
#882=VECTOR('',#881,8.018930367);
#883=LINE('',#880,#882);
#884=EDGE_CURVE('',#261,#870,#883,.T.);
#885=ORIENTED_EDGE('',*,*,#884,.T.);
#886=EDGE_LOOP('',(#877,#878,#879,#885));
#887=FACE_BOUND('',#886,.T.);
#888=ADVANCED_FACE('',(#887),#868,.T.);
#889=CARTESIAN_POINT('',(7.147471197,43.34248006,39.429077414));
#890=DIRECTION('',(1.,0.,-0.));
#891=DIRECTION('',(0.,0.,1.));
#892=AXIS2_PLACEMENT_3D('',#889,#890,#891);
#893=PLANE('',#892);
#894=CARTESIAN_POINT('',(7.147471197,17.81163302,46.748006808));
#895=VERTEX_POINT('',#894);
#896=CARTESIAN_POINT('',(7.147471197,36.81163302,46.748006808));
#897=DIRECTION('',(-0.,-1.,-0.));
#898=VECTOR('',#897,19.);
#899=LINE('',#896,#898);
#900=EDGE_CURVE('',#870,#895,#899,.T.);
#901=ORIENTED_EDGE('',*,*,#900,.F.);
#902=ORIENTED_EDGE('',*,*,#884,.F.);
#903=ORIENTED_EDGE('',*,*,#266,.T.);
#904=CARTESIAN_POINT('',(7.147471197,17.81163302,38.729076441));
#905=DIRECTION('',(0.,-0.,1.));
#906=VECTOR('',#905,8.018930367);
#907=LINE('',#904,#906);
#908=EDGE_CURVE('',#252,#895,#907,.T.);
#909=ORIENTED_EDGE('',*,*,#908,.T.);
#910=EDGE_LOOP('',(#901,#902,#903,#909));
#911=FACE_BOUND('',#910,.T.);
#912=ADVANCED_FACE('',(#911),#893,.F.);
#913=CARTESIAN_POINT('',(12.027471197,17.81163302,39.429077414));
#914=DIRECTION('',(0.,-0.,1.));
#915=DIRECTION('',(-0.,-1.,-0.));
#916=AXIS2_PLACEMENT_3D('',#913,#914,#915);
#917=CYLINDRICAL_SURFACE('',#916,4.88);
#918=CARTESIAN_POINT('',(12.027471197,12.93163302,46.748006808));
#919=VERTEX_POINT('',#918);
#920=CARTESIAN_POINT('',(12.027471197,17.81163302,46.748006808));
#921=DIRECTION('',(0.,-0.,1.));
#922=DIRECTION('',(0.,1.,0.));
#923=AXIS2_PLACEMENT_3D('',#920,#921,#922);
#924=CIRCLE('',#923,4.88);
#925=EDGE_CURVE('',#895,#919,#924,.T.);
#926=ORIENTED_EDGE('',*,*,#925,.F.);
#927=ORIENTED_EDGE('',*,*,#908,.F.);
#928=ORIENTED_EDGE('',*,*,#258,.T.);
#929=CARTESIAN_POINT('',(12.027471197,12.93163302,38.729076441));
#930=DIRECTION('',(0.,-0.,1.));
#931=VECTOR('',#930,8.018930367);
#932=LINE('',#929,#931);
#933=EDGE_CURVE('',#244,#919,#932,.T.);
#934=ORIENTED_EDGE('',*,*,#933,.T.);
#935=EDGE_LOOP('',(#926,#927,#928,#934));
#936=FACE_BOUND('',#935,.T.);
#937=ADVANCED_FACE('',(#936),#917,.T.);
#938=CARTESIAN_POINT('',(-37.931178492,12.93163302,39.429077414));
#939=DIRECTION('',(0.,1.,0.));
#940=DIRECTION('',(0.,-0.,1.));
#941=AXIS2_PLACEMENT_3D('',#938,#939,#940);
#942=PLANE('',#941);
#943=CARTESIAN_POINT('',(31.027471197,12.93163302,46.748006808));
#944=VERTEX_POINT('',#943);
#945=CARTESIAN_POINT('',(12.027471197,12.93163302,46.748006808));
#946=DIRECTION('',(1.,0.,-0.));
#947=VECTOR('',#946,19.);
#948=LINE('',#945,#947);
#949=EDGE_CURVE('',#919,#944,#948,.T.);
#950=ORIENTED_EDGE('',*,*,#949,.F.);
#951=ORIENTED_EDGE('',*,*,#933,.F.);
#952=ORIENTED_EDGE('',*,*,#249,.T.);
#953=CARTESIAN_POINT('',(31.027471197,12.93163302,38.729076441));
#954=DIRECTION('',(0.,-0.,1.));
#955=VECTOR('',#954,8.018930367);
#956=LINE('',#953,#955);
#957=EDGE_CURVE('',#235,#944,#956,.T.);
#958=ORIENTED_EDGE('',*,*,#957,.T.);
#959=EDGE_LOOP('',(#950,#951,#952,#958));
#960=FACE_BOUND('',#959,.T.);
#961=ADVANCED_FACE('',(#960),#942,.F.);
#962=CARTESIAN_POINT('',(31.027471197,17.81163302,39.429077414));
#963=DIRECTION('',(0.,-0.,1.));
#964=DIRECTION('',(-0.,-1.,-0.));
#965=AXIS2_PLACEMENT_3D('',#962,#963,#964);
#966=CYLINDRICAL_SURFACE('',#965,4.88);
#967=CARTESIAN_POINT('',(35.907471197,17.81163302,46.748006808));
#968=VERTEX_POINT('',#967);
#969=CARTESIAN_POINT('',(31.027471197,17.81163302,46.748006808));
#970=DIRECTION('',(0.,-0.,1.));
#971=DIRECTION('',(0.,1.,0.));
#972=AXIS2_PLACEMENT_3D('',#969,#970,#971);
#973=CIRCLE('',#972,4.88);
#974=EDGE_CURVE('',#944,#968,#973,.T.);
#975=ORIENTED_EDGE('',*,*,#974,.F.);
#976=ORIENTED_EDGE('',*,*,#957,.F.);
#977=ORIENTED_EDGE('',*,*,#241,.T.);
#978=CARTESIAN_POINT('',(35.907471197,17.81163302,38.729076441));
#979=DIRECTION('',(0.,-0.,1.));
#980=VECTOR('',#979,8.018930367);
#981=LINE('',#978,#980);
#982=EDGE_CURVE('',#227,#968,#981,.T.);
#983=ORIENTED_EDGE('',*,*,#982,.T.);
#984=EDGE_LOOP('',(#975,#976,#977,#983));
#985=FACE_BOUND('',#984,.T.);
#986=ADVANCED_FACE('',(#985),#966,.T.);
#987=CARTESIAN_POINT('',(35.907471197,43.34248006,39.429077414));
#988=DIRECTION('',(-1.,0.,0.));
#989=DIRECTION('',(-0.,0.,-1.));
#990=AXIS2_PLACEMENT_3D('',#987,#988,#989);
#991=PLANE('',#990);
#992=CARTESIAN_POINT('',(35.907471197,36.81163302,46.748006808));
#993=VERTEX_POINT('',#992);
#994=CARTESIAN_POINT('',(35.907471197,17.81163302,46.748006808));
#995=DIRECTION('',(0.,1.,0.));
#996=VECTOR('',#995,19.);
#997=LINE('',#994,#996);
#998=EDGE_CURVE('',#968,#993,#997,.T.);
#999=ORIENTED_EDGE('',*,*,#998,.F.);
#1000=ORIENTED_EDGE('',*,*,#982,.F.);
#1001=ORIENTED_EDGE('',*,*,#232,.T.);
#1002=CARTESIAN_POINT('',(35.907471197,36.81163302,38.729076441));
#1003=DIRECTION('',(0.,-0.,1.));
#1004=VECTOR('',#1003,8.018930367);
#1005=LINE('',#1002,#1004);
#1006=EDGE_CURVE('',#218,#993,#1005,.T.);
#1007=ORIENTED_EDGE('',*,*,#1006,.T.);
#1008=EDGE_LOOP('',(#999,#1000,#1001,#1007));
#1009=FACE_BOUND('',#1008,.T.);
#1010=ADVANCED_FACE('',(#1009),#991,.F.);
#1011=CARTESIAN_POINT('',(31.027471197,36.81163302,39.429077414));
#1012=DIRECTION('',(0.,-0.,1.));
#1013=DIRECTION('',(-0.,-1.,-0.));
#1014=AXIS2_PLACEMENT_3D('',#1011,#1012,#1013);
#1015=CYLINDRICAL_SURFACE('',#1014,4.88);
#1016=CARTESIAN_POINT('',(31.027471197,36.81163302,46.748006808));
#1017=DIRECTION('',(0.,-0.,1.));
#1018=DIRECTION('',(0.,1.,0.));
#1019=AXIS2_PLACEMENT_3D('',#1016,#1017,#1018);
#1020=CIRCLE('',#1019,4.88);
#1021=EDGE_CURVE('',#993,#839,#1020,.T.);
#1022=ORIENTED_EDGE('',*,*,#1021,.F.);
#1023=ORIENTED_EDGE('',*,*,#1006,.F.);
#1024=ORIENTED_EDGE('',*,*,#224,.T.);
#1025=ORIENTED_EDGE('',*,*,#852,.T.);
#1026=EDGE_LOOP('',(#1022,#1023,#1024,#1025));
#1027=FACE_BOUND('',#1026,.T.);
#1028=ADVANCED_FACE('',(#1027),#1015,.T.);
#1029=CARTESIAN_POINT('',(33.931178492,41.445871089,233.335599074));
#1030=DIRECTION('',(-0.,0.,-1.));
#1031=DIRECTION('',(0.,1.,0.));
#1032=AXIS2_PLACEMENT_3D('',#1029,#1030,#1031);
#1033=CYLINDRICAL_SURFACE('',#1032,2.);
#1034=CARTESIAN_POINT('',(33.931178492,43.445871089,46.748006808));
#1035=VERTEX_POINT('',#1034);
#1036=CARTESIAN_POINT('',(35.931178492,41.445871089,46.748006808));
#1037=VERTEX_POINT('',#1036);
#1038=CARTESIAN_POINT('',(33.931178492,41.445871089,46.748006808));
#1039=DIRECTION('',(-0.,0.,-1.));
#1040=DIRECTION('',(0.,1.,0.));
#1041=AXIS2_PLACEMENT_3D('',#1038,#1039,#1040);
#1042=CIRCLE('',#1041,2.);
#1043=EDGE_CURVE('',#1035,#1037,#1042,.T.);
#1044=ORIENTED_EDGE('',*,*,#1043,.F.);
#1045=CARTESIAN_POINT('',(33.931178492,43.445871089,48.570015182));
#1046=VERTEX_POINT('',#1045);
#1047=CARTESIAN_POINT('',(33.931178492,43.445871089,48.570015182));
#1048=DIRECTION('',(-0.,0.,-1.));
#1049=VECTOR('',#1048,1.822008373);
#1050=LINE('',#1047,#1049);
#1051=EDGE_CURVE('',#1046,#1035,#1050,.T.);
#1052=ORIENTED_EDGE('',*,*,#1051,.F.);
#1053=CARTESIAN_POINT('',(35.931178492,41.445871089,48.570015182));
#1054=VERTEX_POINT('',#1053);
#1055=CARTESIAN_POINT('',(33.931178492,41.445871089,48.570015182));
#1056=DIRECTION('',(0.,-0.,-1.));
#1057=DIRECTION('',(1.,0.,0.));
#1058=AXIS2_PLACEMENT_3D('',#1055,#1056,#1057);
#1059=CIRCLE('',#1058,2.);
#1060=EDGE_CURVE('',#1046,#1054,#1059,.T.);
#1061=ORIENTED_EDGE('',*,*,#1060,.T.);
#1062=CARTESIAN_POINT('',(35.931178492,41.445871089,48.570015182));
#1063=DIRECTION('',(-0.,0.,-1.));
#1064=VECTOR('',#1063,1.822008373);
#1065=LINE('',#1062,#1064);
#1066=EDGE_CURVE('',#1054,#1037,#1065,.T.);
#1067=ORIENTED_EDGE('',*,*,#1066,.T.);
#1068=EDGE_LOOP('',(#1044,#1052,#1061,#1067));
#1069=FACE_BOUND('',#1068,.T.);
#1070=ADVANCED_FACE('',(#1069),#1033,.T.);
#1071=CARTESIAN_POINT('',(35.931178492,43.34248006,233.335599074));
#1072=DIRECTION('',(1.,0.,-0.));
#1073=DIRECTION('',(-0.,1.,0.));
#1074=AXIS2_PLACEMENT_3D('',#1071,#1072,#1073);
#1075=PLANE('',#1074);
#1076=CARTESIAN_POINT('',(35.931178492,4.950114529,46.748006808));
#1077=VERTEX_POINT('',#1076);
#1078=CARTESIAN_POINT('',(35.931178492,41.445871089,46.748006808));
#1079=DIRECTION('',(0.,-1.,-0.));
#1080=VECTOR('',#1079,36.49575656);
#1081=LINE('',#1078,#1080);
#1082=EDGE_CURVE('',#1037,#1077,#1081,.T.);
#1083=ORIENTED_EDGE('',*,*,#1082,.F.);
#1084=ORIENTED_EDGE('',*,*,#1066,.F.);
#1085=CARTESIAN_POINT('',(35.931178492,4.950114529,48.570015182));
#1086=VERTEX_POINT('',#1085);
#1087=CARTESIAN_POINT('',(35.931178492,41.445871089,48.570015182));
#1088=DIRECTION('',(0.,-1.,0.));
#1089=VECTOR('',#1088,36.49575656);
#1090=LINE('',#1087,#1089);
#1091=EDGE_CURVE('',#1054,#1086,#1090,.T.);
#1092=ORIENTED_EDGE('',*,*,#1091,.T.);
#1093=CARTESIAN_POINT('',(35.931178492,4.950114529,48.570015182));
#1094=DIRECTION('',(-0.,0.,-1.));
#1095=VECTOR('',#1094,1.822008373);
#1096=LINE('',#1093,#1095);
#1097=EDGE_CURVE('',#1086,#1077,#1096,.T.);
#1098=ORIENTED_EDGE('',*,*,#1097,.T.);
#1099=EDGE_LOOP('',(#1083,#1084,#1092,#1098));
#1100=FACE_BOUND('',#1099,.T.);
#1101=ADVANCED_FACE('',(#1100),#1075,.T.);
#1102=CARTESIAN_POINT('',(33.931178492,4.950114529,233.335599074));
#1103=DIRECTION('',(-0.,0.,-1.));
#1104=DIRECTION('',(0.,1.,0.));
#1105=AXIS2_PLACEMENT_3D('',#1102,#1103,#1104);
#1106=CYLINDRICAL_SURFACE('',#1105,2.);
#1107=CARTESIAN_POINT('',(33.931178492,2.950114529,46.748006808));
#1108=VERTEX_POINT('',#1107);
#1109=CARTESIAN_POINT('',(33.931178492,4.950114529,46.748006808));
#1110=DIRECTION('',(-0.,0.,-1.));
#1111=DIRECTION('',(0.,1.,0.));
#1112=AXIS2_PLACEMENT_3D('',#1109,#1110,#1111);
#1113=CIRCLE('',#1112,2.);
#1114=EDGE_CURVE('',#1077,#1108,#1113,.T.);
#1115=ORIENTED_EDGE('',*,*,#1114,.F.);
#1116=ORIENTED_EDGE('',*,*,#1097,.F.);
#1117=CARTESIAN_POINT('',(33.931178492,2.950114529,48.570015182));
#1118=VERTEX_POINT('',#1117);
#1119=CARTESIAN_POINT('',(33.931178492,4.950114529,48.570015182));
#1120=DIRECTION('',(0.,-0.,-1.));
#1121=DIRECTION('',(1.,0.,0.));
#1122=AXIS2_PLACEMENT_3D('',#1119,#1120,#1121);
#1123=CIRCLE('',#1122,2.);
#1124=EDGE_CURVE('',#1086,#1118,#1123,.T.);
#1125=ORIENTED_EDGE('',*,*,#1124,.T.);
#1126=CARTESIAN_POINT('',(33.931178492,2.950114529,48.570015182));
#1127=DIRECTION('',(-0.,0.,-1.));
#1128=VECTOR('',#1127,1.822008373);
#1129=LINE('',#1126,#1128);
#1130=EDGE_CURVE('',#1118,#1108,#1129,.T.);
#1131=ORIENTED_EDGE('',*,*,#1130,.T.);
#1132=EDGE_LOOP('',(#1115,#1116,#1125,#1131));
#1133=FACE_BOUND('',#1132,.T.);
#1134=ADVANCED_FACE('',(#1133),#1106,.T.);
#1135=CARTESIAN_POINT('',(37.931178492,43.34248006,46.748006808));
#1136=DIRECTION('',(0.,0.,-1.));
#1137=DIRECTION('',(-1.,0.,0.));
#1138=AXIS2_PLACEMENT_3D('',#1135,#1136,#1137);
#1139=PLANE('',#1138);
#1140=CARTESIAN_POINT('',(-33.931178492,2.950114529,46.748006808));
#1141=VERTEX_POINT('',#1140);
#1142=CARTESIAN_POINT('',(33.931178492,2.950114529,46.748006808));
#1143=DIRECTION('',(-1.,0.,0.));
#1144=VECTOR('',#1143,67.862356984);
#1145=LINE('',#1142,#1144);
#1146=EDGE_CURVE('',#1108,#1141,#1145,.T.);
#1147=ORIENTED_EDGE('',*,*,#1146,.T.);
#1148=CARTESIAN_POINT('',(-35.931178492,4.950114529,46.748006808));
#1149=VERTEX_POINT('',#1148);
#1150=CARTESIAN_POINT('',(-33.931178492,4.950114529,46.748006808));
#1151=DIRECTION('',(-0.,-0.,1.));
#1152=DIRECTION('',(-0.,1.,0.));
#1153=AXIS2_PLACEMENT_3D('',#1150,#1151,#1152);
#1154=CIRCLE('',#1153,2.);
#1155=EDGE_CURVE('',#1149,#1141,#1154,.T.);
#1156=ORIENTED_EDGE('',*,*,#1155,.F.);
#1157=CARTESIAN_POINT('',(-35.931178492,41.445871089,46.748006808));
#1158=VERTEX_POINT('',#1157);
#1159=CARTESIAN_POINT('',(-35.931178492,41.445871089,46.748006808));
#1160=DIRECTION('',(-0.,-1.,-0.));
#1161=VECTOR('',#1160,36.49575656);
#1162=LINE('',#1159,#1161);
#1163=EDGE_CURVE('',#1158,#1149,#1162,.T.);
#1164=ORIENTED_EDGE('',*,*,#1163,.F.);
#1165=CARTESIAN_POINT('',(-33.931178492,43.445871089,46.748006808));
#1166=VERTEX_POINT('',#1165);
#1167=CARTESIAN_POINT('',(-33.931178492,41.445871089,46.748006808));
#1168=DIRECTION('',(-0.,-0.,1.));
#1169=DIRECTION('',(-0.,1.,0.));
#1170=AXIS2_PLACEMENT_3D('',#1167,#1168,#1169);
#1171=CIRCLE('',#1170,2.);
#1172=EDGE_CURVE('',#1166,#1158,#1171,.T.);
#1173=ORIENTED_EDGE('',*,*,#1172,.F.);
#1174=CARTESIAN_POINT('',(-33.931178492,43.445871089,46.748006808));
#1175=DIRECTION('',(1.,-0.,0.));
#1176=VECTOR('',#1175,67.862356984);
#1177=LINE('',#1174,#1176);
#1178=EDGE_CURVE('',#1166,#1035,#1177,.T.);
#1179=ORIENTED_EDGE('',*,*,#1178,.T.);
#1180=ORIENTED_EDGE('',*,*,#1043,.T.);
#1181=ORIENTED_EDGE('',*,*,#1082,.T.);
#1182=ORIENTED_EDGE('',*,*,#1114,.T.);
#1183=EDGE_LOOP('',(#1147,#1156,#1164,#1173,#1179,#1180,#1181,#1182));
#1184=FACE_BOUND('',#1183,.T.);
#1185=ORIENTED_EDGE('',*,*,#1021,.T.);
#1186=ORIENTED_EDGE('',*,*,#846,.T.);
#1187=ORIENTED_EDGE('',*,*,#876,.T.);
#1188=ORIENTED_EDGE('',*,*,#900,.T.);
#1189=ORIENTED_EDGE('',*,*,#925,.T.);
#1190=ORIENTED_EDGE('',*,*,#949,.T.);
#1191=ORIENTED_EDGE('',*,*,#974,.T.);
#1192=ORIENTED_EDGE('',*,*,#998,.T.);
#1193=EDGE_LOOP('',(#1185,#1186,#1187,#1188,#1189,#1190,#1191,#1192));
#1194=FACE_BOUND('',#1193,.T.);
#1195=CARTESIAN_POINT('',(-35.907471197,36.81163302,46.748006808));
#1196=VERTEX_POINT('',#1195);
#1197=CARTESIAN_POINT('',(-31.027471197,41.69163302,46.748006808));
#1198=VERTEX_POINT('',#1197);
#1199=CARTESIAN_POINT('',(-31.027471197,36.81163302,46.748006808));
#1200=DIRECTION('',(0.,0.,-1.));
#1201=DIRECTION('',(-0.,1.,0.));
#1202=AXIS2_PLACEMENT_3D('',#1199,#1200,#1201);
#1203=CIRCLE('',#1202,4.88);
#1204=EDGE_CURVE('',#1196,#1198,#1203,.T.);
#1205=ORIENTED_EDGE('',*,*,#1204,.F.);
#1206=CARTESIAN_POINT('',(-35.907471197,17.81163302,46.748006808));
#1207=VERTEX_POINT('',#1206);
#1208=CARTESIAN_POINT('',(-35.907471197,17.81163302,46.748006808));
#1209=DIRECTION('',(-0.,1.,0.));
#1210=VECTOR('',#1209,19.);
#1211=LINE('',#1208,#1210);
#1212=EDGE_CURVE('',#1207,#1196,#1211,.T.);
#1213=ORIENTED_EDGE('',*,*,#1212,.F.);
#1214=CARTESIAN_POINT('',(-31.027471197,12.93163302,46.748006808));
#1215=VERTEX_POINT('',#1214);
#1216=CARTESIAN_POINT('',(-31.027471197,17.81163302,46.748006808));
#1217=DIRECTION('',(0.,0.,-1.));
#1218=DIRECTION('',(-0.,1.,0.));
#1219=AXIS2_PLACEMENT_3D('',#1216,#1217,#1218);
#1220=CIRCLE('',#1219,4.88);
#1221=EDGE_CURVE('',#1215,#1207,#1220,.T.);
#1222=ORIENTED_EDGE('',*,*,#1221,.F.);
#1223=CARTESIAN_POINT('',(-12.027471197,12.93163302,46.748006808));
#1224=VERTEX_POINT('',#1223);
#1225=CARTESIAN_POINT('',(-12.027471197,12.93163302,46.748006808));
#1226=DIRECTION('',(-1.,0.,-0.));
#1227=VECTOR('',#1226,19.);
#1228=LINE('',#1225,#1227);
#1229=EDGE_CURVE('',#1224,#1215,#1228,.T.);
#1230=ORIENTED_EDGE('',*,*,#1229,.F.);
#1231=CARTESIAN_POINT('',(-7.147471197,17.81163302,46.748006808));
#1232=VERTEX_POINT('',#1231);
#1233=CARTESIAN_POINT('',(-12.027471197,17.81163302,46.748006808));
#1234=DIRECTION('',(0.,0.,-1.));
#1235=DIRECTION('',(-0.,1.,0.));
#1236=AXIS2_PLACEMENT_3D('',#1233,#1234,#1235);
#1237=CIRCLE('',#1236,4.88);
#1238=EDGE_CURVE('',#1232,#1224,#1237,.T.);
#1239=ORIENTED_EDGE('',*,*,#1238,.F.);
#1240=CARTESIAN_POINT('',(-7.147471197,36.81163302,46.748006808));
#1241=VERTEX_POINT('',#1240);
#1242=CARTESIAN_POINT('',(-7.147471197,36.81163302,46.748006808));
#1243=DIRECTION('',(0.,-1.,-0.));
#1244=VECTOR('',#1243,19.);
#1245=LINE('',#1242,#1244);
#1246=EDGE_CURVE('',#1241,#1232,#1245,.T.);
#1247=ORIENTED_EDGE('',*,*,#1246,.F.);
#1248=CARTESIAN_POINT('',(-12.027471197,41.69163302,46.748006808));
#1249=VERTEX_POINT('',#1248);
#1250=CARTESIAN_POINT('',(-12.027471197,36.81163302,46.748006808));
#1251=DIRECTION('',(0.,0.,-1.));
#1252=DIRECTION('',(-0.,1.,0.));
#1253=AXIS2_PLACEMENT_3D('',#1250,#1251,#1252);
#1254=CIRCLE('',#1253,4.88);
#1255=EDGE_CURVE('',#1249,#1241,#1254,.T.);
#1256=ORIENTED_EDGE('',*,*,#1255,.F.);
#1257=CARTESIAN_POINT('',(-31.027471197,41.69163302,46.748006808));
#1258=DIRECTION('',(1.,0.,0.));
#1259=VECTOR('',#1258,19.);
#1260=LINE('',#1257,#1259);
#1261=EDGE_CURVE('',#1198,#1249,#1260,.T.);
#1262=ORIENTED_EDGE('',*,*,#1261,.F.);
#1263=EDGE_LOOP('',(#1205,#1213,#1222,#1230,#1239,#1247,#1256,#1262));
#1264=FACE_BOUND('',#1263,.T.);
#1265=ADVANCED_FACE('',(#1184,#1194,#1264),#1139,.T.);
#1266=CARTESIAN_POINT('',(37.931178492,43.445871089,233.335599074));
#1267=DIRECTION('',(0.,1.,0.));
#1268=DIRECTION('',(0.,-0.,1.));
#1269=AXIS2_PLACEMENT_3D('',#1266,#1267,#1268);
#1270=PLANE('',#1269);
#1271=ORIENTED_EDGE('',*,*,#1178,.F.);
#1272=CARTESIAN_POINT('',(-33.931178492,43.445871089,48.570015182));
#1273=VERTEX_POINT('',#1272);
#1274=CARTESIAN_POINT('',(-33.931178492,43.445871089,48.570015182));
#1275=DIRECTION('',(0.,0.,-1.));
#1276=VECTOR('',#1275,1.822008373);
#1277=LINE('',#1274,#1276);
#1278=EDGE_CURVE('',#1273,#1166,#1277,.T.);
#1279=ORIENTED_EDGE('',*,*,#1278,.F.);
#1280=CARTESIAN_POINT('',(-33.931178492,43.445871089,48.570015182));
#1281=DIRECTION('',(1.,-0.,0.));
#1282=VECTOR('',#1281,67.862356984);
#1283=LINE('',#1280,#1282);
#1284=EDGE_CURVE('',#1273,#1046,#1283,.T.);
#1285=ORIENTED_EDGE('',*,*,#1284,.T.);
#1286=ORIENTED_EDGE('',*,*,#1051,.T.);
#1287=EDGE_LOOP('',(#1271,#1279,#1285,#1286));
#1288=FACE_BOUND('',#1287,.T.);
#1289=ADVANCED_FACE('',(#1288),#1270,.T.);
#1290=CARTESIAN_POINT('',(37.931178492,2.950114529,233.335599074));
#1291=DIRECTION('',(-0.,-1.,-0.));
#1292=DIRECTION('',(0.,0.,-1.));
#1293=AXIS2_PLACEMENT_3D('',#1290,#1291,#1292);
#1294=PLANE('',#1293);
#1295=CARTESIAN_POINT('',(-33.931178492,2.950114529,48.570015182));
#1296=VERTEX_POINT('',#1295);
#1297=CARTESIAN_POINT('',(33.931178492,2.950114529,48.570015182));
#1298=DIRECTION('',(-1.,0.,-0.));
#1299=VECTOR('',#1298,67.862356984);
#1300=LINE('',#1297,#1299);
#1301=EDGE_CURVE('',#1118,#1296,#1300,.T.);
#1302=ORIENTED_EDGE('',*,*,#1301,.T.);
#1303=CARTESIAN_POINT('',(-33.931178492,2.950114529,48.570015182));
#1304=DIRECTION('',(0.,0.,-1.));
#1305=VECTOR('',#1304,1.822008373);
#1306=LINE('',#1303,#1305);
#1307=EDGE_CURVE('',#1296,#1141,#1306,.T.);
#1308=ORIENTED_EDGE('',*,*,#1307,.T.);
#1309=ORIENTED_EDGE('',*,*,#1146,.F.);
#1310=ORIENTED_EDGE('',*,*,#1130,.F.);
#1311=EDGE_LOOP('',(#1302,#1308,#1309,#1310));
#1312=FACE_BOUND('',#1311,.T.);
#1313=ADVANCED_FACE('',(#1312),#1294,.T.);
#1314=CARTESIAN_POINT('',(21.55452272,23.234834914,48.570015182));
#1315=DIRECTION('',(0.,-0.,-1.));
#1316=DIRECTION('',(-1.,0.,-0.));
#1317=AXIS2_PLACEMENT_3D('',#1314,#1315,#1316);
#1318=PLANE('',#1317);
#1319=ORIENTED_EDGE('',*,*,#1301,.F.);
#1320=ORIENTED_EDGE('',*,*,#1124,.F.);
#1321=ORIENTED_EDGE('',*,*,#1091,.F.);
#1322=ORIENTED_EDGE('',*,*,#1060,.F.);
#1323=ORIENTED_EDGE('',*,*,#1284,.F.);
#1324=CARTESIAN_POINT('',(-35.931178492,41.445871089,48.570015182));
#1325=VERTEX_POINT('',#1324);
#1326=CARTESIAN_POINT('',(-33.931178492,41.445871089,48.570015182));
#1327=DIRECTION('',(0.,0.,1.));
#1328=DIRECTION('',(-1.,0.,0.));
#1329=AXIS2_PLACEMENT_3D('',#1326,#1327,#1328);
#1330=CIRCLE('',#1329,2.);
#1331=EDGE_CURVE('',#1273,#1325,#1330,.T.);
#1332=ORIENTED_EDGE('',*,*,#1331,.T.);
#1333=CARTESIAN_POINT('',(-35.931178492,4.950114529,48.570015182));
#1334=VERTEX_POINT('',#1333);
#1335=CARTESIAN_POINT('',(-35.931178492,41.445871089,48.570015182));
#1336=DIRECTION('',(-0.,-1.,0.));
#1337=VECTOR('',#1336,36.49575656);
#1338=LINE('',#1335,#1337);
#1339=EDGE_CURVE('',#1325,#1334,#1338,.T.);
#1340=ORIENTED_EDGE('',*,*,#1339,.T.);
#1341=CARTESIAN_POINT('',(-33.931178492,4.950114529,48.570015182));
#1342=DIRECTION('',(0.,0.,1.));
#1343=DIRECTION('',(-1.,0.,0.));
#1344=AXIS2_PLACEMENT_3D('',#1341,#1342,#1343);
#1345=CIRCLE('',#1344,2.);
#1346=EDGE_CURVE('',#1334,#1296,#1345,.T.);
#1347=ORIENTED_EDGE('',*,*,#1346,.T.);
#1348=EDGE_LOOP('',(#1319,#1320,#1321,#1322,#1323,#1332,#1340,#1347));
#1349=FACE_BOUND('',#1348,.T.);
#1350=ORIENTED_EDGE('',*,*,#827,.F.);
#1351=ORIENTED_EDGE('',*,*,#536,.F.);
#1352=ORIENTED_EDGE('',*,*,#566,.F.);
#1353=ORIENTED_EDGE('',*,*,#606,.F.);
#1354=ORIENTED_EDGE('',*,*,#630,.T.);
#1355=ORIENTED_EDGE('',*,*,#655,.T.);
#1356=ORIENTED_EDGE('',*,*,#679,.T.);
#1357=ORIENTED_EDGE('',*,*,#703,.T.);
#1358=ORIENTED_EDGE('',*,*,#728,.T.);
#1359=ORIENTED_EDGE('',*,*,#761,.T.);
#1360=ORIENTED_EDGE('',*,*,#784,.T.);
#1361=ORIENTED_EDGE('',*,*,#808,.F.);
#1362=EDGE_LOOP('',(#1350,#1351,#1352,#1353,#1354,#1355,#1356,#1357,#1358,#1359,#1360,#1361));
#1363=FACE_BOUND('',#1362,.T.);
#1364=CARTESIAN_POINT('',(-34.259243152,36.81163302,48.570015182));
#1365=VERTEX_POINT('',#1364);
#1366=CARTESIAN_POINT('',(-31.059243152,40.01163302,48.570015182));
#1367=VERTEX_POINT('',#1366);
#1368=CARTESIAN_POINT('',(-31.059243152,36.81163302,48.570015182));
#1369=DIRECTION('',(-0.,-0.,-1.));
#1370=DIRECTION('',(-1.,0.,0.));
#1371=AXIS2_PLACEMENT_3D('',#1368,#1369,#1370);
#1372=CIRCLE('',#1371,3.2);
#1373=EDGE_CURVE('',#1365,#1367,#1372,.T.);
#1374=ORIENTED_EDGE('',*,*,#1373,.T.);
#1375=CARTESIAN_POINT('',(-31.056882936,40.01163215,48.570015182));
#1376=VERTEX_POINT('',#1375);
#1377=CARTESIAN_POINT('',(-31.059243152,36.81163302,48.570015182));
#1378=DIRECTION('',(-0.,-0.,-1.));
#1379=DIRECTION('',(-1.,0.,0.));
#1380=AXIS2_PLACEMENT_3D('',#1377,#1378,#1379);
#1381=CIRCLE('',#1380,3.2);
#1382=EDGE_CURVE('',#1367,#1376,#1381,.T.);
#1383=ORIENTED_EDGE('',*,*,#1382,.T.);
#1384=CARTESIAN_POINT('',(-31.05452272,40.01163302,48.570015182));
#1385=VERTEX_POINT('',#1384);
#1386=CARTESIAN_POINT('',(-31.05452272,36.81163302,48.570015182));
#1387=DIRECTION('',(0.,0.,1.));
#1388=DIRECTION('',(-1.,0.,0.));
#1389=AXIS2_PLACEMENT_3D('',#1386,#1387,#1388);
#1390=CIRCLE('',#1389,3.2);
#1391=EDGE_CURVE('',#1385,#1376,#1390,.T.);
#1392=ORIENTED_EDGE('',*,*,#1391,.F.);
#1393=CARTESIAN_POINT('',(-11.995761011,40.01163302,48.570015182));
#1394=VERTEX_POINT('',#1393);
#1395=CARTESIAN_POINT('',(-11.995761011,40.01163302,48.570015182));
#1396=DIRECTION('',(-1.,0.,0.));
#1397=VECTOR('',#1396,19.058761709);
#1398=LINE('',#1395,#1397);
#1399=EDGE_CURVE('',#1394,#1385,#1398,.T.);
#1400=ORIENTED_EDGE('',*,*,#1399,.F.);
#1401=CARTESIAN_POINT('',(-8.795761011,36.81163302,48.570015182));
#1402=VERTEX_POINT('',#1401);
#1403=CARTESIAN_POINT('',(-11.995761011,36.81163302,48.570015182));
#1404=DIRECTION('',(0.,0.,1.));
#1405=DIRECTION('',(-1.,0.,0.));
#1406=AXIS2_PLACEMENT_3D('',#1403,#1404,#1405);
#1407=CIRCLE('',#1406,3.2);
#1408=EDGE_CURVE('',#1402,#1394,#1407,.T.);
#1409=ORIENTED_EDGE('',*,*,#1408,.F.);
#1410=CARTESIAN_POINT('',(-8.795761011,17.81163302,48.570015182));
#1411=VERTEX_POINT('',#1410);
#1412=CARTESIAN_POINT('',(-8.795761011,17.81163302,48.570015182));
#1413=DIRECTION('',(0.,1.,-0.));
#1414=VECTOR('',#1413,19.);
#1415=LINE('',#1412,#1414);
#1416=EDGE_CURVE('',#1411,#1402,#1415,.T.);
#1417=ORIENTED_EDGE('',*,*,#1416,.F.);
#1418=CARTESIAN_POINT('',(-11.995761011,14.61163302,48.570015182));
#1419=VERTEX_POINT('',#1418);
#1420=CARTESIAN_POINT('',(-11.995761011,17.81163302,48.570015182));
#1421=DIRECTION('',(0.,0.,1.));
#1422=DIRECTION('',(-1.,0.,0.));
#1423=AXIS2_PLACEMENT_3D('',#1420,#1421,#1422);
#1424=CIRCLE('',#1423,3.2);
#1425=EDGE_CURVE('',#1419,#1411,#1424,.T.);
#1426=ORIENTED_EDGE('',*,*,#1425,.F.);
#1427=CARTESIAN_POINT('',(-31.05452272,14.61163302,48.570015182));
#1428=VERTEX_POINT('',#1427);
#1429=CARTESIAN_POINT('',(-31.05452272,14.61163302,48.570015182));
#1430=DIRECTION('',(1.,0.,-0.));
#1431=VECTOR('',#1430,19.058761709);
#1432=LINE('',#1429,#1431);
#1433=EDGE_CURVE('',#1428,#1419,#1432,.T.);
#1434=ORIENTED_EDGE('',*,*,#1433,.F.);
#1435=CARTESIAN_POINT('',(-31.056882936,14.61163389,48.570015182));
#1436=VERTEX_POINT('',#1435);
#1437=CARTESIAN_POINT('',(-31.056895352,14.6116339,48.570015182));
#1438=CARTESIAN_POINT('',(-31.056110922,14.611633318,48.570015182));
#1439=CARTESIAN_POINT('',(-31.055326521,14.611633025,48.570015182));
#1440=CARTESIAN_POINT('',(-31.054542149,14.61163302,48.570015182));
#1441=(BOUNDED_CURVE()
B_SPLINE_CURVE(3,(#1437,#1438,#1439,#1440),.UNSPECIFIED.,.F.,.F.)
B_SPLINE_CURVE_WITH_KNOTS((4,4),(0.657593759,0.657716059),.UNSPECIFIED.)
CURVE()
GEOMETRIC_REPRESENTATION_ITEM()
RATIONAL_B_SPLINE_CURVE((0.652384145,0.652432596,0.652481078,0.652529593))
REPRESENTATION_ITEM(''));
#1442=EDGE_CURVE('',#1436,#1428,#1441,.T.);
#1443=ORIENTED_EDGE('',*,*,#1442,.F.);
#1444=CARTESIAN_POINT('',(-31.059243152,14.61163302,48.570015182));
#1445=VERTEX_POINT('',#1444);
#1446=CARTESIAN_POINT('',(-31.059243152,17.81163302,48.570015182));
#1447=DIRECTION('',(-0.,-0.,-1.));
#1448=DIRECTION('',(-1.,0.,0.));
#1449=AXIS2_PLACEMENT_3D('',#1446,#1447,#1448);
#1450=CIRCLE('',#1449,3.2);
#1451=EDGE_CURVE('',#1436,#1445,#1450,.T.);
#1452=ORIENTED_EDGE('',*,*,#1451,.T.);
#1453=CARTESIAN_POINT('',(-34.259243152,17.81163302,48.570015182));
#1454=VERTEX_POINT('',#1453);
#1455=CARTESIAN_POINT('',(-31.059243152,17.81163302,48.570015182));
#1456=DIRECTION('',(-0.,-0.,-1.));
#1457=DIRECTION('',(-1.,0.,0.));
#1458=AXIS2_PLACEMENT_3D('',#1455,#1456,#1457);
#1459=CIRCLE('',#1458,3.2);
#1460=EDGE_CURVE('',#1445,#1454,#1459,.T.);
#1461=ORIENTED_EDGE('',*,*,#1460,.T.);
#1462=CARTESIAN_POINT('',(-34.259243152,17.81163302,48.570015182));
#1463=DIRECTION('',(0.,1.,-0.));
#1464=VECTOR('',#1463,19.);
#1465=LINE('',#1462,#1464);
#1466=EDGE_CURVE('',#1454,#1365,#1465,.T.);
#1467=ORIENTED_EDGE('',*,*,#1466,.T.);
#1468=EDGE_LOOP('',(#1374,#1383,#1392,#1400,#1409,#1417,#1426,#1434,#1443,#1452,#1461,#1467));
#1469=FACE_BOUND('',#1468,.T.);
#1470=ADVANCED_FACE('',(#1349,#1363,#1469),#1318,.F.);
#1471=CARTESIAN_POINT('',(-21.527471197,27.31163302,38.729076441));
#1472=DIRECTION('',(0.,0.,-1.));
#1473=DIRECTION('',(-0.,1.,0.));
#1474=AXIS2_PLACEMENT_3D('',#1471,#1472,#1473);
#1475=PLANE('',#1474);
#1476=CARTESIAN_POINT('',(-31.027471197,41.69163302,38.729076441));
#1477=VERTEX_POINT('',#1476);
#1478=CARTESIAN_POINT('',(-12.027471197,41.69163302,38.729076441));
#1479=VERTEX_POINT('',#1478);
#1480=CARTESIAN_POINT('',(-31.027471197,41.69163302,38.729076441));
#1481=DIRECTION('',(1.,0.,0.));
#1482=VECTOR('',#1481,19.);
#1483=LINE('',#1480,#1482);
#1484=EDGE_CURVE('',#1477,#1479,#1483,.T.);
#1485=ORIENTED_EDGE('',*,*,#1484,.T.);
#1486=CARTESIAN_POINT('',(-7.147471197,36.81163302,38.729076441));
#1487=VERTEX_POINT('',#1486);
#1488=CARTESIAN_POINT('',(-12.027471197,36.81163302,38.729076441));
#1489=DIRECTION('',(0.,0.,-1.));
#1490=DIRECTION('',(-0.,1.,0.));
#1491=AXIS2_PLACEMENT_3D('',#1488,#1489,#1490);
#1492=CIRCLE('',#1491,4.88);
#1493=EDGE_CURVE('',#1479,#1487,#1492,.T.);
#1494=ORIENTED_EDGE('',*,*,#1493,.T.);
#1495=CARTESIAN_POINT('',(-7.147471197,17.81163302,38.729076441));
#1496=VERTEX_POINT('',#1495);
#1497=CARTESIAN_POINT('',(-7.147471197,36.81163302,38.729076441));
#1498=DIRECTION('',(0.,-1.,-0.));
#1499=VECTOR('',#1498,19.);
#1500=LINE('',#1497,#1499);
#1501=EDGE_CURVE('',#1487,#1496,#1500,.T.);
#1502=ORIENTED_EDGE('',*,*,#1501,.T.);
#1503=CARTESIAN_POINT('',(-12.027471197,12.93163302,38.729076441));
#1504=VERTEX_POINT('',#1503);
#1505=CARTESIAN_POINT('',(-12.027471197,17.81163302,38.729076441));
#1506=DIRECTION('',(0.,0.,-1.));
#1507=DIRECTION('',(-0.,1.,0.));
#1508=AXIS2_PLACEMENT_3D('',#1505,#1506,#1507);
#1509=CIRCLE('',#1508,4.88);
#1510=EDGE_CURVE('',#1496,#1504,#1509,.T.);
#1511=ORIENTED_EDGE('',*,*,#1510,.T.);
#1512=CARTESIAN_POINT('',(-31.027471197,12.93163302,38.729076441));
#1513=VERTEX_POINT('',#1512);
#1514=CARTESIAN_POINT('',(-12.027471197,12.93163302,38.729076441));
#1515=DIRECTION('',(-1.,0.,-0.));
#1516=VECTOR('',#1515,19.);
#1517=LINE('',#1514,#1516);
#1518=EDGE_CURVE('',#1504,#1513,#1517,.T.);
#1519=ORIENTED_EDGE('',*,*,#1518,.T.);
#1520=CARTESIAN_POINT('',(-35.907471197,17.81163302,38.729076441));
#1521=VERTEX_POINT('',#1520);
#1522=CARTESIAN_POINT('',(-31.027471197,17.81163302,38.729076441));
#1523=DIRECTION('',(0.,0.,-1.));
#1524=DIRECTION('',(-0.,1.,0.));
#1525=AXIS2_PLACEMENT_3D('',#1522,#1523,#1524);
#1526=CIRCLE('',#1525,4.88);
#1527=EDGE_CURVE('',#1513,#1521,#1526,.T.);
#1528=ORIENTED_EDGE('',*,*,#1527,.T.);
#1529=CARTESIAN_POINT('',(-35.907471197,36.81163302,38.729076441));
#1530=VERTEX_POINT('',#1529);
#1531=CARTESIAN_POINT('',(-35.907471197,17.81163302,38.729076441));
#1532=DIRECTION('',(-0.,1.,0.));
#1533=VECTOR('',#1532,19.);
#1534=LINE('',#1531,#1533);
#1535=EDGE_CURVE('',#1521,#1530,#1534,.T.);
#1536=ORIENTED_EDGE('',*,*,#1535,.T.);
#1537=CARTESIAN_POINT('',(-31.027471197,36.81163302,38.729076441));
#1538=DIRECTION('',(0.,0.,-1.));
#1539=DIRECTION('',(-0.,1.,0.));
#1540=AXIS2_PLACEMENT_3D('',#1537,#1538,#1539);
#1541=CIRCLE('',#1540,4.88);
#1542=EDGE_CURVE('',#1530,#1477,#1541,.T.);
#1543=ORIENTED_EDGE('',*,*,#1542,.T.);
#1544=EDGE_LOOP('',(#1485,#1494,#1502,#1511,#1519,#1528,#1536,#1543));
#1545=FACE_BOUND('',#1544,.T.);
#1546=CARTESIAN_POINT('',(-28.577471197,34.36163302,38.729076441));
#1547=VERTEX_POINT('',#1546);
#1548=CARTESIAN_POINT('',(-14.477471197,34.36163302,38.729076441));
#1549=VERTEX_POINT('',#1548);
#1550=CARTESIAN_POINT('',(-28.577471197,34.36163302,38.729076441));
#1551=DIRECTION('',(1.,0.,0.));
#1552=VECTOR('',#1551,14.1);
#1553=LINE('',#1550,#1552);
#1554=EDGE_CURVE('',#1547,#1549,#1553,.T.);
#1555=ORIENTED_EDGE('',*,*,#1554,.F.);
#1556=CARTESIAN_POINT('',(-28.577471197,20.26163302,38.729076441));
#1557=VERTEX_POINT('',#1556);
#1558=CARTESIAN_POINT('',(-28.577471197,34.36163302,38.729076441));
#1559=DIRECTION('',(-0.,-1.,-0.));
#1560=VECTOR('',#1559,14.1);
#1561=LINE('',#1558,#1560);
#1562=EDGE_CURVE('',#1547,#1557,#1561,.T.);
#1563=ORIENTED_EDGE('',*,*,#1562,.T.);
#1564=CARTESIAN_POINT('',(-14.477471197,20.26163302,38.729076441));
#1565=VERTEX_POINT('',#1564);
#1566=CARTESIAN_POINT('',(-28.577471197,20.26163302,38.729076441));
#1567=DIRECTION('',(1.,-0.,0.));
#1568=VECTOR('',#1567,14.1);
#1569=LINE('',#1566,#1568);
#1570=EDGE_CURVE('',#1557,#1565,#1569,.T.);
#1571=ORIENTED_EDGE('',*,*,#1570,.T.);
#1572=CARTESIAN_POINT('',(-14.477471197,20.26163302,38.729076441));
#1573=DIRECTION('',(0.,1.,0.));
#1574=VECTOR('',#1573,14.1);
#1575=LINE('',#1572,#1574);
#1576=EDGE_CURVE('',#1565,#1549,#1575,.T.);
#1577=ORIENTED_EDGE('',*,*,#1576,.T.);
#1578=EDGE_LOOP('',(#1555,#1563,#1571,#1577));
#1579=FACE_BOUND('',#1578,.T.);
#1580=CARTESIAN_POINT('',(-29.55452272,17.81163302,38.729076441));
#1581=VERTEX_POINT('',#1580);
#1582=CARTESIAN_POINT('',(-29.554635671,17.830040583,38.729076441));
#1583=VERTEX_POINT('',#1582);
#1584=CARTESIAN_POINT('',(-31.05452272,17.81163302,38.729076441));
#1585=DIRECTION('',(0.,0.,-1.));
#1586=DIRECTION('',(0.9999247,0.012271709,0.));
#1587=AXIS2_PLACEMENT_3D('',#1584,#1585,#1586);
#1588=CIRCLE('',#1587,1.5);
#1589=EDGE_CURVE('',#1581,#1583,#1588,.T.);
#1590=ORIENTED_EDGE('',*,*,#1589,.F.);
#1591=CARTESIAN_POINT('',(-31.05452272,17.81163302,38.729076441));
#1592=DIRECTION('',(0.,0.,-1.));
#1593=DIRECTION('',(0.9999247,0.012271709,0.));
#1594=AXIS2_PLACEMENT_3D('',#1591,#1592,#1593);
#1595=CIRCLE('',#1594,1.5);
#1596=EDGE_CURVE('',#1583,#1581,#1595,.T.);
#1597=ORIENTED_EDGE('',*,*,#1596,.F.);
#1598=EDGE_LOOP('',(#1590,#1597));
#1599=FACE_BOUND('',#1598,.T.);
#1600=CARTESIAN_POINT('',(-29.554635671,36.793225457,38.729076441));
#1601=VERTEX_POINT('',#1600);
#1602=CARTESIAN_POINT('',(-29.55452272,36.81163302,38.729076441));
#1603=VERTEX_POINT('',#1602);
#1604=CARTESIAN_POINT('',(-31.05452272,36.81163302,38.729076441));
#1605=DIRECTION('',(0.,0.,1.));
#1606=DIRECTION('',(0.9999247,-0.012271709,0.));
#1607=AXIS2_PLACEMENT_3D('',#1604,#1605,#1606);
#1608=CIRCLE('',#1607,1.5);
#1609=EDGE_CURVE('',#1601,#1603,#1608,.T.);
#1610=ORIENTED_EDGE('',*,*,#1609,.T.);
#1611=CARTESIAN_POINT('',(-31.05452272,36.81163302,38.729076441));
#1612=DIRECTION('',(0.,0.,1.));
#1613=DIRECTION('',(0.9999247,-0.012271709,0.));
#1614=AXIS2_PLACEMENT_3D('',#1611,#1612,#1613);
#1615=CIRCLE('',#1614,1.5);
#1616=EDGE_CURVE('',#1603,#1601,#1615,.T.);
#1617=ORIENTED_EDGE('',*,*,#1616,.T.);
#1618=EDGE_LOOP('',(#1610,#1617));
#1619=FACE_BOUND('',#1618,.T.);
#1620=ADVANCED_FACE('',(#1545,#1579,#1599,#1619),#1475,.T.);
#1621=CARTESIAN_POINT('',(-34.259243152,43.34248006,39.429077414));
#1622=DIRECTION('',(1.,0.,0.));
#1623=DIRECTION('',(0.,0.,-1.));
#1624=AXIS2_PLACEMENT_3D('',#1621,#1622,#1623);
#1625=PLANE('',#1624);
#1626=ORIENTED_EDGE('',*,*,#1466,.F.);
#1627=CARTESIAN_POINT('',(-34.259243152,17.81163302,40.729076441));
#1628=VERTEX_POINT('',#1627);
#1629=CARTESIAN_POINT('',(-34.259243152,17.81163302,40.729076441));
#1630=DIRECTION('',(-0.,-0.,1.));
#1631=VECTOR('',#1630,7.84093874);
#1632=LINE('',#1629,#1631);
#1633=EDGE_CURVE('',#1628,#1454,#1632,.T.);
#1634=ORIENTED_EDGE('',*,*,#1633,.F.);
#1635=CARTESIAN_POINT('',(-34.259243152,36.81163302,40.729076441));
#1636=VERTEX_POINT('',#1635);
#1637=CARTESIAN_POINT('',(-34.259243152,17.81163302,40.729076441));
#1638=DIRECTION('',(-0.,1.,0.));
#1639=VECTOR('',#1638,19.);
#1640=LINE('',#1637,#1639);
#1641=EDGE_CURVE('',#1628,#1636,#1640,.T.);
#1642=ORIENTED_EDGE('',*,*,#1641,.T.);
#1643=CARTESIAN_POINT('',(-34.259243152,36.81163302,40.729076441));
#1644=DIRECTION('',(-0.,-0.,1.));
#1645=VECTOR('',#1644,7.84093874);
#1646=LINE('',#1643,#1645);
#1647=EDGE_CURVE('',#1636,#1365,#1646,.T.);
#1648=ORIENTED_EDGE('',*,*,#1647,.T.);
#1649=EDGE_LOOP('',(#1626,#1634,#1642,#1648));
#1650=FACE_BOUND('',#1649,.T.);
#1651=ADVANCED_FACE('',(#1650),#1625,.T.);
#1652=CARTESIAN_POINT('',(-31.059243152,17.81163302,39.429077414));
#1653=DIRECTION('',(-0.,-0.,1.));
#1654=DIRECTION('',(0.,-1.,-0.));
#1655=AXIS2_PLACEMENT_3D('',#1652,#1653,#1654);
#1656=CYLINDRICAL_SURFACE('',#1655,3.2);
#1657=ORIENTED_EDGE('',*,*,#1460,.F.);
#1658=CARTESIAN_POINT('',(-31.056882936,14.611633455,46.748006808));
#1659=VERTEX_POINT('',#1658);
#1660=CARTESIAN_POINT('',(-31.059243152,14.61163302,48.570015182));
#1661=DIRECTION('',(0.,0.,-1.));
#1662=VECTOR('',#1661,1.822008373);
#1663=LINE('',#1660,#1662);
#1664=EDGE_CURVE('',#1445,#1659,#1663,.T.);
#1665=ORIENTED_EDGE('',*,*,#1664,.T.);
#1666=CARTESIAN_POINT('',(-31.059243152,14.61163302,40.729076441));
#1667=VERTEX_POINT('',#1666);
#1668=CARTESIAN_POINT('',(-31.059243152,14.61163302,40.729076441));
#1669=DIRECTION('',(-0.,-0.,1.));
#1670=VECTOR('',#1669,6.018930367);
#1671=LINE('',#1668,#1670);
#1672=EDGE_CURVE('',#1667,#1659,#1671,.T.);
#1673=ORIENTED_EDGE('',*,*,#1672,.F.);
#1674=CARTESIAN_POINT('',(-31.059243152,17.81163302,40.729076441));
#1675=DIRECTION('',(0.,0.,-1.));
#1676=DIRECTION('',(-0.,1.,0.));
#1677=AXIS2_PLACEMENT_3D('',#1674,#1675,#1676);
#1678=CIRCLE('',#1677,3.2);
#1679=EDGE_CURVE('',#1667,#1628,#1678,.T.);
#1680=ORIENTED_EDGE('',*,*,#1679,.T.);
#1681=ORIENTED_EDGE('',*,*,#1633,.T.);
#1682=EDGE_LOOP('',(#1657,#1665,#1673,#1680,#1681));
#1683=FACE_BOUND('',#1682,.T.);
#1684=ADVANCED_FACE('',(#1683),#1656,.F.);
#1685=CARTESIAN_POINT('',(-31.059243152,17.81163302,39.429077414));
#1686=DIRECTION('',(-0.,-0.,1.));
#1687=DIRECTION('',(0.,-1.,-0.));
#1688=AXIS2_PLACEMENT_3D('',#1685,#1686,#1687);
#1689=CYLINDRICAL_SURFACE('',#1688,3.2);
#1690=ORIENTED_EDGE('',*,*,#1664,.F.);
#1691=ORIENTED_EDGE('',*,*,#1451,.F.);
#1692=CARTESIAN_POINT('',(-31.056882936,14.61163389,46.748006808));
#1693=DIRECTION('',(-0.,-0.,1.));
#1694=VECTOR('',#1693,1.822008373);
#1695=LINE('',#1692,#1694);
#1696=EDGE_CURVE('',#1659,#1436,#1695,.T.);
#1697=ORIENTED_EDGE('',*,*,#1696,.F.);
#1698=EDGE_LOOP('',(#1690,#1691,#1697));
#1699=FACE_BOUND('',#1698,.T.);
#1700=ADVANCED_FACE('',(#1699),#1689,.F.);
#1701=CARTESIAN_POINT('',(-31.05452272,17.81163302,242.183375373));
#1702=DIRECTION('',(0.,0.,-1.));
#1703=DIRECTION('',(1.,0.,0.));
#1704=AXIS2_PLACEMENT_3D('',#1701,#1702,#1703);
#1705=CYLINDRICAL_SURFACE('',#1704,3.2);
#1706=ORIENTED_EDGE('',*,*,#1696,.T.);
#1707=ORIENTED_EDGE('',*,*,#1442,.T.);
#1708=CARTESIAN_POINT('',(-31.05452272,14.61163302,48.570015182));
#1709=DIRECTION('',(0.,0.,-1.));
#1710=VECTOR('',#1709,1.822008373);
#1711=LINE('',#1708,#1710);
#1712=EDGE_CURVE('',#1428,#1659,#1711,.T.);
#1713=ORIENTED_EDGE('',*,*,#1712,.T.);
#1714=EDGE_LOOP('',(#1706,#1707,#1713));
#1715=FACE_BOUND('',#1714,.T.);
#1716=ADVANCED_FACE('',(#1715),#1705,.F.);
#1717=CARTESIAN_POINT('',(-34.05452272,14.61163302,242.183375373));
#1718=DIRECTION('',(0.,-1.,0.));
#1719=DIRECTION('',(0.,0.,-1.));
#1720=AXIS2_PLACEMENT_3D('',#1717,#1718,#1719);
#1721=PLANE('',#1720);
#1722=ORIENTED_EDGE('',*,*,#1712,.F.);
#1723=ORIENTED_EDGE('',*,*,#1433,.T.);
#1724=CARTESIAN_POINT('',(-11.995761011,14.61163302,40.729076441));
#1725=VERTEX_POINT('',#1724);
#1726=CARTESIAN_POINT('',(-11.995761011,14.61163302,48.570015182));
#1727=DIRECTION('',(0.,0.,-1.));
#1728=VECTOR('',#1727,7.84093874);
#1729=LINE('',#1726,#1728);
#1730=EDGE_CURVE('',#1419,#1725,#1729,.T.);
#1731=ORIENTED_EDGE('',*,*,#1730,.T.);
#1732=CARTESIAN_POINT('',(-11.995761011,14.61163302,40.729076441));
#1733=DIRECTION('',(-1.,0.,-0.));
#1734=VECTOR('',#1733,19.063482141);
#1735=LINE('',#1732,#1734);
#1736=EDGE_CURVE('',#1725,#1667,#1735,.T.);
#1737=ORIENTED_EDGE('',*,*,#1736,.T.);
#1738=ORIENTED_EDGE('',*,*,#1672,.T.);
#1739=EDGE_LOOP('',(#1722,#1723,#1731,#1737,#1738));
#1740=FACE_BOUND('',#1739,.T.);
#1741=ADVANCED_FACE('',(#1740),#1721,.F.);
#1742=CARTESIAN_POINT('',(-11.995761011,17.81163302,242.183375373));
#1743=DIRECTION('',(0.,0.,-1.));
#1744=DIRECTION('',(1.,0.,0.));
#1745=AXIS2_PLACEMENT_3D('',#1742,#1743,#1744);
#1746=CYLINDRICAL_SURFACE('',#1745,3.2);
#1747=CARTESIAN_POINT('',(-8.795761011,17.81163302,40.729076441));
#1748=VERTEX_POINT('',#1747);
#1749=CARTESIAN_POINT('',(-11.995761011,17.81163302,40.729076441));
#1750=DIRECTION('',(-0.,-0.,1.));
#1751=DIRECTION('',(1.,0.,0.));
#1752=AXIS2_PLACEMENT_3D('',#1749,#1750,#1751);
#1753=CIRCLE('',#1752,3.2);
#1754=EDGE_CURVE('',#1725,#1748,#1753,.T.);
#1755=ORIENTED_EDGE('',*,*,#1754,.F.);
#1756=ORIENTED_EDGE('',*,*,#1730,.F.);
#1757=ORIENTED_EDGE('',*,*,#1425,.T.);
#1758=CARTESIAN_POINT('',(-8.795761011,17.81163302,48.570015182));
#1759=DIRECTION('',(0.,-0.,-1.));
#1760=VECTOR('',#1759,7.84093874);
#1761=LINE('',#1758,#1760);
#1762=EDGE_CURVE('',#1411,#1748,#1761,.T.);
#1763=ORIENTED_EDGE('',*,*,#1762,.T.);
#1764=EDGE_LOOP('',(#1755,#1756,#1757,#1763));
#1765=FACE_BOUND('',#1764,.T.);
#1766=ADVANCED_FACE('',(#1765),#1746,.F.);
#1767=CARTESIAN_POINT('',(-8.795761011,14.81163302,242.183375373));
#1768=DIRECTION('',(1.,0.,0.));
#1769=DIRECTION('',(-0.,0.,1.));
#1770=AXIS2_PLACEMENT_3D('',#1767,#1768,#1769);
#1771=PLANE('',#1770);
#1772=CARTESIAN_POINT('',(-8.795761011,36.81163302,40.729076441));
#1773=VERTEX_POINT('',#1772);
#1774=CARTESIAN_POINT('',(-8.795761011,17.81163302,40.729076441));
#1775=DIRECTION('',(-0.,1.,0.));
#1776=VECTOR('',#1775,19.);
#1777=LINE('',#1774,#1776);
#1778=EDGE_CURVE('',#1748,#1773,#1777,.T.);
#1779=ORIENTED_EDGE('',*,*,#1778,.F.);
#1780=ORIENTED_EDGE('',*,*,#1762,.F.);
#1781=ORIENTED_EDGE('',*,*,#1416,.T.);
#1782=CARTESIAN_POINT('',(-8.795761011,36.81163302,48.570015182));
#1783=DIRECTION('',(0.,0.,-1.));
#1784=VECTOR('',#1783,7.84093874);
#1785=LINE('',#1782,#1784);
#1786=EDGE_CURVE('',#1402,#1773,#1785,.T.);
#1787=ORIENTED_EDGE('',*,*,#1786,.T.);
#1788=EDGE_LOOP('',(#1779,#1780,#1781,#1787));
#1789=FACE_BOUND('',#1788,.T.);
#1790=ADVANCED_FACE('',(#1789),#1771,.F.);
#1791=CARTESIAN_POINT('',(-11.995761011,36.81163302,242.183375373));
#1792=DIRECTION('',(0.,0.,-1.));
#1793=DIRECTION('',(1.,0.,0.));
#1794=AXIS2_PLACEMENT_3D('',#1791,#1792,#1793);
#1795=CYLINDRICAL_SURFACE('',#1794,3.2);
#1796=CARTESIAN_POINT('',(-11.995761011,40.01163302,40.729076441));
#1797=VERTEX_POINT('',#1796);
#1798=CARTESIAN_POINT('',(-11.995761011,36.81163302,40.729076441));
#1799=DIRECTION('',(-0.,-0.,1.));
#1800=DIRECTION('',(1.,0.,0.));
#1801=AXIS2_PLACEMENT_3D('',#1798,#1799,#1800);
#1802=CIRCLE('',#1801,3.2);
#1803=EDGE_CURVE('',#1773,#1797,#1802,.T.);
#1804=ORIENTED_EDGE('',*,*,#1803,.F.);
#1805=ORIENTED_EDGE('',*,*,#1786,.F.);
#1806=ORIENTED_EDGE('',*,*,#1408,.T.);
#1807=CARTESIAN_POINT('',(-11.995761011,40.01163302,48.570015182));
#1808=DIRECTION('',(0.,-0.,-1.));
#1809=VECTOR('',#1808,7.84093874);
#1810=LINE('',#1807,#1809);
#1811=EDGE_CURVE('',#1394,#1797,#1810,.T.);
#1812=ORIENTED_EDGE('',*,*,#1811,.T.);
#1813=EDGE_LOOP('',(#1804,#1805,#1806,#1812));
#1814=FACE_BOUND('',#1813,.T.);
#1815=ADVANCED_FACE('',(#1814),#1795,.F.);
#1816=CARTESIAN_POINT('',(-9.05452272,40.01163302,242.183375373));
#1817=DIRECTION('',(0.,1.,0.));
#1818=DIRECTION('',(-0.,0.,1.));
#1819=AXIS2_PLACEMENT_3D('',#1816,#1817,#1818);
#1820=PLANE('',#1819);
#1821=ORIENTED_EDGE('',*,*,#1811,.F.);
#1822=ORIENTED_EDGE('',*,*,#1399,.T.);
#1823=CARTESIAN_POINT('',(-31.056882936,40.011632585,46.748006808));
#1824=VERTEX_POINT('',#1823);
#1825=CARTESIAN_POINT('',(-31.05452272,40.01163302,48.570015182));
#1826=DIRECTION('',(0.,0.,-1.));
#1827=VECTOR('',#1826,1.822008373);
#1828=LINE('',#1825,#1827);
#1829=EDGE_CURVE('',#1385,#1824,#1828,.T.);
#1830=ORIENTED_EDGE('',*,*,#1829,.T.);
#1831=CARTESIAN_POINT('',(-31.059243152,40.01163302,40.729076441));
#1832=VERTEX_POINT('',#1831);
#1833=CARTESIAN_POINT('',(-31.059243152,40.01163302,40.729076441));
#1834=DIRECTION('',(-0.,-0.,1.));
#1835=VECTOR('',#1834,6.018930367);
#1836=LINE('',#1833,#1835);
#1837=EDGE_CURVE('',#1832,#1824,#1836,.T.);
#1838=ORIENTED_EDGE('',*,*,#1837,.F.);
#1839=CARTESIAN_POINT('',(-31.059243152,40.01163302,40.729076441));
#1840=DIRECTION('',(1.,0.,0.));
#1841=VECTOR('',#1840,19.063482141);
#1842=LINE('',#1839,#1841);
#1843=EDGE_CURVE('',#1832,#1797,#1842,.T.);
#1844=ORIENTED_EDGE('',*,*,#1843,.T.);
#1845=EDGE_LOOP('',(#1821,#1822,#1830,#1838,#1844));
#1846=FACE_BOUND('',#1845,.T.);
#1847=ADVANCED_FACE('',(#1846),#1820,.F.);
#1848=CARTESIAN_POINT('',(-31.05452272,36.81163302,242.183375373));
#1849=DIRECTION('',(0.,0.,-1.));
#1850=DIRECTION('',(1.,0.,0.));
#1851=AXIS2_PLACEMENT_3D('',#1848,#1849,#1850);
#1852=CYLINDRICAL_SURFACE('',#1851,3.2);
#1853=CARTESIAN_POINT('',(-31.056882936,40.01163215,48.570015182));
#1854=DIRECTION('',(0.,0.,-1.));
#1855=VECTOR('',#1854,1.822008373);
#1856=LINE('',#1853,#1855);
#1857=EDGE_CURVE('',#1376,#1824,#1856,.T.);
#1858=ORIENTED_EDGE('',*,*,#1857,.T.);
#1859=ORIENTED_EDGE('',*,*,#1829,.F.);
#1860=ORIENTED_EDGE('',*,*,#1391,.T.);
#1861=EDGE_LOOP('',(#1858,#1859,#1860));
#1862=FACE_BOUND('',#1861,.T.);
#1863=ADVANCED_FACE('',(#1862),#1852,.F.);
#1864=CARTESIAN_POINT('',(-31.059243152,36.81163302,39.429077414));
#1865=DIRECTION('',(-0.,-0.,1.));
#1866=DIRECTION('',(0.,-1.,-0.));
#1867=AXIS2_PLACEMENT_3D('',#1864,#1865,#1866);
#1868=CYLINDRICAL_SURFACE('',#1867,3.2);
#1869=CARTESIAN_POINT('',(-31.059243152,40.01163302,46.748006808));
#1870=DIRECTION('',(-0.,-0.,1.));
#1871=VECTOR('',#1870,1.822008373);
#1872=LINE('',#1869,#1871);
#1873=EDGE_CURVE('',#1824,#1367,#1872,.T.);
#1874=ORIENTED_EDGE('',*,*,#1873,.F.);
#1875=ORIENTED_EDGE('',*,*,#1857,.F.);
#1876=ORIENTED_EDGE('',*,*,#1382,.F.);
#1877=EDGE_LOOP('',(#1874,#1875,#1876));
#1878=FACE_BOUND('',#1877,.T.);
#1879=ADVANCED_FACE('',(#1878),#1868,.F.);
#1880=CARTESIAN_POINT('',(-31.059243152,36.81163302,39.429077414));
#1881=DIRECTION('',(-0.,-0.,1.));
#1882=DIRECTION('',(0.,-1.,-0.));
#1883=AXIS2_PLACEMENT_3D('',#1880,#1881,#1882);
#1884=CYLINDRICAL_SURFACE('',#1883,3.2);
#1885=ORIENTED_EDGE('',*,*,#1837,.T.);
#1886=ORIENTED_EDGE('',*,*,#1873,.T.);
#1887=ORIENTED_EDGE('',*,*,#1373,.F.);
#1888=ORIENTED_EDGE('',*,*,#1647,.F.);
#1889=CARTESIAN_POINT('',(-31.059243152,36.81163302,40.729076441));
#1890=DIRECTION('',(0.,0.,-1.));
#1891=DIRECTION('',(-0.,1.,0.));
#1892=AXIS2_PLACEMENT_3D('',#1889,#1890,#1891);
#1893=CIRCLE('',#1892,3.2);
#1894=EDGE_CURVE('',#1636,#1832,#1893,.T.);
#1895=ORIENTED_EDGE('',*,*,#1894,.T.);
#1896=EDGE_LOOP('',(#1885,#1886,#1887,#1888,#1895));
#1897=FACE_BOUND('',#1896,.T.);
#1898=ADVANCED_FACE('',(#1897),#1884,.F.);
#1899=CARTESIAN_POINT('',(37.931178492,41.69163302,39.429077414));
#1900=DIRECTION('',(0.,-1.,-0.));
#1901=DIRECTION('',(0.,0.,-1.));
#1902=AXIS2_PLACEMENT_3D('',#1899,#1900,#1901);
#1903=PLANE('',#1902);
#1904=ORIENTED_EDGE('',*,*,#1261,.T.);
#1905=CARTESIAN_POINT('',(-12.027471197,41.69163302,38.729076441));
#1906=DIRECTION('',(-0.,-0.,1.));
#1907=VECTOR('',#1906,8.018930367);
#1908=LINE('',#1905,#1907);
#1909=EDGE_CURVE('',#1479,#1249,#1908,.T.);
#1910=ORIENTED_EDGE('',*,*,#1909,.F.);
#1911=ORIENTED_EDGE('',*,*,#1484,.F.);
#1912=CARTESIAN_POINT('',(-31.027471197,41.69163302,38.729076441));
#1913=DIRECTION('',(-0.,-0.,1.));
#1914=VECTOR('',#1913,8.018930367);
#1915=LINE('',#1912,#1914);
#1916=EDGE_CURVE('',#1477,#1198,#1915,.T.);
#1917=ORIENTED_EDGE('',*,*,#1916,.T.);
#1918=EDGE_LOOP('',(#1904,#1910,#1911,#1917));
#1919=FACE_BOUND('',#1918,.T.);
#1920=ADVANCED_FACE('',(#1919),#1903,.F.);
#1921=CARTESIAN_POINT('',(-12.027471197,36.81163302,39.429077414));
#1922=DIRECTION('',(-0.,-0.,1.));
#1923=DIRECTION('',(0.,-1.,-0.));
#1924=AXIS2_PLACEMENT_3D('',#1921,#1922,#1923);
#1925=CYLINDRICAL_SURFACE('',#1924,4.88);
#1926=ORIENTED_EDGE('',*,*,#1255,.T.);
#1927=CARTESIAN_POINT('',(-7.147471197,36.81163302,38.729076441));
#1928=DIRECTION('',(-0.,-0.,1.));
#1929=VECTOR('',#1928,8.018930367);
#1930=LINE('',#1927,#1929);
#1931=EDGE_CURVE('',#1487,#1241,#1930,.T.);
#1932=ORIENTED_EDGE('',*,*,#1931,.F.);
#1933=ORIENTED_EDGE('',*,*,#1493,.F.);
#1934=ORIENTED_EDGE('',*,*,#1909,.T.);
#1935=EDGE_LOOP('',(#1926,#1932,#1933,#1934));
#1936=FACE_BOUND('',#1935,.T.);
#1937=ADVANCED_FACE('',(#1936),#1925,.T.);
#1938=CARTESIAN_POINT('',(-7.147471197,43.34248006,39.429077414));
#1939=DIRECTION('',(-1.,0.,-0.));
#1940=DIRECTION('',(-0.,0.,1.));
#1941=AXIS2_PLACEMENT_3D('',#1938,#1939,#1940);
#1942=PLANE('',#1941);
#1943=ORIENTED_EDGE('',*,*,#1246,.T.);
#1944=CARTESIAN_POINT('',(-7.147471197,17.81163302,38.729076441));
#1945=DIRECTION('',(-0.,-0.,1.));
#1946=VECTOR('',#1945,8.018930367);
#1947=LINE('',#1944,#1946);
#1948=EDGE_CURVE('',#1496,#1232,#1947,.T.);
#1949=ORIENTED_EDGE('',*,*,#1948,.F.);
#1950=ORIENTED_EDGE('',*,*,#1501,.F.);
#1951=ORIENTED_EDGE('',*,*,#1931,.T.);
#1952=EDGE_LOOP('',(#1943,#1949,#1950,#1951));
#1953=FACE_BOUND('',#1952,.T.);
#1954=ADVANCED_FACE('',(#1953),#1942,.F.);
#1955=CARTESIAN_POINT('',(-12.027471197,17.81163302,39.429077414));
#1956=DIRECTION('',(-0.,-0.,1.));
#1957=DIRECTION('',(0.,-1.,-0.));
#1958=AXIS2_PLACEMENT_3D('',#1955,#1956,#1957);
#1959=CYLINDRICAL_SURFACE('',#1958,4.88);
#1960=ORIENTED_EDGE('',*,*,#1238,.T.);
#1961=CARTESIAN_POINT('',(-12.027471197,12.93163302,38.729076441));
#1962=DIRECTION('',(-0.,-0.,1.));
#1963=VECTOR('',#1962,8.018930367);
#1964=LINE('',#1961,#1963);
#1965=EDGE_CURVE('',#1504,#1224,#1964,.T.);
#1966=ORIENTED_EDGE('',*,*,#1965,.F.);
#1967=ORIENTED_EDGE('',*,*,#1510,.F.);
#1968=ORIENTED_EDGE('',*,*,#1948,.T.);
#1969=EDGE_LOOP('',(#1960,#1966,#1967,#1968));
#1970=FACE_BOUND('',#1969,.T.);
#1971=ADVANCED_FACE('',(#1970),#1959,.T.);
#1972=CARTESIAN_POINT('',(37.931178492,12.93163302,39.429077414));
#1973=DIRECTION('',(-0.,1.,0.));
#1974=DIRECTION('',(-0.,-0.,1.));
#1975=AXIS2_PLACEMENT_3D('',#1972,#1973,#1974);
#1976=PLANE('',#1975);
#1977=ORIENTED_EDGE('',*,*,#1229,.T.);
#1978=CARTESIAN_POINT('',(-31.027471197,12.93163302,38.729076441));
#1979=DIRECTION('',(-0.,-0.,1.));
#1980=VECTOR('',#1979,8.018930367);
#1981=LINE('',#1978,#1980);
#1982=EDGE_CURVE('',#1513,#1215,#1981,.T.);
#1983=ORIENTED_EDGE('',*,*,#1982,.F.);
#1984=ORIENTED_EDGE('',*,*,#1518,.F.);
#1985=ORIENTED_EDGE('',*,*,#1965,.T.);
#1986=EDGE_LOOP('',(#1977,#1983,#1984,#1985));
#1987=FACE_BOUND('',#1986,.T.);
#1988=ADVANCED_FACE('',(#1987),#1976,.F.);
#1989=CARTESIAN_POINT('',(-31.027471197,17.81163302,39.429077414));
#1990=DIRECTION('',(-0.,-0.,1.));
#1991=DIRECTION('',(0.,-1.,-0.));
#1992=AXIS2_PLACEMENT_3D('',#1989,#1990,#1991);
#1993=CYLINDRICAL_SURFACE('',#1992,4.88);
#1994=ORIENTED_EDGE('',*,*,#1221,.T.);
#1995=CARTESIAN_POINT('',(-35.907471197,17.81163302,38.729076441));
#1996=DIRECTION('',(-0.,-0.,1.));
#1997=VECTOR('',#1996,8.018930367);
#1998=LINE('',#1995,#1997);
#1999=EDGE_CURVE('',#1521,#1207,#1998,.T.);
#2000=ORIENTED_EDGE('',*,*,#1999,.F.);
#2001=ORIENTED_EDGE('',*,*,#1527,.F.);
#2002=ORIENTED_EDGE('',*,*,#1982,.T.);
#2003=EDGE_LOOP('',(#1994,#2000,#2001,#2002));
#2004=FACE_BOUND('',#2003,.T.);
#2005=ADVANCED_FACE('',(#2004),#1993,.T.);
#2006=CARTESIAN_POINT('',(-35.907471197,43.34248006,39.429077414));
#2007=DIRECTION('',(1.,0.,0.));
#2008=DIRECTION('',(0.,0.,-1.));
#2009=AXIS2_PLACEMENT_3D('',#2006,#2007,#2008);
#2010=PLANE('',#2009);
#2011=ORIENTED_EDGE('',*,*,#1212,.T.);
#2012=CARTESIAN_POINT('',(-35.907471197,36.81163302,38.729076441));
#2013=DIRECTION('',(-0.,-0.,1.));
#2014=VECTOR('',#2013,8.018930367);
#2015=LINE('',#2012,#2014);
#2016=EDGE_CURVE('',#1530,#1196,#2015,.T.);
#2017=ORIENTED_EDGE('',*,*,#2016,.F.);
#2018=ORIENTED_EDGE('',*,*,#1535,.F.);
#2019=ORIENTED_EDGE('',*,*,#1999,.T.);
#2020=EDGE_LOOP('',(#2011,#2017,#2018,#2019));
#2021=FACE_BOUND('',#2020,.T.);
#2022=ADVANCED_FACE('',(#2021),#2010,.F.);
#2023=CARTESIAN_POINT('',(-31.027471197,36.81163302,39.429077414));
#2024=DIRECTION('',(-0.,-0.,1.));
#2025=DIRECTION('',(0.,-1.,-0.));
#2026=AXIS2_PLACEMENT_3D('',#2023,#2024,#2025);
#2027=CYLINDRICAL_SURFACE('',#2026,4.88);
#2028=ORIENTED_EDGE('',*,*,#1204,.T.);
#2029=ORIENTED_EDGE('',*,*,#1916,.F.);
#2030=ORIENTED_EDGE('',*,*,#1542,.F.);
#2031=ORIENTED_EDGE('',*,*,#2016,.T.);
#2032=EDGE_LOOP('',(#2028,#2029,#2030,#2031));
#2033=FACE_BOUND('',#2032,.T.);
#2034=ADVANCED_FACE('',(#2033),#2027,.T.);
#2035=CARTESIAN_POINT('',(-33.931178492,41.445871089,233.335599074));
#2036=DIRECTION('',(0.,0.,-1.));
#2037=DIRECTION('',(-0.,1.,0.));
#2038=AXIS2_PLACEMENT_3D('',#2035,#2036,#2037);
#2039=CYLINDRICAL_SURFACE('',#2038,2.);
#2040=ORIENTED_EDGE('',*,*,#1172,.T.);
#2041=CARTESIAN_POINT('',(-35.931178492,41.445871089,48.570015182));
#2042=DIRECTION('',(0.,0.,-1.));
#2043=VECTOR('',#2042,1.822008373);
#2044=LINE('',#2041,#2043);
#2045=EDGE_CURVE('',#1325,#1158,#2044,.T.);
#2046=ORIENTED_EDGE('',*,*,#2045,.F.);
#2047=ORIENTED_EDGE('',*,*,#1331,.F.);
#2048=ORIENTED_EDGE('',*,*,#1278,.T.);
#2049=EDGE_LOOP('',(#2040,#2046,#2047,#2048));
#2050=FACE_BOUND('',#2049,.T.);
#2051=ADVANCED_FACE('',(#2050),#2039,.T.);
#2052=CARTESIAN_POINT('',(-35.931178492,43.34248006,233.335599074));
#2053=DIRECTION('',(-1.,0.,-0.));
#2054=DIRECTION('',(0.,1.,0.));
#2055=AXIS2_PLACEMENT_3D('',#2052,#2053,#2054);
#2056=PLANE('',#2055);
#2057=ORIENTED_EDGE('',*,*,#1163,.T.);
#2058=CARTESIAN_POINT('',(-35.931178492,4.950114529,48.570015182));
#2059=DIRECTION('',(0.,0.,-1.));
#2060=VECTOR('',#2059,1.822008373);
#2061=LINE('',#2058,#2060);
#2062=EDGE_CURVE('',#1334,#1149,#2061,.T.);
#2063=ORIENTED_EDGE('',*,*,#2062,.F.);
#2064=ORIENTED_EDGE('',*,*,#1339,.F.);
#2065=ORIENTED_EDGE('',*,*,#2045,.T.);
#2066=EDGE_LOOP('',(#2057,#2063,#2064,#2065));
#2067=FACE_BOUND('',#2066,.T.);
#2068=ADVANCED_FACE('',(#2067),#2056,.T.);
#2069=CARTESIAN_POINT('',(-33.931178492,4.950114529,233.335599074));
#2070=DIRECTION('',(0.,0.,-1.));
#2071=DIRECTION('',(-0.,1.,0.));
#2072=AXIS2_PLACEMENT_3D('',#2069,#2070,#2071);
#2073=CYLINDRICAL_SURFACE('',#2072,2.);
#2074=ORIENTED_EDGE('',*,*,#1155,.T.);
#2075=ORIENTED_EDGE('',*,*,#1307,.F.);
#2076=ORIENTED_EDGE('',*,*,#1346,.F.);
#2077=ORIENTED_EDGE('',*,*,#2062,.T.);
#2078=EDGE_LOOP('',(#2074,#2075,#2076,#2077));
#2079=FACE_BOUND('',#2078,.T.);
#2080=ADVANCED_FACE('',(#2079),#2073,.T.);
#2081=CARTESIAN_POINT('',(-31.05452272,17.81163302,39.935445258));
#2082=DIRECTION('',(0.,-0.,1.));
#2083=DIRECTION('',(1.,0.,0.));
#2084=AXIS2_PLACEMENT_3D('',#2081,#2082,#2083);
#2085=PLANE('',#2084);
#2086=CARTESIAN_POINT('',(-29.55452272,17.81163302,39.935445258));
#2087=VERTEX_POINT('',#2086);
#2088=CARTESIAN_POINT('',(-31.05452272,17.81163302,39.935445258));
#2089=DIRECTION('',(0.,0.,-1.));
#2090=DIRECTION('',(1.,0.,0.));
#2091=AXIS2_PLACEMENT_3D('',#2088,#2089,#2090);
#2092=CIRCLE('',#2091,1.5);
#2093=EDGE_CURVE('',#2087,#2087,#2092,.T.);
#2094=ORIENTED_EDGE('',*,*,#2093,.T.);
#2095=EDGE_LOOP('',(#2094));
#2096=FACE_BOUND('',#2095,.T.);
#2097=CARTESIAN_POINT('',(-28.55452272,17.81163302,39.935445258));
#2098=VERTEX_POINT('',#2097);
#2099=CARTESIAN_POINT('',(-31.05452272,17.81163302,39.935445258));
#2100=DIRECTION('',(0.,0.,-1.));
#2101=DIRECTION('',(1.,0.,0.));
#2102=AXIS2_PLACEMENT_3D('',#2099,#2100,#2101);
#2103=CIRCLE('',#2102,2.5);
#2104=EDGE_CURVE('',#2098,#2098,#2103,.T.);
#2105=ORIENTED_EDGE('',*,*,#2104,.F.);
#2106=EDGE_LOOP('',(#2105));
#2107=FACE_BOUND('',#2106,.T.);
#2108=ADVANCED_FACE('',(#2096,#2107),#2085,.T.);
#2109=CARTESIAN_POINT('',(-31.05452272,17.81163302,38.729076441));
#2110=DIRECTION('',(0.,-0.,1.));
#2111=DIRECTION('',(1.,0.,0.));
#2112=AXIS2_PLACEMENT_3D('',#2109,#2110,#2111);
#2113=CYLINDRICAL_SURFACE('',#2112,1.5);
#2114=CARTESIAN_POINT('',(-29.55452272,17.81163302,39.935445258));
#2115=DIRECTION('',(-0.,0.,-1.));
#2116=VECTOR('',#2115,1.206368817);
#2117=LINE('',#2114,#2116);
#2118=EDGE_CURVE('',#2087,#1581,#2117,.T.);
#2119=ORIENTED_EDGE('',*,*,#2118,.F.);
#2120=ORIENTED_EDGE('',*,*,#2093,.F.);
#2121=ORIENTED_EDGE('',*,*,#2118,.T.);
#2122=ORIENTED_EDGE('',*,*,#1589,.T.);
#2123=ORIENTED_EDGE('',*,*,#1596,.T.);
#2124=EDGE_LOOP('',(#2119,#2120,#2121,#2122,#2123));
#2125=FACE_BOUND('',#2124,.T.);
#2126=ADVANCED_FACE('',(#2125),#2113,.F.);
#2127=CARTESIAN_POINT('',(-14.477471197,20.26163302,101.609684672));
#2128=DIRECTION('',(1.,-0.,0.));
#2129=DIRECTION('',(-0.,-1.,-0.));
#2130=AXIS2_PLACEMENT_3D('',#2127,#2128,#2129);
#2131=PLANE('',#2130);
#2132=ORIENTED_EDGE('',*,*,#1576,.F.);
#2133=CARTESIAN_POINT('',(-14.477471197,20.26163302,40.729076441));
#2134=VERTEX_POINT('',#2133);
#2135=CARTESIAN_POINT('',(-14.477471197,20.26163302,40.729076441));
#2136=DIRECTION('',(0.,0.,-1.));
#2137=VECTOR('',#2136,2.);
#2138=LINE('',#2135,#2137);
#2139=EDGE_CURVE('',#2134,#1565,#2138,.T.);
#2140=ORIENTED_EDGE('',*,*,#2139,.F.);
#2141=CARTESIAN_POINT('',(-14.477471197,34.36163302,40.729076441));
#2142=VERTEX_POINT('',#2141);
#2143=CARTESIAN_POINT('',(-14.477471197,20.26163302,40.729076441));
#2144=DIRECTION('',(0.,1.,0.));
#2145=VECTOR('',#2144,14.1);
#2146=LINE('',#2143,#2145);
#2147=EDGE_CURVE('',#2134,#2142,#2146,.T.);
#2148=ORIENTED_EDGE('',*,*,#2147,.T.);
#2149=CARTESIAN_POINT('',(-14.477471197,34.36163302,40.729076441));
#2150=DIRECTION('',(0.,0.,-1.));
#2151=VECTOR('',#2150,2.);
#2152=LINE('',#2149,#2151);
#2153=EDGE_CURVE('',#2142,#1549,#2152,.T.);
#2154=ORIENTED_EDGE('',*,*,#2153,.T.);
#2155=EDGE_LOOP('',(#2132,#2140,#2148,#2154));
#2156=FACE_BOUND('',#2155,.T.);
#2157=ADVANCED_FACE('',(#2156),#2131,.F.);
#2158=CARTESIAN_POINT('',(-28.577471197,20.26163302,101.609684672));
#2159=DIRECTION('',(0.,-1.,-0.));
#2160=DIRECTION('',(-0.,-0.,1.));
#2161=AXIS2_PLACEMENT_3D('',#2158,#2159,#2160);
#2162=PLANE('',#2161);
#2163=CARTESIAN_POINT('',(-28.577471197,20.26163302,40.729076441));
#2164=VERTEX_POINT('',#2163);
#2165=CARTESIAN_POINT('',(-28.577471197,20.26163302,40.729076441));
#2166=DIRECTION('',(0.,0.,-1.));
#2167=VECTOR('',#2166,2.);
#2168=LINE('',#2165,#2167);
#2169=EDGE_CURVE('',#2164,#1557,#2168,.T.);
#2170=ORIENTED_EDGE('',*,*,#2169,.F.);
#2171=CARTESIAN_POINT('',(-28.577471197,20.26163302,40.729076441));
#2172=DIRECTION('',(1.,-0.,0.));
#2173=VECTOR('',#2172,14.1);
#2174=LINE('',#2171,#2173);
#2175=EDGE_CURVE('',#2164,#2134,#2174,.T.);
#2176=ORIENTED_EDGE('',*,*,#2175,.T.);
#2177=ORIENTED_EDGE('',*,*,#2139,.T.);
#2178=ORIENTED_EDGE('',*,*,#1570,.F.);
#2179=EDGE_LOOP('',(#2170,#2176,#2177,#2178));
#2180=FACE_BOUND('',#2179,.T.);
#2181=ADVANCED_FACE('',(#2180),#2162,.F.);
#2182=CARTESIAN_POINT('',(-28.577471197,34.36163302,101.609684672));
#2183=DIRECTION('',(-1.,0.,-0.));
#2184=DIRECTION('',(-0.,-0.,1.));
#2185=AXIS2_PLACEMENT_3D('',#2182,#2183,#2184);
#2186=PLANE('',#2185);
#2187=CARTESIAN_POINT('',(-28.577471197,34.36163302,40.729076441));
#2188=VERTEX_POINT('',#2187);
#2189=CARTESIAN_POINT('',(-28.577471197,34.36163302,40.729076441));
#2190=DIRECTION('',(-0.,-1.,-0.));
#2191=VECTOR('',#2190,14.1);
#2192=LINE('',#2189,#2191);
#2193=EDGE_CURVE('',#2188,#2164,#2192,.T.);
#2194=ORIENTED_EDGE('',*,*,#2193,.T.);
#2195=ORIENTED_EDGE('',*,*,#2169,.T.);
#2196=ORIENTED_EDGE('',*,*,#1562,.F.);
#2197=CARTESIAN_POINT('',(-28.577471197,34.36163302,40.729076441));
#2198=DIRECTION('',(0.,0.,-1.));
#2199=VECTOR('',#2198,2.);
#2200=LINE('',#2197,#2199);
#2201=EDGE_CURVE('',#2188,#1547,#2200,.T.);
#2202=ORIENTED_EDGE('',*,*,#2201,.F.);
#2203=EDGE_LOOP('',(#2194,#2195,#2196,#2202));
#2204=FACE_BOUND('',#2203,.T.);
#2205=ADVANCED_FACE('',(#2204),#2186,.F.);
#2206=CARTESIAN_POINT('',(-31.05452272,17.81163302,-73.898118264));
#2207=DIRECTION('',(0.,-0.,1.));
#2208=DIRECTION('',(1.,0.,0.));
#2209=AXIS2_PLACEMENT_3D('',#2206,#2207,#2208);
#2210=CYLINDRICAL_SURFACE('',#2209,2.5);
#2211=CARTESIAN_POINT('',(-28.55452272,17.81163302,40.729076441));
#2212=VERTEX_POINT('',#2211);
#2213=CARTESIAN_POINT('',(-28.55452272,17.81163302,40.729076441));
#2214=DIRECTION('',(-0.,0.,-1.));
#2215=VECTOR('',#2214,0.793631183);
#2216=LINE('',#2213,#2215);
#2217=EDGE_CURVE('',#2212,#2098,#2216,.T.);
#2218=ORIENTED_EDGE('',*,*,#2217,.F.);
#2219=CARTESIAN_POINT('',(-33.55452272,17.81163302,40.729076441));
#2220=VERTEX_POINT('',#2219);
#2221=CARTESIAN_POINT('',(-31.05452272,17.81163302,40.729076441));
#2222=DIRECTION('',(-0.,-0.,1.));
#2223=DIRECTION('',(-1.,0.,-0.));
#2224=AXIS2_PLACEMENT_3D('',#2221,#2222,#2223);
#2225=CIRCLE('',#2224,2.5);
#2226=EDGE_CURVE('',#2212,#2220,#2225,.T.);
#2227=ORIENTED_EDGE('',*,*,#2226,.T.);
#2228=CARTESIAN_POINT('',(-31.05452272,17.81163302,40.729076441));
#2229=DIRECTION('',(-0.,-0.,1.));
#2230=DIRECTION('',(-1.,0.,-0.));
#2231=AXIS2_PLACEMENT_3D('',#2228,#2229,#2230);
#2232=CIRCLE('',#2231,2.5);
#2233=EDGE_CURVE('',#2220,#2212,#2232,.T.);
#2234=ORIENTED_EDGE('',*,*,#2233,.T.);
#2235=ORIENTED_EDGE('',*,*,#2217,.T.);
#2236=ORIENTED_EDGE('',*,*,#2104,.T.);
#2237=EDGE_LOOP('',(#2218,#2227,#2234,#2235,#2236));
#2238=FACE_BOUND('',#2237,.T.);
#2239=ADVANCED_FACE('',(#2238),#2210,.F.);
#2240=CARTESIAN_POINT('',(-21.527471197,27.31163302,40.729076441));
#2241=DIRECTION('',(0.,0.,-1.));
#2242=DIRECTION('',(-0.,-1.,-0.));
#2243=AXIS2_PLACEMENT_3D('',#2240,#2241,#2242);
#2244=PLANE('',#2243);
#2245=ORIENTED_EDGE('',*,*,#1778,.T.);
#2246=ORIENTED_EDGE('',*,*,#1803,.T.);
#2247=ORIENTED_EDGE('',*,*,#1843,.F.);
#2248=ORIENTED_EDGE('',*,*,#1894,.F.);
#2249=ORIENTED_EDGE('',*,*,#1641,.F.);
#2250=ORIENTED_EDGE('',*,*,#1679,.F.);
#2251=ORIENTED_EDGE('',*,*,#1736,.F.);
#2252=ORIENTED_EDGE('',*,*,#1754,.T.);
#2253=EDGE_LOOP('',(#2245,#2246,#2247,#2248,#2249,#2250,#2251,#2252));
#2254=FACE_BOUND('',#2253,.T.);
#2255=ORIENTED_EDGE('',*,*,#2226,.F.);
#2256=ORIENTED_EDGE('',*,*,#2233,.F.);
#2257=EDGE_LOOP('',(#2255,#2256));
#2258=FACE_BOUND('',#2257,.T.);
#2259=CARTESIAN_POINT('',(-28.577471197,34.36163302,40.729076441));
#2260=DIRECTION('',(1.,0.,0.));
#2261=VECTOR('',#2260,14.1);
#2262=LINE('',#2259,#2261);
#2263=EDGE_CURVE('',#2188,#2142,#2262,.T.);
#2264=ORIENTED_EDGE('',*,*,#2263,.T.);
#2265=ORIENTED_EDGE('',*,*,#2147,.F.);
#2266=ORIENTED_EDGE('',*,*,#2175,.F.);
#2267=ORIENTED_EDGE('',*,*,#2193,.F.);
#2268=EDGE_LOOP('',(#2264,#2265,#2266,#2267));
#2269=FACE_BOUND('',#2268,.T.);
#2270=CARTESIAN_POINT('',(-33.55452272,36.81163302,40.729076441));
#2271=VERTEX_POINT('',#2270);
#2272=CARTESIAN_POINT('',(-28.55452272,36.81163302,40.729076441));
#2273=VERTEX_POINT('',#2272);
#2274=CARTESIAN_POINT('',(-31.05452272,36.81163302,40.729076441));
#2275=DIRECTION('',(0.,0.,-1.));
#2276=DIRECTION('',(-1.,0.,-0.));
#2277=AXIS2_PLACEMENT_3D('',#2274,#2275,#2276);
#2278=CIRCLE('',#2277,2.5);
#2279=EDGE_CURVE('',#2271,#2273,#2278,.T.);
#2280=ORIENTED_EDGE('',*,*,#2279,.T.);
#2281=CARTESIAN_POINT('',(-31.05452272,36.81163302,40.729076441));
#2282=DIRECTION('',(0.,0.,-1.));
#2283=DIRECTION('',(-1.,0.,-0.));
#2284=AXIS2_PLACEMENT_3D('',#2281,#2282,#2283);
#2285=CIRCLE('',#2284,2.5);
#2286=EDGE_CURVE('',#2273,#2271,#2285,.T.);
#2287=ORIENTED_EDGE('',*,*,#2286,.T.);
#2288=EDGE_LOOP('',(#2280,#2287));
#2289=FACE_BOUND('',#2288,.T.);
#2290=ADVANCED_FACE('',(#2254,#2258,#2269,#2289),#2244,.F.);
#2291=CARTESIAN_POINT('',(-31.05452272,36.81163302,39.935445258));
#2292=DIRECTION('',(0.,0.,1.));
#2293=DIRECTION('',(1.,0.,0.));
#2294=AXIS2_PLACEMENT_3D('',#2291,#2292,#2293);
#2295=PLANE('',#2294);
#2296=CARTESIAN_POINT('',(-29.55452272,36.81163302,39.935445258));
#2297=VERTEX_POINT('',#2296);
#2298=CARTESIAN_POINT('',(-31.05452272,36.81163302,39.935445258));
#2299=DIRECTION('',(0.,0.,1.));
#2300=DIRECTION('',(1.,0.,-0.));
#2301=AXIS2_PLACEMENT_3D('',#2298,#2299,#2300);
#2302=CIRCLE('',#2301,1.5);
#2303=EDGE_CURVE('',#2297,#2297,#2302,.T.);
#2304=ORIENTED_EDGE('',*,*,#2303,.F.);
#2305=EDGE_LOOP('',(#2304));
#2306=FACE_BOUND('',#2305,.T.);
#2307=CARTESIAN_POINT('',(-28.55452272,36.81163302,39.935445258));
#2308=VERTEX_POINT('',#2307);
#2309=CARTESIAN_POINT('',(-31.05452272,36.81163302,39.935445258));
#2310=DIRECTION('',(0.,0.,1.));
#2311=DIRECTION('',(1.,0.,-0.));
#2312=AXIS2_PLACEMENT_3D('',#2309,#2310,#2311);
#2313=CIRCLE('',#2312,2.5);
#2314=EDGE_CURVE('',#2308,#2308,#2313,.T.);
#2315=ORIENTED_EDGE('',*,*,#2314,.T.);
#2316=EDGE_LOOP('',(#2315));
#2317=FACE_BOUND('',#2316,.T.);
#2318=ADVANCED_FACE('',(#2306,#2317),#2295,.T.);
#2319=CARTESIAN_POINT('',(-31.05452272,36.81163302,38.729076441));
#2320=DIRECTION('',(0.,0.,1.));
#2321=DIRECTION('',(1.,0.,-0.));
#2322=AXIS2_PLACEMENT_3D('',#2319,#2320,#2321);
#2323=CYLINDRICAL_SURFACE('',#2322,1.5);
#2324=CARTESIAN_POINT('',(-29.55452272,36.81163302,39.935445258));
#2325=DIRECTION('',(-0.,-0.,-1.));
#2326=VECTOR('',#2325,1.206368817);
#2327=LINE('',#2324,#2326);
#2328=EDGE_CURVE('',#2297,#1603,#2327,.T.);
#2329=ORIENTED_EDGE('',*,*,#2328,.F.);
#2330=ORIENTED_EDGE('',*,*,#2303,.T.);
#2331=ORIENTED_EDGE('',*,*,#2328,.T.);
#2332=ORIENTED_EDGE('',*,*,#1609,.F.);
#2333=ORIENTED_EDGE('',*,*,#1616,.F.);
#2334=EDGE_LOOP('',(#2329,#2330,#2331,#2332,#2333));
#2335=FACE_BOUND('',#2334,.T.);
#2336=ADVANCED_FACE('',(#2335),#2323,.F.);
#2337=CARTESIAN_POINT('',(-28.577471197,34.36163302,101.609684672));
#2338=DIRECTION('',(0.,1.,0.));
#2339=DIRECTION('',(-0.,0.,1.));
#2340=AXIS2_PLACEMENT_3D('',#2337,#2338,#2339);
#2341=PLANE('',#2340);
#2342=ORIENTED_EDGE('',*,*,#2201,.T.);
#2343=ORIENTED_EDGE('',*,*,#1554,.T.);
#2344=ORIENTED_EDGE('',*,*,#2153,.F.);
#2345=ORIENTED_EDGE('',*,*,#2263,.F.);
#2346=EDGE_LOOP('',(#2342,#2343,#2344,#2345));
#2347=FACE_BOUND('',#2346,.T.);
#2348=ADVANCED_FACE('',(#2347),#2341,.F.);
#2349=CARTESIAN_POINT('',(-31.05452272,36.81163302,-73.898118264));
#2350=DIRECTION('',(0.,0.,1.));
#2351=DIRECTION('',(1.,0.,-0.));
#2352=AXIS2_PLACEMENT_3D('',#2349,#2350,#2351);
#2353=CYLINDRICAL_SURFACE('',#2352,2.5);
#2354=CARTESIAN_POINT('',(-28.55452272,36.81163302,40.729076441));
#2355=DIRECTION('',(-0.,-0.,-1.));
#2356=VECTOR('',#2355,0.793631183);
#2357=LINE('',#2354,#2356);
#2358=EDGE_CURVE('',#2273,#2308,#2357,.T.);
#2359=ORIENTED_EDGE('',*,*,#2358,.F.);
#2360=ORIENTED_EDGE('',*,*,#2279,.F.);
#2361=ORIENTED_EDGE('',*,*,#2286,.F.);
#2362=ORIENTED_EDGE('',*,*,#2358,.T.);
#2363=ORIENTED_EDGE('',*,*,#2314,.F.);
#2364=EDGE_LOOP('',(#2359,#2360,#2361,#2362,#2363));
#2365=FACE_BOUND('',#2364,.T.);
#2366=ADVANCED_FACE('',(#2365),#2353,.F.);
#2367=CLOSED_SHELL('',(#54,#88,#128,#159,#277,#301,#335,#446,#474,#492,#504,#522,#553,#586,#610,#634,#659,#684,#708,#733,#765,#789,#813,#832,#863,#888,
#912,#937,#961,#986,#1010,#1028,#1070,#1101,#1134,#1265,#1289,#1313,#1470,#1620,#1651,#1684,#1700,#1716,#1741,#1766,#1790,#1815,#1847,#1863,#1879,
#1898,#1920,#1937,#1954,#1971,#1988,#2005,#2022,#2034,#2051,#2068,#2080,#2108,#2126,#2157,#2181,#2205,#2239,#2290,#2318,#2336,#2348,#2366));
#2368=MANIFOLD_SOLID_BREP('CASE_TOP',#2367);
#26=STYLED_ITEM('',(),#2368);
#16=SHAPE_REPRESENTATION('root',(#15),#10);
#17=ADVANCED_BREP_SHAPE_REPRESENTATION('root',(#2368),#10);
#2376=SHAPE_REPRESENTATION_RELATIONSHIP('','',#16,#17);
#2377=APPLICATION_CONTEXT('configuration controlled 3D design of mechanical parts and assemblies');
#2378=APPLICATION_PROTOCOL_DEFINITION('international standard','configuration_control_3d_design_ed2_mim',2004,#2377);
#2379=PRODUCT_CONTEXT('',#2377,'mechanical');
#2380=PRODUCT_DEFINITION_CONTEXT('part definition',#2377,'design');
#24=PRODUCT('root','root','',(#2379));
#2381=PRODUCT_RELATED_PRODUCT_CATEGORY('part','',(#24));
#2382=PRODUCT_DEFINITION_FORMATION_WITH_SPECIFIED_SOURCE('','',#24,.NOT_KNOWN.);
#25=PRODUCT_DEFINITION('design','',#2382,#2380);
#23=PRODUCT_DEFINITION_SHAPE('','',#25);
#2383=SHAPE_DEFINITION_REPRESENTATION(#23,#16);
#11=DRAUGHTING_MODEL('',(),#10);
#1=MECHANICAL_DESIGN_GEOMETRIC_PRESENTATION_REPRESENTATION('',(#26),#10);
ENDSEC;
END-ISO-10303-21;
