ISO-10303-21;
HEADER;

/* File generated by HOOPS Exchange Version 24.2.0 */

FILE_DESCRIPTION(('HOOPS Exchange Step'),'2;1');

FILE_NAME('D:\\downloads\\captioncast\\captioncast\\enclosure\\exports\\v1\\ESP_CASE_BOX.stp',
'2026-06-22T22:51:26+05:30',
('sushi'),
('Unknown organisation'),
'HOOPS Exchange 2024.2',
'HOOPS Exchange',
'Unknown authorisation');

FILE_SCHEMA( ('AP203_CONFIGURATION_CONTROLLED_3D_DESIGN_OF_MECHANICAL_PARTS_AND_ASSEMBLIES_MIM_LF') );

ENDSEC;

DATA;
#3=(NAMED_UNIT(*)PLANE_ANGLE_UNIT()SI_UNIT($,.RADIAN.));
#4=PLANE_ANGLE_MEASURE_WITH_UNIT(PLANE_ANGLE_MEASURE(0.0174532925),#3);
#5=(CONVERSION_BASED_UNIT('DEGREE',#4)NAMED_UNIT(#6)PLANE_ANGLE_UNIT());
#6=DIMENSIONAL_EXPONENTS(0.,0.,0.,0.,0.,0.,0.);
#7=(NAMED_UNIT(*)SI_UNIT($,.STERADIAN.)SOLID_ANGLE_UNIT());
#8=(LENGTH_UNIT()NAMED_UNIT(*)SI_UNIT(.MILLI.,.METRE.));
#9=UNCERTAINTY_MEASURE_WITH_UNIT(LENGTH_MEASURE(1.000000E-05),#8,'DISTANCE_ACCURACY_VALUE','Maximum Tolerance applied to model');
#10=(GEOMETRIC_REPRESENTATION_CONTEXT(3)GLOBAL_UNCERTAINTY_ASSIGNED_CONTEXT((#9))GLOBAL_UNIT_ASSIGNED_CONTEXT((#8,#5,#7))REPRESENTATION_CONTEXT('','root'));
#12=CARTESIAN_POINT('',(0.,0.,0.));
#13=DIRECTION('',(0.,0.,1.));
#14=DIRECTION('',(1.,0.,0.));
#15=AXIS2_PLACEMENT_3D('',#12,#13,#14);
#27=CARTESIAN_POINT('',(-10.176423449,43.448558941,12.595651003));
#28=DIRECTION('',(0.,-0.,-1.));
#29=DIRECTION('',(0.,1.,-0.));
#30=AXIS2_PLACEMENT_3D('',#27,#28,#29);
#31=PLANE('',#30);
#32=CARTESIAN_POINT('',(-10.176398036,20.424013436,12.595651003));
#33=VERTEX_POINT('',#32);
#34=CARTESIAN_POINT('',(-10.176423449,43.448558941,12.595651003));
#35=VERTEX_POINT('',#34);
#36=CARTESIAN_POINT('',(-10.176398036,20.426701288,12.595651003));
#37=DIRECTION('',(0.,1.,-0.));
#38=VECTOR('',#37,23.021857653);
#39=LINE('',#36,#38);
#40=EDGE_CURVE('',#33,#35,#39,.T.);
#41=ORIENTED_EDGE('',*,*,#40,.T.);
#42=CARTESIAN_POINT('',(4.129387688,43.448558941,12.595651003));
#43=VERTEX_POINT('',#42);
#44=CARTESIAN_POINT('',(4.129387688,43.448558941,12.595651003));
#45=DIRECTION('',(-1.,0.,0.));
#46=VECTOR('',#45,14.305811137);
#47=LINE('',#44,#46);
#48=EDGE_CURVE('',#43,#35,#47,.T.);
#49=ORIENTED_EDGE('',*,*,#48,.F.);
#50=CARTESIAN_POINT('',(4.129387688,20.424013436,12.595651003));
#51=VERTEX_POINT('',#50);
#52=CARTESIAN_POINT('',(4.129387688,20.424013436,12.595651003));
#53=DIRECTION('',(0.,1.,-0.));
#54=VECTOR('',#53,23.024545505);
#55=LINE('',#52,#54);
#56=EDGE_CURVE('',#51,#43,#55,.T.);
#57=ORIENTED_EDGE('',*,*,#56,.F.);
#58=CARTESIAN_POINT('',(4.129387688,20.424013436,12.595651003));
#59=DIRECTION('',(-1.,-0.,0.));
#60=VECTOR('',#59,14.305785724);
#61=LINE('',#58,#60);
#62=EDGE_CURVE('',#51,#33,#61,.T.);
#63=ORIENTED_EDGE('',*,*,#62,.T.);
#64=EDGE_LOOP('',(#41,#49,#57,#63));
#65=FACE_BOUND('',#64,.T.);
#66=ADVANCED_FACE('',(#65),#31,.T.);
#67=CARTESIAN_POINT('',(10.040917007,31.936286189,11.551936069));
#68=DIRECTION('',(1.,0.,0.));
#69=DIRECTION('',(0.,0.,1.));
#70=AXIS2_PLACEMENT_3D('',#67,#68,#69);
#71=PLANE('',#70);
#72=CARTESIAN_POINT('',(10.040917007,20.424013436,13.608221135));
#73=VERTEX_POINT('',#72);
#74=CARTESIAN_POINT('',(10.040917007,20.424013436,7.408221135));
#75=VERTEX_POINT('',#74);
#76=CARTESIAN_POINT('',(10.040917007,20.424013436,13.608221135));
#77=DIRECTION('',(-0.,-0.,-1.));
#78=VECTOR('',#77,6.2);
#79=LINE('',#76,#78);
#80=EDGE_CURVE('',#73,#75,#79,.T.);
#81=ORIENTED_EDGE('',*,*,#80,.F.);
#82=CARTESIAN_POINT('',(10.040917007,43.448558941,13.608221135));
#83=VERTEX_POINT('',#82);
#84=CARTESIAN_POINT('',(10.040917007,20.424013436,13.608221135));
#85=DIRECTION('',(-0.,1.,-0.));
#86=VECTOR('',#85,23.024545505);
#87=LINE('',#84,#86);
#88=EDGE_CURVE('',#73,#83,#87,.T.);
#89=ORIENTED_EDGE('',*,*,#88,.T.);
#90=CARTESIAN_POINT('',(10.040917007,43.448558941,7.408221135));
#91=VERTEX_POINT('',#90);
#92=CARTESIAN_POINT('',(10.040917007,43.448558941,13.608221135));
#93=DIRECTION('',(0.,-0.,-1.));
#94=VECTOR('',#93,6.2);
#95=LINE('',#92,#94);
#96=EDGE_CURVE('',#83,#91,#95,.T.);
#97=ORIENTED_EDGE('',*,*,#96,.T.);
#98=CARTESIAN_POINT('',(10.040917007,20.424013436,7.408221135));
#99=DIRECTION('',(0.,1.,-0.));
#100=VECTOR('',#99,23.024545505);
#101=LINE('',#98,#100);
#102=EDGE_CURVE('',#75,#91,#101,.T.);
#103=ORIENTED_EDGE('',*,*,#102,.F.);
#104=EDGE_LOOP('',(#81,#89,#97,#103));
#105=FACE_BOUND('',#104,.T.);
#106=ADVANCED_FACE('',(#105),#71,.F.);
#107=CARTESIAN_POINT('',(9.261361095,18.421325584,7.408221135));
#108=DIRECTION('',(-0.,-1.,0.));
#109=DIRECTION('',(0.,0.,1.));
#110=AXIS2_PLACEMENT_3D('',#107,#108,#109);
#111=PLANE('',#110);
#112=CARTESIAN_POINT('',(9.261361095,18.421325584,6.408221135));
#113=VERTEX_POINT('',#112);
#114=CARTESIAN_POINT('',(-9.098613491,18.421325584,6.408221135));
#115=VERTEX_POINT('',#114);
#116=CARTESIAN_POINT('',(9.261361095,18.421325584,6.408221135));
#117=DIRECTION('',(-1.,0.,-0.));
#118=VECTOR('',#117,18.359974587);
#119=LINE('',#116,#118);
#120=EDGE_CURVE('',#113,#115,#119,.T.);
#121=ORIENTED_EDGE('',*,*,#120,.F.);
#122=CARTESIAN_POINT('',(9.261361095,18.421325584,13.608221135));
#123=VERTEX_POINT('',#122);
#124=CARTESIAN_POINT('',(9.261361095,18.421325584,6.408221135));
#125=DIRECTION('',(0.,0.,1.));
#126=VECTOR('',#125,7.2);
#127=LINE('',#124,#126);
#128=EDGE_CURVE('',#113,#123,#127,.T.);
#129=ORIENTED_EDGE('',*,*,#128,.T.);
#130=CARTESIAN_POINT('',(-9.098613491,18.421325584,13.608221135));
#131=VERTEX_POINT('',#130);
#132=CARTESIAN_POINT('',(-9.098613491,18.421325584,13.608221135));
#133=DIRECTION('',(1.,-0.,-0.));
#134=VECTOR('',#133,18.359974587);
#135=LINE('',#132,#134);
#136=EDGE_CURVE('',#131,#123,#135,.T.);
#137=ORIENTED_EDGE('',*,*,#136,.F.);
#138=CARTESIAN_POINT('',(-9.098613491,18.421325584,13.608221135));
#139=DIRECTION('',(-0.,-0.,-1.));
#140=VECTOR('',#139,7.2);
#141=LINE('',#138,#140);
#142=EDGE_CURVE('',#131,#115,#141,.T.);
#143=ORIENTED_EDGE('',*,*,#142,.T.);
#144=EDGE_LOOP('',(#121,#129,#137,#143));
#145=FACE_BOUND('',#144,.T.);
#146=ADVANCED_FACE('',(#145),#111,.T.);
#147=CARTESIAN_POINT('',(0.081361095,32.137902996,6.408221135));
#148=DIRECTION('',(0.,0.,1.));
#149=DIRECTION('',(-1.,0.,-0.));
#150=AXIS2_PLACEMENT_3D('',#147,#148,#149);
#151=PLANE('',#150);
#152=CARTESIAN_POINT('',(11.261361095,37.624127734,6.408221135));
#153=VERTEX_POINT('',#152);
#154=CARTESIAN_POINT('',(11.261361095,20.421325584,6.408221135));
#155=VERTEX_POINT('',#154);
#156=CARTESIAN_POINT('',(11.261361095,37.624127734,6.408221135));
#157=DIRECTION('',(-0.,-1.,0.));
#158=VECTOR('',#157,17.20280215);
#159=LINE('',#156,#158);
#160=EDGE_CURVE('',#153,#155,#159,.T.);
#161=ORIENTED_EDGE('',*,*,#160,.T.);
#162=CARTESIAN_POINT('',(9.261361095,20.421325584,6.408221135));
#163=DIRECTION('',(-0.,-0.,-1.));
#164=DIRECTION('',(-1.,0.,-0.));
#165=AXIS2_PLACEMENT_3D('',#162,#163,#164);
#166=CIRCLE('',#165,2.);
#167=EDGE_CURVE('',#155,#113,#166,.T.);
#168=ORIENTED_EDGE('',*,*,#167,.T.);
#169=ORIENTED_EDGE('',*,*,#120,.T.);
#170=CARTESIAN_POINT('',(-11.098613491,20.421325584,6.408221135));
#171=VERTEX_POINT('',#170);
#172=CARTESIAN_POINT('',(-9.098613491,20.421325584,6.408221135));
#173=DIRECTION('',(-0.,-0.,-1.));
#174=DIRECTION('',(-1.,0.,-0.));
#175=AXIS2_PLACEMENT_3D('',#172,#173,#174);
#176=CIRCLE('',#175,2.);
#177=EDGE_CURVE('',#115,#171,#176,.T.);
#178=ORIENTED_EDGE('',*,*,#177,.T.);
#179=CARTESIAN_POINT('',(-11.098613491,37.624127734,6.408221135));
#180=VERTEX_POINT('',#179);
#181=CARTESIAN_POINT('',(-11.098613491,20.421325584,6.408221135));
#182=DIRECTION('',(0.,1.,-0.));
#183=VECTOR('',#182,17.20280215);
#184=LINE('',#181,#183);
#185=EDGE_CURVE('',#171,#180,#184,.T.);
#186=ORIENTED_EDGE('',*,*,#185,.T.);
#187=CARTESIAN_POINT('',(-11.462684908,38.503073886,6.408221135));
#188=VERTEX_POINT('',#187);
#189=CARTESIAN_POINT('',(-12.34163106,37.624127734,6.408221135));
#190=DIRECTION('',(0.,0.,1.));
#191=DIRECTION('',(-1.,0.,-0.));
#192=AXIS2_PLACEMENT_3D('',#189,#190,#191);
#193=CIRCLE('',#192,1.243017569);
#194=EDGE_CURVE('',#180,#188,#193,.T.);
#195=ORIENTED_EDGE('',*,*,#194,.T.);
#196=CARTESIAN_POINT('',(-14.044098546,41.084487524,6.408221135));
#197=VERTEX_POINT('',#196);
#198=CARTESIAN_POINT('',(-11.462684908,38.503073886,6.408221135));
#199=DIRECTION('',(-0.707106781,0.707106781,-0.));
#200=VECTOR('',#199,3.650670178);
#201=LINE('',#198,#200);
#202=EDGE_CURVE('',#188,#197,#201,.T.);
#203=ORIENTED_EDGE('',*,*,#202,.T.);
#204=CARTESIAN_POINT('',(-14.411017264,41.338202214,6.408221135));
#205=VERTEX_POINT('',#204);
#206=CARTESIAN_POINT('',(-14.923044698,40.205541373,6.408221135));
#207=DIRECTION('',(0.,0.,1.));
#208=DIRECTION('',(-1.,0.,-0.));
#209=AXIS2_PLACEMENT_3D('',#206,#207,#208);
#210=CIRCLE('',#209,1.243017569);
#211=EDGE_CURVE('',#197,#205,#210,.T.);
#212=ORIENTED_EDGE('',*,*,#211,.T.);
#213=CARTESIAN_POINT('',(-14.411014298,41.448558941,6.408221135));
#214=VERTEX_POINT('',#213);
#215=CARTESIAN_POINT('',(-14.411014298,41.448558941,6.408221135));
#216=DIRECTION('',(0.,-1.,0.));
#217=VECTOR('',#216,0.110356727);
#218=LINE('',#215,#217);
#219=EDGE_CURVE('',#214,#205,#218,.T.);
#220=ORIENTED_EDGE('',*,*,#219,.F.);
#221=CARTESIAN_POINT('',(-14.411014298,43.448558941,6.408221135));
#222=VERTEX_POINT('',#221);
#223=CARTESIAN_POINT('',(-14.411014298,41.448558941,6.408221135));
#224=DIRECTION('',(0.,1.,-0.));
#225=VECTOR('',#224,2.);
#226=LINE('',#223,#225);
#227=EDGE_CURVE('',#214,#222,#226,.T.);
#228=ORIENTED_EDGE('',*,*,#227,.T.);
#229=CARTESIAN_POINT('',(14.573736489,43.448558941,6.408221135));
#230=VERTEX_POINT('',#229);
#231=CARTESIAN_POINT('',(14.573736489,43.448558941,6.408221135));
#232=DIRECTION('',(-1.,0.,-0.));
#233=VECTOR('',#232,28.984750787);
#234=LINE('',#231,#233);
#235=EDGE_CURVE('',#230,#222,#234,.T.);
#236=ORIENTED_EDGE('',*,*,#235,.F.);
#237=CARTESIAN_POINT('',(14.573736489,41.448558941,6.408221135));
#238=VERTEX_POINT('',#237);
#239=CARTESIAN_POINT('',(14.573736489,41.448558941,6.408221135));
#240=DIRECTION('',(0.,1.,-0.));
#241=VECTOR('',#240,2.);
#242=LINE('',#239,#241);
#243=EDGE_CURVE('',#238,#230,#242,.T.);
#244=ORIENTED_EDGE('',*,*,#243,.F.);
#245=CARTESIAN_POINT('',(14.573739467,41.338190731,6.408221135));
#246=VERTEX_POINT('',#245);
#247=CARTESIAN_POINT('',(14.573736489,41.448558941,6.408221135));
#248=DIRECTION('',(-0.,-1.,0.));
#249=VECTOR('',#248,0.11036821);
#250=LINE('',#247,#249);
#251=EDGE_CURVE('',#238,#246,#250,.T.);
#252=ORIENTED_EDGE('',*,*,#251,.T.);
#253=CARTESIAN_POINT('',(14.206846151,41.084487524,6.408221135));
#254=VERTEX_POINT('',#253);
#255=CARTESIAN_POINT('',(15.085792303,40.205541373,6.408221135));
#256=DIRECTION('',(0.,0.,1.));
#257=DIRECTION('',(-1.,0.,-0.));
#258=AXIS2_PLACEMENT_3D('',#255,#256,#257);
#259=CIRCLE('',#258,1.243017569);
#260=EDGE_CURVE('',#246,#254,#259,.T.);
#261=ORIENTED_EDGE('',*,*,#260,.T.);
#262=CARTESIAN_POINT('',(11.625432512,38.503073886,6.408221135));
#263=VERTEX_POINT('',#262);
#264=CARTESIAN_POINT('',(14.206846151,41.084487524,6.408221135));
#265=DIRECTION('',(-0.707106781,-0.707106781,0.));
#266=VECTOR('',#265,3.650670178);
#267=LINE('',#264,#266);
#268=EDGE_CURVE('',#254,#263,#267,.T.);
#269=ORIENTED_EDGE('',*,*,#268,.T.);
#270=CARTESIAN_POINT('',(12.504378664,37.624127734,6.408221135));
#271=DIRECTION('',(0.,0.,1.));
#272=DIRECTION('',(-1.,0.,-0.));
#273=AXIS2_PLACEMENT_3D('',#270,#271,#272);
#274=CIRCLE('',#273,1.243017569);
#275=EDGE_CURVE('',#263,#153,#274,.T.);
#276=ORIENTED_EDGE('',*,*,#275,.T.);
#277=EDGE_LOOP('',(#161,#168,#169,#178,#186,#195,#203,#212,#220,#228,#236,#244,#252,#261,#269,#276));
#278=FACE_BOUND('',#277,.T.);
#279=ADVANCED_FACE('',(#278),#151,.F.);
#280=CARTESIAN_POINT('',(0.081386509,32.137902996,13.608221135));
#281=DIRECTION('',(-0.,-0.,-1.));
#282=DIRECTION('',(1.,-0.,-0.));
#283=AXIS2_PLACEMENT_3D('',#280,#281,#282);
#284=PLANE('',#283);
#285=ORIENTED_EDGE('',*,*,#136,.T.);
#286=CARTESIAN_POINT('',(11.261361095,20.421325584,13.608221135));
#287=VERTEX_POINT('',#286);
#288=CARTESIAN_POINT('',(9.261361095,20.421325584,13.608221135));
#289=DIRECTION('',(0.,0.,1.));
#290=DIRECTION('',(1.,-0.,-0.));
#291=AXIS2_PLACEMENT_3D('',#288,#289,#290);
#292=CIRCLE('',#291,2.);
#293=EDGE_CURVE('',#123,#287,#292,.T.);
#294=ORIENTED_EDGE('',*,*,#293,.T.);
#295=CARTESIAN_POINT('',(11.261361095,37.624127734,13.608221135));
#296=VERTEX_POINT('',#295);
#297=CARTESIAN_POINT('',(11.261361095,20.421325584,13.608221135));
#298=DIRECTION('',(0.,1.,-0.));
#299=VECTOR('',#298,17.20280215);
#300=LINE('',#297,#299);
#301=EDGE_CURVE('',#287,#296,#300,.T.);
#302=ORIENTED_EDGE('',*,*,#301,.T.);
#303=CARTESIAN_POINT('',(11.625432512,38.503073886,13.608221135));
#304=VERTEX_POINT('',#303);
#305=CARTESIAN_POINT('',(12.504378664,37.624127734,13.608221135));
#306=DIRECTION('',(-0.,-0.,-1.));
#307=DIRECTION('',(1.,-0.,-0.));
#308=AXIS2_PLACEMENT_3D('',#305,#306,#307);
#309=CIRCLE('',#308,1.243017569);
#310=EDGE_CURVE('',#296,#304,#309,.T.);
#311=ORIENTED_EDGE('',*,*,#310,.T.);
#312=CARTESIAN_POINT('',(14.206846151,41.084487524,13.608221135));
#313=VERTEX_POINT('',#312);
#314=CARTESIAN_POINT('',(11.625432512,38.503073886,13.608221135));
#315=DIRECTION('',(0.707106781,0.707106781,-0.));
#316=VECTOR('',#315,3.650670178);
#317=LINE('',#314,#316);
#318=EDGE_CURVE('',#304,#313,#317,.T.);
#319=ORIENTED_EDGE('',*,*,#318,.T.);
#320=CARTESIAN_POINT('',(14.573736489,41.338189385,13.608221135));
#321=VERTEX_POINT('',#320);
#322=CARTESIAN_POINT('',(15.085792303,40.205541373,13.608221135));
#323=DIRECTION('',(-0.,-0.,-1.));
#324=DIRECTION('',(1.,-0.,-0.));
#325=AXIS2_PLACEMENT_3D('',#322,#323,#324);
#326=CIRCLE('',#325,1.243017569);
#327=EDGE_CURVE('',#313,#321,#326,.T.);
#328=ORIENTED_EDGE('',*,*,#327,.T.);
#329=CARTESIAN_POINT('',(14.573736489,43.448558941,13.608221135));
#330=VERTEX_POINT('',#329);
#331=CARTESIAN_POINT('',(14.573736489,43.448558941,13.608221135));
#332=DIRECTION('',(-0.,-1.,0.));
#333=VECTOR('',#332,2.110369556);
#334=LINE('',#331,#333);
#335=EDGE_CURVE('',#330,#321,#334,.T.);
#336=ORIENTED_EDGE('',*,*,#335,.F.);
#337=CARTESIAN_POINT('',(10.040917007,43.448558941,13.608221135));
#338=DIRECTION('',(1.,-0.,-0.));
#339=VECTOR('',#338,4.532819482);
#340=LINE('',#337,#339);
#341=EDGE_CURVE('',#83,#330,#340,.T.);
#342=ORIENTED_EDGE('',*,*,#341,.F.);
#343=ORIENTED_EDGE('',*,*,#88,.F.);
#344=CARTESIAN_POINT('',(4.129387688,20.424013436,13.608221135));
#345=VERTEX_POINT('',#344);
#346=CARTESIAN_POINT('',(4.129387688,20.424013436,13.608221135));
#347=DIRECTION('',(1.,-0.,-0.));
#348=VECTOR('',#347,5.911529319);
#349=LINE('',#346,#348);
#350=EDGE_CURVE('',#345,#73,#349,.T.);
#351=ORIENTED_EDGE('',*,*,#350,.F.);
#352=CARTESIAN_POINT('',(4.129387688,43.448558941,13.608221135));
#353=VERTEX_POINT('',#352);
#354=CARTESIAN_POINT('',(4.129387688,43.448558941,13.608221135));
#355=DIRECTION('',(-0.,-1.,0.));
#356=VECTOR('',#355,23.024545505);
#357=LINE('',#354,#356);
#358=EDGE_CURVE('',#353,#345,#357,.T.);
#359=ORIENTED_EDGE('',*,*,#358,.F.);
#360=CARTESIAN_POINT('',(-14.411014298,43.448558941,13.608221135));
#361=VERTEX_POINT('',#360);
#362=CARTESIAN_POINT('',(-14.411014298,43.448558941,13.608221135));
#363=DIRECTION('',(1.,-0.,-0.));
#364=VECTOR('',#363,18.540401986);
#365=LINE('',#362,#364);
#366=EDGE_CURVE('',#361,#353,#365,.T.);
#367=ORIENTED_EDGE('',*,*,#366,.F.);
#368=CARTESIAN_POINT('',(-14.411014298,41.338200873,13.608221135));
#369=VERTEX_POINT('',#368);
#370=CARTESIAN_POINT('',(-14.411014298,43.448558941,13.608221135));
#371=DIRECTION('',(0.,-1.,0.));
#372=VECTOR('',#371,2.110358068);
#373=LINE('',#370,#372);
#374=EDGE_CURVE('',#361,#369,#373,.T.);
#375=ORIENTED_EDGE('',*,*,#374,.T.);
#376=CARTESIAN_POINT('',(-14.044098546,41.084487524,13.608221135));
#377=VERTEX_POINT('',#376);
#378=CARTESIAN_POINT('',(-14.923044698,40.205541373,13.608221135));
#379=DIRECTION('',(-0.,-0.,-1.));
#380=DIRECTION('',(1.,-0.,-0.));
#381=AXIS2_PLACEMENT_3D('',#378,#379,#380);
#382=CIRCLE('',#381,1.243017569);
#383=EDGE_CURVE('',#369,#377,#382,.T.);
#384=ORIENTED_EDGE('',*,*,#383,.T.);
#385=CARTESIAN_POINT('',(-11.462684908,38.503073886,13.608221135));
#386=VERTEX_POINT('',#385);
#387=CARTESIAN_POINT('',(-14.044098546,41.084487524,13.608221135));
#388=DIRECTION('',(0.707106781,-0.707106781,0.));
#389=VECTOR('',#388,3.650670178);
#390=LINE('',#387,#389);
#391=EDGE_CURVE('',#377,#386,#390,.T.);
#392=ORIENTED_EDGE('',*,*,#391,.T.);
#393=CARTESIAN_POINT('',(-11.098613491,37.624127734,13.608221135));
#394=VERTEX_POINT('',#393);
#395=CARTESIAN_POINT('',(-12.34163106,37.624127734,13.608221135));
#396=DIRECTION('',(-0.,-0.,-1.));
#397=DIRECTION('',(1.,-0.,-0.));
#398=AXIS2_PLACEMENT_3D('',#395,#396,#397);
#399=CIRCLE('',#398,1.243017569);
#400=EDGE_CURVE('',#386,#394,#399,.T.);
#401=ORIENTED_EDGE('',*,*,#400,.T.);
#402=CARTESIAN_POINT('',(-11.098613491,20.421325584,13.608221135));
#403=VERTEX_POINT('',#402);
#404=CARTESIAN_POINT('',(-11.098613491,37.624127734,13.608221135));
#405=DIRECTION('',(-0.,-1.,0.));
#406=VECTOR('',#405,17.20280215);
#407=LINE('',#404,#406);
#408=EDGE_CURVE('',#394,#403,#407,.T.);
#409=ORIENTED_EDGE('',*,*,#408,.T.);
#410=CARTESIAN_POINT('',(-9.098613491,20.421325584,13.608221135));
#411=DIRECTION('',(0.,0.,1.));
#412=DIRECTION('',(1.,-0.,-0.));
#413=AXIS2_PLACEMENT_3D('',#410,#411,#412);
#414=CIRCLE('',#413,2.);
#415=EDGE_CURVE('',#403,#131,#414,.T.);
#416=ORIENTED_EDGE('',*,*,#415,.T.);
#417=EDGE_LOOP('',(#285,#294,#302,#311,#319,#328,#336,#342,#343,#351,#359,#367,#375,#384,#392,#401,#409,#416));
#418=FACE_BOUND('',#417,.T.);
#419=ADVANCED_FACE('',(#418),#284,.F.);
#420=CARTESIAN_POINT('',(11.261361095,43.448558941,7.408221135));
#421=DIRECTION('',(1.,-0.,0.));
#422=DIRECTION('',(0.,0.,1.));
#423=AXIS2_PLACEMENT_3D('',#420,#421,#422);
#424=PLANE('',#423);
#425=ORIENTED_EDGE('',*,*,#301,.F.);
#426=CARTESIAN_POINT('',(11.261361095,20.421325584,13.608221135));
#427=DIRECTION('',(-0.,-0.,-1.));
#428=VECTOR('',#427,7.2);
#429=LINE('',#426,#428);
#430=EDGE_CURVE('',#287,#155,#429,.T.);
#431=ORIENTED_EDGE('',*,*,#430,.T.);
#432=ORIENTED_EDGE('',*,*,#160,.F.);
#433=CARTESIAN_POINT('',(11.261361095,37.624127734,6.408221135));
#434=DIRECTION('',(-0.,0.,1.));
#435=VECTOR('',#434,7.2);
#436=LINE('',#433,#435);
#437=EDGE_CURVE('',#153,#296,#436,.T.);
#438=ORIENTED_EDGE('',*,*,#437,.T.);
#439=EDGE_LOOP('',(#425,#431,#432,#438));
#440=FACE_BOUND('',#439,.T.);
#441=ADVANCED_FACE('',(#440),#424,.T.);
#442=CARTESIAN_POINT('',(12.74966609,43.448558941,-58.152334977));
#443=DIRECTION('',(0.,1.,-0.));
#444=DIRECTION('',(-0.,-0.,-1.));
#445=AXIS2_PLACEMENT_3D('',#442,#443,#444);
#446=PLANE('',#445);
#447=ORIENTED_EDGE('',*,*,#96,.F.);
#448=ORIENTED_EDGE('',*,*,#341,.T.);
#449=CARTESIAN_POINT('',(18.173736489,43.448558941,10.008221135));
#450=VERTEX_POINT('',#449);
#451=CARTESIAN_POINT('',(14.573736489,43.448558941,10.008221135));
#452=DIRECTION('',(-0.,-1.,0.));
#453=DIRECTION('',(0.,0.,1.));
#454=AXIS2_PLACEMENT_3D('',#451,#452,#453);
#455=CIRCLE('',#454,3.6);
#456=EDGE_CURVE('',#450,#330,#455,.T.);
#457=ORIENTED_EDGE('',*,*,#456,.F.);
#458=CARTESIAN_POINT('',(14.573736489,43.448558941,10.008221135));
#459=DIRECTION('',(-0.,-1.,0.));
#460=DIRECTION('',(0.,0.,1.));
#461=AXIS2_PLACEMENT_3D('',#458,#459,#460);
#462=CIRCLE('',#461,3.6);
#463=EDGE_CURVE('',#230,#450,#462,.T.);
#464=ORIENTED_EDGE('',*,*,#463,.F.);
#465=ORIENTED_EDGE('',*,*,#235,.T.);
#466=CARTESIAN_POINT('',(-18.011014298,43.448558941,10.008221135));
#467=VERTEX_POINT('',#466);
#468=CARTESIAN_POINT('',(-14.411014298,43.448558941,10.008221135));
#469=DIRECTION('',(0.,1.,-0.));
#470=DIRECTION('',(0.,0.,1.));
#471=AXIS2_PLACEMENT_3D('',#468,#469,#470);
#472=CIRCLE('',#471,3.6);
#473=EDGE_CURVE('',#222,#467,#472,.T.);
#474=ORIENTED_EDGE('',*,*,#473,.T.);
#475=CARTESIAN_POINT('',(-14.411014298,43.448558941,10.008221135));
#476=DIRECTION('',(0.,1.,-0.));
#477=DIRECTION('',(0.,0.,1.));
#478=AXIS2_PLACEMENT_3D('',#475,#476,#477);
#479=CIRCLE('',#478,3.6);
#480=EDGE_CURVE('',#467,#361,#479,.T.);
#481=ORIENTED_EDGE('',*,*,#480,.T.);
#482=ORIENTED_EDGE('',*,*,#366,.T.);
#483=CARTESIAN_POINT('',(4.129387688,43.448558941,13.608221135));
#484=DIRECTION('',(0.,-0.,-1.));
#485=VECTOR('',#484,1.012570131);
#486=LINE('',#483,#485);
#487=EDGE_CURVE('',#353,#43,#486,.T.);
#488=ORIENTED_EDGE('',*,*,#487,.T.);
#489=ORIENTED_EDGE('',*,*,#48,.T.);
#490=CARTESIAN_POINT('',(-10.176398036,43.448558941,7.408221135));
#491=VERTEX_POINT('',#490);
#492=CARTESIAN_POINT('',(-10.176398036,43.448558941,12.595651003));
#493=DIRECTION('',(-0.,-0.,-1.));
#494=VECTOR('',#493,5.187429869);
#495=LINE('',#492,#494);
#496=EDGE_CURVE('',#35,#491,#495,.T.);
#497=ORIENTED_EDGE('',*,*,#496,.T.);
#498=CARTESIAN_POINT('',(10.040917007,43.448558941,7.408221135));
#499=DIRECTION('',(-1.,0.,-0.));
#500=VECTOR('',#499,20.217315043);
#501=LINE('',#498,#500);
#502=EDGE_CURVE('',#91,#491,#501,.T.);
#503=ORIENTED_EDGE('',*,*,#502,.F.);
#504=EDGE_LOOP('',(#447,#448,#457,#464,#465,#474,#481,#482,#488,#489,#497,#503));
#505=FACE_BOUND('',#504,.T.);
#506=CARTESIAN_POINT('',(-15.565417782,43.448558941,10.008221135));
#507=VERTEX_POINT('',#506);
#508=CARTESIAN_POINT('',(-14.411014298,43.448558941,8.853817651));
#509=VERTEX_POINT('',#508);
#510=CARTESIAN_POINT('',(-14.411014298,43.448558941,10.008221135));
#511=DIRECTION('',(0.,1.,-0.));
#512=DIRECTION('',(-0.,-0.,-1.));
#513=AXIS2_PLACEMENT_3D('',#510,#511,#512);
#514=CIRCLE('',#513,1.154403484);
#515=EDGE_CURVE('',#507,#509,#514,.T.);
#516=ORIENTED_EDGE('',*,*,#515,.F.);
#517=CARTESIAN_POINT('',(-14.411014298,43.448558941,10.008221135));
#518=DIRECTION('',(0.,1.,-0.));
#519=DIRECTION('',(-0.,-0.,-1.));
#520=AXIS2_PLACEMENT_3D('',#517,#518,#519);
#521=CIRCLE('',#520,1.154403484);
#522=EDGE_CURVE('',#509,#507,#521,.T.);
#523=ORIENTED_EDGE('',*,*,#522,.F.);
#524=EDGE_LOOP('',(#516,#523));
#525=FACE_BOUND('',#524,.T.);
#526=CARTESIAN_POINT('',(14.573736489,43.448558941,8.853817651));
#527=VERTEX_POINT('',#526);
#528=CARTESIAN_POINT('',(15.728139973,43.448558941,10.008221135));
#529=VERTEX_POINT('',#528);
#530=CARTESIAN_POINT('',(14.573736489,43.448558941,10.008221135));
#531=DIRECTION('',(-0.,-1.,0.));
#532=DIRECTION('',(-0.,-0.,-1.));
#533=AXIS2_PLACEMENT_3D('',#530,#531,#532);
#534=CIRCLE('',#533,1.154403484);
#535=EDGE_CURVE('',#527,#529,#534,.T.);
#536=ORIENTED_EDGE('',*,*,#535,.T.);
#537=CARTESIAN_POINT('',(14.573736489,43.448558941,10.008221135));
#538=DIRECTION('',(-0.,-1.,0.));
#539=DIRECTION('',(-0.,-0.,-1.));
#540=AXIS2_PLACEMENT_3D('',#537,#538,#539);
#541=CIRCLE('',#540,1.154403484);
#542=EDGE_CURVE('',#529,#527,#541,.T.);
#543=ORIENTED_EDGE('',*,*,#542,.T.);
#544=EDGE_LOOP('',(#536,#543));
#545=FACE_BOUND('',#544,.T.);
#546=ADVANCED_FACE('',(#505,#525,#545),#446,.T.);
#547=CARTESIAN_POINT('',(-11.098613491,19.088558838,7.408221135));
#548=DIRECTION('',(-1.,0.,-0.));
#549=DIRECTION('',(-0.,-0.,-1.));
#550=AXIS2_PLACEMENT_3D('',#547,#548,#549);
#551=PLANE('',#550);
#552=ORIENTED_EDGE('',*,*,#185,.F.);
#553=CARTESIAN_POINT('',(-11.098613491,20.421325584,6.408221135));
#554=DIRECTION('',(0.,0.,1.));
#555=VECTOR('',#554,7.2);
#556=LINE('',#553,#555);
#557=EDGE_CURVE('',#171,#403,#556,.T.);
#558=ORIENTED_EDGE('',*,*,#557,.T.);
#559=ORIENTED_EDGE('',*,*,#408,.F.);
#560=CARTESIAN_POINT('',(-11.098613491,37.624127734,13.608221135));
#561=DIRECTION('',(0.,-0.,-1.));
#562=VECTOR('',#561,7.2);
#563=LINE('',#560,#562);
#564=EDGE_CURVE('',#394,#180,#563,.T.);
#565=ORIENTED_EDGE('',*,*,#564,.T.);
#566=EDGE_LOOP('',(#552,#558,#559,#565));
#567=FACE_BOUND('',#566,.T.);
#568=ADVANCED_FACE('',(#567),#551,.T.);
#569=CARTESIAN_POINT('',(0.310285605,20.424013436,10.127413634));
#570=DIRECTION('',(0.,1.,0.));
#571=DIRECTION('',(0.,0.,-1.));
#572=AXIS2_PLACEMENT_3D('',#569,#570,#571);
#573=PLANE('',#572);
#574=ORIENTED_EDGE('',*,*,#80,.T.);
#575=CARTESIAN_POINT('',(-10.176398036,20.424013436,7.408221135));
#576=VERTEX_POINT('',#575);
#577=CARTESIAN_POINT('',(-10.176398036,20.424013436,7.408221135));
#578=DIRECTION('',(1.,-0.,-0.));
#579=VECTOR('',#578,20.217315043);
#580=LINE('',#577,#579);
#581=EDGE_CURVE('',#576,#75,#580,.T.);
#582=ORIENTED_EDGE('',*,*,#581,.F.);
#583=CARTESIAN_POINT('',(-10.176398036,20.424013436,12.595651003));
#584=DIRECTION('',(0.,-0.,-1.));
#585=VECTOR('',#584,5.187429869);
#586=LINE('',#583,#585);
#587=EDGE_CURVE('',#33,#576,#586,.T.);
#588=ORIENTED_EDGE('',*,*,#587,.F.);
#589=ORIENTED_EDGE('',*,*,#62,.F.);
#590=CARTESIAN_POINT('',(4.129387688,20.424013436,12.595651003));
#591=DIRECTION('',(-0.,-0.,1.));
#592=VECTOR('',#591,1.012570131);
#593=LINE('',#590,#592);
#594=EDGE_CURVE('',#51,#345,#593,.T.);
#595=ORIENTED_EDGE('',*,*,#594,.T.);
#596=ORIENTED_EDGE('',*,*,#350,.T.);
#597=EDGE_LOOP('',(#574,#582,#588,#589,#595,#596));
#598=FACE_BOUND('',#597,.T.);
#599=ADVANCED_FACE('',(#598),#573,.T.);
#600=CARTESIAN_POINT('',(-10.176398036,19.088558838,12.139699713));
#601=DIRECTION('',(-1.,0.,-0.));
#602=DIRECTION('',(-0.,-0.,-1.));
#603=AXIS2_PLACEMENT_3D('',#600,#601,#602);
#604=PLANE('',#603);
#605=CARTESIAN_POINT('',(-10.176398036,43.448558941,7.408221135));
#606=DIRECTION('',(-0.,-1.,0.));
#607=VECTOR('',#606,23.024545505);
#608=LINE('',#605,#607);
#609=EDGE_CURVE('',#491,#576,#608,.T.);
#610=ORIENTED_EDGE('',*,*,#609,.F.);
#611=ORIENTED_EDGE('',*,*,#496,.F.);
#612=ORIENTED_EDGE('',*,*,#40,.F.);
#613=ORIENTED_EDGE('',*,*,#587,.T.);
#614=EDGE_LOOP('',(#610,#611,#612,#613));
#615=FACE_BOUND('',#614,.T.);
#616=ADVANCED_FACE('',(#615),#604,.F.);
#617=CARTESIAN_POINT('',(0.081361095,32.137902996,7.408221135));
#618=DIRECTION('',(0.,0.,1.));
#619=DIRECTION('',(-1.,0.,-0.));
#620=AXIS2_PLACEMENT_3D('',#617,#618,#619);
#621=PLANE('',#620);
#622=ORIENTED_EDGE('',*,*,#102,.T.);
#623=ORIENTED_EDGE('',*,*,#502,.T.);
#624=ORIENTED_EDGE('',*,*,#609,.T.);
#625=ORIENTED_EDGE('',*,*,#581,.T.);
#626=EDGE_LOOP('',(#622,#623,#624,#625));
#627=FACE_BOUND('',#626,.T.);
#628=ADVANCED_FACE('',(#627),#621,.T.);
#629=CARTESIAN_POINT('',(4.129387688,43.448558941,11.339337508));
#630=DIRECTION('',(1.,-0.,0.));
#631=DIRECTION('',(0.,-0.,-1.));
#632=AXIS2_PLACEMENT_3D('',#629,#630,#631);
#633=PLANE('',#632);
#634=ORIENTED_EDGE('',*,*,#487,.F.);
#635=ORIENTED_EDGE('',*,*,#358,.T.);
#636=ORIENTED_EDGE('',*,*,#594,.F.);
#637=ORIENTED_EDGE('',*,*,#56,.T.);
#638=EDGE_LOOP('',(#634,#635,#636,#637));
#639=FACE_BOUND('',#638,.T.);
#640=ADVANCED_FACE('',(#639),#633,.T.);
#641=CARTESIAN_POINT('',(9.261335682,41.448558941,12.139699713));
#642=DIRECTION('',(0.,1.,-0.));
#643=DIRECTION('',(-0.,-0.,-1.));
#644=AXIS2_PLACEMENT_3D('',#641,#642,#643);
#645=PLANE('',#644);
#646=CARTESIAN_POINT('',(-14.923044698,41.448558941,13.57162188));
#647=VERTEX_POINT('',#646);
#648=CARTESIAN_POINT('',(-18.011014298,41.448558941,10.008221135));
#649=VERTEX_POINT('',#648);
#650=CARTESIAN_POINT('',(-14.411014298,41.448558941,10.008221135));
#651=DIRECTION('',(0.,-1.,0.));
#652=DIRECTION('',(-1.,-0.,0.));
#653=AXIS2_PLACEMENT_3D('',#650,#651,#652);
#654=CIRCLE('',#653,3.6);
#655=EDGE_CURVE('',#647,#649,#654,.T.);
#656=ORIENTED_EDGE('',*,*,#655,.T.);
#657=CARTESIAN_POINT('',(-14.923044698,41.448558941,6.44482039));
#658=VERTEX_POINT('',#657);
#659=CARTESIAN_POINT('',(-14.411014298,41.448558941,10.008221135));
#660=DIRECTION('',(0.,-1.,0.));
#661=DIRECTION('',(-1.,-0.,0.));
#662=AXIS2_PLACEMENT_3D('',#659,#660,#661);
#663=CIRCLE('',#662,3.6);
#664=EDGE_CURVE('',#649,#658,#663,.T.);
#665=ORIENTED_EDGE('',*,*,#664,.T.);
#666=CARTESIAN_POINT('',(-14.923044698,41.448558941,8.973584835));
#667=VERTEX_POINT('',#666);
#668=CARTESIAN_POINT('',(-14.923044698,41.448558941,6.44482039));
#669=DIRECTION('',(-0.,0.,1.));
#670=VECTOR('',#669,2.528764445);
#671=LINE('',#668,#670);
#672=EDGE_CURVE('',#658,#667,#671,.T.);
#673=ORIENTED_EDGE('',*,*,#672,.T.);
#674=CARTESIAN_POINT('',(-15.565417782,41.448558941,10.008221135));
#675=VERTEX_POINT('',#674);
#676=CARTESIAN_POINT('',(-14.411014298,41.448558941,10.008221135));
#677=DIRECTION('',(0.,1.,-0.));
#678=DIRECTION('',(0.,-0.,-1.));
#679=AXIS2_PLACEMENT_3D('',#676,#677,#678);
#680=CIRCLE('',#679,1.154403484);
#681=EDGE_CURVE('',#667,#675,#680,.T.);
#682=ORIENTED_EDGE('',*,*,#681,.T.);
#683=CARTESIAN_POINT('',(-14.923044698,41.448558941,11.042857434));
#684=VERTEX_POINT('',#683);
#685=CARTESIAN_POINT('',(-14.411014298,41.448558941,10.008221135));
#686=DIRECTION('',(0.,1.,-0.));
#687=DIRECTION('',(0.,-0.,-1.));
#688=AXIS2_PLACEMENT_3D('',#685,#686,#687);
#689=CIRCLE('',#688,1.154403484);
#690=EDGE_CURVE('',#675,#684,#689,.T.);
#691=ORIENTED_EDGE('',*,*,#690,.T.);
#692=CARTESIAN_POINT('',(-14.923044698,41.448558941,11.042857434));
#693=DIRECTION('',(-0.,0.,1.));
#694=VECTOR('',#693,2.528764445);
#695=LINE('',#692,#694);
#696=EDGE_CURVE('',#684,#647,#695,.T.);
#697=ORIENTED_EDGE('',*,*,#696,.T.);
#698=EDGE_LOOP('',(#656,#665,#673,#682,#691,#697));
#699=FACE_BOUND('',#698,.T.);
#700=ADVANCED_FACE('',(#699),#645,.F.);
#701=CARTESIAN_POINT('',(-14.411014298,41.443183237,10.008221135));
#702=DIRECTION('',(-0.,1.,-0.));
#703=DIRECTION('',(-1.,-0.,-0.));
#704=AXIS2_PLACEMENT_3D('',#701,#702,#703);
#705=CYLINDRICAL_SURFACE('',#704,3.6);
#706=CARTESIAN_POINT('',(-18.011014298,43.448558941,10.008221135));
#707=DIRECTION('',(0.,-1.,0.));
#708=VECTOR('',#707,2.);
#709=LINE('',#706,#708);
#710=EDGE_CURVE('',#467,#649,#709,.T.);
#711=ORIENTED_EDGE('',*,*,#710,.T.);
#712=ORIENTED_EDGE('',*,*,#655,.F.);
#713=CARTESIAN_POINT('',(-14.923044698,41.448558941,13.57162188));
#714=CARTESIAN_POINT('',(-14.835046854,41.448558941,13.584266422));
#715=CARTESIAN_POINT('',(-14.748234114,41.439316611,13.593419822));
#716=CARTESIAN_POINT('',(-14.662613768,41.420970682,13.599418387));
#717=CARTESIAN_POINT('',(-14.576993421,41.402624753,13.605416953));
#718=CARTESIAN_POINT('',(-14.492030007,41.37482486,13.608221135));
#719=CARTESIAN_POINT('',(-14.411014298,41.338200873,13.608221135));
#720=B_SPLINE_CURVE_WITH_KNOTS('',3,(#713,#714,#715,#716,#717,#718,#719),.UNSPECIFIED.,.F.,.F.,(4,3,4),(0.,0.000262923,0.000525846),.UNSPECIFIED.);
#721=EDGE_CURVE('',#647,#369,#720,.T.);
#722=ORIENTED_EDGE('',*,*,#721,.T.);
#723=ORIENTED_EDGE('',*,*,#374,.F.);
#724=ORIENTED_EDGE('',*,*,#480,.F.);
#725=EDGE_LOOP('',(#711,#712,#722,#723,#724));
#726=FACE_BOUND('',#725,.T.);
#727=ADVANCED_FACE('',(#726),#705,.T.);
#728=CARTESIAN_POINT('',(-14.411014298,25.897801194,10.008221135));
#729=DIRECTION('',(-0.,1.,-0.));
#730=DIRECTION('',(-1.,-0.,-0.));
#731=AXIS2_PLACEMENT_3D('',#728,#729,#730);
#732=CYLINDRICAL_SURFACE('',#731,1.154403484);
#733=CARTESIAN_POINT('',(-15.565417782,43.448558941,10.008221135));
#734=DIRECTION('',(0.,-1.,0.));
#735=VECTOR('',#734,2.);
#736=LINE('',#733,#735);
#737=EDGE_CURVE('',#507,#675,#736,.T.);
#738=ORIENTED_EDGE('',*,*,#737,.F.);
#739=ORIENTED_EDGE('',*,*,#515,.T.);
#740=ORIENTED_EDGE('',*,*,#522,.T.);
#741=ORIENTED_EDGE('',*,*,#737,.T.);
#742=ORIENTED_EDGE('',*,*,#681,.F.);
#743=CARTESIAN_POINT('',(-14.044098546,41.084487524,8.913680028));
#744=VERTEX_POINT('',#743);
#745=CARTESIAN_POINT('',(-14.923044698,41.448558941,8.973584835));
#746=CARTESIAN_POINT('',(-14.84777037,41.448558941,8.936332378));
#747=CARTESIAN_POINT('',(-14.770199077,41.441777219,8.908063314));
#748=CARTESIAN_POINT('',(-14.690704283,41.426651772,8.888211797));
#749=CARTESIAN_POINT('',(-14.611209489,41.411526324,8.86836028));
#750=CARTESIAN_POINT('',(-14.530979211,41.388016722,8.857500783));
#751=CARTESIAN_POINT('',(-14.45421173,41.356753049,8.854626151));
#752=CARTESIAN_POINT('',(-14.377444249,41.325489376,8.85175152));
#753=CARTESIAN_POINT('',(-14.302691402,41.285836616,8.856819328));
#754=CARTESIAN_POINT('',(-14.234137597,41.240190918,8.867448573));
#755=CARTESIAN_POINT('',(-14.165583791,41.194545219,8.878077819));
#756=CARTESIAN_POINT('',(-14.101789921,41.142178899,8.894340531));
#757=CARTESIAN_POINT('',(-14.044098546,41.084487524,8.913680028));
#758=B_SPLINE_CURVE_WITH_KNOTS('',3,(#745,#746,#747,#748,#749,#750,#751,#752,#753,#754,#755,#756,#757),.UNSPECIFIED.,.F.,.F.,(4,3,3,3,4),(0.,0.000248386,0.000496772,0.000745158,0.000993544),.UNSPECIFIED.);
#759=EDGE_CURVE('',#667,#744,#758,.T.);
#760=ORIENTED_EDGE('',*,*,#759,.T.);
#761=CARTESIAN_POINT('',(-14.044098546,41.084487524,11.102762242));
#762=VERTEX_POINT('',#761);
#763=CARTESIAN_POINT('',(-14.411014298,41.451403276,10.008221135));
#764=DIRECTION('',(-0.707106781,-0.707106781,0.));
#765=DIRECTION('',(-0.707106781,0.707106781,-0.));
#766=AXIS2_PLACEMENT_3D('',#763,#764,#765);
#767=ELLIPSE('',#766,1.632573063,1.154403484);
#768=EDGE_CURVE('',#744,#762,#767,.T.);
#769=ORIENTED_EDGE('',*,*,#768,.T.);
#770=CARTESIAN_POINT('',(-14.044098546,41.084487524,11.102762242));
#771=CARTESIAN_POINT('',(-14.101875614,41.142264592,11.122130465));
#772=CARTESIAN_POINT('',(-14.164893282,41.194030979,11.13822236));
#773=CARTESIAN_POINT('',(-14.233572251,41.239814267,11.148905896));
#774=CARTESIAN_POINT('',(-14.302251221,41.285597556,11.159589431));
#775=CARTESIAN_POINT('',(-14.377092951,41.325299801,11.16466404));
#776=CARTESIAN_POINT('',(-14.453613948,41.35650942,11.161838347));
#777=CARTESIAN_POINT('',(-14.530134946,41.38771904,11.159012654));
#778=CARTESIAN_POINT('',(-14.610654594,41.411390164,11.148186377));
#779=CARTESIAN_POINT('',(-14.690252822,41.426565786,11.128343115));
#780=CARTESIAN_POINT('',(-14.76985105,41.441741408,11.108499852));
#781=CARTESIAN_POINT('',(-14.84757714,41.448558941,11.080205519));
#782=CARTESIAN_POINT('',(-14.923044698,41.448558941,11.042857434));
#783=B_SPLINE_CURVE_WITH_KNOTS('',3,(#770,#771,#772,#773,#774,#775,#776,#777,#778,#779,#780,#781,#782),.UNSPECIFIED.,.F.,.F.,(4,3,3,3,4),(0.,0.000249077,0.000498155,0.000747232,0.00099631),.UNSPECIFIED.);
#784=EDGE_CURVE('',#762,#684,#783,.T.);
#785=ORIENTED_EDGE('',*,*,#784,.T.);
#786=ORIENTED_EDGE('',*,*,#690,.F.);
#787=EDGE_LOOP('',(#738,#739,#740,#741,#742,#760,#769,#785,#786));
#788=FACE_BOUND('',#787,.T.);
#789=ADVANCED_FACE('',(#788),#732,.F.);
#790=CARTESIAN_POINT('',(-9.098613491,41.448558941,12.139699713));
#791=DIRECTION('',(0.,1.,-0.));
#792=DIRECTION('',(0.,-0.,-1.));
#793=AXIS2_PLACEMENT_3D('',#790,#791,#792);
#794=PLANE('',#793);
#795=CARTESIAN_POINT('',(18.173736489,41.448558941,10.008221135));
#796=VERTEX_POINT('',#795);
#797=CARTESIAN_POINT('',(15.085792303,41.448558941,6.444824041));
#798=VERTEX_POINT('',#797);
#799=CARTESIAN_POINT('',(14.573736489,41.448558941,10.008221135));
#800=DIRECTION('',(0.,1.,-0.));
#801=DIRECTION('',(1.,-0.,-0.));
#802=AXIS2_PLACEMENT_3D('',#799,#800,#801);
#803=CIRCLE('',#802,3.6);
#804=EDGE_CURVE('',#796,#798,#803,.T.);
#805=ORIENTED_EDGE('',*,*,#804,.F.);
#806=CARTESIAN_POINT('',(15.085792303,41.448558941,13.571618228));
#807=VERTEX_POINT('',#806);
#808=CARTESIAN_POINT('',(14.573736489,41.448558941,10.008221135));
#809=DIRECTION('',(0.,1.,-0.));
#810=DIRECTION('',(1.,-0.,-0.));
#811=AXIS2_PLACEMENT_3D('',#808,#809,#810);
#812=CIRCLE('',#811,3.6);
#813=EDGE_CURVE('',#807,#796,#812,.T.);
#814=ORIENTED_EDGE('',*,*,#813,.F.);
#815=CARTESIAN_POINT('',(15.085792303,41.448558941,11.042844857));
#816=VERTEX_POINT('',#815);
#817=CARTESIAN_POINT('',(15.085792303,41.448558941,13.571618228));
#818=DIRECTION('',(0.,-0.,-1.));
#819=VECTOR('',#818,2.528773371);
#820=LINE('',#817,#819);
#821=EDGE_CURVE('',#807,#816,#820,.T.);
#822=ORIENTED_EDGE('',*,*,#821,.T.);
#823=CARTESIAN_POINT('',(15.728139973,41.448558941,10.008221135));
#824=VERTEX_POINT('',#823);
#825=CARTESIAN_POINT('',(14.573736489,41.448558941,10.008221135));
#826=DIRECTION('',(-0.,-1.,0.));
#827=DIRECTION('',(-0.,-0.,-1.));
#828=AXIS2_PLACEMENT_3D('',#825,#826,#827);
#829=CIRCLE('',#828,1.154403484);
#830=EDGE_CURVE('',#824,#816,#829,.T.);
#831=ORIENTED_EDGE('',*,*,#830,.F.);
#832=CARTESIAN_POINT('',(15.085792303,41.448558941,8.973597412));
#833=VERTEX_POINT('',#832);
#834=CARTESIAN_POINT('',(14.573736489,41.448558941,10.008221135));
#835=DIRECTION('',(-0.,-1.,0.));
#836=DIRECTION('',(-0.,-0.,-1.));
#837=AXIS2_PLACEMENT_3D('',#834,#835,#836);
#838=CIRCLE('',#837,1.154403484);
#839=EDGE_CURVE('',#833,#824,#838,.T.);
#840=ORIENTED_EDGE('',*,*,#839,.F.);
#841=CARTESIAN_POINT('',(15.085792303,41.448558941,8.973597412));
#842=DIRECTION('',(0.,-0.,-1.));
#843=VECTOR('',#842,2.528773371);
#844=LINE('',#841,#843);
#845=EDGE_CURVE('',#833,#798,#844,.T.);
#846=ORIENTED_EDGE('',*,*,#845,.T.);
#847=EDGE_LOOP('',(#805,#814,#822,#831,#840,#846));
#848=FACE_BOUND('',#847,.T.);
#849=ADVANCED_FACE('',(#848),#794,.F.);
#850=CARTESIAN_POINT('',(14.573736489,41.443183237,10.008221135));
#851=DIRECTION('',(0.,1.,-0.));
#852=DIRECTION('',(1.,-0.,-0.));
#853=AXIS2_PLACEMENT_3D('',#850,#851,#852);
#854=CYLINDRICAL_SURFACE('',#853,3.6);
#855=CARTESIAN_POINT('',(18.173736489,43.448558941,10.008221135));
#856=DIRECTION('',(-0.,-1.,0.));
#857=VECTOR('',#856,2.);
#858=LINE('',#855,#857);
#859=EDGE_CURVE('',#450,#796,#858,.T.);
#860=ORIENTED_EDGE('',*,*,#859,.T.);
#861=ORIENTED_EDGE('',*,*,#804,.T.);
#862=CARTESIAN_POINT('',(15.085792303,41.448558941,6.444824041));
#863=CARTESIAN_POINT('',(14.997790433,41.448558941,6.43217828));
#864=CARTESIAN_POINT('',(14.910973749,41.439315775,6.423023995));
#865=CARTESIAN_POINT('',(14.82534955,41.420968149,6.417024834));
#866=CARTESIAN_POINT('',(14.73972535,41.402620523,6.411025673));
#867=CARTESIAN_POINT('',(14.654758241,41.374818036,6.408221202));
#868=CARTESIAN_POINT('',(14.573739467,41.338190731,6.408221135));
#869=B_SPLINE_CURVE_WITH_KNOTS('',3,(#862,#863,#864,#865,#866,#867,#868),.UNSPECIFIED.,.F.,.F.,(4,3,4),(0.,0.000262935,0.000525871),.UNSPECIFIED.);
#870=EDGE_CURVE('',#798,#246,#869,.T.);
#871=ORIENTED_EDGE('',*,*,#870,.T.);
#872=ORIENTED_EDGE('',*,*,#251,.F.);
#873=ORIENTED_EDGE('',*,*,#243,.T.);
#874=ORIENTED_EDGE('',*,*,#463,.T.);
#875=EDGE_LOOP('',(#860,#861,#871,#872,#873,#874));
#876=FACE_BOUND('',#875,.T.);
#877=ADVANCED_FACE('',(#876),#854,.T.);
#878=CARTESIAN_POINT('',(14.573736489,25.897801194,10.008221135));
#879=DIRECTION('',(0.,1.,-0.));
#880=DIRECTION('',(1.,-0.,-0.));
#881=AXIS2_PLACEMENT_3D('',#878,#879,#880);
#882=CYLINDRICAL_SURFACE('',#881,1.154403484);
#883=CARTESIAN_POINT('',(15.728139973,43.448558941,10.008221135));
#884=DIRECTION('',(-0.,-1.,0.));
#885=VECTOR('',#884,2.);
#886=LINE('',#883,#885);
#887=EDGE_CURVE('',#529,#824,#886,.T.);
#888=ORIENTED_EDGE('',*,*,#887,.F.);
#889=ORIENTED_EDGE('',*,*,#535,.F.);
#890=ORIENTED_EDGE('',*,*,#542,.F.);
#891=ORIENTED_EDGE('',*,*,#887,.T.);
#892=ORIENTED_EDGE('',*,*,#830,.T.);
#893=CARTESIAN_POINT('',(14.206846151,41.084487524,11.102770761));
#894=VERTEX_POINT('',#893);
#895=CARTESIAN_POINT('',(15.085792303,41.448558941,11.042844857));
#896=CARTESIAN_POINT('',(15.010518759,41.448558941,11.080099228));
#897=CARTESIAN_POINT('',(14.932947998,41.441777361,11.108370242));
#898=CARTESIAN_POINT('',(14.853453501,41.426652079,11.128223722));
#899=CARTESIAN_POINT('',(14.773959005,41.411526797,11.148077203));
#900=CARTESIAN_POINT('',(14.693728784,41.38801738,11.158938644));
#901=CARTESIAN_POINT('',(14.616961179,41.3567538,11.161815097));
#902=CARTESIAN_POINT('',(14.540193574,41.32549022,11.16469155));
#903=CARTESIAN_POINT('',(14.465440423,41.285837457,11.159625471));
#904=CARTESIAN_POINT('',(14.39688628,41.240191636,11.148997803));
#905=CARTESIAN_POINT('',(14.328332136,41.194545815,11.138370136));
#906=CARTESIAN_POINT('',(14.264537869,41.142179243,11.122108883));
#907=CARTESIAN_POINT('',(14.206846151,41.084487524,11.102770761));
#908=B_SPLINE_CURVE_WITH_KNOTS('',3,(#895,#896,#897,#898,#899,#900,#901,#902,#903,#904,#905,#906,#907),.UNSPECIFIED.,.F.,.F.,(4,3,3,3,4),(0.,0.000248386,0.000496773,0.000745159,0.000993546),.UNSPECIFIED.);
#909=EDGE_CURVE('',#816,#894,#908,.T.);
#910=ORIENTED_EDGE('',*,*,#909,.T.);
#911=CARTESIAN_POINT('',(14.206846151,41.084487524,8.913671509));
#912=VERTEX_POINT('',#911);
#913=CARTESIAN_POINT('',(14.573736489,41.451377863,10.008221135));
#914=DIRECTION('',(0.707106781,-0.707106781,0.));
#915=DIRECTION('',(0.707106781,0.707106781,-0.));
#916=AXIS2_PLACEMENT_3D('',#913,#914,#915);
#917=ELLIPSE('',#916,1.632573063,1.154403484);
#918=EDGE_CURVE('',#894,#912,#917,.T.);
#919=ORIENTED_EDGE('',*,*,#918,.T.);
#920=CARTESIAN_POINT('',(14.206846151,41.084487524,8.913671509));
#921=CARTESIAN_POINT('',(14.264623568,41.142264942,8.894304661));
#922=CARTESIAN_POINT('',(14.327641612,41.194031567,8.878214209));
#923=CARTESIAN_POINT('',(14.396320943,41.239814992,8.867532252));
#924=CARTESIAN_POINT('',(14.465000275,41.285598417,8.856850294));
#925=CARTESIAN_POINT('',(14.539842287,41.325300653,8.851777419));
#926=CARTESIAN_POINT('',(14.616363427,41.356510185,8.85460493));
#927=CARTESIAN_POINT('',(14.692884566,41.387719717,8.857432441));
#928=CARTESIAN_POINT('',(14.773404306,41.411390682,8.868260705));
#929=CARTESIAN_POINT('',(14.853002158,41.426566116,8.888105922));
#930=CARTESIAN_POINT('',(14.93260001,41.44174155,8.907951139));
#931=CARTESIAN_POINT('',(15.010325532,41.448558941,8.93624741));
#932=CARTESIAN_POINT('',(15.085792303,41.448558941,8.973597412));
#933=B_SPLINE_CURVE_WITH_KNOTS('',3,(#920,#921,#922,#923,#924,#925,#926,#927,#928,#929,#930,#931,#932),.UNSPECIFIED.,.F.,.F.,(4,3,3,3,4),(0.,0.000249078,0.000498156,0.000747234,0.000996311),.UNSPECIFIED.);
#934=EDGE_CURVE('',#912,#833,#933,.T.);
#935=ORIENTED_EDGE('',*,*,#934,.T.);
#936=ORIENTED_EDGE('',*,*,#839,.T.);
#937=EDGE_LOOP('',(#888,#889,#890,#891,#892,#910,#919,#935,#936));
#938=FACE_BOUND('',#937,.T.);
#939=ADVANCED_FACE('',(#938),#882,.F.);
#940=CARTESIAN_POINT('',(-14.408169963,41.448558941,12.139699713));
#941=DIRECTION('',(0.707106781,0.707106781,-0.));
#942=DIRECTION('',(0.,0.,1.));
#943=AXIS2_PLACEMENT_3D('',#940,#941,#942);
#944=PLANE('',#943);
#945=ORIENTED_EDGE('',*,*,#768,.F.);
#946=CARTESIAN_POINT('',(-14.044098546,41.084487524,8.913680028));
#947=DIRECTION('',(0.,-0.,-1.));
#948=VECTOR('',#947,2.505458893);
#949=LINE('',#946,#948);
#950=EDGE_CURVE('',#744,#197,#949,.T.);
#951=ORIENTED_EDGE('',*,*,#950,.T.);
#952=ORIENTED_EDGE('',*,*,#202,.F.);
#953=CARTESIAN_POINT('',(-11.462684908,38.503073886,6.408221135));
#954=DIRECTION('',(-0.,0.,1.));
#955=VECTOR('',#954,7.2);
#956=LINE('',#953,#955);
#957=EDGE_CURVE('',#188,#386,#956,.T.);
#958=ORIENTED_EDGE('',*,*,#957,.T.);
#959=ORIENTED_EDGE('',*,*,#391,.F.);
#960=CARTESIAN_POINT('',(-14.044098546,41.084487524,13.608221135));
#961=DIRECTION('',(0.,-0.,-1.));
#962=VECTOR('',#961,2.505458893);
#963=LINE('',#960,#962);
#964=EDGE_CURVE('',#377,#762,#963,.T.);
#965=ORIENTED_EDGE('',*,*,#964,.T.);
#966=EDGE_LOOP('',(#945,#951,#952,#958,#959,#965));
#967=FACE_BOUND('',#966,.T.);
#968=ADVANCED_FACE('',(#967),#944,.F.);
#969=CARTESIAN_POINT('',(11.261361095,38.139002469,7.408221135));
#970=DIRECTION('',(-0.707106781,0.707106781,-0.));
#971=DIRECTION('',(0.,0.,1.));
#972=AXIS2_PLACEMENT_3D('',#969,#970,#971);
#973=PLANE('',#972);
#974=ORIENTED_EDGE('',*,*,#918,.F.);
#975=CARTESIAN_POINT('',(14.206846151,41.084487524,11.102770761));
#976=DIRECTION('',(-0.,0.,1.));
#977=VECTOR('',#976,2.505450374);
#978=LINE('',#975,#977);
#979=EDGE_CURVE('',#894,#313,#978,.T.);
#980=ORIENTED_EDGE('',*,*,#979,.T.);
#981=ORIENTED_EDGE('',*,*,#318,.F.);
#982=CARTESIAN_POINT('',(11.625432512,38.503073886,13.608221135));
#983=DIRECTION('',(0.,-0.,-1.));
#984=VECTOR('',#983,7.2);
#985=LINE('',#982,#984);
#986=EDGE_CURVE('',#304,#263,#985,.T.);
#987=ORIENTED_EDGE('',*,*,#986,.T.);
#988=ORIENTED_EDGE('',*,*,#268,.F.);
#989=CARTESIAN_POINT('',(14.206846151,41.084487524,6.408221135));
#990=DIRECTION('',(-0.,0.,1.));
#991=VECTOR('',#990,2.505450374);
#992=LINE('',#989,#991);
#993=EDGE_CURVE('',#254,#912,#992,.T.);
#994=ORIENTED_EDGE('',*,*,#993,.T.);
#995=EDGE_LOOP('',(#974,#980,#981,#987,#988,#994));
#996=FACE_BOUND('',#995,.T.);
#997=ADVANCED_FACE('',(#996),#973,.F.);
#998=CARTESIAN_POINT('',(15.085792303,40.205541373,12.139699713));
#999=DIRECTION('',(-0.,0.,1.));
#1000=DIRECTION('',(0.,1.,-0.));
#1001=AXIS2_PLACEMENT_3D('',#998,#999,#1000);
#1002=CYLINDRICAL_SURFACE('',#1001,1.243017569);
#1003=ORIENTED_EDGE('',*,*,#327,.F.);
#1004=ORIENTED_EDGE('',*,*,#979,.F.);
#1005=ORIENTED_EDGE('',*,*,#909,.F.);
#1006=ORIENTED_EDGE('',*,*,#821,.F.);
#1007=CARTESIAN_POINT('',(14.573736489,41.338189385,13.608221135));
#1008=CARTESIAN_POINT('',(14.654748784,41.374814017,13.608221135));
#1009=CARTESIAN_POINT('',(14.738123919,41.402156641,13.605489559));
#1010=CARTESIAN_POINT('',(14.823726738,41.420619278,13.599530767));
#1011=CARTESIAN_POINT('',(14.909329556,41.439081914,13.593571975));
#1012=CARTESIAN_POINT('',(14.997782367,41.448558941,13.584265148));
#1013=CARTESIAN_POINT('',(15.085792303,41.448558941,13.571618228));
#1014=B_SPLINE_CURVE_WITH_KNOTS('',3,(#1007,#1008,#1009,#1010,#1011,#1012,#1013),.UNSPECIFIED.,.F.,.F.,(4,3,4),(0.,0.000262937,0.000525874),.UNSPECIFIED.);
#1015=EDGE_CURVE('',#321,#807,#1014,.T.);
#1016=ORIENTED_EDGE('',*,*,#1015,.F.);
#1017=EDGE_LOOP('',(#1003,#1004,#1005,#1006,#1016));
#1018=FACE_BOUND('',#1017,.T.);
#1019=ADVANCED_FACE('',(#1018),#1002,.F.);
#1020=CARTESIAN_POINT('',(-14.923044698,40.205541373,12.139699713));
#1021=DIRECTION('',(0.,-0.,-1.));
#1022=DIRECTION('',(-0.,-1.,0.));
#1023=AXIS2_PLACEMENT_3D('',#1020,#1021,#1022);
#1024=CYLINDRICAL_SURFACE('',#1023,1.243017569);
#1025=ORIENTED_EDGE('',*,*,#211,.F.);
#1026=ORIENTED_EDGE('',*,*,#950,.F.);
#1027=ORIENTED_EDGE('',*,*,#759,.F.);
#1028=ORIENTED_EDGE('',*,*,#672,.F.);
#1029=CARTESIAN_POINT('',(-14.411017264,41.338202214,6.408221135));
#1030=CARTESIAN_POINT('',(-14.492025695,41.374822655,6.408221201));
#1031=CARTESIAN_POINT('',(-14.575396452,41.40216211,6.410952586));
#1032=CARTESIAN_POINT('',(-14.660994404,41.420622571,6.416910796));
#1033=CARTESIAN_POINT('',(-14.746592356,41.439083032,6.422869006));
#1034=CARTESIAN_POINT('',(-14.835039869,41.448558941,6.432174844));
#1035=CARTESIAN_POINT('',(-14.923044698,41.448558941,6.44482039));
#1036=B_SPLINE_CURVE_WITH_KNOTS('',3,(#1029,#1030,#1031,#1032,#1033,#1034,#1035),.UNSPECIFIED.,.F.,.F.,(4,3,4),(0.,0.000262922,0.000525843),.UNSPECIFIED.);
#1037=EDGE_CURVE('',#205,#658,#1036,.T.);
#1038=ORIENTED_EDGE('',*,*,#1037,.F.);
#1039=EDGE_LOOP('',(#1025,#1026,#1027,#1028,#1038));
#1040=FACE_BOUND('',#1039,.T.);
#1041=ADVANCED_FACE('',(#1040),#1024,.F.);
#1042=CARTESIAN_POINT('',(12.504378664,37.624127734,7.408221135));
#1043=DIRECTION('',(-0.,0.,1.));
#1044=DIRECTION('',(0.,1.,-0.));
#1045=AXIS2_PLACEMENT_3D('',#1042,#1043,#1044);
#1046=CYLINDRICAL_SURFACE('',#1045,1.243017569);
#1047=ORIENTED_EDGE('',*,*,#275,.F.);
#1048=ORIENTED_EDGE('',*,*,#986,.F.);
#1049=ORIENTED_EDGE('',*,*,#310,.F.);
#1050=ORIENTED_EDGE('',*,*,#437,.F.);
#1051=EDGE_LOOP('',(#1047,#1048,#1049,#1050));
#1052=FACE_BOUND('',#1051,.T.);
#1053=ADVANCED_FACE('',(#1052),#1046,.F.);
#1054=CARTESIAN_POINT('',(-14.923044698,40.205541373,12.139699713));
#1055=DIRECTION('',(0.,-0.,-1.));
#1056=DIRECTION('',(-0.,-1.,0.));
#1057=AXIS2_PLACEMENT_3D('',#1054,#1055,#1056);
#1058=CYLINDRICAL_SURFACE('',#1057,1.243017569);
#1059=ORIENTED_EDGE('',*,*,#784,.F.);
#1060=ORIENTED_EDGE('',*,*,#964,.F.);
#1061=ORIENTED_EDGE('',*,*,#383,.F.);
#1062=ORIENTED_EDGE('',*,*,#721,.F.);
#1063=ORIENTED_EDGE('',*,*,#696,.F.);
#1064=EDGE_LOOP('',(#1059,#1060,#1061,#1062,#1063));
#1065=FACE_BOUND('',#1064,.T.);
#1066=ADVANCED_FACE('',(#1065),#1058,.F.);
#1067=CARTESIAN_POINT('',(15.085792303,40.205541373,12.139699713));
#1068=DIRECTION('',(-0.,0.,1.));
#1069=DIRECTION('',(0.,1.,-0.));
#1070=AXIS2_PLACEMENT_3D('',#1067,#1068,#1069);
#1071=CYLINDRICAL_SURFACE('',#1070,1.243017569);
#1072=ORIENTED_EDGE('',*,*,#934,.F.);
#1073=ORIENTED_EDGE('',*,*,#993,.F.);
#1074=ORIENTED_EDGE('',*,*,#260,.F.);
#1075=ORIENTED_EDGE('',*,*,#870,.F.);
#1076=ORIENTED_EDGE('',*,*,#845,.F.);
#1077=EDGE_LOOP('',(#1072,#1073,#1074,#1075,#1076));
#1078=FACE_BOUND('',#1077,.T.);
#1079=ADVANCED_FACE('',(#1078),#1071,.F.);
#1080=CARTESIAN_POINT('',(-12.34163106,37.624127734,7.408221135));
#1081=DIRECTION('',(0.,-0.,-1.));
#1082=DIRECTION('',(-0.,-1.,0.));
#1083=AXIS2_PLACEMENT_3D('',#1080,#1081,#1082);
#1084=CYLINDRICAL_SURFACE('',#1083,1.243017569);
#1085=ORIENTED_EDGE('',*,*,#400,.F.);
#1086=ORIENTED_EDGE('',*,*,#957,.F.);
#1087=ORIENTED_EDGE('',*,*,#194,.F.);
#1088=ORIENTED_EDGE('',*,*,#564,.F.);
#1089=EDGE_LOOP('',(#1085,#1086,#1087,#1088));
#1090=FACE_BOUND('',#1089,.T.);
#1091=ADVANCED_FACE('',(#1090),#1084,.F.);
#1092=CARTESIAN_POINT('',(9.261361095,20.421325584,7.408221135));
#1093=DIRECTION('',(0.,0.,1.));
#1094=DIRECTION('',(-1.,0.,-0.));
#1095=AXIS2_PLACEMENT_3D('',#1092,#1093,#1094);
#1096=CYLINDRICAL_SURFACE('',#1095,2.);
#1097=ORIENTED_EDGE('',*,*,#167,.F.);
#1098=ORIENTED_EDGE('',*,*,#430,.F.);
#1099=ORIENTED_EDGE('',*,*,#293,.F.);
#1100=ORIENTED_EDGE('',*,*,#128,.F.);
#1101=EDGE_LOOP('',(#1097,#1098,#1099,#1100));
#1102=FACE_BOUND('',#1101,.T.);
#1103=ADVANCED_FACE('',(#1102),#1096,.T.);
#1104=CARTESIAN_POINT('',(-9.098613491,20.421325584,7.408221135));
#1105=DIRECTION('',(-0.,-0.,-1.));
#1106=DIRECTION('',(1.,-0.,0.));
#1107=AXIS2_PLACEMENT_3D('',#1104,#1105,#1106);
#1108=CYLINDRICAL_SURFACE('',#1107,2.);
#1109=ORIENTED_EDGE('',*,*,#415,.F.);
#1110=ORIENTED_EDGE('',*,*,#557,.F.);
#1111=ORIENTED_EDGE('',*,*,#177,.F.);
#1112=ORIENTED_EDGE('',*,*,#142,.F.);
#1113=EDGE_LOOP('',(#1109,#1110,#1111,#1112));
#1114=FACE_BOUND('',#1113,.T.);
#1115=ADVANCED_FACE('',(#1114),#1108,.T.);
#1116=CARTESIAN_POINT('',(-14.411014298,41.443183237,10.008221135));
#1117=DIRECTION('',(-0.,1.,-0.));
#1118=DIRECTION('',(-1.,-0.,-0.));
#1119=AXIS2_PLACEMENT_3D('',#1116,#1117,#1118);
#1120=CYLINDRICAL_SURFACE('',#1119,3.6);
#1121=ORIENTED_EDGE('',*,*,#710,.F.);
#1122=ORIENTED_EDGE('',*,*,#473,.F.);
#1123=ORIENTED_EDGE('',*,*,#227,.F.);
#1124=ORIENTED_EDGE('',*,*,#219,.T.);
#1125=ORIENTED_EDGE('',*,*,#1037,.T.);
#1126=ORIENTED_EDGE('',*,*,#664,.F.);
#1127=EDGE_LOOP('',(#1121,#1122,#1123,#1124,#1125,#1126));
#1128=FACE_BOUND('',#1127,.T.);
#1129=ADVANCED_FACE('',(#1128),#1120,.T.);
#1130=CARTESIAN_POINT('',(14.573736489,41.443183237,10.008221135));
#1131=DIRECTION('',(0.,1.,-0.));
#1132=DIRECTION('',(1.,-0.,-0.));
#1133=AXIS2_PLACEMENT_3D('',#1130,#1131,#1132);
#1134=CYLINDRICAL_SURFACE('',#1133,3.6);
#1135=ORIENTED_EDGE('',*,*,#859,.F.);
#1136=ORIENTED_EDGE('',*,*,#456,.T.);
#1137=ORIENTED_EDGE('',*,*,#335,.T.);
#1138=ORIENTED_EDGE('',*,*,#1015,.T.);
#1139=ORIENTED_EDGE('',*,*,#813,.T.);
#1140=EDGE_LOOP('',(#1135,#1136,#1137,#1138,#1139));
#1141=FACE_BOUND('',#1140,.T.);
#1142=ADVANCED_FACE('',(#1141),#1134,.T.);
#1143=CLOSED_SHELL('',(#66,#106,#146,#279,#419,#441,#546,#568,#599,#616,#628,#640,#700,#727,#789,#849,#877,#939,#968,#997,#1019,#1041,#1053,#1066,#1079,#1091,
#1103,#1115,#1129,#1142));
#1144=MANIFOLD_SOLID_BREP('CHUNK_ESP_CASE_BOX',#1143);
#26=STYLED_ITEM('',(),#1144);
#16=SHAPE_REPRESENTATION('root',(#15),#10);
#17=ADVANCED_BREP_SHAPE_REPRESENTATION('root',(#1144),#10);
#1152=SHAPE_REPRESENTATION_RELATIONSHIP('','',#16,#17);
#1153=APPLICATION_CONTEXT('configuration controlled 3D design of mechanical parts and assemblies');
#1154=APPLICATION_PROTOCOL_DEFINITION('international standard','configuration_control_3d_design_ed2_mim',2004,#1153);
#1155=PRODUCT_CONTEXT('',#1153,'mechanical');
#1156=PRODUCT_DEFINITION_CONTEXT('part definition',#1153,'design');
#24=PRODUCT('root','root','',(#1155));
#1157=PRODUCT_RELATED_PRODUCT_CATEGORY('part','',(#24));
#1158=PRODUCT_DEFINITION_FORMATION_WITH_SPECIFIED_SOURCE('','',#24,.NOT_KNOWN.);
#25=PRODUCT_DEFINITION('design','',#1158,#1156);
#23=PRODUCT_DEFINITION_SHAPE('','',#25);
#1159=SHAPE_DEFINITION_REPRESENTATION(#23,#16);
#11=DRAUGHTING_MODEL('',(),#10);
#1=MECHANICAL_DESIGN_GEOMETRIC_PRESENTATION_REPRESENTATION('',(#26),#10);
ENDSEC;
END-ISO-10303-21;
